G04*
G04 #@! TF.GenerationSoftware,Altium Limited,Altium Designer,26.3.0 (6)*
G04*
G04 Layer_Physical_Order=1*
G04 Layer_Color=255*
%FSLAX44Y44*%
%MOMM*%
G71*
G04*
G04 #@! TF.SameCoordinates,6D605524-E43E-4BB1-BD99-AA3E501A16AE*
G04*
G04*
G04 #@! TF.FilePolarity,Positive*
G04*
G01*
G75*
%ADD17R,1.0000X0.9000*%
%ADD18R,1.7200X3.2000*%
%ADD19R,0.9700X1.4700*%
%ADD20R,0.8000X0.9000*%
%ADD21R,0.8000X0.9000*%
G04:AMPARAMS|DCode=22|XSize=1.1mm|YSize=0.6mm|CornerRadius=0.051mm|HoleSize=0mm|Usage=FLASHONLY|Rotation=270.000|XOffset=0mm|YOffset=0mm|HoleType=Round|Shape=RoundedRectangle|*
%AMROUNDEDRECTD22*
21,1,1.1000,0.4980,0,0,270.0*
21,1,0.9980,0.6000,0,0,270.0*
1,1,0.1020,-0.2490,-0.4990*
1,1,0.1020,-0.2490,0.4990*
1,1,0.1020,0.2490,0.4990*
1,1,0.1020,0.2490,-0.4990*
%
%ADD22ROUNDEDRECTD22*%
G04:AMPARAMS|DCode=23|XSize=0.38mm|YSize=0.35mm|CornerRadius=0.0158mm|HoleSize=0mm|Usage=FLASHONLY|Rotation=0.000|XOffset=0mm|YOffset=0mm|HoleType=Round|Shape=RoundedRectangle|*
%AMROUNDEDRECTD23*
21,1,0.3800,0.3185,0,0,0.0*
21,1,0.3485,0.3500,0,0,0.0*
1,1,0.0315,0.1743,-0.1593*
1,1,0.0315,-0.1743,-0.1593*
1,1,0.0315,-0.1743,0.1593*
1,1,0.0315,0.1743,0.1593*
%
%ADD23ROUNDEDRECTD23*%
%ADD24R,0.9000X0.8000*%
%ADD25R,0.8000X0.5000*%
%ADD26R,2.0320X1.3462*%
%ADD27R,0.9000X1.0000*%
%ADD28R,0.9531X0.8121*%
%ADD29R,0.7500X0.6000*%
%ADD30R,1.0500X1.3500*%
%ADD31R,3.4290X2.4130*%
%ADD32R,1.0121X1.1581*%
%ADD33R,0.6500X0.3000*%
%ADD34R,0.8621X0.6637*%
%ADD35R,0.9000X0.9500*%
%ADD36R,2.2600X2.1600*%
%ADD37R,0.9500X0.9000*%
%ADD38R,0.7000X0.7000*%
%ADD39R,1.0000X1.0000*%
G04:AMPARAMS|DCode=40|XSize=1.1mm|YSize=0.6mm|CornerRadius=0.051mm|HoleSize=0mm|Usage=FLASHONLY|Rotation=180.000|XOffset=0mm|YOffset=0mm|HoleType=Round|Shape=RoundedRectangle|*
%AMROUNDEDRECTD40*
21,1,1.1000,0.4980,0,0,180.0*
21,1,0.9980,0.6000,0,0,180.0*
1,1,0.1020,-0.4990,0.2490*
1,1,0.1020,0.4990,0.2490*
1,1,0.1020,0.4990,-0.2490*
1,1,0.1020,-0.4990,-0.2490*
%
%ADD40ROUNDEDRECTD40*%
%ADD45R,0.3750X0.3500*%
%ADD46R,0.3500X0.3750*%
%ADD59C,0.2032*%
%ADD60C,0.2540*%
%ADD61C,0.3810*%
%ADD62C,0.7620*%
%ADD63C,0.5080*%
%ADD64C,2.1000*%
%ADD65R,2.1000X2.1000*%
%ADD66C,1.8000*%
%ADD67C,1.2500*%
%ADD68C,0.6000*%
%ADD69C,0.6604*%
G36*
X850900Y0D02*
X0D01*
Y279400D01*
X850900D01*
Y0D01*
D02*
G37*
%LPC*%
G36*
X837839Y272542D02*
X836021D01*
X834340Y271846D01*
X833867Y271372D01*
X833630Y271283D01*
X833462Y271124D01*
X833330Y271020D01*
X833193Y270929D01*
X833048Y270850D01*
X832894Y270782D01*
X832727Y270725D01*
X832546Y270679D01*
X832349Y270644D01*
X832134Y270623D01*
X831857Y270614D01*
X831737Y270560D01*
X820850D01*
X819859Y270363D01*
X819019Y269801D01*
X817365Y268148D01*
X816910Y268111D01*
X815877Y268250D01*
X815758Y268428D01*
X814568Y269618D01*
X813812Y270123D01*
X812920Y270301D01*
X806678D01*
X806553Y270359D01*
X806317Y270370D01*
X806146Y270392D01*
X805977Y270430D01*
X805809Y270484D01*
X805637Y270556D01*
X805462Y270647D01*
X805282Y270760D01*
X805096Y270896D01*
X804905Y271057D01*
X804680Y271273D01*
X804438Y271367D01*
X803960Y271846D01*
X802279Y272542D01*
X800461D01*
X798780Y271846D01*
X797494Y270560D01*
X796798Y268879D01*
Y267061D01*
X797494Y265380D01*
X798780Y264094D01*
X800461Y263398D01*
X802279D01*
X803960Y264094D01*
X804438Y264573D01*
X804680Y264667D01*
X804905Y264883D01*
X805096Y265044D01*
X805282Y265180D01*
X805462Y265293D01*
X805637Y265384D01*
X805809Y265456D01*
X805977Y265510D01*
X806146Y265548D01*
X806317Y265570D01*
X806553Y265581D01*
X806678Y265639D01*
X811779D01*
Y264310D01*
X811720Y264176D01*
X811712Y263883D01*
X811695Y263662D01*
X811668Y263485D01*
X811638Y263354D01*
X811610Y263270D01*
X811601Y263251D01*
X811578Y263233D01*
X811560Y263201D01*
X811537Y263174D01*
X811275Y263065D01*
X811105Y262656D01*
X810958Y262479D01*
X810230Y262227D01*
Y257730D01*
X808960D01*
Y256460D01*
X804467D01*
Y256138D01*
X803910Y255061D01*
X803501Y254979D01*
X803018Y254883D01*
X802262Y254378D01*
X799722Y251838D01*
X799217Y251082D01*
X799039Y250190D01*
Y239885D01*
X796595Y237441D01*
X776901D01*
X776768Y237500D01*
X776424Y237509D01*
X776174Y237531D01*
X776000Y237560D01*
Y238880D01*
X776000D01*
X776193Y240070D01*
X777270D01*
Y243840D01*
X775208D01*
X775025Y243728D01*
X774882Y243596D01*
X774781Y243444D01*
X774720Y243271D01*
X774699Y243078D01*
Y243840D01*
X770730D01*
Y246380D01*
X774699D01*
Y247142D01*
X774720Y246949D01*
X774781Y246776D01*
X774882Y246624D01*
X775025Y246492D01*
X775208Y246380D01*
X777270D01*
Y250150D01*
X776193D01*
X776000Y251340D01*
X776000D01*
Y258880D01*
X766835D01*
X766432Y259852D01*
X765460Y260255D01*
X756000D01*
X755028Y259852D01*
X754625Y258880D01*
X745460D01*
Y251340D01*
X754625D01*
Y248880D01*
X747032D01*
X746913Y248946D01*
X746835Y248923D01*
X746760Y248954D01*
X746581Y248880D01*
X745460D01*
Y247896D01*
X745427Y247884D01*
X745239Y247836D01*
X744971Y247794D01*
X744629Y247765D01*
X744186Y247754D01*
X744064Y247700D01*
X742320D01*
Y250310D01*
X742123Y251301D01*
X741561Y252141D01*
X734593Y259109D01*
X733753Y259671D01*
X733046Y259811D01*
X732795Y259922D01*
X732387Y259932D01*
X732075Y259957D01*
X731833Y259995D01*
X731710Y260025D01*
Y263580D01*
X731710Y263580D01*
X731710D01*
X731773Y264824D01*
X732012Y265401D01*
Y267219D01*
X731316Y268900D01*
X730030Y270186D01*
X728349Y270882D01*
X726531D01*
X724850Y270186D01*
X723564Y268900D01*
X722868Y267219D01*
Y265401D01*
X723096Y264850D01*
X722247Y263580D01*
X721170D01*
Y252040D01*
X731710D01*
Y252871D01*
X732980Y253398D01*
X737140Y249237D01*
Y246598D01*
X737337Y245607D01*
X737899Y244767D01*
X739387Y243279D01*
X740227Y242717D01*
X741218Y242520D01*
X744064D01*
X744186Y242466D01*
X744629Y242455D01*
X744971Y242426D01*
X745239Y242384D01*
X745428Y242336D01*
X745460Y242324D01*
Y241340D01*
X746581D01*
X746760Y241266D01*
X746835Y241297D01*
X746913Y241274D01*
X747032Y241340D01*
X754625D01*
Y238880D01*
X745460D01*
Y237560D01*
X745286Y237531D01*
X745036Y237509D01*
X744692Y237500D01*
X744559Y237441D01*
X741039D01*
X740913Y237499D01*
X740677Y237510D01*
X740506Y237532D01*
X740338Y237570D01*
X740169Y237624D01*
X739997Y237696D01*
X739822Y237787D01*
X739642Y237900D01*
X739456Y238036D01*
X739265Y238197D01*
X739041Y238413D01*
X738799Y238507D01*
X738320Y238986D01*
X736639Y239682D01*
X734821D01*
X733140Y238986D01*
X731854Y237700D01*
X731158Y236019D01*
Y234201D01*
X731854Y232520D01*
X733140Y231234D01*
X734821Y230538D01*
X736639D01*
X738320Y231234D01*
X738799Y231713D01*
X739041Y231807D01*
X739265Y232023D01*
X739456Y232184D01*
X739641Y232320D01*
X739822Y232433D01*
X739997Y232524D01*
X740169Y232596D01*
X740337Y232650D01*
X740506Y232688D01*
X740677Y232710D01*
X740913Y232721D01*
X741039Y232779D01*
X744559D01*
X744692Y232720D01*
X745036Y232711D01*
X745286Y232689D01*
X745460Y232660D01*
Y231340D01*
X756000D01*
Y232545D01*
X759669D01*
Y227025D01*
X757225Y224581D01*
X732486D01*
X723449Y233617D01*
X723399Y233751D01*
X723161Y234006D01*
X722982Y234230D01*
X722828Y234456D01*
X722697Y234688D01*
X722586Y234926D01*
X722496Y235173D01*
X722425Y235429D01*
X722374Y235699D01*
X722342Y235983D01*
X722333Y236236D01*
X722340Y236383D01*
X722362Y236554D01*
X722400Y236723D01*
X722454Y236891D01*
X722526Y237063D01*
X722617Y237238D01*
X722730Y237418D01*
X722866Y237604D01*
X723027Y237795D01*
X723243Y238020D01*
X723337Y238262D01*
X723816Y238740D01*
X724512Y240421D01*
Y242239D01*
X723816Y243920D01*
X722530Y245206D01*
X720849Y245902D01*
X719031D01*
X717350Y245206D01*
X716064Y243920D01*
X715368Y242239D01*
Y240421D01*
X716064Y238740D01*
X716543Y238262D01*
X716637Y238020D01*
X716853Y237795D01*
X717014Y237604D01*
X717083Y237510D01*
X717086Y237414D01*
X717002Y236966D01*
X716855Y236538D01*
X716670Y236343D01*
X716550Y236256D01*
X716359Y236161D01*
X715447D01*
X715308Y236221D01*
X714952Y236225D01*
X714560Y236247D01*
Y236600D01*
X713439D01*
X713260Y236674D01*
X713107Y236611D01*
X712944Y236637D01*
X712892Y236600D01*
X708765D01*
Y237330D01*
X708362Y238302D01*
X707390Y238705D01*
X694690D01*
X693718Y238302D01*
X693315Y237330D01*
Y236600D01*
X688999D01*
X688820Y236674D01*
X688691Y236621D01*
X688554Y236648D01*
X687520Y236600D01*
X686450Y237083D01*
X685130Y238403D01*
Y243442D01*
X685184Y243564D01*
X685196Y244004D01*
X685226Y244341D01*
X685269Y244604D01*
X685318Y244785D01*
X685339Y244836D01*
X685347Y244840D01*
X688310D01*
Y255380D01*
X676770D01*
Y252917D01*
X676766Y252909D01*
X676715Y252888D01*
X676534Y252839D01*
X676271Y252796D01*
X675934Y252766D01*
X675494Y252754D01*
X675372Y252700D01*
X663032D01*
X662903Y252755D01*
X662437Y252759D01*
X661180Y252830D01*
X660871Y252866D01*
X660263Y252971D01*
X660041Y253026D01*
X659844Y253086D01*
X659636Y253165D01*
X659383Y253158D01*
X658769Y253412D01*
X656951D01*
X655270Y252716D01*
X653984Y251430D01*
X653288Y249749D01*
Y247931D01*
X653984Y246250D01*
X655270Y244964D01*
X656951Y244268D01*
X658769D01*
X660450Y244964D01*
X661736Y246250D01*
X661990Y246864D01*
X662168Y247024D01*
X662239Y247175D01*
X662272Y247226D01*
X662304Y247263D01*
X662342Y247295D01*
X662394Y247329D01*
X662471Y247365D01*
X662581Y247402D01*
X662729Y247434D01*
X662917Y247456D01*
X663194Y247466D01*
X663236Y247486D01*
X663280Y247472D01*
X663370Y247520D01*
X675372D01*
X675494Y247466D01*
X675934Y247454D01*
X676271Y247425D01*
X676534Y247381D01*
X676715Y247332D01*
X676766Y247311D01*
X676770Y247303D01*
Y244840D01*
X679734D01*
X679741Y244836D01*
X679762Y244785D01*
X679811Y244604D01*
X679855Y244341D01*
X679884Y244004D01*
X679896Y243564D01*
X679950Y243442D01*
Y237330D01*
X680147Y236339D01*
X680709Y235499D01*
X684209Y231999D01*
X685049Y231437D01*
X686040Y231240D01*
X686129D01*
X686254Y231186D01*
X687038Y231170D01*
X687520Y230100D01*
Y224870D01*
X686250D01*
Y222100D01*
X692040D01*
Y220830D01*
X693310D01*
Y216790D01*
X693539D01*
X693718Y216358D01*
X694690Y215955D01*
X707390D01*
X708362Y216358D01*
X708765Y217330D01*
Y218060D01*
X712892D01*
X712944Y218022D01*
X713107Y218049D01*
X713260Y217986D01*
X713312Y218007D01*
X714560Y218060D01*
X715830Y218162D01*
X715848Y218153D01*
X716028Y218040D01*
X716214Y217904D01*
X716405Y217743D01*
X716629Y217527D01*
X716871Y217433D01*
X717350Y216954D01*
X719031Y216258D01*
X720849D01*
X721689Y216606D01*
X722868Y215720D01*
Y214567D01*
X723564Y212886D01*
X724850Y211600D01*
X726531Y210904D01*
X728349D01*
X730030Y211600D01*
X731316Y212886D01*
X732012Y214567D01*
Y216385D01*
X731316Y218066D01*
X730837Y218545D01*
X730743Y218787D01*
X731113Y219635D01*
X731403Y219943D01*
X731520Y219919D01*
X758190D01*
X759082Y220097D01*
X759838Y220602D01*
X763648Y224412D01*
X764153Y225168D01*
X764331Y226060D01*
Y231000D01*
X765460Y231340D01*
Y231340D01*
X776000D01*
Y232660D01*
X776174Y232689D01*
X776424Y232711D01*
X776768Y232720D01*
X776901Y232779D01*
X797560D01*
X798452Y232957D01*
X799208Y233462D01*
X803018Y237272D01*
X803523Y238028D01*
X803701Y238920D01*
Y244259D01*
X804971Y244645D01*
X805273Y244193D01*
X806165Y243596D01*
X807217Y243387D01*
X807690D01*
Y247730D01*
X810230D01*
Y243257D01*
X810930Y243087D01*
X811072Y242886D01*
X811275Y242395D01*
X811345Y242366D01*
X811355Y242327D01*
X811384Y242170D01*
X811460Y241196D01*
X811466Y240793D01*
X811520Y240665D01*
Y239983D01*
X808429Y236891D01*
X807867Y236051D01*
X807670Y235060D01*
Y228798D01*
X807616Y228676D01*
X807604Y228236D01*
X807574Y227899D01*
X807531Y227636D01*
X807482Y227455D01*
X807461Y227404D01*
X807453Y227400D01*
X805984D01*
X805934Y227427D01*
X805861Y227405D01*
X805790Y227435D01*
X805707Y227400D01*
X804490D01*
Y226327D01*
X804486Y226319D01*
X804435Y226298D01*
X804254Y226249D01*
X803991Y226206D01*
X803654Y226176D01*
X803214Y226164D01*
X803092Y226110D01*
X800213D01*
X800093Y226164D01*
X799816Y226173D01*
X799601Y226194D01*
X799404Y226229D01*
X799223Y226275D01*
X799056Y226332D01*
X798902Y226400D01*
X798757Y226479D01*
X798620Y226570D01*
X798488Y226674D01*
X798320Y226833D01*
X798083Y226922D01*
X797610Y227396D01*
X795929Y228092D01*
X794111D01*
X792430Y227396D01*
X791144Y226110D01*
X790448Y224429D01*
Y222611D01*
X791144Y220930D01*
X792430Y219644D01*
X794111Y218948D01*
X795929D01*
X797610Y219644D01*
X798083Y220118D01*
X798320Y220207D01*
X798488Y220366D01*
X798620Y220470D01*
X798757Y220561D01*
X798902Y220640D01*
X799056Y220708D01*
X799223Y220765D01*
X799404Y220811D01*
X799601Y220846D01*
X799816Y220867D01*
X800093Y220876D01*
X800213Y220930D01*
X803092D01*
X803214Y220876D01*
X803654Y220864D01*
X803991Y220835D01*
X804254Y220791D01*
X804435Y220742D01*
X804486Y220721D01*
X804490Y220713D01*
Y216860D01*
X816030D01*
Y227400D01*
X813066D01*
X813059Y227404D01*
X813038Y227455D01*
X812989Y227636D01*
X812945Y227899D01*
X812916Y228236D01*
X812904Y228676D01*
X812850Y228798D01*
Y233987D01*
X815941Y237079D01*
X816009Y237180D01*
X817364Y237284D01*
X817551Y237202D01*
X821508Y233246D01*
X821556Y233115D01*
X821715Y232941D01*
X821820Y232804D01*
X821912Y232658D01*
X821994Y232500D01*
X822064Y232329D01*
X822124Y232140D01*
X822171Y231933D01*
X822207Y231706D01*
X822228Y231457D01*
X822234Y231145D01*
X822338Y230907D01*
Y230231D01*
X823034Y228550D01*
X824320Y227264D01*
X826001Y226568D01*
X827819D01*
X829500Y227264D01*
X830786Y228550D01*
X831482Y230231D01*
Y232049D01*
X830786Y233730D01*
X829500Y235016D01*
X827819Y235712D01*
X827142D01*
X826905Y235816D01*
X826593Y235822D01*
X826345Y235843D01*
X826117Y235879D01*
X825910Y235926D01*
X825721Y235986D01*
X825549Y236056D01*
X825392Y236138D01*
X825246Y236230D01*
X825109Y236335D01*
X824935Y236494D01*
X824804Y236542D01*
X821441Y239905D01*
Y241150D01*
X821500Y241284D01*
X821507Y241577D01*
X821525Y241798D01*
X821552Y241975D01*
X821582Y242106D01*
X821610Y242190D01*
X821619Y242209D01*
X821642Y242227D01*
X821660Y242259D01*
X821683Y242286D01*
X821945Y242395D01*
X822115Y242804D01*
X822262Y242981D01*
X822990Y243232D01*
Y247730D01*
X824260D01*
Y249000D01*
X828753D01*
Y249322D01*
X828572Y250230D01*
X828753Y251138D01*
Y251460D01*
X824260D01*
Y254000D01*
X828753D01*
Y254322D01*
X829885Y255140D01*
X831630D01*
X832621Y255337D01*
X833461Y255899D01*
X838761Y261199D01*
X839323Y262039D01*
X839460Y262730D01*
X839574Y262977D01*
X839597Y263592D01*
X839620Y263795D01*
X839650Y263973D01*
X839683Y264108D01*
X839713Y264198D01*
X839724Y264224D01*
X839735Y264233D01*
X839750Y264263D01*
X839771Y264288D01*
X839813Y264305D01*
X839871Y264445D01*
X840806Y265380D01*
X841502Y267061D01*
Y268879D01*
X840806Y270560D01*
X839520Y271846D01*
X837839Y272542D01*
D02*
G37*
G36*
X689580Y271650D02*
X683810D01*
Y266380D01*
X689580D01*
Y271650D01*
D02*
G37*
G36*
X681270D02*
X675500D01*
Y266380D01*
X676039D01*
Y267126D01*
X676425Y267136D01*
X676770Y267167D01*
X677075Y267217D01*
X677339Y267289D01*
X677562Y267380D01*
X677745Y267492D01*
X677888Y267624D01*
X677989Y267776D01*
X678050Y267949D01*
X678071Y268142D01*
Y266380D01*
X681270D01*
Y271650D01*
D02*
G37*
G36*
X717980Y264850D02*
X712710D01*
Y259080D01*
X717980D01*
Y264850D01*
D02*
G37*
G36*
X710170D02*
X704900D01*
Y259080D01*
X706963D01*
X707145Y259192D01*
X707288Y259324D01*
X707389Y259476D01*
X707450Y259649D01*
X707470Y259842D01*
Y259080D01*
X710170D01*
Y264850D01*
D02*
G37*
G36*
X807690Y262073D02*
X807217D01*
X806165Y261863D01*
X805273Y261267D01*
X804677Y260375D01*
X804467Y259322D01*
Y259000D01*
X807690D01*
Y262073D01*
D02*
G37*
G36*
X689580Y263840D02*
X683810D01*
Y258570D01*
X689580D01*
Y263840D01*
D02*
G37*
G36*
X681270D02*
X675500D01*
Y258570D01*
X681270D01*
Y263840D01*
D02*
G37*
G36*
X710170Y256540D02*
X707470D01*
Y255778D01*
X707450Y255971D01*
X707389Y256144D01*
X707288Y256296D01*
X707145Y256428D01*
X706963Y256540D01*
X704900D01*
Y250770D01*
X710170D01*
Y256540D01*
D02*
G37*
G36*
X614834Y271272D02*
X613016D01*
X611335Y270576D01*
X610049Y269290D01*
X609432Y267801D01*
X608942Y267473D01*
X607277Y265808D01*
X606772Y265052D01*
X606594Y264160D01*
Y258465D01*
X605675D01*
X604703Y258062D01*
X604300Y257090D01*
Y251171D01*
X573409D01*
X573283Y251229D01*
X573047Y251240D01*
X572876Y251262D01*
X572707Y251300D01*
X572539Y251354D01*
X572367Y251426D01*
X572192Y251517D01*
X572012Y251630D01*
X571826Y251766D01*
X571635Y251927D01*
X571410Y252143D01*
X571169Y252237D01*
X570690Y252716D01*
X569009Y253412D01*
X567191D01*
X565510Y252716D01*
X564224Y251430D01*
X563528Y249749D01*
Y247931D01*
X564224Y246250D01*
X565510Y244964D01*
X567191Y244268D01*
X569009D01*
X570690Y244964D01*
X571169Y245443D01*
X571410Y245537D01*
X571635Y245753D01*
X571826Y245914D01*
X572011Y246050D01*
X572192Y246163D01*
X572367Y246254D01*
X572539Y246326D01*
X572707Y246380D01*
X572876Y246418D01*
X573047Y246440D01*
X573283Y246451D01*
X573409Y246509D01*
X582951D01*
X583477Y245239D01*
X548079Y209841D01*
X547517Y209001D01*
X547320Y208010D01*
Y153473D01*
X541217Y147370D01*
X503993D01*
X474053Y177309D01*
X473213Y177871D01*
X472222Y178068D01*
X415508D01*
X414517Y177871D01*
X413677Y177309D01*
X408379Y172011D01*
X407817Y171171D01*
X407620Y170180D01*
Y97790D01*
X407817Y96799D01*
X408379Y95959D01*
X417269Y87069D01*
X418109Y86507D01*
X419100Y86310D01*
X421512D01*
X421634Y86256D01*
X422074Y86244D01*
X422411Y86215D01*
X422674Y86171D01*
X422855Y86122D01*
X422906Y86101D01*
X422910Y86093D01*
Y80899D01*
X445770D01*
Y96901D01*
X422910D01*
Y91706D01*
X422906Y91699D01*
X422855Y91678D01*
X422674Y91629D01*
X422411Y91586D01*
X422074Y91556D01*
X421634Y91544D01*
X421512Y91490D01*
X420173D01*
X412800Y98863D01*
Y169107D01*
X416581Y172888D01*
X422910D01*
Y157099D01*
X445770D01*
Y161023D01*
X445837Y161146D01*
X445858Y161347D01*
X445861Y161356D01*
X445866Y161364D01*
X445914Y161408D01*
X446045Y161488D01*
X446282Y161585D01*
X446629Y161679D01*
X447081Y161754D01*
X447635Y161803D01*
X448316Y161821D01*
X448410Y161863D01*
X471099D01*
X496871Y136091D01*
X497921Y135389D01*
X499160Y135143D01*
X564110D01*
X564204Y135101D01*
X564885Y135083D01*
X565438Y135034D01*
X565891Y134959D01*
X566238Y134865D01*
X566475Y134768D01*
X566606Y134688D01*
X566654Y134644D01*
X566659Y134636D01*
X566662Y134627D01*
X566683Y134426D01*
X566750Y134303D01*
Y131900D01*
X578790D01*
Y134303D01*
X578857Y134426D01*
X578878Y134627D01*
X578881Y134636D01*
X578886Y134644D01*
X578934Y134688D01*
X579065Y134768D01*
X579302Y134865D01*
X579649Y134959D01*
X580102Y135034D01*
X580654Y135083D01*
X581080Y135094D01*
X581244Y135092D01*
X582277Y135023D01*
X582666Y134970D01*
X582997Y134904D01*
X583251Y134833D01*
X583423Y134767D01*
X583508Y134721D01*
X583512Y134719D01*
X583570Y134650D01*
X583621Y134624D01*
X583642Y134572D01*
X583868Y134479D01*
X584266Y134213D01*
X584960Y134075D01*
X594940D01*
X595634Y134213D01*
X596223Y134607D01*
X596617Y135196D01*
X596755Y135890D01*
Y140870D01*
X596617Y141565D01*
X596223Y142153D01*
X595634Y142547D01*
X594940Y142685D01*
X584960D01*
X584266Y142547D01*
X583868Y142281D01*
X583642Y142188D01*
X583621Y142136D01*
X583570Y142110D01*
X583512Y142041D01*
X583508Y142038D01*
X583423Y141993D01*
X583251Y141927D01*
X582997Y141856D01*
X582698Y141797D01*
X581230Y141668D01*
X581076Y141666D01*
X580652Y141677D01*
X580097Y141724D01*
X579642Y141798D01*
X579291Y141890D01*
X579051Y141986D01*
X578919Y142064D01*
X578876Y142103D01*
X578856Y142287D01*
X578790Y142408D01*
Y143440D01*
X577669D01*
X577490Y143514D01*
X577417Y143484D01*
X577342Y143506D01*
X577221Y143440D01*
X568319D01*
X568198Y143506D01*
X568123Y143484D01*
X568050Y143514D01*
X567871Y143440D01*
X566750D01*
Y142408D01*
X566684Y142287D01*
X566664Y142103D01*
X566620Y142064D01*
X566488Y141986D01*
X566249Y141890D01*
X565898Y141798D01*
X565443Y141724D01*
X564888Y141677D01*
X564205Y141659D01*
X564111Y141617D01*
X544414D01*
X544029Y142887D01*
X544121Y142949D01*
X551741Y150569D01*
X552303Y151409D01*
X552500Y152400D01*
Y206937D01*
X587072Y241509D01*
X594646D01*
X595022Y240755D01*
X595093Y240239D01*
X585092Y230238D01*
X584587Y229482D01*
X584409Y228590D01*
Y222659D01*
X584350Y222526D01*
X584341Y222183D01*
X584319Y221932D01*
X584290Y221758D01*
X581159D01*
Y219620D01*
X580986Y219591D01*
X580735Y219569D01*
X580392Y219560D01*
X580258Y219501D01*
X579120D01*
X578228Y219323D01*
X577472Y218818D01*
X573628Y214974D01*
X573167D01*
X573040Y215033D01*
X572806Y215042D01*
X572620Y215063D01*
X572428Y215100D01*
X572227Y215153D01*
X572019Y215223D01*
X571801Y215313D01*
X571591Y215414D01*
X571081Y215714D01*
X570819Y215895D01*
X570745Y215911D01*
X570690Y215966D01*
X569009Y216662D01*
X567191D01*
X565510Y215966D01*
X564224Y214680D01*
X563528Y212999D01*
Y211181D01*
X564224Y209500D01*
X565510Y208214D01*
X567191Y207518D01*
X569009D01*
X570690Y208214D01*
X571777Y209301D01*
X571911Y209380D01*
X572080Y209606D01*
X572217Y209760D01*
X572352Y209887D01*
X572483Y209989D01*
X572612Y210070D01*
X572742Y210135D01*
X572876Y210184D01*
X573020Y210220D01*
X573177Y210243D01*
X573415Y210254D01*
X573500Y210294D01*
X573593Y210274D01*
X573653Y210312D01*
X574593D01*
X575485Y210490D01*
X576241Y210995D01*
X579889Y214643D01*
X581159Y214366D01*
Y212582D01*
X592321D01*
Y221758D01*
X589190D01*
X589161Y221932D01*
X589139Y222183D01*
X589130Y222526D01*
X589071Y222659D01*
Y227625D01*
X597830Y236384D01*
X604300D01*
Y235590D01*
X604703Y234618D01*
X605675Y234215D01*
X611324D01*
X611335Y234189D01*
Y231961D01*
X611281Y231841D01*
X611272Y231564D01*
X611251Y231349D01*
X611216Y231152D01*
X611170Y230970D01*
X611113Y230804D01*
X611045Y230650D01*
X610966Y230505D01*
X610875Y230368D01*
X610771Y230236D01*
X610612Y230067D01*
X610523Y229831D01*
X610049Y229357D01*
X609353Y227677D01*
Y225858D01*
X610049Y224178D01*
X610523Y223704D01*
X610612Y223468D01*
X610771Y223299D01*
X610875Y223167D01*
X610966Y223030D01*
X611045Y222885D01*
X611113Y222731D01*
X611170Y222565D01*
X611216Y222384D01*
X611251Y222186D01*
X611272Y221971D01*
X611281Y221694D01*
X611335Y221574D01*
Y221488D01*
X611281Y221366D01*
X611269Y220926D01*
X611240Y220589D01*
X611196Y220326D01*
X611147Y220145D01*
X611126Y220094D01*
X611118Y220090D01*
X608155D01*
Y209550D01*
X619695D01*
Y220090D01*
X616732D01*
X616724Y220094D01*
X616703Y220145D01*
X616654Y220326D01*
X616610Y220589D01*
X616581Y220926D01*
X616569Y221366D01*
X616515Y221488D01*
Y221574D01*
X616569Y221694D01*
X616578Y221971D01*
X616600Y222186D01*
X616634Y222383D01*
X616680Y222565D01*
X616737Y222731D01*
X616805Y222885D01*
X616884Y223030D01*
X616975Y223167D01*
X617079Y223299D01*
X617238Y223468D01*
X617327Y223704D01*
X617801Y224178D01*
X618497Y225858D01*
Y227677D01*
X618390Y227936D01*
X620573Y230119D01*
X621078Y230875D01*
X621256Y231768D01*
Y234215D01*
X627175D01*
X628147Y234618D01*
X628550Y235590D01*
Y236384D01*
X638445D01*
X639758Y235071D01*
X639806Y234940D01*
X639965Y234766D01*
X640070Y234629D01*
X640162Y234483D01*
X640244Y234326D01*
X640314Y234154D01*
X640374Y233965D01*
X640422Y233758D01*
X640457Y233531D01*
X640478Y233282D01*
X640484Y232970D01*
X640588Y232733D01*
Y232056D01*
X641284Y230375D01*
X641763Y229897D01*
X641857Y229655D01*
X642073Y229430D01*
X642234Y229239D01*
X642370Y229053D01*
X642483Y228873D01*
X642574Y228698D01*
X642646Y228526D01*
X642700Y228358D01*
X642738Y228189D01*
X642760Y228018D01*
X642771Y227782D01*
X642829Y227656D01*
Y222819D01*
X642770Y222686D01*
X642761Y222343D01*
X642739Y222092D01*
X642710Y221919D01*
X639579D01*
Y212742D01*
X650741D01*
Y221919D01*
X647610D01*
X647581Y222092D01*
X647559Y222343D01*
X647550Y222686D01*
X647491Y222819D01*
Y227656D01*
X647549Y227782D01*
X647560Y228018D01*
X647582Y228189D01*
X647620Y228358D01*
X647674Y228526D01*
X647746Y228698D01*
X647837Y228873D01*
X647950Y229053D01*
X648086Y229239D01*
X648247Y229430D01*
X648463Y229655D01*
X648557Y229897D01*
X649036Y230375D01*
X649732Y232056D01*
Y233874D01*
X649036Y235555D01*
X647750Y236841D01*
X646069Y237537D01*
X645393D01*
X645155Y237641D01*
X644843Y237647D01*
X644594Y237668D01*
X644367Y237703D01*
X644160Y237751D01*
X643971Y237811D01*
X643799Y237881D01*
X643642Y237963D01*
X643496Y238055D01*
X643359Y238160D01*
X643185Y238319D01*
X643054Y238367D01*
X641058Y240363D01*
X640302Y240868D01*
X639410Y241046D01*
X628550D01*
Y257090D01*
X628215Y257898D01*
Y258380D01*
X627379D01*
X627175Y258465D01*
X616256D01*
Y261392D01*
X616314Y261517D01*
X616325Y261753D01*
X616347Y261924D01*
X616385Y262092D01*
X616439Y262261D01*
X616511Y262433D01*
X616602Y262608D01*
X616715Y262788D01*
X616851Y262974D01*
X617012Y263165D01*
X617228Y263389D01*
X617322Y263631D01*
X617801Y264110D01*
X618497Y265791D01*
Y267609D01*
X617801Y269290D01*
X616515Y270576D01*
X614834Y271272D01*
D02*
G37*
G36*
X236220Y266800D02*
X234238Y266405D01*
X232558Y265282D01*
X218267Y250992D01*
X217155Y251021D01*
X215955Y251127D01*
X214931Y251298D01*
X214088Y251525D01*
X213432Y251793D01*
X212958Y252083D01*
X212644Y252374D01*
X212448Y252668D01*
X212331Y253001D01*
X212272Y253564D01*
X212205Y253687D01*
Y259135D01*
X175375D01*
Y257556D01*
X175308Y257434D01*
X175249Y256871D01*
X175131Y256538D01*
X174936Y256244D01*
X174622Y255953D01*
X174148Y255663D01*
X173491Y255394D01*
X172649Y255168D01*
X171625Y254997D01*
X170424Y254891D01*
X169019Y254854D01*
X169009Y254849D01*
X164158D01*
X164147Y254854D01*
X162731Y254883D01*
X161509Y254965D01*
X160459Y255099D01*
X159587Y255278D01*
X158902Y255492D01*
X158413Y255721D01*
X158113Y255933D01*
X157970Y256098D01*
X157909Y256227D01*
X157861Y256577D01*
X157800Y256682D01*
Y257690D01*
X156679D01*
X156500Y257764D01*
X156408Y257726D01*
X156312Y257751D01*
X156207Y257690D01*
X145340D01*
X144760Y257690D01*
X144070Y258674D01*
Y258960D01*
X137550D01*
Y249670D01*
Y240380D01*
X144070D01*
Y240666D01*
X144760Y241650D01*
X145340Y241650D01*
X147203D01*
X147326Y241583D01*
X147527Y241562D01*
X147536Y241559D01*
X147544Y241554D01*
X147588Y241506D01*
X147668Y241375D01*
X147765Y241138D01*
X147859Y240791D01*
X147934Y240338D01*
X147983Y239785D01*
X147990Y239510D01*
X147983Y239234D01*
X147934Y238682D01*
X147859Y238229D01*
X147765Y237882D01*
X147668Y237645D01*
X147588Y237513D01*
X147544Y237466D01*
X147536Y237461D01*
X147527Y237458D01*
X147326Y237437D01*
X147203Y237370D01*
X144760Y237370D01*
X144070Y238354D01*
Y238640D01*
X137550D01*
Y229350D01*
Y220060D01*
X144070D01*
Y220346D01*
X144760Y221330D01*
X145340Y221330D01*
X146743D01*
X146866Y221263D01*
X147067Y221242D01*
X147076Y221239D01*
X147084Y221234D01*
X147128Y221186D01*
X147208Y221055D01*
X147305Y220818D01*
X147399Y220471D01*
X147474Y220018D01*
X147523Y219466D01*
X147541Y218784D01*
X147583Y218690D01*
Y216250D01*
X147541Y216156D01*
X147523Y215475D01*
X147474Y214922D01*
X147399Y214469D01*
X147305Y214123D01*
X147208Y213885D01*
X147128Y213754D01*
X147084Y213707D01*
X147076Y213702D01*
X147067Y213698D01*
X146866Y213677D01*
X146743Y213611D01*
X133754D01*
Y212357D01*
X133687Y212234D01*
X133666Y212033D01*
X133663Y212024D01*
X133657Y212016D01*
X133610Y211972D01*
X133479Y211892D01*
X133242Y211795D01*
X132895Y211701D01*
X132442Y211626D01*
X131889Y211577D01*
X131208Y211559D01*
X131114Y211517D01*
X122340D01*
X121101Y211271D01*
X120051Y210569D01*
X114551Y205069D01*
X113849Y204019D01*
X113603Y202780D01*
Y125080D01*
X113849Y123841D01*
X114551Y122791D01*
X118871Y118471D01*
X119921Y117769D01*
X121160Y117523D01*
X129910D01*
X130004Y117481D01*
X130686Y117463D01*
X131238Y117414D01*
X131691Y117339D01*
X132038Y117245D01*
X132275Y117148D01*
X132407Y117068D01*
X132454Y117024D01*
X132459Y117016D01*
X132462Y117007D01*
X132483Y116806D01*
X132550Y116683D01*
Y114490D01*
X134743D01*
X134866Y114423D01*
X135067Y114402D01*
X135076Y114399D01*
X135084Y114394D01*
X135128Y114347D01*
X135208Y114215D01*
X135305Y113978D01*
X135399Y113631D01*
X135474Y113179D01*
X135523Y112626D01*
X135541Y111944D01*
X135567Y111885D01*
X135541Y111826D01*
X135523Y111145D01*
X135474Y110591D01*
X135399Y110139D01*
X135305Y109792D01*
X135208Y109555D01*
X135128Y109424D01*
X135084Y109376D01*
X135076Y109371D01*
X135067Y109368D01*
X134866Y109347D01*
X134743Y109280D01*
X133550D01*
Y97740D01*
X144090D01*
Y109280D01*
X142896D01*
X142774Y109347D01*
X142573Y109368D01*
X142564Y109371D01*
X142556Y109376D01*
X142512Y109424D01*
X142432Y109555D01*
X142335Y109792D01*
X142241Y110139D01*
X142166Y110591D01*
X142117Y111145D01*
X142099Y111826D01*
X142073Y111885D01*
X142099Y111944D01*
X142117Y112626D01*
X142166Y113179D01*
X142241Y113631D01*
X142335Y113978D01*
X142432Y114215D01*
X142512Y114347D01*
X142556Y114394D01*
X142564Y114399D01*
X142573Y114402D01*
X142774Y114423D01*
X142896Y114490D01*
X144090D01*
Y127030D01*
X132550D01*
Y124837D01*
X132483Y124714D01*
X132462Y124513D01*
X132459Y124504D01*
X132454Y124496D01*
X132406Y124452D01*
X132275Y124372D01*
X132038Y124275D01*
X131691Y124181D01*
X131238Y124106D01*
X130686Y124057D01*
X130004Y124039D01*
X129910Y123997D01*
X122501D01*
X120077Y126421D01*
Y201439D01*
X123681Y205043D01*
X131114D01*
X131208Y205001D01*
X131889Y204983D01*
X132442Y204934D01*
X132895Y204859D01*
X133242Y204765D01*
X133479Y204668D01*
X133610Y204588D01*
X133657Y204544D01*
X133663Y204536D01*
X133666Y204527D01*
X133687Y204326D01*
X133754Y204203D01*
Y202949D01*
X156855D01*
Y213611D01*
X154896D01*
X154774Y213677D01*
X154573Y213698D01*
X154564Y213702D01*
X154556Y213707D01*
X154512Y213754D01*
X154432Y213885D01*
X154335Y214123D01*
X154241Y214469D01*
X154166Y214922D01*
X154117Y215475D01*
X154099Y216156D01*
X154057Y216250D01*
Y218690D01*
X154099Y218784D01*
X154117Y219466D01*
X154166Y220018D01*
X154241Y220471D01*
X154335Y220818D01*
X154432Y221055D01*
X154512Y221187D01*
X154556Y221234D01*
X154564Y221239D01*
X154573Y221242D01*
X154774Y221263D01*
X154896Y221330D01*
X157800D01*
Y237370D01*
X155357D01*
X155234Y237437D01*
X155033Y237458D01*
X155024Y237461D01*
X155016Y237466D01*
X154972Y237514D01*
X154892Y237645D01*
X154795Y237882D01*
X154701Y238229D01*
X154626Y238682D01*
X154577Y239234D01*
X154570Y239510D01*
X154577Y239785D01*
X154626Y240338D01*
X154701Y240791D01*
X154795Y241138D01*
X154892Y241375D01*
X154972Y241507D01*
X155016Y241553D01*
X155024Y241559D01*
X155033Y241562D01*
X155234Y241583D01*
X155357Y241650D01*
X156207D01*
X156312Y241589D01*
X156408Y241614D01*
X156500Y241576D01*
X156679Y241650D01*
X157800D01*
Y242658D01*
X157861Y242763D01*
X157909Y243113D01*
X157969Y243242D01*
X158114Y243407D01*
X158412Y243619D01*
X158903Y243848D01*
X159587Y244062D01*
X160438Y244237D01*
X162751Y244458D01*
X164147Y244486D01*
X164158Y244490D01*
X169009D01*
X169019Y244486D01*
X170424Y244449D01*
X171625Y244343D01*
X172649Y244172D01*
X173492Y243945D01*
X174148Y243677D01*
X174622Y243387D01*
X174936Y243096D01*
X175131Y242802D01*
X175249Y242469D01*
X175308Y241906D01*
X175375Y241783D01*
Y232465D01*
X212205D01*
Y237913D01*
X212272Y238036D01*
X212331Y238599D01*
X212448Y238932D01*
X212644Y239226D01*
X212958Y239517D01*
X213432Y239807D01*
X214088Y240075D01*
X214931Y240302D01*
X215955Y240473D01*
X217155Y240579D01*
X218561Y240616D01*
X218571Y240620D01*
X220400D01*
X222382Y241015D01*
X224062Y242138D01*
X239883Y257957D01*
X241005Y259638D01*
X241399Y261620D01*
X241005Y263602D01*
X239883Y265282D01*
X238202Y266405D01*
X236220Y266800D01*
D02*
G37*
G36*
X135010Y258960D02*
X128490D01*
Y250940D01*
X135010D01*
Y258960D01*
D02*
G37*
G36*
X717980Y256540D02*
X712710D01*
Y250770D01*
X717980D01*
Y256540D01*
D02*
G37*
G36*
X828753Y246460D02*
X825530D01*
Y243387D01*
X826003D01*
X827055Y243596D01*
X827947Y244193D01*
X828543Y245085D01*
X828753Y246138D01*
Y246460D01*
D02*
G37*
G36*
X135010Y248400D02*
X128490D01*
Y240380D01*
X135010D01*
Y248400D01*
D02*
G37*
G36*
X496570Y244980D02*
Y237490D01*
X504060D01*
X503491Y239613D01*
X502334Y241617D01*
X500697Y243254D01*
X498693Y244411D01*
X496570Y244980D01*
D02*
G37*
G36*
X494030D02*
X491907Y244411D01*
X489903Y243254D01*
X488266Y241617D01*
X487109Y239613D01*
X486540Y237490D01*
X494030D01*
Y244980D01*
D02*
G37*
G36*
X388620Y266800D02*
X386638Y266405D01*
X384958Y265282D01*
X383835Y263602D01*
X383441Y261620D01*
X383835Y259638D01*
X384958Y257957D01*
X405277Y237638D01*
X406958Y236515D01*
X408940Y236120D01*
X416552D01*
X416563Y236116D01*
X417979Y236087D01*
X419201Y236005D01*
X420253Y235873D01*
X421125Y235694D01*
X421810Y235482D01*
X422301Y235254D01*
X422600Y235044D01*
X422743Y234881D01*
X422801Y234756D01*
X422849Y234411D01*
X422910Y234306D01*
Y233299D01*
X424031D01*
X424211Y233225D01*
X424303Y233263D01*
X424399Y233238D01*
X424504Y233299D01*
X445770D01*
Y249301D01*
X424504D01*
X424399Y249362D01*
X424303Y249337D01*
X424211Y249375D01*
X424031Y249301D01*
X422910D01*
Y248294D01*
X422849Y248189D01*
X422801Y247844D01*
X422743Y247719D01*
X422600Y247556D01*
X422301Y247346D01*
X421810Y247118D01*
X421125Y246906D01*
X420274Y246732D01*
X417960Y246512D01*
X416563Y246484D01*
X416552Y246479D01*
X411085D01*
X392282Y265282D01*
X390602Y266405D01*
X388620Y266800D01*
D02*
G37*
G36*
X135010Y238640D02*
X128490D01*
Y230620D01*
X135010D01*
Y238640D01*
D02*
G37*
G36*
X547090Y243740D02*
X545110D01*
X543197Y243228D01*
X541483Y242237D01*
X540083Y240837D01*
X539092Y239123D01*
X538580Y237210D01*
Y235230D01*
X539092Y233317D01*
X540083Y231603D01*
X541483Y230203D01*
X543197Y229212D01*
X545110Y228700D01*
X547090D01*
X549003Y229212D01*
X550717Y230203D01*
X552118Y231603D01*
X553107Y233317D01*
X553620Y235230D01*
Y237210D01*
X553107Y239123D01*
X552118Y240837D01*
X550717Y242237D01*
X549003Y243228D01*
X547090Y243740D01*
D02*
G37*
G36*
X504060Y234950D02*
X496570D01*
Y227460D01*
X498693Y228029D01*
X500697Y229186D01*
X502334Y230823D01*
X503491Y232827D01*
X504060Y234950D01*
D02*
G37*
G36*
X494030D02*
X486540D01*
X487109Y232827D01*
X488266Y230823D01*
X489903Y229186D01*
X491907Y228029D01*
X494030Y227460D01*
Y234950D01*
D02*
G37*
G36*
X135010Y228080D02*
X128490D01*
Y220060D01*
X135010D01*
Y228080D01*
D02*
G37*
G36*
X57399Y227440D02*
X57150D01*
Y217170D01*
X67420D01*
Y217419D01*
X66634Y220354D01*
X65114Y222986D01*
X62966Y225134D01*
X60334Y226653D01*
X57399Y227440D01*
D02*
G37*
G36*
X54610D02*
X54361D01*
X51426Y226653D01*
X48794Y225134D01*
X46646Y222986D01*
X45127Y220354D01*
X44340Y217419D01*
Y217170D01*
X54610D01*
Y227440D01*
D02*
G37*
G36*
X690770Y219560D02*
X686250D01*
Y216790D01*
X690770D01*
Y219560D01*
D02*
G37*
G36*
X817300Y213670D02*
X811530D01*
Y208400D01*
X817300D01*
Y213670D01*
D02*
G37*
G36*
X808990D02*
X803220D01*
Y208400D01*
X808990D01*
Y213670D01*
D02*
G37*
G36*
X278130Y223901D02*
X255270D01*
Y218706D01*
X255266Y218699D01*
X255215Y218678D01*
X255034Y218629D01*
X254771Y218585D01*
X254434Y218556D01*
X253994Y218544D01*
X253872Y218490D01*
X245110D01*
X244119Y218293D01*
X243279Y217731D01*
X230579Y205031D01*
X230017Y204191D01*
X229820Y203200D01*
Y86163D01*
X228797Y85140D01*
X212140D01*
X211149Y84943D01*
X210309Y84381D01*
X206499Y80571D01*
X205937Y79731D01*
X205740Y78740D01*
Y77048D01*
X205686Y76926D01*
X205674Y76486D01*
X205644Y76149D01*
X205601Y75886D01*
X205552Y75705D01*
X205531Y75654D01*
X205523Y75650D01*
X203510D01*
Y66110D01*
X213050D01*
Y75650D01*
X211136D01*
X211129Y75654D01*
X211108Y75705D01*
X211059Y75886D01*
X211015Y76149D01*
X210986Y76486D01*
X210974Y76926D01*
X210920Y77048D01*
Y77667D01*
X213213Y79960D01*
X229870D01*
X230861Y80157D01*
X231701Y80719D01*
X234241Y83259D01*
X234803Y84099D01*
X235000Y85090D01*
Y132238D01*
X236270Y132490D01*
X236394Y132190D01*
X237680Y130904D01*
X239361Y130208D01*
X241179D01*
X242860Y130904D01*
X244146Y132190D01*
X244842Y133871D01*
Y135689D01*
X244146Y137370D01*
X243449Y138067D01*
X243338Y138308D01*
X243174Y138460D01*
X243072Y138574D01*
X242984Y138692D01*
X242908Y138819D01*
X242842Y138955D01*
X242786Y139107D01*
X242740Y139274D01*
X242705Y139461D01*
X242683Y139669D01*
X242674Y139945D01*
X242660Y139975D01*
X242670Y140007D01*
X242620Y140106D01*
Y184347D01*
X246183Y187910D01*
X253872D01*
X253994Y187856D01*
X254434Y187844D01*
X254771Y187815D01*
X255034Y187771D01*
X255215Y187722D01*
X255266Y187701D01*
X255270Y187693D01*
Y182499D01*
X278130D01*
Y198501D01*
X255270D01*
Y193307D01*
X255266Y193299D01*
X255215Y193278D01*
X255034Y193229D01*
X254771Y193186D01*
X254434Y193156D01*
X253994Y193144D01*
X253872Y193090D01*
X245110D01*
X244119Y192893D01*
X243279Y192331D01*
X238199Y187251D01*
X237637Y186411D01*
X237440Y185420D01*
Y139860D01*
X237386Y139739D01*
X237378Y139460D01*
X237357Y139237D01*
X237323Y139030D01*
X237278Y138836D01*
X237222Y138654D01*
X237154Y138484D01*
X237075Y138322D01*
X236984Y138167D01*
X236880Y138018D01*
X236729Y137834D01*
X236673Y137649D01*
X236394Y137370D01*
X236270Y137070D01*
X235000Y137323D01*
Y202127D01*
X246183Y213310D01*
X253872D01*
X253994Y213256D01*
X254434Y213244D01*
X254771Y213214D01*
X255034Y213171D01*
X255215Y213122D01*
X255266Y213101D01*
X255270Y213093D01*
Y207899D01*
X278130D01*
Y223901D01*
D02*
G37*
G36*
X447040Y214630D02*
X435610D01*
Y206629D01*
X447040D01*
Y214630D01*
D02*
G37*
G36*
X433070D02*
X421640D01*
Y206629D01*
X433070D01*
Y214630D01*
D02*
G37*
G36*
X67420D02*
X57150D01*
Y204360D01*
X57399D01*
X60334Y205147D01*
X62966Y206666D01*
X65114Y208814D01*
X66634Y211446D01*
X67420Y214381D01*
Y214630D01*
D02*
G37*
G36*
X54610D02*
X44340D01*
Y214381D01*
X45127Y211446D01*
X46646Y208814D01*
X48794Y206666D01*
X51426Y205147D01*
X54361Y204360D01*
X54610D01*
Y214630D01*
D02*
G37*
G36*
X278130Y249301D02*
X255270D01*
Y233299D01*
X278130D01*
Y238493D01*
X278134Y238501D01*
X278185Y238522D01*
X278366Y238571D01*
X278629Y238615D01*
X278966Y238644D01*
X279406Y238656D01*
X279528Y238710D01*
X303727D01*
X315669Y226769D01*
X316509Y226207D01*
X317500Y226010D01*
X420718D01*
X421640Y225171D01*
X421640Y224740D01*
Y217170D01*
X447040D01*
Y224740D01*
X447040Y225171D01*
X447962Y226010D01*
X477717D01*
X497279Y206449D01*
X498119Y205887D01*
X499110Y205690D01*
X512971D01*
X513094Y205636D01*
X513534Y205624D01*
X513871Y205595D01*
X514133Y205551D01*
X514315Y205502D01*
X514365Y205481D01*
X514369Y205473D01*
Y201219D01*
X527031D01*
Y215341D01*
X523507D01*
X523499Y215345D01*
X523478Y215395D01*
X523429Y215577D01*
X523386Y215839D01*
X523356Y216176D01*
X523344Y216616D01*
X523290Y216738D01*
Y226156D01*
X523342Y226262D01*
X523367Y226657D01*
X523431Y226993D01*
X523544Y227362D01*
X523712Y227765D01*
X523940Y228200D01*
X524230Y228664D01*
X524574Y229142D01*
X525500Y230226D01*
X526057Y230794D01*
X526156Y231041D01*
X526717Y231603D01*
X527707Y233317D01*
X528220Y235230D01*
Y237210D01*
X527707Y239123D01*
X526717Y240837D01*
X525317Y242237D01*
X523603Y243228D01*
X521690Y243740D01*
X519710D01*
X517797Y243228D01*
X516083Y242237D01*
X514683Y240837D01*
X513693Y239123D01*
X513180Y237210D01*
Y235230D01*
X513693Y233317D01*
X514683Y231603D01*
X515234Y231051D01*
X515323Y230816D01*
X516407Y229662D01*
X516816Y229157D01*
X517170Y228664D01*
X517460Y228200D01*
X517688Y227764D01*
X517856Y227362D01*
X517969Y226993D01*
X518033Y226657D01*
X518058Y226262D01*
X518110Y226156D01*
Y216739D01*
X518056Y216616D01*
X518044Y216176D01*
X518014Y215839D01*
X517971Y215577D01*
X517922Y215395D01*
X517901Y215345D01*
X517893Y215341D01*
X514369D01*
Y211087D01*
X514365Y211079D01*
X514315Y211058D01*
X514133Y211009D01*
X513871Y210965D01*
X513534Y210936D01*
X513094Y210924D01*
X512971Y210870D01*
X500183D01*
X480621Y230431D01*
X479781Y230993D01*
X478790Y231190D01*
X318573D01*
X306631Y243131D01*
X305791Y243693D01*
X304800Y243890D01*
X279528D01*
X279406Y243944D01*
X278966Y243956D01*
X278629Y243986D01*
X278366Y244029D01*
X278185Y244078D01*
X278134Y244099D01*
X278130Y244107D01*
Y249301D01*
D02*
G37*
G36*
X620965Y206360D02*
X615195D01*
Y201090D01*
X620965D01*
Y206360D01*
D02*
G37*
G36*
X612655D02*
X606885D01*
Y201090D01*
X612655D01*
Y206360D01*
D02*
G37*
G36*
X817300Y205860D02*
X811530D01*
Y200590D01*
X817300D01*
Y205860D01*
D02*
G37*
G36*
X808990D02*
X803220D01*
Y200590D01*
X808990D01*
Y205860D01*
D02*
G37*
G36*
X620965Y198550D02*
X615195D01*
Y195851D01*
X616465D01*
X616224Y195825D01*
X616008Y195749D01*
X615817Y195622D01*
X615652Y195444D01*
X615513Y195215D01*
X615398Y194936D01*
X615309Y194606D01*
X615246Y194225D01*
X615213Y193857D01*
X615237Y193624D01*
X615289Y193326D01*
X615300Y193280D01*
X620965D01*
Y198550D01*
D02*
G37*
G36*
X612655D02*
X606885D01*
Y193280D01*
X612550D01*
X612561Y193326D01*
X612613Y193624D01*
X612637Y193857D01*
X612604Y194225D01*
X612541Y194606D01*
X612452Y194936D01*
X612337Y195215D01*
X612198Y195444D01*
X612033Y195622D01*
X611842Y195749D01*
X611626Y195825D01*
X611385Y195851D01*
X612655D01*
Y198550D01*
D02*
G37*
G36*
X650741Y209331D02*
X639579D01*
Y201759D01*
X639521Y201663D01*
X639547Y201556D01*
X639505Y201454D01*
X639579Y201275D01*
Y200154D01*
X640575D01*
X640671Y200096D01*
X640716Y200089D01*
X640771Y200002D01*
X640884Y199732D01*
X641001Y199315D01*
X641099Y198781D01*
X641174Y197905D01*
X640588Y196489D01*
Y194671D01*
X641284Y192990D01*
X642570Y191704D01*
X644251Y191008D01*
X646069D01*
X647750Y191704D01*
X649036Y192990D01*
X649732Y194671D01*
Y196489D01*
X649131Y197941D01*
X649139Y198083D01*
X649217Y198762D01*
X649319Y199314D01*
X649436Y199732D01*
X649549Y200002D01*
X649604Y200089D01*
X649649Y200096D01*
X649745Y200154D01*
X650741D01*
Y201275D01*
X650815Y201454D01*
X650773Y201556D01*
X650799Y201663D01*
X650741Y201759D01*
Y209331D01*
D02*
G37*
G36*
X592321Y209171D02*
X581159D01*
Y199994D01*
X583628D01*
X583695Y199902D01*
X584340Y198767D01*
X584318Y198596D01*
X584280Y198428D01*
X584226Y198259D01*
X584154Y198087D01*
X584063Y197912D01*
X583950Y197732D01*
X583814Y197546D01*
X583653Y197355D01*
X583437Y197131D01*
X583343Y196889D01*
X582864Y196410D01*
X582168Y194729D01*
Y192911D01*
X582864Y191230D01*
X584150Y189944D01*
X585831Y189248D01*
X587649D01*
X589330Y189944D01*
X590616Y191230D01*
X591312Y192911D01*
Y194729D01*
X590616Y196410D01*
X590137Y196889D01*
X590043Y197130D01*
X589827Y197355D01*
X589666Y197546D01*
X589530Y197731D01*
X589417Y197912D01*
X589326Y198087D01*
X589254Y198259D01*
X589200Y198427D01*
X589162Y198596D01*
X589140Y198767D01*
X589785Y199902D01*
X589852Y199994D01*
X592321D01*
Y209171D01*
D02*
G37*
G36*
X445770Y198501D02*
X422910D01*
Y182499D01*
X445770D01*
Y185153D01*
X445837Y185276D01*
X445871Y185598D01*
X445912Y185715D01*
X445981Y185818D01*
X446117Y185944D01*
X446362Y186094D01*
X446739Y186249D01*
X447251Y186387D01*
X447894Y186494D01*
X448663Y186562D01*
X449586Y186586D01*
X449652Y186615D01*
X454631D01*
X456291Y185928D01*
X458109D01*
X459790Y186624D01*
X461076Y187910D01*
X461772Y189591D01*
Y191409D01*
X461076Y193090D01*
X459790Y194376D01*
X458109Y195072D01*
X456291D01*
X454631Y194385D01*
X449652D01*
X449586Y194414D01*
X448663Y194438D01*
X447894Y194506D01*
X447251Y194613D01*
X446739Y194751D01*
X446362Y194905D01*
X446117Y195056D01*
X445981Y195182D01*
X445912Y195285D01*
X445871Y195402D01*
X445837Y195724D01*
X445770Y195847D01*
Y198501D01*
D02*
G37*
G36*
X144860Y189340D02*
X139590D01*
Y183570D01*
X144860D01*
Y189340D01*
D02*
G37*
G36*
X137050D02*
X131780D01*
Y183570D01*
X137050D01*
Y189340D01*
D02*
G37*
G36*
X144860Y181030D02*
X139590D01*
Y175260D01*
X144860D01*
Y181030D01*
D02*
G37*
G36*
X137050D02*
X131780D01*
Y175260D01*
X137050D01*
Y181030D01*
D02*
G37*
G36*
X621970Y178490D02*
X609930D01*
Y175170D01*
X609756Y175141D01*
X609506Y175119D01*
X609162Y175110D01*
X609029Y175051D01*
X608259D01*
X608133Y175109D01*
X607897Y175120D01*
X607726Y175142D01*
X607557Y175180D01*
X607389Y175234D01*
X607217Y175306D01*
X607042Y175397D01*
X606862Y175510D01*
X606676Y175646D01*
X606485Y175807D01*
X606260Y176023D01*
X606018Y176117D01*
X605540Y176596D01*
X603859Y177292D01*
X602041D01*
X600360Y176596D01*
X599074Y175310D01*
X598378Y173629D01*
Y171811D01*
X599074Y170130D01*
X600360Y168844D01*
X602041Y168148D01*
X603859D01*
X605540Y168844D01*
X606018Y169323D01*
X606260Y169417D01*
X606485Y169633D01*
X606676Y169794D01*
X606861Y169930D01*
X607042Y170043D01*
X607217Y170134D01*
X607389Y170206D01*
X607557Y170260D01*
X607726Y170298D01*
X607897Y170320D01*
X608133Y170331D01*
X608259Y170389D01*
X609029D01*
X609162Y170330D01*
X609506Y170321D01*
X609756Y170299D01*
X609930Y170270D01*
Y166950D01*
X621970D01*
Y178490D01*
D02*
G37*
G36*
X641020Y179760D02*
X635000D01*
Y173990D01*
X638450D01*
Y175260D01*
X638475Y175019D01*
X638551Y174803D01*
X638678Y174612D01*
X638856Y174447D01*
X639085Y174307D01*
X639364Y174193D01*
X639694Y174104D01*
X640075Y174041D01*
X640507Y174003D01*
X640990Y173990D01*
X641020D01*
Y179760D01*
D02*
G37*
G36*
X632460D02*
X626440D01*
Y173990D01*
X632460D01*
Y179760D01*
D02*
G37*
G36*
X641020Y171450D02*
X640990D01*
X640507Y171437D01*
X640075Y171399D01*
X639694Y171336D01*
X639364Y171247D01*
X639085Y171133D01*
X638856Y170993D01*
X638678Y170828D01*
X638551Y170637D01*
X638475Y170421D01*
X638450Y170180D01*
Y171450D01*
X635000D01*
Y165680D01*
X641020D01*
Y171450D01*
D02*
G37*
G36*
X527031Y198801D02*
X514369D01*
Y186248D01*
X514303Y186127D01*
X514325Y186052D01*
X514295Y185980D01*
X514369Y185801D01*
Y184679D01*
X515402D01*
X515523Y184613D01*
X515832Y184580D01*
X515937Y184542D01*
X516032Y184477D01*
X516155Y184343D01*
X516302Y184097D01*
X516454Y183718D01*
X516590Y183204D01*
X516695Y182558D01*
X516762Y181788D01*
X516786Y180865D01*
X516815Y180798D01*
Y176559D01*
X516128Y174899D01*
Y173081D01*
X516824Y171400D01*
X518110Y170114D01*
X519791Y169418D01*
X521609D01*
X523290Y170114D01*
X524576Y171400D01*
X525272Y173081D01*
Y174899D01*
X524585Y176559D01*
Y180798D01*
X524614Y180865D01*
X524638Y181788D01*
X524705Y182558D01*
X524810Y183204D01*
X524946Y183718D01*
X525098Y184097D01*
X525245Y184343D01*
X525368Y184477D01*
X525463Y184542D01*
X525568Y184580D01*
X525877Y184613D01*
X525998Y184679D01*
X527031D01*
Y185801D01*
X527105Y185980D01*
X527075Y186052D01*
X527097Y186127D01*
X527031Y186248D01*
Y198801D01*
D02*
G37*
G36*
X212205Y200715D02*
X175375D01*
Y175639D01*
X175314Y175534D01*
X175339Y175438D01*
X175301Y175345D01*
X175375Y175166D01*
Y174045D01*
X176355D01*
X176388Y173972D01*
X176460Y173739D01*
X176525Y173421D01*
X176620Y172421D01*
X176625Y172192D01*
X176572Y171926D01*
X176481Y171727D01*
X176445Y170687D01*
X176407Y170295D01*
X176354Y169950D01*
X176292Y169668D01*
X176226Y169455D01*
X176166Y169312D01*
X176125Y169242D01*
X176119Y169234D01*
X176043Y169171D01*
X176013Y169113D01*
X175952Y169088D01*
X175859Y168862D01*
X175692Y168612D01*
X175010Y168533D01*
X174328Y168612D01*
X174033Y169053D01*
X173444Y169447D01*
X172750Y169585D01*
X167770D01*
X167076Y169447D01*
X166487Y169053D01*
X166093Y168465D01*
X165955Y167770D01*
Y166810D01*
X165914Y166734D01*
X165893Y166533D01*
X165890Y166524D01*
X165884Y166516D01*
X165837Y166472D01*
X165706Y166392D01*
X165469Y166295D01*
X165122Y166201D01*
X164669Y166126D01*
X164116Y166077D01*
X163591Y166063D01*
X162846Y166067D01*
X160651Y166143D01*
X160299Y166201D01*
X159952Y166295D01*
X159715Y166392D01*
X159584Y166472D01*
X159536Y166516D01*
X159531Y166524D01*
X159528Y166533D01*
X159507Y166734D01*
X159440Y166857D01*
Y171400D01*
X157397D01*
X157274Y171467D01*
X157073Y171488D01*
X157064Y171491D01*
X157056Y171496D01*
X157012Y171544D01*
X156932Y171675D01*
X156835Y171912D01*
X156741Y172259D01*
X156666Y172712D01*
X156617Y173265D01*
X156599Y173946D01*
X156590Y173965D01*
X156599Y173984D01*
X156617Y174666D01*
X156666Y175219D01*
X156741Y175671D01*
X156835Y176018D01*
X156932Y176255D01*
X157012Y176387D01*
X157056Y176434D01*
X157064Y176439D01*
X157073Y176442D01*
X157274Y176463D01*
X157397Y176530D01*
X158590D01*
Y188070D01*
X148050D01*
Y176530D01*
X149243D01*
X149366Y176463D01*
X149567Y176442D01*
X149576Y176439D01*
X149584Y176434D01*
X149628Y176387D01*
X149708Y176255D01*
X149805Y176018D01*
X149899Y175671D01*
X149974Y175219D01*
X150023Y174666D01*
X150041Y173984D01*
X150049Y173965D01*
X150041Y173946D01*
X150023Y173265D01*
X149974Y172712D01*
X149899Y172259D01*
X149805Y171912D01*
X149708Y171675D01*
X149628Y171544D01*
X149584Y171496D01*
X149576Y171491D01*
X149567Y171488D01*
X149366Y171467D01*
X149243Y171400D01*
X147200D01*
Y155891D01*
X147192Y155882D01*
X147200Y155784D01*
Y155640D01*
X147126Y155461D01*
X147200Y155281D01*
Y154160D01*
X147805D01*
X147812Y154137D01*
X147892Y153732D01*
X148126Y150400D01*
X148135Y149268D01*
X148149Y149235D01*
X148535Y147298D01*
X149657Y145618D01*
X151338Y144495D01*
X153320Y144101D01*
X155302Y144495D01*
X156982Y145618D01*
X158105Y147298D01*
X158486Y149213D01*
X158504Y149255D01*
X158544Y151444D01*
X158660Y153096D01*
X158739Y153689D01*
X158828Y154137D01*
X158835Y154160D01*
X159440D01*
Y155281D01*
X159514Y155461D01*
X159440Y155640D01*
Y155784D01*
X159448Y155882D01*
X159440Y155891D01*
Y158703D01*
X159507Y158826D01*
X159528Y159027D01*
X159531Y159036D01*
X159536Y159044D01*
X159584Y159088D01*
X159715Y159168D01*
X159952Y159265D01*
X160121Y159311D01*
X162868Y159493D01*
X163591Y159497D01*
X164116Y159483D01*
X164669Y159434D01*
X165122Y159359D01*
X165469Y159265D01*
X165706Y159168D01*
X165837Y159088D01*
X165884Y159044D01*
X165890Y159036D01*
X165893Y159027D01*
X165914Y158826D01*
X165955Y158750D01*
Y157790D01*
X166093Y157095D01*
X166487Y156507D01*
X167076Y156113D01*
X167770Y155975D01*
X172750D01*
X173444Y156113D01*
X174033Y156507D01*
X174328Y156947D01*
X175010Y157027D01*
X175692Y156947D01*
X175859Y156699D01*
X175952Y156472D01*
X176022Y156443D01*
X176058Y156377D01*
X176142Y156309D01*
X176154Y156295D01*
X176191Y156237D01*
X176244Y156123D01*
X176303Y155951D01*
X176360Y155722D01*
X176407Y155455D01*
X176472Y154697D01*
X176481Y154254D01*
X176568Y154055D01*
X176769Y153041D01*
X177471Y151991D01*
X180971Y148491D01*
X182021Y147789D01*
X183260Y147543D01*
X199920D01*
X200014Y147501D01*
X200695Y147483D01*
X201248Y147434D01*
X201701Y147359D01*
X202048Y147265D01*
X202285Y147168D01*
X202416Y147088D01*
X202464Y147044D01*
X202469Y147036D01*
X202472Y147027D01*
X202493Y146826D01*
X202560Y146704D01*
Y145510D01*
X214100D01*
Y156050D01*
X202560D01*
Y154857D01*
X202493Y154734D01*
X202472Y154533D01*
X202469Y154524D01*
X202464Y154516D01*
X202416Y154472D01*
X202285Y154392D01*
X202048Y154295D01*
X201701Y154201D01*
X201248Y154126D01*
X200695Y154077D01*
X200014Y154059D01*
X199920Y154017D01*
X193879D01*
X193494Y155287D01*
X193949Y155591D01*
X194623Y156600D01*
X194860Y157790D01*
Y161510D01*
X189260D01*
Y162780D01*
X187990D01*
Y170880D01*
X186770D01*
X185580Y170643D01*
X184571Y169969D01*
X184500Y169863D01*
X184485Y169858D01*
X184198Y169814D01*
X183105Y170425D01*
X183048Y171178D01*
X183046Y171313D01*
X183103Y171599D01*
X183191Y171799D01*
X183206Y172427D01*
X183247Y172938D01*
X183311Y173355D01*
X183390Y173673D01*
X183470Y173887D01*
X183517Y173972D01*
X183582Y173980D01*
X183700Y174045D01*
X212205D01*
Y200715D01*
D02*
G37*
G36*
X632460Y171450D02*
X626440D01*
Y165680D01*
X632460D01*
Y171450D01*
D02*
G37*
G36*
X144110Y172670D02*
X137990D01*
Y164050D01*
X144110D01*
Y172670D01*
D02*
G37*
G36*
X135450D02*
X129330D01*
Y164050D01*
X135450D01*
Y172670D01*
D02*
G37*
G36*
X191750Y170880D02*
X190530D01*
Y164050D01*
X194860D01*
Y167770D01*
X194623Y168960D01*
X193949Y169969D01*
X192940Y170643D01*
X191750Y170880D01*
D02*
G37*
G36*
X278130Y173101D02*
X255270D01*
Y157099D01*
X278130D01*
Y161023D01*
X278197Y161146D01*
X278218Y161347D01*
X278221Y161356D01*
X278226Y161364D01*
X278274Y161408D01*
X278405Y161488D01*
X278642Y161585D01*
X278989Y161679D01*
X279442Y161754D01*
X279995Y161803D01*
X280676Y161821D01*
X280770Y161863D01*
X383815D01*
X383910Y161821D01*
X384577Y161805D01*
X385078Y161764D01*
X385243Y161739D01*
X385373Y161712D01*
X385447Y161691D01*
X385457Y161688D01*
X385504Y161662D01*
X385530Y161659D01*
X385541Y161655D01*
X385564Y161655D01*
X385603Y161651D01*
X386030Y161224D01*
X387711Y160528D01*
X389529D01*
X391210Y161224D01*
X392496Y162510D01*
X393192Y164191D01*
Y166009D01*
X392496Y167690D01*
X391210Y168976D01*
X389529Y169672D01*
X387711D01*
X386030Y168976D01*
X385603Y168549D01*
X385564Y168545D01*
X385541Y168545D01*
X385530Y168541D01*
X385504Y168538D01*
X385457Y168512D01*
X385447Y168508D01*
X385373Y168487D01*
X385243Y168461D01*
X385090Y168438D01*
X384258Y168383D01*
X383927Y168380D01*
X383827Y168337D01*
X280770D01*
X280676Y168379D01*
X279995Y168397D01*
X279442Y168446D01*
X278989Y168521D01*
X278642Y168615D01*
X278405Y168712D01*
X278274Y168792D01*
X278226Y168836D01*
X278221Y168844D01*
X278218Y168853D01*
X278197Y169054D01*
X278130Y169177D01*
Y173101D01*
D02*
G37*
G36*
X639750Y162490D02*
X627710D01*
Y160797D01*
X627643Y160674D01*
X627622Y160473D01*
X627619Y160464D01*
X627614Y160456D01*
X627566Y160412D01*
X627435Y160332D01*
X627198Y160235D01*
X626851Y160141D01*
X626399Y160066D01*
X625845Y160017D01*
X625164Y159999D01*
X625070Y159957D01*
X624610D01*
X624516Y159999D01*
X623834Y160017D01*
X623282Y160066D01*
X622829Y160141D01*
X622482Y160235D01*
X622245Y160332D01*
X622113Y160412D01*
X622066Y160456D01*
X622061Y160464D01*
X622058Y160473D01*
X622037Y160674D01*
X621970Y160797D01*
Y162490D01*
X609930D01*
Y150950D01*
X611873D01*
X611996Y150883D01*
X612197Y150862D01*
X612206Y150859D01*
X612214Y150854D01*
X612258Y150806D01*
X612338Y150675D01*
X612435Y150438D01*
X612529Y150091D01*
X612604Y149639D01*
X612653Y149086D01*
X612671Y148404D01*
X612713Y148310D01*
Y145299D01*
X612671Y145205D01*
X612653Y144524D01*
X612604Y143971D01*
X612529Y143518D01*
X612435Y143171D01*
X612338Y142934D01*
X612258Y142803D01*
X612214Y142756D01*
X612206Y142750D01*
X612197Y142747D01*
X611996Y142726D01*
X611920Y142685D01*
X610960D01*
X610266Y142547D01*
X609677Y142153D01*
X609283Y141565D01*
X609145Y140870D01*
Y135890D01*
X609283Y135196D01*
X608947Y133720D01*
X608898Y133660D01*
X608761Y133569D01*
X608087Y132560D01*
X607850Y131370D01*
Y130150D01*
X615950D01*
X621419D01*
Y131420D01*
X621490Y131179D01*
X621602Y130963D01*
X621754Y130772D01*
X621948Y130607D01*
X622183Y130468D01*
X622458Y130353D01*
X622775Y130264D01*
X623132Y130201D01*
X623530Y130163D01*
X623680Y130158D01*
X623745Y130160D01*
X624050Y130191D01*
Y131370D01*
X623813Y132560D01*
X623139Y133569D01*
X623002Y133660D01*
X622953Y133720D01*
X622617Y135196D01*
X622755Y135890D01*
Y140870D01*
X622617Y141565D01*
X622223Y142153D01*
X621634Y142547D01*
X620940Y142685D01*
X619980D01*
X619904Y142726D01*
X619703Y142747D01*
X619694Y142750D01*
X619686Y142756D01*
X619642Y142803D01*
X619562Y142934D01*
X619465Y143171D01*
X619371Y143518D01*
X619296Y143971D01*
X619247Y144524D01*
X619229Y145205D01*
X619187Y145299D01*
Y148310D01*
X619229Y148404D01*
X619247Y149086D01*
X619296Y149639D01*
X619371Y150091D01*
X619465Y150438D01*
X619562Y150675D01*
X619642Y150807D01*
X619686Y150854D01*
X619694Y150859D01*
X619703Y150862D01*
X619904Y150883D01*
X620027Y150950D01*
X621970D01*
Y152643D01*
X622037Y152766D01*
X622058Y152967D01*
X622061Y152976D01*
X622066Y152984D01*
X622114Y153028D01*
X622245Y153108D01*
X622482Y153205D01*
X622829Y153299D01*
X623282Y153374D01*
X623834Y153423D01*
X624516Y153441D01*
X624610Y153483D01*
X625070D01*
X625164Y153441D01*
X625845Y153423D01*
X626399Y153374D01*
X626851Y153299D01*
X627198Y153205D01*
X627435Y153108D01*
X627566Y153028D01*
X627614Y152984D01*
X627619Y152976D01*
X627622Y152967D01*
X627643Y152766D01*
X627710Y152643D01*
Y150950D01*
X639750D01*
Y162490D01*
D02*
G37*
G36*
X809330Y176870D02*
X785790D01*
Y153330D01*
X809330D01*
Y176870D01*
D02*
G37*
G36*
X144110Y161510D02*
X137990D01*
Y152890D01*
X144110D01*
Y161510D01*
D02*
G37*
G36*
X135450D02*
X129330D01*
Y152890D01*
X135450D01*
Y161510D01*
D02*
G37*
G36*
X573679Y169292D02*
X571861D01*
X570180Y168596D01*
X568894Y167310D01*
X568198Y165629D01*
Y163811D01*
X568894Y162130D01*
X569368Y161657D01*
X569457Y161420D01*
X569616Y161252D01*
X569720Y161120D01*
X569811Y160983D01*
X569890Y160838D01*
X569958Y160683D01*
X569645Y159984D01*
X569518Y159802D01*
X569219Y159509D01*
X569124Y159440D01*
X566750D01*
Y147900D01*
X578790D01*
Y159440D01*
X576416D01*
X576321Y159509D01*
X576022Y159802D01*
X575895Y159984D01*
X575582Y160683D01*
X575650Y160838D01*
X575729Y160983D01*
X575820Y161120D01*
X575924Y161252D01*
X576083Y161420D01*
X576172Y161657D01*
X576646Y162130D01*
X577342Y163811D01*
Y165629D01*
X576646Y167310D01*
X575360Y168596D01*
X573679Y169292D01*
D02*
G37*
G36*
X470809Y149352D02*
X468991D01*
X467310Y148656D01*
X466024Y147370D01*
X465328Y145689D01*
Y145020D01*
X465224Y144789D01*
X465217Y144558D01*
X465198Y144391D01*
X465165Y144230D01*
X465119Y144071D01*
X465057Y143914D01*
X464980Y143756D01*
X464885Y143596D01*
X464769Y143432D01*
X464633Y143264D01*
X464443Y143062D01*
X464397Y142939D01*
X463747Y142290D01*
X447168D01*
X447046Y142344D01*
X446606Y142356D01*
X446269Y142386D01*
X446006Y142429D01*
X445825Y142478D01*
X445774Y142499D01*
X445770Y142507D01*
Y147701D01*
X422910D01*
Y131699D01*
X445770D01*
Y136894D01*
X445774Y136901D01*
X445825Y136922D01*
X446006Y136971D01*
X446269Y137015D01*
X446606Y137044D01*
X447046Y137056D01*
X447168Y137110D01*
X464820D01*
X465811Y137307D01*
X466651Y137869D01*
X468059Y139277D01*
X468182Y139323D01*
X468384Y139513D01*
X468551Y139649D01*
X468716Y139765D01*
X468876Y139860D01*
X469034Y139937D01*
X469191Y139999D01*
X469350Y140045D01*
X469511Y140078D01*
X469678Y140097D01*
X469909Y140104D01*
X470140Y140208D01*
X470809D01*
X472490Y140904D01*
X473776Y142190D01*
X474472Y143871D01*
Y145689D01*
X473776Y147370D01*
X472490Y148656D01*
X470809Y149352D01*
D02*
G37*
G36*
X191750Y142585D02*
X186770D01*
X186075Y142447D01*
X185487Y142053D01*
X185192Y141613D01*
X184510Y141533D01*
X183828Y141613D01*
X183533Y142053D01*
X182945Y142447D01*
X182250Y142585D01*
X177270D01*
X176576Y142447D01*
X175987Y142053D01*
X175692Y141613D01*
X175010Y141533D01*
X174328Y141613D01*
X174033Y142053D01*
X173444Y142447D01*
X172750Y142585D01*
X167770D01*
X167076Y142447D01*
X166487Y142053D01*
X166093Y141465D01*
X165955Y140770D01*
Y139810D01*
X165914Y139734D01*
X165893Y139533D01*
X165890Y139524D01*
X165884Y139516D01*
X165837Y139472D01*
X165706Y139392D01*
X165469Y139295D01*
X165122Y139201D01*
X164669Y139126D01*
X164116Y139077D01*
X163435Y139059D01*
X163341Y139017D01*
X161985D01*
X161892Y139059D01*
X160563Y139100D01*
X160073Y139146D01*
X159667Y139207D01*
X159368Y139275D01*
X159340Y139285D01*
Y140050D01*
X158219D01*
X158040Y140124D01*
X157916Y140073D01*
X157785Y140100D01*
X157708Y140050D01*
X149610D01*
Y141320D01*
X144590D01*
Y135780D01*
Y130240D01*
X149610D01*
Y130240D01*
X150737Y129896D01*
X150934Y129727D01*
X151027Y129497D01*
X151033Y129277D01*
X151023Y128895D01*
X150974Y128342D01*
X150899Y127889D01*
X150805Y127542D01*
X150708Y127305D01*
X150628Y127174D01*
X150584Y127126D01*
X150576Y127121D01*
X150567Y127118D01*
X150366Y127097D01*
X150243Y127030D01*
X148550D01*
Y114490D01*
X150243D01*
X150366Y114423D01*
X150567Y114402D01*
X150576Y114399D01*
X150584Y114394D01*
X150628Y114347D01*
X150708Y114215D01*
X150805Y113978D01*
X150899Y113631D01*
X150974Y113179D01*
X151023Y112626D01*
X151041Y111944D01*
X151067Y111885D01*
X151041Y111826D01*
X151023Y111145D01*
X150974Y110591D01*
X150899Y110139D01*
X150805Y109792D01*
X150708Y109555D01*
X150628Y109424D01*
X150584Y109376D01*
X150576Y109371D01*
X150567Y109368D01*
X150366Y109347D01*
X150243Y109280D01*
X148550D01*
Y97740D01*
X159090D01*
Y107695D01*
X159153Y107805D01*
X159129Y107894D01*
X159164Y107979D01*
X159090Y108159D01*
Y109280D01*
X158074D01*
X157964Y109343D01*
X157947Y109345D01*
X157888Y109462D01*
X157802Y109719D01*
X157725Y110066D01*
X157614Y111151D01*
X157599Y111819D01*
X157571Y111882D01*
X157599Y111944D01*
X157617Y112626D01*
X157666Y113179D01*
X157741Y113631D01*
X157835Y113978D01*
X157932Y114215D01*
X158012Y114347D01*
X158056Y114394D01*
X158064Y114399D01*
X158073Y114402D01*
X158274Y114423D01*
X158397Y114490D01*
X160090D01*
Y127030D01*
X158397D01*
X158274Y127097D01*
X158073Y127118D01*
X158064Y127121D01*
X158056Y127126D01*
X158012Y127174D01*
X157932Y127305D01*
X157835Y127542D01*
X157741Y127889D01*
X157666Y128342D01*
X157617Y128895D01*
X157607Y129277D01*
X157616Y129649D01*
X157663Y130207D01*
X157736Y130665D01*
X157826Y131017D01*
X157921Y131259D01*
X157998Y131392D01*
X158028Y131426D01*
X158190Y131444D01*
X158310Y131510D01*
X159340D01*
Y132275D01*
X159368Y132285D01*
X159667Y132353D01*
X160057Y132412D01*
X161183Y132490D01*
X161870Y132500D01*
X161968Y132543D01*
X163341D01*
X163435Y132501D01*
X164116Y132483D01*
X164669Y132434D01*
X165122Y132359D01*
X165469Y132265D01*
X165706Y132168D01*
X165837Y132088D01*
X165884Y132044D01*
X165890Y132036D01*
X165893Y132027D01*
X165914Y131826D01*
X165955Y131750D01*
Y130790D01*
X166093Y130096D01*
X166487Y129507D01*
X167076Y129113D01*
X167770Y128975D01*
X172750D01*
X173444Y129113D01*
X174033Y129507D01*
X174328Y129948D01*
X175010Y130027D01*
X175692Y129948D01*
X175859Y129698D01*
X175952Y129472D01*
X176004Y129451D01*
X176030Y129400D01*
X176098Y129342D01*
X176101Y129338D01*
X176147Y129253D01*
X176213Y129081D01*
X176284Y128827D01*
X176343Y128528D01*
X176407Y127800D01*
X176339Y127389D01*
X176245Y127042D01*
X176148Y126805D01*
X176068Y126673D01*
X176024Y126626D01*
X176016Y126621D01*
X176007Y126618D01*
X175806Y126597D01*
X175683Y126530D01*
X174490D01*
Y114990D01*
X185030D01*
Y116683D01*
X185097Y116806D01*
X185118Y117007D01*
X185121Y117016D01*
X185126Y117024D01*
X185173Y117068D01*
X185305Y117148D01*
X185542Y117245D01*
X185889Y117339D01*
X186341Y117414D01*
X186894Y117463D01*
X187576Y117481D01*
X187670Y117523D01*
X191670D01*
X191764Y117481D01*
X192446Y117463D01*
X192999Y117414D01*
X193451Y117339D01*
X193798Y117245D01*
X194035Y117148D01*
X194167Y117068D01*
X194214Y117024D01*
X194219Y117016D01*
X194222Y117007D01*
X194243Y116806D01*
X194310Y116683D01*
Y114490D01*
X205850D01*
Y127030D01*
X194310D01*
Y124837D01*
X194243Y124714D01*
X194222Y124513D01*
X194219Y124504D01*
X194214Y124496D01*
X194166Y124452D01*
X194035Y124372D01*
X193798Y124275D01*
X193451Y124181D01*
X192999Y124106D01*
X192446Y124057D01*
X191764Y124039D01*
X191670Y123997D01*
X187670D01*
X187576Y124039D01*
X186894Y124057D01*
X186341Y124106D01*
X185889Y124181D01*
X185542Y124275D01*
X185305Y124372D01*
X185173Y124452D01*
X185126Y124496D01*
X185121Y124504D01*
X185118Y124513D01*
X185097Y124714D01*
X185030Y124837D01*
Y126530D01*
X183837D01*
X183714Y126597D01*
X183513Y126618D01*
X183504Y126621D01*
X183496Y126626D01*
X183452Y126674D01*
X183372Y126805D01*
X183275Y127042D01*
X183181Y127389D01*
X183106Y127842D01*
X183102Y127883D01*
X183117Y128107D01*
X183170Y128496D01*
X183236Y128827D01*
X183307Y129081D01*
X183373Y129253D01*
X183419Y129338D01*
X183421Y129342D01*
X183490Y129400D01*
X183516Y129451D01*
X183568Y129472D01*
X183661Y129698D01*
X183828Y129948D01*
X184510Y130027D01*
X185192Y129948D01*
X185487Y129507D01*
X186075Y129113D01*
X186770Y128975D01*
X191750D01*
X192444Y129113D01*
X193033Y129507D01*
X193427Y130096D01*
X193565Y130790D01*
Y131750D01*
X193606Y131826D01*
X193627Y132027D01*
X193630Y132036D01*
X193636Y132044D01*
X193683Y132088D01*
X193814Y132168D01*
X194051Y132265D01*
X194398Y132359D01*
X194851Y132434D01*
X195404Y132483D01*
X196085Y132501D01*
X196179Y132543D01*
X199920D01*
X200014Y132501D01*
X200695Y132483D01*
X201248Y132434D01*
X201701Y132359D01*
X202048Y132265D01*
X202285Y132168D01*
X202416Y132088D01*
X202464Y132044D01*
X202469Y132036D01*
X202472Y132027D01*
X202493Y131826D01*
X202560Y131703D01*
Y130510D01*
X214100D01*
Y141050D01*
X202560D01*
Y139857D01*
X202493Y139734D01*
X202472Y139533D01*
X202469Y139524D01*
X202464Y139516D01*
X202416Y139472D01*
X202285Y139392D01*
X202048Y139295D01*
X201701Y139201D01*
X201248Y139126D01*
X200695Y139077D01*
X200014Y139059D01*
X199920Y139017D01*
X196179D01*
X196085Y139059D01*
X195404Y139077D01*
X194851Y139126D01*
X194398Y139201D01*
X194051Y139295D01*
X193814Y139392D01*
X193683Y139472D01*
X193636Y139516D01*
X193630Y139524D01*
X193627Y139533D01*
X193606Y139734D01*
X193565Y139810D01*
Y140770D01*
X193427Y141465D01*
X193033Y142053D01*
X192444Y142447D01*
X191750Y142585D01*
D02*
G37*
G36*
X718820Y161390D02*
X716838Y160995D01*
X715157Y159873D01*
X714035Y158192D01*
X713655Y156282D01*
X713636Y156238D01*
X713590Y154047D01*
X713458Y152401D01*
X713369Y151817D01*
X713269Y151381D01*
X713244Y151310D01*
X712550D01*
Y150189D01*
X712476Y150009D01*
X712550Y149830D01*
Y149829D01*
X712527Y149637D01*
X712550Y149608D01*
Y139770D01*
X725090D01*
Y149608D01*
X725113Y149637D01*
X725090Y149829D01*
Y149830D01*
X725164Y150009D01*
X725090Y150189D01*
Y151310D01*
X724396D01*
X724371Y151381D01*
X724271Y151817D01*
X724184Y152389D01*
X724016Y155082D01*
X724005Y156223D01*
X723990Y156258D01*
X723605Y158192D01*
X722483Y159873D01*
X720802Y160995D01*
X718820Y161390D01*
D02*
G37*
G36*
X142050Y141320D02*
X137030D01*
Y137050D01*
X142050D01*
Y141320D01*
D02*
G37*
G36*
X278130Y147701D02*
X255270D01*
Y131699D01*
X278130D01*
Y135623D01*
X278197Y135746D01*
X278218Y135947D01*
X278221Y135956D01*
X278226Y135964D01*
X278274Y136008D01*
X278405Y136088D01*
X278642Y136185D01*
X278989Y136279D01*
X279442Y136354D01*
X279995Y136403D01*
X280676Y136421D01*
X280770Y136463D01*
X383815D01*
X383910Y136421D01*
X384577Y136405D01*
X385078Y136364D01*
X385243Y136339D01*
X385373Y136313D01*
X385447Y136292D01*
X385457Y136287D01*
X385504Y136262D01*
X385530Y136259D01*
X385541Y136255D01*
X385564Y136255D01*
X385603Y136251D01*
X386030Y135824D01*
X387711Y135128D01*
X389529D01*
X391210Y135824D01*
X392496Y137110D01*
X393192Y138791D01*
Y140609D01*
X392496Y142290D01*
X391210Y143576D01*
X389529Y144272D01*
X387711D01*
X386030Y143576D01*
X385603Y143149D01*
X385564Y143145D01*
X385541Y143145D01*
X385530Y143141D01*
X385504Y143138D01*
X385457Y143112D01*
X385447Y143109D01*
X385373Y143088D01*
X385243Y143061D01*
X385090Y143038D01*
X384258Y142983D01*
X383927Y142980D01*
X383827Y142937D01*
X280770D01*
X280676Y142979D01*
X279995Y142997D01*
X279442Y143046D01*
X278989Y143121D01*
X278642Y143215D01*
X278405Y143312D01*
X278274Y143392D01*
X278226Y143436D01*
X278221Y143444D01*
X278218Y143453D01*
X278197Y143654D01*
X278130Y143777D01*
Y147701D01*
D02*
G37*
G36*
X142050Y134510D02*
X137030D01*
Y130240D01*
X142050D01*
Y134510D01*
D02*
G37*
G36*
X483509Y132842D02*
X481691D01*
X480010Y132146D01*
X479532Y131667D01*
X479290Y131573D01*
X479065Y131357D01*
X478874Y131196D01*
X478689Y131060D01*
X478508Y130947D01*
X478333Y130856D01*
X478161Y130784D01*
X477993Y130730D01*
X477824Y130692D01*
X477653Y130670D01*
X477417Y130659D01*
X477291Y130601D01*
X469900D01*
X469008Y130423D01*
X468252Y129918D01*
X458092Y119758D01*
X457587Y119002D01*
X457409Y118110D01*
Y72262D01*
X450978Y65831D01*
X446671D01*
X446538Y65890D01*
X446194Y65899D01*
X445944Y65921D01*
X445770Y65950D01*
Y71501D01*
X422910D01*
Y55499D01*
X445770D01*
Y61050D01*
X445944Y61079D01*
X446194Y61101D01*
X446538Y61110D01*
X446671Y61169D01*
X451943D01*
X452835Y61347D01*
X453591Y61852D01*
X461388Y69648D01*
X461893Y70405D01*
X462071Y71297D01*
Y117145D01*
X470866Y125939D01*
X477291D01*
X477417Y125881D01*
X477653Y125870D01*
X477824Y125848D01*
X477993Y125810D01*
X478161Y125756D01*
X478333Y125684D01*
X478508Y125593D01*
X478688Y125480D01*
X478874Y125344D01*
X479065Y125183D01*
X479290Y124967D01*
X479532Y124873D01*
X480010Y124394D01*
X481691Y123698D01*
X483509D01*
X485190Y124394D01*
X486476Y125680D01*
X487172Y127361D01*
Y129179D01*
X486476Y130860D01*
X485190Y132146D01*
X483509Y132842D01*
D02*
G37*
G36*
X554150Y126420D02*
X548880D01*
Y120650D01*
X554150D01*
Y126420D01*
D02*
G37*
G36*
X546340D02*
X541070D01*
Y120650D01*
X541101D01*
D01*
X541583Y120663D01*
X542015Y120701D01*
X542396Y120764D01*
X542726Y120853D01*
X543005Y120968D01*
X543234Y121107D01*
X543412Y121272D01*
X543539Y121463D01*
X543615Y121679D01*
X543641Y121920D01*
Y120650D01*
X546340D01*
Y126420D01*
D02*
G37*
G36*
X278130Y122301D02*
X255270D01*
Y117107D01*
X255266Y117099D01*
X255215Y117078D01*
X255034Y117029D01*
X254771Y116986D01*
X254434Y116956D01*
X253994Y116944D01*
X253872Y116890D01*
X252843D01*
X252723Y116944D01*
X252446Y116953D01*
X252231Y116974D01*
X252034Y117009D01*
X251853Y117055D01*
X251686Y117112D01*
X251532Y117180D01*
X251387Y117259D01*
X251250Y117350D01*
X251118Y117454D01*
X250950Y117613D01*
X250713Y117702D01*
X250240Y118176D01*
X248559Y118872D01*
X246741D01*
X245060Y118176D01*
X243774Y116890D01*
X243078Y115209D01*
Y113391D01*
X243774Y111710D01*
X245060Y110424D01*
X246741Y109728D01*
X248559D01*
X250240Y110424D01*
X250713Y110898D01*
X250950Y110987D01*
X251118Y111146D01*
X251250Y111250D01*
X251387Y111341D01*
X251532Y111420D01*
X251686Y111488D01*
X251853Y111545D01*
X252034Y111591D01*
X252231Y111626D01*
X252446Y111647D01*
X252723Y111656D01*
X252843Y111710D01*
X253872D01*
X253994Y111656D01*
X254434Y111644D01*
X254771Y111615D01*
X255034Y111571D01*
X255215Y111522D01*
X255266Y111501D01*
X255270Y111493D01*
Y106299D01*
X278130D01*
Y122301D01*
D02*
G37*
G36*
X546340Y118110D02*
X543641D01*
Y116840D01*
X543615Y117081D01*
X543539Y117297D01*
X543412Y117488D01*
X543234Y117653D01*
X543005Y117793D01*
X542726Y117907D01*
X542396Y117996D01*
X542015Y118059D01*
X541583Y118097D01*
X541101Y118110D01*
X541070D01*
Y112340D01*
X546340D01*
Y118110D01*
D02*
G37*
G36*
X567880Y125150D02*
X557340D01*
Y113610D01*
X567880D01*
Y116573D01*
X567884Y116581D01*
X567935Y116602D01*
X568116Y116651D01*
X568379Y116694D01*
X568716Y116724D01*
X569156Y116736D01*
X569278Y116790D01*
X571087D01*
X571207Y116736D01*
X571484Y116727D01*
X571699Y116706D01*
X571896Y116671D01*
X572077Y116625D01*
X572243Y116568D01*
X572398Y116500D01*
X572543Y116421D01*
X572680Y116330D01*
X572812Y116226D01*
X572980Y116067D01*
X573217Y115978D01*
X573690Y115504D01*
X575371Y114808D01*
X577189D01*
X578870Y115504D01*
X579343Y115978D01*
X579580Y116067D01*
X579748Y116226D01*
X579880Y116330D01*
X580017Y116421D01*
X580162Y116500D01*
X580317Y116568D01*
X580483Y116625D01*
X580664Y116671D01*
X580861Y116706D01*
X581076Y116727D01*
X581353Y116736D01*
X581473Y116790D01*
X581770D01*
X581891Y116736D01*
X582285Y116725D01*
X582582Y116696D01*
X582818Y116654D01*
X582991Y116606D01*
X583099Y116561D01*
X583137Y116538D01*
X583162Y116452D01*
X583255Y116337D01*
X583283Y116195D01*
X583677Y115607D01*
X584266Y115213D01*
X584960Y115075D01*
X594940D01*
X595634Y115213D01*
X596223Y115607D01*
X596617Y116195D01*
X596755Y116890D01*
Y121870D01*
X596617Y122564D01*
X596223Y123153D01*
X595634Y123547D01*
X594940Y123685D01*
X584960D01*
X584266Y123547D01*
X583677Y123153D01*
X583283Y122564D01*
X583255Y122423D01*
X583162Y122308D01*
X583137Y122222D01*
X583099Y122199D01*
X582991Y122154D01*
X582818Y122106D01*
X582582Y122064D01*
X582285Y122035D01*
X581891Y122024D01*
X581770Y121970D01*
X581473D01*
X581353Y122024D01*
X581076Y122033D01*
X580861Y122054D01*
X580664Y122089D01*
X580483Y122135D01*
X580317Y122192D01*
X580162Y122260D01*
X580017Y122339D01*
X579880Y122430D01*
X579748Y122534D01*
X579580Y122693D01*
X579343Y122782D01*
X578870Y123256D01*
X577189Y123952D01*
X575371D01*
X573690Y123256D01*
X573217Y122782D01*
X572980Y122693D01*
X572812Y122534D01*
X572680Y122430D01*
X572543Y122339D01*
X572398Y122260D01*
X572243Y122192D01*
X572077Y122135D01*
X571896Y122089D01*
X571699Y122054D01*
X571484Y122033D01*
X571207Y122024D01*
X571087Y121970D01*
X569278D01*
X569156Y122024D01*
X568716Y122036D01*
X568379Y122065D01*
X568116Y122109D01*
X567935Y122158D01*
X567884Y122179D01*
X567880Y122187D01*
Y125150D01*
D02*
G37*
G36*
X554150Y118110D02*
X548880D01*
Y112340D01*
X554150D01*
Y118110D01*
D02*
G37*
G36*
X445770Y122301D02*
X422910D01*
Y106299D01*
X445770D01*
Y122301D01*
D02*
G37*
G36*
X725090Y135310D02*
X712550D01*
Y123770D01*
X714743D01*
X714866Y123703D01*
X715067Y123682D01*
X715076Y123679D01*
X715084Y123674D01*
X715128Y123626D01*
X715208Y123495D01*
X715305Y123258D01*
X715399Y122911D01*
X715474Y122458D01*
X715523Y121905D01*
X715541Y121224D01*
X715583Y121130D01*
Y116310D01*
X715541Y116216D01*
X715523Y115534D01*
X715474Y114981D01*
X715399Y114529D01*
X715305Y114182D01*
X715208Y113945D01*
X715128Y113813D01*
X715084Y113766D01*
X715076Y113761D01*
X715067Y113758D01*
X714866Y113737D01*
X714743Y113670D01*
X706250D01*
Y105677D01*
X706183Y105554D01*
X706162Y105353D01*
X706159Y105344D01*
X706154Y105336D01*
X706106Y105292D01*
X705975Y105212D01*
X705738Y105115D01*
X705391Y105021D01*
X704939Y104946D01*
X704386Y104897D01*
X703704Y104879D01*
X703610Y104837D01*
X694590D01*
X694496Y104879D01*
X693814Y104897D01*
X693261Y104946D01*
X692809Y105021D01*
X692462Y105115D01*
X692225Y105212D01*
X692094Y105292D01*
X692046Y105336D01*
X692041Y105344D01*
X692038Y105353D01*
X692017Y105554D01*
X691950Y105677D01*
Y107620D01*
X680410D01*
Y95580D01*
X691950D01*
Y97523D01*
X692017Y97646D01*
X692038Y97847D01*
X692041Y97856D01*
X692046Y97864D01*
X692094Y97908D01*
X692225Y97988D01*
X692462Y98085D01*
X692809Y98179D01*
X693261Y98254D01*
X693814Y98303D01*
X694496Y98321D01*
X694590Y98363D01*
X703610D01*
X703704Y98321D01*
X704386Y98303D01*
X704939Y98254D01*
X705391Y98179D01*
X705738Y98085D01*
X705975Y97988D01*
X706106Y97908D01*
X706154Y97864D01*
X706159Y97856D01*
X706162Y97847D01*
X706183Y97646D01*
X706250Y97523D01*
Y89530D01*
X731390D01*
Y97523D01*
X731457Y97646D01*
X731478Y97847D01*
X731481Y97856D01*
X731486Y97864D01*
X731534Y97908D01*
X731665Y97988D01*
X731902Y98085D01*
X732249Y98179D01*
X732701Y98254D01*
X733254Y98303D01*
X733936Y98321D01*
X734030Y98363D01*
X784860D01*
X786099Y98609D01*
X787149Y99311D01*
X787969Y100131D01*
X788052Y100159D01*
X788570Y100609D01*
X789114Y100969D01*
X789766Y101300D01*
X790529Y101597D01*
X791406Y101855D01*
X792394Y102068D01*
X793477Y102231D01*
X796035Y102414D01*
X797467Y102426D01*
X797712Y102530D01*
X799110D01*
X802103Y103332D01*
X804787Y104882D01*
X806978Y107073D01*
X808528Y109757D01*
X809330Y112750D01*
Y115850D01*
X808528Y118843D01*
X806978Y121527D01*
X804787Y123718D01*
X802103Y125268D01*
X799110Y126070D01*
X796010D01*
X793017Y125268D01*
X790333Y123718D01*
X788142Y121527D01*
X786592Y118843D01*
X785790Y115850D01*
Y114465D01*
X785686Y114233D01*
X785608Y111428D01*
X785493Y110233D01*
X785328Y109134D01*
X785115Y108146D01*
X784857Y107270D01*
X784560Y106506D01*
X784229Y105854D01*
X783869Y105310D01*
X783458Y104837D01*
X734030D01*
X733936Y104879D01*
X733254Y104897D01*
X732701Y104946D01*
X732249Y105021D01*
X731902Y105115D01*
X731665Y105212D01*
X731534Y105292D01*
X731486Y105336D01*
X731481Y105344D01*
X731478Y105353D01*
X731457Y105554D01*
X731390Y105677D01*
Y113670D01*
X722897D01*
X722774Y113737D01*
X722573Y113758D01*
X722564Y113761D01*
X722556Y113766D01*
X722512Y113814D01*
X722432Y113945D01*
X722335Y114182D01*
X722241Y114529D01*
X722166Y114981D01*
X722117Y115534D01*
X722099Y116216D01*
X722057Y116310D01*
Y121130D01*
X722099Y121224D01*
X722117Y121905D01*
X722166Y122458D01*
X722241Y122911D01*
X722335Y123258D01*
X722432Y123495D01*
X722512Y123626D01*
X722556Y123674D01*
X722564Y123679D01*
X722573Y123682D01*
X722774Y123703D01*
X722897Y123770D01*
X725090D01*
Y135310D01*
D02*
G37*
G36*
X207120Y110300D02*
X201350D01*
Y104030D01*
X207120D01*
Y110300D01*
D02*
G37*
G36*
X198810D02*
X193040D01*
Y104030D01*
X198810D01*
Y110300D01*
D02*
G37*
G36*
X175791Y109604D02*
X175611Y109530D01*
X174490D01*
Y109164D01*
X170901Y108951D01*
X169802Y108945D01*
X169772Y108932D01*
X167828Y108545D01*
X166147Y107423D01*
X165025Y105742D01*
X164631Y103760D01*
X165025Y101778D01*
X166147Y100098D01*
X167828Y98975D01*
X169741Y98594D01*
X169783Y98576D01*
X172797Y98517D01*
X174153Y98417D01*
X174490Y98372D01*
Y97990D01*
X175611D01*
X175791Y97916D01*
X175970Y97990D01*
X185030D01*
Y109530D01*
X175970D01*
X175791Y109604D01*
D02*
G37*
G36*
X57232Y175370D02*
X54528D01*
X51916Y174670D01*
X49574Y173318D01*
X47662Y171406D01*
X46310Y169064D01*
X45610Y166452D01*
Y163748D01*
X46310Y161136D01*
X47662Y158794D01*
X48486Y157970D01*
X48572Y157738D01*
X49000Y157276D01*
X49344Y156825D01*
X49649Y156334D01*
X49918Y155798D01*
X50149Y155216D01*
X50342Y154585D01*
X50494Y153903D01*
X50605Y153169D01*
X50672Y152383D01*
X50696Y151509D01*
X50700Y151498D01*
Y111365D01*
X36055Y96720D01*
X35648Y96754D01*
X34671Y96909D01*
X33868Y97115D01*
X33246Y97357D01*
X32801Y97616D01*
X32516Y97868D01*
X32348Y98109D01*
X32250Y98372D01*
X32196Y98862D01*
X32130Y98981D01*
Y108710D01*
X12390D01*
Y74170D01*
X32130D01*
Y83899D01*
X32196Y84018D01*
X32250Y84508D01*
X32348Y84771D01*
X32516Y85012D01*
X32801Y85264D01*
X33246Y85523D01*
X33869Y85765D01*
X34671Y85971D01*
X35648Y86126D01*
X36793Y86222D01*
X38134Y86256D01*
X38182Y86277D01*
X40082Y86655D01*
X41762Y87778D01*
X59542Y105557D01*
X59542Y105557D01*
X60665Y107238D01*
X61059Y109220D01*
Y151498D01*
X61064Y151509D01*
X61088Y152383D01*
X61156Y153169D01*
X61266Y153903D01*
X61418Y154585D01*
X61611Y155216D01*
X61842Y155798D01*
X62111Y156334D01*
X62416Y156825D01*
X62760Y157276D01*
X63188Y157738D01*
X63274Y157970D01*
X64098Y158794D01*
X65450Y161136D01*
X66150Y163748D01*
Y166452D01*
X65450Y169064D01*
X64098Y171406D01*
X62186Y173318D01*
X59844Y174670D01*
X57232Y175370D01*
D02*
G37*
G36*
X207120Y101490D02*
X201350D01*
Y95220D01*
X207120D01*
Y101490D01*
D02*
G37*
G36*
X198810D02*
X193040D01*
Y95220D01*
X198810D01*
Y101490D01*
D02*
G37*
G36*
X278130Y96901D02*
X255270D01*
Y91706D01*
X255266Y91699D01*
X255215Y91678D01*
X255034Y91629D01*
X254771Y91586D01*
X254434Y91556D01*
X253994Y91544D01*
X253872Y91490D01*
X253790D01*
X252799Y91293D01*
X251959Y90731D01*
X242111Y80883D01*
X241988Y80837D01*
X241786Y80647D01*
X241618Y80511D01*
X241454Y80395D01*
X241294Y80300D01*
X241136Y80223D01*
X240979Y80161D01*
X240820Y80115D01*
X240659Y80082D01*
X240492Y80063D01*
X240261Y80056D01*
X240030Y79952D01*
X239361D01*
X237680Y79256D01*
X236394Y77970D01*
X235698Y76289D01*
Y74471D01*
X236394Y72790D01*
X237680Y71504D01*
X239361Y70808D01*
X241179D01*
X242860Y71504D01*
X244146Y72790D01*
X244842Y74471D01*
Y75140D01*
X244946Y75371D01*
X244953Y75602D01*
X244972Y75769D01*
X245005Y75931D01*
X245051Y76089D01*
X245113Y76246D01*
X245190Y76404D01*
X245285Y76564D01*
X245401Y76729D01*
X245537Y76896D01*
X245727Y77098D01*
X245773Y77221D01*
X254000Y85448D01*
X255270Y84922D01*
Y80899D01*
X278130D01*
Y96901D01*
D02*
G37*
G36*
X96230Y108710D02*
X76490D01*
Y74170D01*
X96230D01*
Y83553D01*
X96297Y83676D01*
X96356Y84239D01*
X96473Y84572D01*
X96669Y84866D01*
X96983Y85157D01*
X97457Y85447D01*
X98113Y85716D01*
X98956Y85942D01*
X99980Y86113D01*
X101181Y86219D01*
X102586Y86256D01*
X102596Y86260D01*
X106680D01*
X108662Y86655D01*
X110343Y87778D01*
X111465Y89458D01*
X111860Y91440D01*
X111465Y93422D01*
X110343Y95103D01*
X108662Y96225D01*
X106680Y96620D01*
X102596D01*
X102586Y96624D01*
X101181Y96661D01*
X99980Y96767D01*
X98956Y96938D01*
X98113Y97165D01*
X97457Y97433D01*
X96983Y97723D01*
X96669Y98014D01*
X96473Y98308D01*
X96356Y98641D01*
X96297Y99204D01*
X96230Y99327D01*
Y108710D01*
D02*
G37*
G36*
X371749Y130302D02*
X369931D01*
X368250Y129606D01*
X366964Y128320D01*
X366268Y126639D01*
Y126036D01*
X366243Y126004D01*
X366227Y125989D01*
X366222Y125978D01*
X366205Y125957D01*
X366190Y125906D01*
X366186Y125896D01*
X366148Y125829D01*
X366076Y125719D01*
X365983Y125594D01*
X365434Y124967D01*
X365202Y124730D01*
X365162Y124630D01*
X307269Y66737D01*
X280770D01*
X280676Y66779D01*
X279995Y66797D01*
X279442Y66846D01*
X278989Y66921D01*
X278642Y67015D01*
X278405Y67112D01*
X278274Y67192D01*
X278226Y67236D01*
X278221Y67244D01*
X278218Y67253D01*
X278197Y67454D01*
X278130Y67577D01*
Y71501D01*
X255270D01*
Y55499D01*
X278130D01*
Y59423D01*
X278197Y59546D01*
X278218Y59747D01*
X278221Y59756D01*
X278226Y59764D01*
X278274Y59808D01*
X278405Y59888D01*
X278642Y59985D01*
X278989Y60079D01*
X279442Y60154D01*
X279995Y60203D01*
X280676Y60221D01*
X280770Y60263D01*
X308610D01*
X309849Y60509D01*
X310899Y61211D01*
X369731Y120043D01*
X369828Y120081D01*
X370310Y120541D01*
X370694Y120866D01*
X370829Y120966D01*
X370939Y121039D01*
X371007Y121076D01*
X371016Y121080D01*
X371068Y121095D01*
X371088Y121112D01*
X371099Y121117D01*
X371114Y121133D01*
X371146Y121158D01*
X371749D01*
X373430Y121854D01*
X374716Y123140D01*
X375412Y124821D01*
Y126639D01*
X374716Y128320D01*
X373430Y129606D01*
X371749Y130302D01*
D02*
G37*
G36*
X621419Y127610D02*
X615950D01*
X607850D01*
Y126390D01*
X608087Y125200D01*
X608761Y124191D01*
X608898Y124100D01*
X608947Y124040D01*
X609283Y122564D01*
X609145Y121870D01*
Y116890D01*
X609283Y116195D01*
X609677Y115607D01*
X610266Y115213D01*
X610960Y115075D01*
X620940D01*
X621634Y115213D01*
X622032Y115479D01*
X622258Y115572D01*
X622279Y115624D01*
X622330Y115650D01*
X622388Y115718D01*
X622392Y115722D01*
X622477Y115767D01*
X622649Y115833D01*
X622903Y115904D01*
X623202Y115963D01*
X624670Y116092D01*
X625259Y116101D01*
X625357Y116143D01*
X632229D01*
X636083Y112289D01*
Y110510D01*
X636041Y110416D01*
X636023Y109734D01*
X635974Y109181D01*
X635899Y108729D01*
X635805Y108382D01*
X635708Y108145D01*
X635628Y108013D01*
X635584Y107966D01*
X635576Y107961D01*
X635567Y107958D01*
X635366Y107937D01*
X635243Y107870D01*
X633550D01*
Y95330D01*
X635243D01*
X635366Y95263D01*
X635567Y95242D01*
X635576Y95239D01*
X635584Y95234D01*
X635628Y95186D01*
X635708Y95055D01*
X635805Y94818D01*
X635899Y94471D01*
X635974Y94018D01*
X636023Y93465D01*
X636041Y92784D01*
X636083Y92690D01*
Y80510D01*
X636041Y80416D01*
X636023Y79735D01*
X635974Y79181D01*
X635899Y78729D01*
X635805Y78382D01*
X635708Y78145D01*
X635628Y78014D01*
X635584Y77966D01*
X635576Y77961D01*
X635567Y77958D01*
X635366Y77937D01*
X635243Y77870D01*
X633300D01*
Y66330D01*
X645340D01*
Y77870D01*
X643397D01*
X643274Y77937D01*
X643073Y77958D01*
X643064Y77961D01*
X643056Y77966D01*
X643012Y78014D01*
X642932Y78145D01*
X642835Y78382D01*
X642741Y78729D01*
X642666Y79181D01*
X642617Y79735D01*
X642599Y80416D01*
X642557Y80510D01*
Y92690D01*
X642599Y92784D01*
X642617Y93465D01*
X642666Y94018D01*
X642741Y94471D01*
X642835Y94818D01*
X642932Y95055D01*
X643012Y95187D01*
X643056Y95234D01*
X643064Y95239D01*
X643073Y95242D01*
X643274Y95263D01*
X643397Y95330D01*
X645090D01*
Y107870D01*
X643397D01*
X643274Y107937D01*
X643073Y107958D01*
X643064Y107961D01*
X643056Y107966D01*
X643012Y108014D01*
X642932Y108145D01*
X642835Y108382D01*
X642741Y108729D01*
X642666Y109181D01*
X642617Y109734D01*
X642599Y110416D01*
X642557Y110510D01*
Y113630D01*
X642311Y114869D01*
X641609Y115919D01*
X635859Y121669D01*
X634809Y122371D01*
X633570Y122617D01*
X625357D01*
X625259Y122660D01*
X624656Y122668D01*
X623623Y122737D01*
X623312Y122780D01*
X623197Y122956D01*
X623010Y123772D01*
X623052Y124133D01*
X623139Y124191D01*
X623813Y125200D01*
X624050Y126390D01*
Y127569D01*
X623745Y127600D01*
X623680Y127602D01*
X623530Y127597D01*
X623132Y127559D01*
X622775Y127496D01*
X622458Y127407D01*
X622183Y127292D01*
X621948Y127153D01*
X621754Y126988D01*
X621602Y126797D01*
X621490Y126581D01*
X621419Y126340D01*
Y127610D01*
D02*
G37*
G36*
X186329Y89662D02*
X184511D01*
X182830Y88966D01*
X181544Y87680D01*
X180848Y85999D01*
Y84181D01*
X181544Y82500D01*
X182018Y82027D01*
X182107Y81790D01*
X182266Y81622D01*
X182370Y81490D01*
X182461Y81353D01*
X182540Y81208D01*
X182608Y81053D01*
X182665Y80887D01*
X182711Y80706D01*
X182746Y80509D01*
X182767Y80294D01*
X182776Y80017D01*
X182830Y79897D01*
Y77048D01*
X182776Y76926D01*
X182764Y76486D01*
X182735Y76149D01*
X182691Y75886D01*
X182642Y75705D01*
X182621Y75654D01*
X182613Y75650D01*
X180650D01*
Y66110D01*
X190190D01*
Y75650D01*
X188227D01*
X188219Y75654D01*
X188198Y75705D01*
X188149Y75886D01*
X188106Y76149D01*
X188076Y76486D01*
X188064Y76926D01*
X188010Y77048D01*
Y79897D01*
X188064Y80017D01*
X188073Y80294D01*
X188094Y80509D01*
X188129Y80706D01*
X188175Y80887D01*
X188232Y81053D01*
X188300Y81208D01*
X188379Y81353D01*
X188470Y81490D01*
X188574Y81622D01*
X188733Y81790D01*
X188822Y82027D01*
X189296Y82500D01*
X189992Y84181D01*
Y85999D01*
X189296Y87680D01*
X188010Y88966D01*
X186329Y89662D01*
D02*
G37*
G36*
X163469D02*
X161651D01*
X159970Y88966D01*
X158684Y87680D01*
X157988Y85999D01*
Y84181D01*
X158684Y82500D01*
X159158Y82027D01*
X159247Y81790D01*
X159406Y81622D01*
X159510Y81490D01*
X159601Y81353D01*
X159680Y81208D01*
X159748Y81053D01*
X159805Y80887D01*
X159851Y80706D01*
X159886Y80509D01*
X159907Y80294D01*
X159916Y80017D01*
X159970Y79897D01*
Y77048D01*
X159916Y76926D01*
X159904Y76486D01*
X159874Y76149D01*
X159831Y75886D01*
X159782Y75705D01*
X159761Y75654D01*
X159753Y75650D01*
X157790D01*
Y66110D01*
X167330D01*
Y75650D01*
X165366D01*
X165359Y75654D01*
X165338Y75705D01*
X165289Y75886D01*
X165245Y76149D01*
X165216Y76486D01*
X165204Y76926D01*
X165150Y77048D01*
Y79897D01*
X165204Y80017D01*
X165213Y80294D01*
X165234Y80509D01*
X165269Y80706D01*
X165315Y80887D01*
X165372Y81053D01*
X165440Y81208D01*
X165519Y81353D01*
X165610Y81490D01*
X165714Y81622D01*
X165873Y81790D01*
X165962Y82027D01*
X166436Y82500D01*
X167132Y84181D01*
Y85999D01*
X166436Y87680D01*
X165150Y88966D01*
X163469Y89662D01*
D02*
G37*
G36*
X140609D02*
X138791D01*
X137110Y88966D01*
X135824Y87680D01*
X135128Y85999D01*
Y84181D01*
X135824Y82500D01*
X136298Y82027D01*
X136387Y81790D01*
X136546Y81622D01*
X136650Y81490D01*
X136741Y81353D01*
X136820Y81208D01*
X136888Y81053D01*
X136945Y80887D01*
X136991Y80706D01*
X137026Y80509D01*
X137047Y80294D01*
X137056Y80017D01*
X137110Y79897D01*
Y77048D01*
X137056Y76926D01*
X137044Y76486D01*
X137015Y76149D01*
X136971Y75886D01*
X136922Y75705D01*
X136901Y75654D01*
X136893Y75650D01*
X134930D01*
Y66110D01*
X144470D01*
Y75650D01*
X142507D01*
X142499Y75654D01*
X142478Y75705D01*
X142429Y75886D01*
X142386Y76149D01*
X142356Y76486D01*
X142344Y76926D01*
X142290Y77048D01*
Y79897D01*
X142344Y80017D01*
X142353Y80294D01*
X142374Y80509D01*
X142409Y80706D01*
X142455Y80887D01*
X142512Y81053D01*
X142580Y81208D01*
X142659Y81353D01*
X142750Y81490D01*
X142854Y81622D01*
X143013Y81790D01*
X143102Y82027D01*
X143576Y82500D01*
X144272Y84181D01*
Y85999D01*
X143576Y87680D01*
X142290Y88966D01*
X140609Y89662D01*
D02*
G37*
G36*
X799277Y76540D02*
X798830D01*
Y64770D01*
X810600D01*
Y65217D01*
X809711Y68533D01*
X807995Y71507D01*
X805567Y73935D01*
X802593Y75651D01*
X799277Y76540D01*
D02*
G37*
G36*
X796290D02*
X795843D01*
X792527Y75651D01*
X789553Y73935D01*
X787125Y71507D01*
X785409Y68533D01*
X784520Y65217D01*
Y64770D01*
X796290D01*
Y76540D01*
D02*
G37*
G36*
X646610Y63140D02*
X640590D01*
Y57370D01*
X646610D01*
Y63140D01*
D02*
G37*
G36*
X638050D02*
X632030D01*
Y57370D01*
X638050D01*
Y63140D01*
D02*
G37*
G36*
X661090Y107870D02*
X649550D01*
Y95330D01*
X661090D01*
Y97523D01*
X661157Y97646D01*
X661178Y97847D01*
X661181Y97856D01*
X661186Y97864D01*
X661234Y97908D01*
X661365Y97988D01*
X661602Y98085D01*
X661949Y98179D01*
X662402Y98254D01*
X662750Y98285D01*
X663099Y98254D01*
X663551Y98179D01*
X663898Y98085D01*
X664135Y97988D01*
X664267Y97908D01*
X664314Y97864D01*
X664319Y97856D01*
X664322Y97847D01*
X664343Y97646D01*
X664410Y97523D01*
Y95580D01*
X666103D01*
X666226Y95513D01*
X666427Y95492D01*
X666436Y95489D01*
X666444Y95484D01*
X666488Y95436D01*
X666568Y95305D01*
X666665Y95068D01*
X666759Y94721D01*
X666834Y94269D01*
X666883Y93715D01*
X666901Y93034D01*
X666943Y92940D01*
Y81801D01*
X666901Y81706D01*
X666883Y81025D01*
X666834Y80472D01*
X666759Y80019D01*
X666665Y79672D01*
X666568Y79435D01*
X666488Y79304D01*
X666444Y79257D01*
X666436Y79252D01*
X666427Y79248D01*
X666226Y79227D01*
X666103Y79161D01*
X663849D01*
Y65161D01*
X663849Y65039D01*
X663556Y63891D01*
X662579D01*
Y56830D01*
X670180D01*
Y55560D01*
D01*
Y56830D01*
X677781D01*
Y63891D01*
X676804D01*
X676511Y65039D01*
X676511Y65161D01*
Y79161D01*
X674257D01*
X674134Y79227D01*
X673933Y79248D01*
X673924Y79252D01*
X673916Y79257D01*
X673872Y79304D01*
X673792Y79435D01*
X673695Y79673D01*
X673601Y80019D01*
X673526Y80472D01*
X673477Y81025D01*
X673459Y81706D01*
X673417Y81801D01*
Y92940D01*
X673459Y93034D01*
X673477Y93715D01*
X673526Y94269D01*
X673601Y94721D01*
X673695Y95068D01*
X673792Y95305D01*
X673872Y95436D01*
X673916Y95484D01*
X673924Y95489D01*
X673933Y95492D01*
X674134Y95513D01*
X674257Y95580D01*
X675950D01*
Y107620D01*
X664410D01*
Y105677D01*
X664343Y105554D01*
X664322Y105353D01*
X664319Y105344D01*
X664314Y105336D01*
X664266Y105292D01*
X664135Y105212D01*
X663898Y105115D01*
X663551Y105021D01*
X663099Y104946D01*
X662750Y104915D01*
X662402Y104946D01*
X661949Y105021D01*
X661602Y105115D01*
X661365Y105212D01*
X661234Y105292D01*
X661186Y105336D01*
X661181Y105344D01*
X661178Y105353D01*
X661157Y105554D01*
X661090Y105677D01*
Y107870D01*
D02*
G37*
G36*
X732660Y65940D02*
X720090D01*
Y53870D01*
X732660D01*
Y65940D01*
D02*
G37*
G36*
X717550D02*
X704980D01*
Y53870D01*
X717550D01*
Y65940D01*
D02*
G37*
G36*
X810600Y62230D02*
X798830D01*
Y50460D01*
X799277D01*
X802593Y51349D01*
X805567Y53065D01*
X807995Y55493D01*
X809711Y58467D01*
X810600Y61783D01*
Y62230D01*
D02*
G37*
G36*
X796290D02*
X784520D01*
Y61783D01*
X785409Y58467D01*
X787125Y55493D01*
X789553Y53065D01*
X792527Y51349D01*
X795843Y50460D01*
X796290D01*
Y62230D01*
D02*
G37*
G36*
X646610Y54830D02*
X640590D01*
Y51631D01*
X641860D01*
X641619Y51605D01*
X641403Y51529D01*
X641212Y51402D01*
X641047Y51224D01*
X640908Y50995D01*
X640793Y50716D01*
X640704Y50386D01*
X640641Y50005D01*
X640603Y49573D01*
X640600Y49480D01*
X640600Y49475D01*
X640632Y49164D01*
X640650Y49060D01*
X646610D01*
Y54830D01*
D02*
G37*
G36*
X638050D02*
X632030D01*
Y49060D01*
X637990D01*
X638008Y49164D01*
X638040Y49475D01*
X638040Y49480D01*
X638037Y49573D01*
X637999Y50005D01*
X637936Y50386D01*
X637847Y50716D01*
X637733Y50995D01*
X637593Y51224D01*
X637428Y51402D01*
X637237Y51529D01*
X637021Y51605D01*
X636780Y51631D01*
X638050D01*
Y54830D01*
D02*
G37*
G36*
X677781Y54290D02*
X671450D01*
Y49800D01*
X672720D01*
X672479Y49774D01*
X672263Y49698D01*
X672072Y49571D01*
X671907Y49394D01*
X671768Y49165D01*
X671653Y48885D01*
X671564Y48555D01*
X671501Y48174D01*
X671463Y47743D01*
X671450Y47260D01*
Y47229D01*
X677781D01*
Y54290D01*
D02*
G37*
G36*
X668910D02*
X662579D01*
Y47229D01*
X668910D01*
Y47260D01*
D01*
X668897Y47743D01*
X668859Y48174D01*
X668796Y48555D01*
X668707Y48885D01*
X668593Y49165D01*
X668453Y49394D01*
X668288Y49571D01*
X668097Y49698D01*
X667881Y49774D01*
X667640Y49800D01*
X668910D01*
Y54290D01*
D02*
G37*
G36*
X732660Y51330D02*
X720090D01*
Y41831D01*
X722630D01*
X722268Y41792D01*
X721944Y41678D01*
X721658Y41488D01*
X721411Y41221D01*
X721201Y40878D01*
X721030Y40459D01*
X720896Y39964D01*
X720801Y39392D01*
X720789Y39260D01*
X732660D01*
Y51330D01*
D02*
G37*
G36*
X717550D02*
X704980D01*
Y39260D01*
X716851D01*
X716839Y39392D01*
X716743Y39964D01*
X716610Y40459D01*
X716439Y40878D01*
X716229Y41221D01*
X715982Y41488D01*
X715696Y41678D01*
X715372Y41792D01*
X715010Y41831D01*
X717550D01*
Y51330D01*
D02*
G37*
G36*
X213050Y61650D02*
X203510D01*
Y53695D01*
X203447Y53585D01*
X203471Y53496D01*
X203436Y53411D01*
X203510Y53231D01*
Y52110D01*
X204526D01*
X204636Y52047D01*
X204653Y52045D01*
X204712Y51928D01*
X204798Y51670D01*
X204875Y51324D01*
X204986Y50239D01*
X205001Y49571D01*
X205043Y49475D01*
Y44850D01*
X205001Y44756D01*
X204983Y44075D01*
X204934Y43521D01*
X204859Y43069D01*
X204765Y42722D01*
X204668Y42485D01*
X204588Y42354D01*
X204544Y42306D01*
X204536Y42301D01*
X204527Y42298D01*
X204326Y42277D01*
X204203Y42210D01*
X202010D01*
Y29670D01*
X214550D01*
Y42210D01*
X212357D01*
X212234Y42277D01*
X212033Y42298D01*
X212024Y42301D01*
X212016Y42306D01*
X211972Y42354D01*
X211892Y42485D01*
X211795Y42722D01*
X211701Y43069D01*
X211626Y43521D01*
X211577Y44075D01*
X211559Y44756D01*
X211517Y44850D01*
Y49475D01*
X211559Y49571D01*
X211574Y50260D01*
X211616Y50829D01*
X211680Y51302D01*
X211762Y51670D01*
X211848Y51928D01*
X211907Y52045D01*
X211924Y52047D01*
X212034Y52110D01*
X213050D01*
Y53231D01*
X213124Y53411D01*
X213089Y53496D01*
X213113Y53585D01*
X213050Y53695D01*
Y61650D01*
D02*
G37*
G36*
X190190D02*
X180650D01*
Y53695D01*
X180587Y53585D01*
X180611Y53496D01*
X180576Y53411D01*
X180650Y53231D01*
Y52110D01*
X181666D01*
X181776Y52047D01*
X181793Y52045D01*
X181852Y51928D01*
X181938Y51670D01*
X182015Y51324D01*
X182126Y50239D01*
X182141Y49571D01*
X182183Y49475D01*
Y44850D01*
X182141Y44756D01*
X182123Y44075D01*
X182074Y43521D01*
X181999Y43069D01*
X181905Y42722D01*
X181808Y42485D01*
X181728Y42354D01*
X181684Y42306D01*
X181676Y42301D01*
X181667Y42298D01*
X181466Y42277D01*
X181343Y42210D01*
X179150D01*
Y29670D01*
X191690D01*
Y42210D01*
X189497D01*
X189374Y42277D01*
X189173Y42298D01*
X189164Y42301D01*
X189156Y42306D01*
X189112Y42354D01*
X189032Y42485D01*
X188935Y42722D01*
X188841Y43069D01*
X188766Y43521D01*
X188717Y44075D01*
X188699Y44756D01*
X188657Y44850D01*
Y49475D01*
X188699Y49571D01*
X188714Y50260D01*
X188755Y50829D01*
X188820Y51302D01*
X188902Y51670D01*
X188988Y51928D01*
X189047Y52045D01*
X189064Y52047D01*
X189174Y52110D01*
X190190D01*
Y53231D01*
X190264Y53411D01*
X190229Y53496D01*
X190253Y53585D01*
X190190Y53695D01*
Y61650D01*
D02*
G37*
G36*
X167330D02*
X157790D01*
Y53695D01*
X157727Y53585D01*
X157751Y53496D01*
X157716Y53411D01*
X157790Y53231D01*
Y52110D01*
X158806D01*
X158916Y52047D01*
X158933Y52045D01*
X158992Y51928D01*
X159078Y51670D01*
X159155Y51324D01*
X159266Y50239D01*
X159281Y49571D01*
X159323Y49475D01*
Y44850D01*
X159281Y44756D01*
X159263Y44075D01*
X159214Y43521D01*
X159139Y43069D01*
X159045Y42722D01*
X158948Y42485D01*
X158868Y42354D01*
X158824Y42306D01*
X158816Y42301D01*
X158807Y42298D01*
X158606Y42277D01*
X158483Y42210D01*
X156290D01*
Y29670D01*
X168830D01*
Y42210D01*
X166637D01*
X166514Y42277D01*
X166313Y42298D01*
X166304Y42301D01*
X166296Y42306D01*
X166252Y42354D01*
X166172Y42485D01*
X166075Y42722D01*
X165981Y43069D01*
X165906Y43521D01*
X165857Y44075D01*
X165839Y44756D01*
X165797Y44850D01*
Y49475D01*
X165839Y49571D01*
X165854Y50260D01*
X165896Y50829D01*
X165960Y51302D01*
X166042Y51670D01*
X166128Y51928D01*
X166187Y52045D01*
X166204Y52047D01*
X166314Y52110D01*
X167330D01*
Y53231D01*
X167404Y53411D01*
X167369Y53496D01*
X167393Y53585D01*
X167330Y53695D01*
Y61650D01*
D02*
G37*
G36*
X144470D02*
X134930D01*
Y53695D01*
X134867Y53585D01*
X134891Y53496D01*
X134856Y53411D01*
X134930Y53231D01*
Y52110D01*
X135946D01*
X136056Y52047D01*
X136073Y52045D01*
X136132Y51928D01*
X136218Y51670D01*
X136295Y51324D01*
X136406Y50239D01*
X136421Y49571D01*
X136463Y49475D01*
Y44850D01*
X136421Y44756D01*
X136403Y44075D01*
X136354Y43521D01*
X136279Y43069D01*
X136185Y42722D01*
X136088Y42485D01*
X136008Y42354D01*
X135964Y42306D01*
X135956Y42301D01*
X135947Y42298D01*
X135746Y42277D01*
X135623Y42210D01*
X133430D01*
Y29670D01*
X145970D01*
Y42210D01*
X143777D01*
X143654Y42277D01*
X143453Y42298D01*
X143444Y42301D01*
X143436Y42306D01*
X143392Y42354D01*
X143312Y42485D01*
X143215Y42722D01*
X143121Y43069D01*
X143046Y43521D01*
X142997Y44075D01*
X142979Y44756D01*
X142937Y44850D01*
Y49475D01*
X142979Y49571D01*
X142994Y50260D01*
X143035Y50829D01*
X143100Y51302D01*
X143182Y51670D01*
X143268Y51928D01*
X143327Y52045D01*
X143344Y52047D01*
X143454Y52110D01*
X144470D01*
Y53231D01*
X144544Y53411D01*
X144509Y53496D01*
X144533Y53585D01*
X144470Y53695D01*
Y61650D01*
D02*
G37*
G36*
X215820Y27480D02*
X209550D01*
Y21210D01*
X215820D01*
Y27480D01*
D02*
G37*
G36*
X192960D02*
X186690D01*
Y21210D01*
X192960D01*
Y27480D01*
D02*
G37*
G36*
X170100D02*
X163830D01*
Y21210D01*
X170100D01*
Y27480D01*
D02*
G37*
G36*
X147240D02*
X140970D01*
Y21210D01*
X147240D01*
Y27480D01*
D02*
G37*
G36*
X207010D02*
X200740D01*
Y21210D01*
X207010D01*
Y27480D01*
D02*
G37*
G36*
X184150D02*
X177880D01*
Y21210D01*
X184150D01*
Y27480D01*
D02*
G37*
G36*
X161290D02*
X155020D01*
Y21210D01*
X161290D01*
Y27480D01*
D02*
G37*
G36*
X138430D02*
X132160D01*
Y21210D01*
X138430D01*
Y27480D01*
D02*
G37*
G36*
X215820Y18670D02*
X209550D01*
Y12400D01*
X215820D01*
Y18670D01*
D02*
G37*
G36*
X207010D02*
X200740D01*
Y12400D01*
X207010D01*
Y18670D01*
D02*
G37*
G36*
X192960D02*
X186690D01*
Y12400D01*
X192960D01*
Y18670D01*
D02*
G37*
G36*
X184150D02*
X177880D01*
Y12400D01*
X184150D01*
Y18670D01*
D02*
G37*
G36*
X170100D02*
X163830D01*
Y12400D01*
X170100D01*
Y18670D01*
D02*
G37*
G36*
X161290D02*
X155020D01*
Y12400D01*
X161290D01*
Y18670D01*
D02*
G37*
G36*
X147240D02*
X140970D01*
Y12400D01*
X147240D01*
Y18670D01*
D02*
G37*
G36*
X138430D02*
X132160D01*
Y12400D01*
X138430D01*
Y18670D01*
D02*
G37*
%LPD*%
G36*
X834572Y265659D02*
X834361Y265856D01*
X834138Y266033D01*
X833903Y266190D01*
X833654Y266325D01*
X833394Y266440D01*
X833120Y266533D01*
X832834Y266606D01*
X832536Y266658D01*
X832225Y266690D01*
X831901Y266700D01*
Y269240D01*
X832225Y269250D01*
X832536Y269282D01*
X832834Y269334D01*
X833120Y269407D01*
X833394Y269500D01*
X833654Y269615D01*
X833903Y269750D01*
X834138Y269907D01*
X834361Y270084D01*
X834572Y270281D01*
Y265659D01*
D02*
G37*
G36*
X803984Y270035D02*
X804245Y269815D01*
X804510Y269621D01*
X804780Y269452D01*
X805054Y269310D01*
X805333Y269193D01*
X805616Y269103D01*
X805904Y269038D01*
X806196Y268999D01*
X806493Y268986D01*
Y266954D01*
X806196Y266941D01*
X805904Y266902D01*
X805616Y266837D01*
X805333Y266747D01*
X805054Y266630D01*
X804780Y266488D01*
X804510Y266319D01*
X804245Y266125D01*
X803984Y265905D01*
X803728Y265659D01*
Y270281D01*
X803984Y270035D01*
D02*
G37*
G36*
X838719Y265173D02*
X838610Y265042D01*
X838514Y264884D01*
X838431Y264699D01*
X838360Y264488D01*
X838303Y264250D01*
X838258Y263985D01*
X838226Y263693D01*
X838200Y263030D01*
X835660D01*
X835654Y263375D01*
X835602Y263985D01*
X835557Y264250D01*
X835500Y264488D01*
X835429Y264699D01*
X835346Y264884D01*
X835250Y265042D01*
X835141Y265173D01*
X835019Y265277D01*
X838841D01*
X838719Y265173D01*
D02*
G37*
G36*
X820386Y264202D02*
X820471Y263112D01*
X820522Y262833D01*
X820585Y262596D01*
X820659Y262401D01*
X820745Y262248D01*
X820842Y262138D01*
X820950Y262070D01*
X817270D01*
X817378Y262138D01*
X817475Y262248D01*
X817561Y262401D01*
X817635Y262596D01*
X817698Y262833D01*
X817749Y263112D01*
X817789Y263433D01*
X817834Y264202D01*
X817840Y264650D01*
X820380D01*
X820386Y264202D01*
D02*
G37*
G36*
X815134Y263810D02*
X815159Y263505D01*
X815200Y263228D01*
X815258Y262979D01*
X815332Y262758D01*
X815423Y262565D01*
X815530Y262399D01*
X815653Y262262D01*
X815793Y262152D01*
X815950Y262070D01*
X812270D01*
X812427Y262152D01*
X812567Y262262D01*
X812690Y262399D01*
X812797Y262565D01*
X812888Y262758D01*
X812962Y262979D01*
X813020Y263228D01*
X813061Y263505D01*
X813086Y263810D01*
X813094Y264142D01*
X815126D01*
X815134Y263810D01*
D02*
G37*
G36*
X728723Y264337D02*
X728757Y263952D01*
X729751D01*
X729554Y263741D01*
X729377Y263518D01*
X729220Y263283D01*
X729085Y263035D01*
X729030Y262910D01*
X729167Y262686D01*
X729332Y262508D01*
X729523Y262381D01*
X729739Y262305D01*
X729980Y262279D01*
X728820D01*
X728804Y262214D01*
X728752Y261916D01*
X728720Y261605D01*
X728710Y261281D01*
X726170D01*
X726160Y261605D01*
X726128Y261916D01*
X726076Y262214D01*
X726060Y262279D01*
X724900D01*
X725141Y262305D01*
X725357Y262381D01*
X725548Y262508D01*
X725713Y262686D01*
X725850Y262910D01*
X725795Y263035D01*
X725660Y263283D01*
X725503Y263518D01*
X725327Y263741D01*
X725129Y263952D01*
X726123D01*
X726157Y264337D01*
X726170Y264820D01*
X728710D01*
X728723Y264337D01*
D02*
G37*
G36*
X826157Y259340D02*
X826258Y259269D01*
X826405Y259206D01*
X826596Y259151D01*
X826832Y259105D01*
X827112Y259067D01*
X827807Y259017D01*
X828680Y259000D01*
Y256460D01*
X828221Y256456D01*
X826832Y256355D01*
X826596Y256309D01*
X826405Y256254D01*
X826258Y256191D01*
X826157Y256120D01*
X826100Y256040D01*
Y259420D01*
X826157Y259340D01*
D02*
G37*
G36*
X730433Y259425D02*
X730504Y259241D01*
X730621Y259078D01*
X730786Y258938D01*
X730998Y258818D01*
X731256Y258721D01*
X731562Y258645D01*
X731915Y258591D01*
X732315Y258559D01*
X732762Y258548D01*
Y256008D01*
X732315Y255997D01*
X731915Y255965D01*
X731562Y255910D01*
X731256Y255835D01*
X730998Y255737D01*
X730786Y255618D01*
X730621Y255477D01*
X730504Y255315D01*
X730433Y255131D01*
X730409Y254925D01*
Y259631D01*
X730433Y259425D01*
D02*
G37*
G36*
X807120Y251040D02*
X807049Y251168D01*
X806948Y251283D01*
X806817Y251384D01*
X806655Y251472D01*
X806463Y251546D01*
X806240Y251606D01*
X805988Y251653D01*
X805705Y251687D01*
X805391Y251707D01*
X805048Y251714D01*
Y253746D01*
X805391Y253753D01*
X805988Y253807D01*
X806240Y253854D01*
X806463Y253914D01*
X806655Y253988D01*
X806817Y254076D01*
X806948Y254177D01*
X807049Y254292D01*
X807120Y254420D01*
Y251040D01*
D02*
G37*
G36*
X659398Y251786D02*
X659676Y251700D01*
X659981Y251625D01*
X660674Y251505D01*
X661062Y251460D01*
X662391Y251385D01*
X662889Y251380D01*
X663143Y248840D01*
X662810Y248828D01*
X662502Y248791D01*
X662218Y248730D01*
X661960Y248644D01*
X661725Y248533D01*
X661516Y248398D01*
X661331Y248239D01*
X661171Y248055D01*
X661036Y247846D01*
X660926Y247613D01*
X659148Y251880D01*
X659398Y251786D01*
D02*
G37*
G36*
X678071Y247570D02*
X678045Y247811D01*
X677969Y248027D01*
X677842Y248218D01*
X677664Y248383D01*
X677436Y248522D01*
X677156Y248637D01*
X676826Y248726D01*
X676445Y248789D01*
X676013Y248827D01*
X675530Y248840D01*
Y251380D01*
X676013Y251393D01*
X676445Y251431D01*
X676826Y251494D01*
X677156Y251583D01*
X677436Y251698D01*
X677664Y251837D01*
X677842Y252002D01*
X677969Y252193D01*
X678045Y252409D01*
X678071Y252650D01*
Y247570D01*
D02*
G37*
G36*
X684839Y246115D02*
X684623Y246039D01*
X684432Y245912D01*
X684267Y245734D01*
X684128Y245506D01*
X684013Y245226D01*
X683924Y244896D01*
X683861Y244515D01*
X683823Y244083D01*
X683810Y243601D01*
X681270D01*
X681257Y244083D01*
X681219Y244515D01*
X681156Y244896D01*
X681067Y245226D01*
X680953Y245506D01*
X680813Y245734D01*
X680648Y245912D01*
X680457Y246039D01*
X680241Y246115D01*
X680000Y246140D01*
X685080D01*
X684839Y246115D01*
D02*
G37*
G36*
X746760Y242640D02*
X746735Y242868D01*
X746659Y243072D01*
X746532Y243252D01*
X746354Y243408D01*
X746125Y243540D01*
X745846Y243648D01*
X745516Y243732D01*
X745135Y243792D01*
X744703Y243828D01*
X744221Y243840D01*
Y246380D01*
X744703Y246392D01*
X745135Y246428D01*
X745516Y246488D01*
X745846Y246572D01*
X746125Y246680D01*
X746354Y246812D01*
X746532Y246968D01*
X746659Y247148D01*
X746735Y247352D01*
X746760Y247579D01*
Y242640D01*
D02*
G37*
G36*
X820793Y243308D02*
X820653Y243198D01*
X820530Y243061D01*
X820423Y242895D01*
X820332Y242702D01*
X820258Y242481D01*
X820200Y242232D01*
X820159Y241955D01*
X820134Y241650D01*
X820126Y241318D01*
X818094D01*
X818086Y241650D01*
X818061Y241955D01*
X818020Y242232D01*
X817962Y242481D01*
X817888Y242702D01*
X817797Y242895D01*
X817690Y243061D01*
X817567Y243198D01*
X817427Y243308D01*
X817270Y243390D01*
X820950D01*
X820793Y243308D01*
D02*
G37*
G36*
X815842Y243322D02*
X815745Y243212D01*
X815659Y243059D01*
X815585Y242864D01*
X815522Y242627D01*
X815471Y242348D01*
X815431Y242027D01*
X815386Y241258D01*
X815380Y240810D01*
X812840D01*
X812834Y241258D01*
X812749Y242348D01*
X812698Y242627D01*
X812635Y242864D01*
X812561Y243059D01*
X812475Y243212D01*
X812378Y243322D01*
X812270Y243390D01*
X815950D01*
X815842Y243322D01*
D02*
G37*
G36*
X774720Y236949D02*
X774781Y236776D01*
X774882Y236624D01*
X775025Y236492D01*
X775208Y236380D01*
X775431Y236289D01*
X775695Y236217D01*
X776000Y236167D01*
X776345Y236136D01*
X776731Y236126D01*
Y234094D01*
X776345Y234084D01*
X776000Y234053D01*
X775695Y234003D01*
X775431Y233931D01*
X775208Y233840D01*
X775025Y233728D01*
X774882Y233596D01*
X774781Y233444D01*
X774720Y233271D01*
X774699Y233078D01*
Y237142D01*
X774720Y236949D01*
D02*
G37*
G36*
X766760Y233078D02*
X766740Y233271D01*
X766679Y233444D01*
X766578Y233596D01*
X766435Y233728D01*
X766253Y233840D01*
X766029Y233931D01*
X765765Y234003D01*
X765460Y234053D01*
X765115Y234084D01*
X764728Y234094D01*
Y236126D01*
X765115Y236136D01*
X765460Y236167D01*
X765765Y236217D01*
X766029Y236289D01*
X766253Y236380D01*
X766435Y236492D01*
X766578Y236624D01*
X766679Y236776D01*
X766740Y236949D01*
X766760Y237142D01*
Y233078D01*
D02*
G37*
G36*
X746760D02*
X746740Y233271D01*
X746679Y233444D01*
X746578Y233596D01*
X746435Y233728D01*
X746253Y233840D01*
X746029Y233931D01*
X745765Y234003D01*
X745460Y234053D01*
X745115Y234084D01*
X744728Y234094D01*
Y236126D01*
X745115Y236136D01*
X745460Y236167D01*
X745765Y236217D01*
X746029Y236289D01*
X746253Y236380D01*
X746435Y236492D01*
X746578Y236624D01*
X746679Y236776D01*
X746740Y236949D01*
X746760Y237142D01*
Y233078D01*
D02*
G37*
G36*
X738344Y237175D02*
X738605Y236955D01*
X738870Y236761D01*
X739140Y236592D01*
X739414Y236450D01*
X739693Y236333D01*
X739976Y236243D01*
X740264Y236178D01*
X740556Y236139D01*
X740853Y236126D01*
Y234094D01*
X740556Y234081D01*
X740264Y234042D01*
X739976Y233977D01*
X739693Y233887D01*
X739414Y233770D01*
X739140Y233628D01*
X738870Y233459D01*
X738605Y233265D01*
X738344Y233045D01*
X738088Y232799D01*
Y237421D01*
X738344Y237175D01*
D02*
G37*
G36*
X713280Y235213D02*
X713341Y235136D01*
X713442Y235068D01*
X713585Y235009D01*
X713767Y234959D01*
X713991Y234919D01*
X714255Y234887D01*
X714905Y234851D01*
X715292Y234846D01*
Y232814D01*
X714905Y232810D01*
X713991Y232741D01*
X713767Y232701D01*
X713585Y232651D01*
X713442Y232592D01*
X713341Y232524D01*
X713280Y232447D01*
X713260Y232360D01*
Y235299D01*
X713280Y235213D01*
D02*
G37*
G36*
X688820Y232360D02*
X688795Y232398D01*
X688719Y232432D01*
X688592Y232462D01*
X688414Y232488D01*
X687906Y232528D01*
X686281Y232560D01*
Y235100D01*
X686763Y235102D01*
X688719Y235228D01*
X688795Y235262D01*
X688820Y235299D01*
Y232360D01*
D02*
G37*
G36*
X722005Y238716D02*
X721785Y238455D01*
X721591Y238190D01*
X721422Y237920D01*
X721280Y237646D01*
X721163Y237367D01*
X721073Y237084D01*
X721008Y236796D01*
X720969Y236504D01*
X720957Y236241D01*
X720970Y235882D01*
X721013Y235494D01*
X721085Y235117D01*
X721186Y234753D01*
X721315Y234400D01*
X721473Y234059D01*
X721660Y233730D01*
X721876Y233413D01*
X722120Y233107D01*
X722393Y232814D01*
X720956Y231377D01*
X720663Y231650D01*
X720357Y231894D01*
X720040Y232110D01*
X719711Y232297D01*
X719370Y232455D01*
X719017Y232584D01*
X718653Y232685D01*
X718276Y232757D01*
X717888Y232800D01*
X717487Y232814D01*
X716892Y234846D01*
X717278Y234866D01*
X717624Y234927D01*
X717928Y235029D01*
X718193Y235171D01*
X718416Y235354D01*
X718599Y235578D01*
X718741Y235842D01*
X718843Y236147D01*
X718904Y236492D01*
X718906Y236540D01*
X718872Y236796D01*
X718807Y237084D01*
X718717Y237367D01*
X718600Y237646D01*
X718458Y237920D01*
X718289Y238190D01*
X718095Y238455D01*
X717875Y238716D01*
X717629Y238972D01*
X722251D01*
X722005Y238716D01*
D02*
G37*
G36*
X824225Y235280D02*
X824459Y235101D01*
X824708Y234943D01*
X824973Y234807D01*
X825252Y234692D01*
X825547Y234599D01*
X825857Y234528D01*
X826182Y234478D01*
X826522Y234449D01*
X826877Y234442D01*
X823608Y231173D01*
X823601Y231528D01*
X823572Y231868D01*
X823522Y232193D01*
X823451Y232503D01*
X823357Y232798D01*
X823243Y233077D01*
X823107Y233342D01*
X822949Y233591D01*
X822770Y233825D01*
X822569Y234044D01*
X824006Y235481D01*
X824225Y235280D01*
D02*
G37*
G36*
X811543Y228157D02*
X811581Y227725D01*
X811644Y227344D01*
X811733Y227014D01*
X811848Y226735D01*
X811987Y226506D01*
X812152Y226328D01*
X812343Y226201D01*
X812559Y226125D01*
X812800Y226099D01*
X807720D01*
X807961Y226125D01*
X808177Y226201D01*
X808368Y226328D01*
X808533Y226506D01*
X808672Y226735D01*
X808787Y227014D01*
X808876Y227344D01*
X808939Y227725D01*
X808977Y228157D01*
X808990Y228640D01*
X811530D01*
X811543Y228157D01*
D02*
G37*
G36*
X713280Y228713D02*
X713341Y228636D01*
X713442Y228568D01*
X713585Y228509D01*
X713767Y228459D01*
X713991Y228419D01*
X714255Y228387D01*
X714905Y228351D01*
X715292Y228346D01*
Y226314D01*
X714905Y226310D01*
X713991Y226241D01*
X713767Y226201D01*
X713585Y226151D01*
X713442Y226092D01*
X713341Y226024D01*
X713280Y225947D01*
X713260Y225861D01*
Y228799D01*
X713280Y228713D01*
D02*
G37*
G36*
X717582Y218519D02*
X717326Y218765D01*
X717065Y218985D01*
X716800Y219179D01*
X716530Y219348D01*
X716256Y219490D01*
X715977Y219607D01*
X715694Y219697D01*
X715406Y219762D01*
X715114Y219801D01*
X714918Y219810D01*
X714905Y219809D01*
X713991Y219741D01*
X713767Y219701D01*
X713585Y219651D01*
X713442Y219592D01*
X713341Y219524D01*
X713280Y219447D01*
X713260Y219361D01*
Y222299D01*
X713280Y222213D01*
X713341Y222136D01*
X713442Y222068D01*
X713585Y222009D01*
X713767Y221959D01*
X713991Y221919D01*
X714255Y221887D01*
X714905Y221850D01*
X714918Y221850D01*
X715114Y221859D01*
X715406Y221898D01*
X715694Y221963D01*
X715977Y222053D01*
X716256Y222170D01*
X716530Y222312D01*
X716800Y222481D01*
X717065Y222675D01*
X717326Y222895D01*
X717582Y223141D01*
Y218519D01*
D02*
G37*
G36*
X797589Y225634D02*
X797812Y225457D01*
X798047Y225300D01*
X798296Y225165D01*
X798556Y225050D01*
X798830Y224957D01*
X799116Y224884D01*
X799414Y224832D01*
X799725Y224800D01*
X800049Y224790D01*
Y222250D01*
X799725Y222240D01*
X799414Y222208D01*
X799116Y222156D01*
X798830Y222083D01*
X798556Y221990D01*
X798296Y221875D01*
X798047Y221740D01*
X797812Y221583D01*
X797589Y221406D01*
X797378Y221209D01*
Y225831D01*
X797589Y225634D01*
D02*
G37*
G36*
X805790Y220980D02*
X805765Y221221D01*
X805689Y221437D01*
X805562Y221628D01*
X805384Y221793D01*
X805155Y221933D01*
X804876Y222047D01*
X804546Y222136D01*
X804165Y222199D01*
X803733Y222237D01*
X803251Y222250D01*
Y224790D01*
X803733Y224803D01*
X804165Y224841D01*
X804546Y224904D01*
X804876Y224993D01*
X805155Y225107D01*
X805384Y225247D01*
X805562Y225412D01*
X805689Y225603D01*
X805765Y225819D01*
X805790Y226060D01*
Y220980D01*
D02*
G37*
G36*
X728469Y220302D02*
X728508Y220010D01*
X728573Y219722D01*
X728663Y219439D01*
X728780Y219160D01*
X728922Y218886D01*
X729091Y218616D01*
X729285Y218351D01*
X729505Y218090D01*
X729751Y217834D01*
X725129D01*
X725375Y218090D01*
X725595Y218351D01*
X725789Y218616D01*
X725958Y218886D01*
X726100Y219160D01*
X726217Y219439D01*
X726307Y219722D01*
X726372Y220010D01*
X726411Y220302D01*
X726424Y220599D01*
X728456D01*
X728469Y220302D01*
D02*
G37*
G36*
X615990Y264086D02*
X615770Y263825D01*
X615576Y263560D01*
X615407Y263290D01*
X615265Y263016D01*
X615148Y262737D01*
X615058Y262454D01*
X614993Y262166D01*
X614954Y261874D01*
X614941Y261577D01*
X612909D01*
X612896Y261874D01*
X612857Y262166D01*
X612792Y262454D01*
X612702Y262737D01*
X612585Y263016D01*
X612443Y263290D01*
X612274Y263560D01*
X612080Y263825D01*
X611860Y264086D01*
X611614Y264342D01*
X616236D01*
X615990Y264086D01*
D02*
G37*
G36*
X619948Y257455D02*
X620004Y256805D01*
X620054Y256541D01*
X620117Y256318D01*
X620194Y256135D01*
X620286Y255992D01*
X620391Y255891D01*
X620511Y255830D01*
X620644Y255809D01*
X617206D01*
X617339Y255830D01*
X617459Y255891D01*
X617564Y255992D01*
X617656Y256135D01*
X617733Y256318D01*
X617796Y256541D01*
X617846Y256805D01*
X617881Y257110D01*
X617902Y257455D01*
X617909Y257841D01*
X619941D01*
X619948Y257455D01*
D02*
G37*
G36*
X614948D02*
X615004Y256805D01*
X615054Y256541D01*
X615117Y256318D01*
X615194Y256135D01*
X615286Y255992D01*
X615391Y255891D01*
X615511Y255830D01*
X615644Y255809D01*
X612206D01*
X612339Y255830D01*
X612459Y255891D01*
X612564Y255992D01*
X612656Y256135D01*
X612733Y256318D01*
X612796Y256541D01*
X612846Y256805D01*
X612881Y257110D01*
X612902Y257455D01*
X612909Y257841D01*
X614941D01*
X614948Y257455D01*
D02*
G37*
G36*
X609948D02*
X610004Y256805D01*
X610054Y256541D01*
X610117Y256318D01*
X610194Y256135D01*
X610286Y255992D01*
X610391Y255891D01*
X610511Y255830D01*
X610644Y255809D01*
X607206D01*
X607339Y255830D01*
X607459Y255891D01*
X607564Y255992D01*
X607656Y256135D01*
X607733Y256318D01*
X607796Y256541D01*
X607846Y256805D01*
X607881Y257110D01*
X607902Y257455D01*
X607909Y257841D01*
X609941D01*
X609948Y257455D01*
D02*
G37*
G36*
X625665Y255652D02*
X625726Y255511D01*
X625827Y255387D01*
X625970Y255279D01*
X626152Y255188D01*
X626376Y255114D01*
X626640Y255056D01*
X626945Y255014D01*
X627290Y254989D01*
X627677Y254981D01*
Y252949D01*
X627290Y252941D01*
X626640Y252874D01*
X626376Y252816D01*
X626152Y252742D01*
X625970Y252651D01*
X625827Y252543D01*
X625726Y252419D01*
X625665Y252278D01*
X625644Y252120D01*
Y255809D01*
X625665Y255652D01*
D02*
G37*
G36*
X625915Y250426D02*
X625976Y250306D01*
X626077Y250201D01*
X626220Y250109D01*
X626403Y250032D01*
X626626Y249969D01*
X626890Y249919D01*
X627195Y249884D01*
X627541Y249863D01*
X627926Y249856D01*
Y247824D01*
X627541Y247817D01*
X626890Y247761D01*
X626626Y247711D01*
X626403Y247648D01*
X626220Y247571D01*
X626077Y247479D01*
X625976Y247374D01*
X625915Y247254D01*
X625895Y247120D01*
Y250560D01*
X625915Y250426D01*
D02*
G37*
G36*
X606955Y247120D02*
X606935Y247254D01*
X606874Y247374D01*
X606773Y247479D01*
X606630Y247571D01*
X606447Y247648D01*
X606224Y247711D01*
X605960Y247761D01*
X605655Y247796D01*
X605310Y247817D01*
X604924Y247824D01*
Y249856D01*
X605310Y249863D01*
X605960Y249919D01*
X606224Y249969D01*
X606447Y250032D01*
X606630Y250109D01*
X606773Y250201D01*
X606874Y250306D01*
X606935Y250426D01*
X606955Y250560D01*
Y247120D01*
D02*
G37*
G36*
X570714Y250905D02*
X570975Y250685D01*
X571240Y250491D01*
X571510Y250322D01*
X571784Y250180D01*
X572063Y250063D01*
X572346Y249973D01*
X572634Y249908D01*
X572926Y249869D01*
X573223Y249856D01*
Y247824D01*
X572926Y247811D01*
X572634Y247772D01*
X572346Y247707D01*
X572063Y247617D01*
X571784Y247500D01*
X571510Y247358D01*
X571240Y247189D01*
X570975Y246995D01*
X570714Y246775D01*
X570458Y246529D01*
Y251151D01*
X570714Y250905D01*
D02*
G37*
G36*
X625915Y245426D02*
X625976Y245306D01*
X626077Y245201D01*
X626220Y245109D01*
X626403Y245032D01*
X626626Y244969D01*
X626890Y244919D01*
X627195Y244884D01*
X627541Y244863D01*
X627926Y244856D01*
Y242824D01*
X627541Y242817D01*
X626890Y242761D01*
X626626Y242711D01*
X626403Y242648D01*
X626220Y242571D01*
X626077Y242479D01*
X625976Y242374D01*
X625915Y242254D01*
X625895Y242120D01*
Y245560D01*
X625915Y245426D01*
D02*
G37*
G36*
X606955Y242120D02*
X606935Y242254D01*
X606874Y242374D01*
X606773Y242479D01*
X606630Y242571D01*
X606447Y242648D01*
X606224Y242711D01*
X605960Y242761D01*
X605655Y242796D01*
X605310Y242817D01*
X604924Y242824D01*
Y244856D01*
X605310Y244863D01*
X605960Y244919D01*
X606224Y244969D01*
X606447Y245032D01*
X606630Y245109D01*
X606773Y245201D01*
X606874Y245306D01*
X606935Y245426D01*
X606955Y245560D01*
Y242120D01*
D02*
G37*
G36*
X625665Y240402D02*
X625726Y240261D01*
X625827Y240137D01*
X625970Y240029D01*
X626152Y239938D01*
X626376Y239864D01*
X626640Y239806D01*
X626945Y239764D01*
X627290Y239739D01*
X627677Y239731D01*
Y237699D01*
X627290Y237691D01*
X626640Y237624D01*
X626376Y237566D01*
X626152Y237492D01*
X625970Y237401D01*
X625827Y237293D01*
X625726Y237169D01*
X625665Y237028D01*
X625644Y236870D01*
Y240560D01*
X625665Y240402D01*
D02*
G37*
G36*
X607206Y236870D02*
X607185Y237028D01*
X607124Y237169D01*
X607023Y237293D01*
X606880Y237401D01*
X606698Y237492D01*
X606474Y237566D01*
X606210Y237624D01*
X605905Y237666D01*
X605560Y237691D01*
X605173Y237699D01*
Y239731D01*
X605560Y239739D01*
X606210Y239806D01*
X606474Y239864D01*
X606698Y239938D01*
X606880Y240029D01*
X607023Y240137D01*
X607124Y240261D01*
X607185Y240402D01*
X607206Y240560D01*
Y236870D01*
D02*
G37*
G36*
X615559Y236845D02*
X615483Y236769D01*
X615415Y236642D01*
X615357Y236464D01*
X615307Y236236D01*
X615267Y235956D01*
X615213Y235245D01*
X615195Y234331D01*
X612655D01*
X612650Y234813D01*
X612543Y236236D01*
X612493Y236464D01*
X612435Y236642D01*
X612367Y236769D01*
X612291Y236845D01*
X612206Y236870D01*
X615644D01*
X615559Y236845D01*
D02*
G37*
G36*
X642475Y237105D02*
X642709Y236926D01*
X642958Y236768D01*
X643223Y236632D01*
X643502Y236518D01*
X643797Y236424D01*
X644107Y236353D01*
X644432Y236303D01*
X644772Y236274D01*
X645127Y236267D01*
X641858Y232998D01*
X641851Y233353D01*
X641822Y233693D01*
X641772Y234018D01*
X641701Y234328D01*
X641608Y234623D01*
X641493Y234902D01*
X641357Y235167D01*
X641199Y235416D01*
X641020Y235650D01*
X640819Y235869D01*
X642256Y237306D01*
X642475Y237105D01*
D02*
G37*
G36*
X615205Y231473D02*
X615237Y231162D01*
X615289Y230863D01*
X615362Y230577D01*
X615455Y230304D01*
X615570Y230043D01*
X615705Y229795D01*
X615862Y229559D01*
X616039Y229336D01*
X616236Y229126D01*
X611614D01*
X611811Y229336D01*
X611988Y229559D01*
X612145Y229795D01*
X612280Y230043D01*
X612395Y230304D01*
X612488Y230577D01*
X612561Y230863D01*
X612613Y231162D01*
X612645Y231473D01*
X612655Y231797D01*
X615195D01*
X615205Y231473D01*
D02*
G37*
G36*
X647225Y230351D02*
X647005Y230090D01*
X646811Y229825D01*
X646642Y229555D01*
X646500Y229281D01*
X646383Y229002D01*
X646293Y228719D01*
X646228Y228431D01*
X646189Y228139D01*
X646176Y227842D01*
X644144D01*
X644131Y228139D01*
X644092Y228431D01*
X644027Y228719D01*
X643937Y229002D01*
X643820Y229281D01*
X643678Y229555D01*
X643509Y229825D01*
X643315Y230090D01*
X643095Y230351D01*
X642849Y230607D01*
X647471D01*
X647225Y230351D01*
D02*
G37*
G36*
X616039Y224199D02*
X615862Y223976D01*
X615705Y223740D01*
X615570Y223492D01*
X615455Y223231D01*
X615362Y222958D01*
X615289Y222672D01*
X615237Y222373D01*
X615205Y222062D01*
X615195Y221738D01*
X612655D01*
X612645Y222062D01*
X612613Y222373D01*
X612561Y222672D01*
X612488Y222958D01*
X612395Y223231D01*
X612280Y223492D01*
X612145Y223740D01*
X611988Y223976D01*
X611811Y224199D01*
X611614Y224409D01*
X616236D01*
X616039Y224199D01*
D02*
G37*
G36*
X646186Y222264D02*
X646217Y221919D01*
X646267Y221614D01*
X646339Y221350D01*
X646430Y221126D01*
X646542Y220943D01*
X646674Y220801D01*
X646826Y220699D01*
X646999Y220638D01*
X647192Y220618D01*
X643128D01*
X643321Y220638D01*
X643494Y220699D01*
X643646Y220801D01*
X643778Y220943D01*
X643890Y221126D01*
X643981Y221350D01*
X644053Y221614D01*
X644103Y221919D01*
X644134Y222264D01*
X644144Y222650D01*
X646176D01*
X646186Y222264D01*
D02*
G37*
G36*
X587766Y222104D02*
X587797Y221758D01*
X587847Y221454D01*
X587919Y221189D01*
X588010Y220966D01*
X588122Y220783D01*
X588254Y220641D01*
X588406Y220539D01*
X588579Y220478D01*
X588772Y220458D01*
X584708D01*
X584901Y220478D01*
X585074Y220539D01*
X585226Y220641D01*
X585358Y220783D01*
X585470Y220966D01*
X585561Y221189D01*
X585633Y221454D01*
X585683Y221758D01*
X585714Y222104D01*
X585724Y222490D01*
X587756D01*
X587766Y222104D01*
D02*
G37*
G36*
X615208Y220847D02*
X615246Y220415D01*
X615309Y220034D01*
X615398Y219704D01*
X615513Y219424D01*
X615652Y219196D01*
X615817Y219018D01*
X616008Y218891D01*
X616224Y218815D01*
X616465Y218790D01*
X611385D01*
X611626Y218815D01*
X611842Y218891D01*
X612033Y219018D01*
X612198Y219196D01*
X612337Y219424D01*
X612452Y219704D01*
X612541Y220034D01*
X612604Y220415D01*
X612642Y220847D01*
X612655Y221329D01*
X615195D01*
X615208Y220847D01*
D02*
G37*
G36*
X582460Y215138D02*
X582439Y215331D01*
X582379Y215504D01*
X582277Y215656D01*
X582135Y215788D01*
X581952Y215900D01*
X581728Y215991D01*
X581464Y216063D01*
X581159Y216113D01*
X580814Y216144D01*
X580428Y216154D01*
Y218186D01*
X580814Y218196D01*
X581159Y218227D01*
X581464Y218277D01*
X581728Y218349D01*
X581952Y218440D01*
X582135Y218552D01*
X582277Y218684D01*
X582379Y218836D01*
X582439Y219009D01*
X582460Y219202D01*
Y215138D01*
D02*
G37*
G36*
X570341Y214554D02*
X570943Y214200D01*
X571241Y214057D01*
X571537Y213935D01*
X571831Y213836D01*
X572123Y213759D01*
X572413Y213703D01*
X572701Y213670D01*
X572987Y213659D01*
X573351Y211627D01*
X573046Y211613D01*
X572752Y211570D01*
X572470Y211499D01*
X572200Y211400D01*
X571940Y211272D01*
X571692Y211116D01*
X571455Y210931D01*
X571229Y210718D01*
X571015Y210476D01*
X570812Y210206D01*
X570038Y214764D01*
X570341Y214554D01*
D02*
G37*
G36*
X444508Y168548D02*
X444622Y168224D01*
X444812Y167938D01*
X445079Y167691D01*
X445422Y167481D01*
X445841Y167310D01*
X446336Y167176D01*
X446908Y167081D01*
X447556Y167024D01*
X448279Y167005D01*
Y163195D01*
X447556Y163176D01*
X446908Y163119D01*
X446336Y163023D01*
X445841Y162890D01*
X445422Y162719D01*
X445079Y162509D01*
X444812Y162262D01*
X444622Y161976D01*
X444508Y161652D01*
X444469Y161290D01*
Y168910D01*
X444508Y168548D01*
D02*
G37*
G36*
X577528Y141787D02*
X577642Y141472D01*
X577832Y141194D01*
X578099Y140953D01*
X578442Y140749D01*
X578861Y140582D01*
X579356Y140452D01*
X579928Y140359D01*
X580576Y140303D01*
X581068Y140291D01*
X581300Y140294D01*
X582893Y140434D01*
X583315Y140518D01*
X583683Y140620D01*
X583997Y140741D01*
X584257Y140881D01*
X584463Y141039D01*
X584614Y141216D01*
Y135544D01*
X584463Y135721D01*
X584257Y135879D01*
X583997Y136019D01*
X583683Y136140D01*
X583315Y136242D01*
X582893Y136326D01*
X582416Y136391D01*
X581300Y136466D01*
X581072Y136469D01*
X580576Y136456D01*
X579928Y136399D01*
X579356Y136304D01*
X578861Y136170D01*
X578442Y135999D01*
X578099Y135789D01*
X577832Y135541D01*
X577642Y135256D01*
X577528Y134932D01*
X577490Y134570D01*
Y142140D01*
X577528Y141787D01*
D02*
G37*
G36*
X568050Y134570D02*
X568012Y134932D01*
X567898Y135256D01*
X567708Y135541D01*
X567441Y135789D01*
X567098Y135999D01*
X566679Y136170D01*
X566184Y136304D01*
X565612Y136399D01*
X564964Y136456D01*
X564240Y136475D01*
Y140285D01*
X564964Y140303D01*
X565612Y140359D01*
X566184Y140452D01*
X566679Y140582D01*
X567098Y140749D01*
X567441Y140953D01*
X567708Y141194D01*
X567898Y141472D01*
X568012Y141787D01*
X568050Y142140D01*
Y134570D01*
D02*
G37*
G36*
X424211Y86360D02*
X424185Y86601D01*
X424109Y86817D01*
X423982Y87008D01*
X423804Y87173D01*
X423576Y87312D01*
X423296Y87427D01*
X422966Y87516D01*
X422585Y87579D01*
X422153Y87617D01*
X421670Y87630D01*
Y90170D01*
X422153Y90183D01*
X422585Y90221D01*
X422966Y90284D01*
X423296Y90373D01*
X423576Y90487D01*
X423804Y90627D01*
X423982Y90792D01*
X424109Y90983D01*
X424185Y91199D01*
X424211Y91440D01*
Y86360D01*
D02*
G37*
G36*
X156576Y255837D02*
X156804Y255342D01*
X157185Y254906D01*
X157719Y254527D01*
X158405Y254207D01*
X159243Y253946D01*
X160233Y253742D01*
X161376Y253596D01*
X162672Y253509D01*
X164119Y253480D01*
Y245860D01*
X162672Y245831D01*
X160233Y245598D01*
X159243Y245394D01*
X158405Y245133D01*
X157719Y244813D01*
X157185Y244434D01*
X156804Y243998D01*
X156576Y243503D01*
X156500Y242950D01*
Y256390D01*
X156576Y255837D01*
D02*
G37*
G36*
X176675Y242050D02*
X176599Y242774D01*
X176371Y243422D01*
X175990Y243993D01*
X175456Y244488D01*
X174770Y244907D01*
X173932Y245250D01*
X172942Y245517D01*
X171799Y245708D01*
X170503Y245822D01*
X169055Y245860D01*
Y253480D01*
X170503Y253518D01*
X171799Y253632D01*
X172942Y253823D01*
X173932Y254090D01*
X174770Y254433D01*
X175456Y254852D01*
X175990Y255347D01*
X176371Y255918D01*
X176599Y256566D01*
X176675Y257290D01*
Y242050D01*
D02*
G37*
G36*
X210981Y252696D02*
X211209Y252048D01*
X211590Y251477D01*
X212124Y250982D01*
X212810Y250562D01*
X213648Y250220D01*
X214638Y249953D01*
X215781Y249762D01*
X217077Y249648D01*
X218524Y249610D01*
Y241990D01*
X217077Y241952D01*
X215781Y241838D01*
X214638Y241647D01*
X213648Y241380D01*
X212810Y241038D01*
X212124Y240618D01*
X211590Y240123D01*
X211209Y239552D01*
X210981Y238904D01*
X210905Y238180D01*
Y253420D01*
X210981Y252696D01*
D02*
G37*
G36*
X153826Y246753D02*
X153691Y246395D01*
X153572Y245905D01*
X153470Y245281D01*
X153312Y243636D01*
X153288Y242950D01*
X155090D01*
X154728Y242912D01*
X154404Y242798D01*
X154118Y242607D01*
X153871Y242341D01*
X153661Y241998D01*
X153490Y241579D01*
X153356Y241084D01*
X153261Y240512D01*
X153204Y239864D01*
X153195Y239510D01*
X153204Y239156D01*
X153261Y238508D01*
X153356Y237936D01*
X153490Y237441D01*
X153661Y237022D01*
X153871Y236679D01*
X154118Y236412D01*
X154404Y236222D01*
X154728Y236108D01*
X155090Y236070D01*
X147470D01*
X147832Y236108D01*
X148156Y236222D01*
X148441Y236412D01*
X148689Y236679D01*
X148899Y237022D01*
X149070Y237441D01*
X149204Y237936D01*
X149299Y238508D01*
X149356Y239156D01*
X149365Y239510D01*
X149356Y239864D01*
X149299Y240512D01*
X149204Y241084D01*
X149070Y241579D01*
X148899Y241998D01*
X148689Y242341D01*
X148441Y242607D01*
X148156Y242798D01*
X147832Y242912D01*
X147470Y242950D01*
X149183D01*
X148988Y245905D01*
X148869Y246395D01*
X148734Y246753D01*
X148584Y246978D01*
X153976D01*
X153826Y246753D01*
D02*
G37*
G36*
X154268Y222592D02*
X153944Y222478D01*
X153658Y222288D01*
X153411Y222021D01*
X153201Y221678D01*
X153030Y221259D01*
X152896Y220763D01*
X152801Y220192D01*
X152744Y219544D01*
X152725Y218820D01*
X148915D01*
X148896Y219544D01*
X148839Y220192D01*
X148743Y220763D01*
X148610Y221259D01*
X148439Y221678D01*
X148229Y222021D01*
X147982Y222288D01*
X147696Y222478D01*
X147372Y222592D01*
X147010Y222630D01*
X154630D01*
X154268Y222592D01*
D02*
G37*
G36*
X152744Y215396D02*
X152801Y214749D01*
X152896Y214177D01*
X153030Y213682D01*
X153201Y213263D01*
X153411Y212920D01*
X153658Y212653D01*
X153944Y212463D01*
X154268Y212348D01*
X154630Y212310D01*
X147010D01*
X147372Y212348D01*
X147696Y212463D01*
X147982Y212653D01*
X148229Y212920D01*
X148439Y213263D01*
X148610Y213682D01*
X148743Y214177D01*
X148839Y214749D01*
X148896Y215396D01*
X148915Y216120D01*
X152725D01*
X152744Y215396D01*
D02*
G37*
G36*
X135054Y204470D02*
X135016Y204832D01*
X134902Y205156D01*
X134711Y205441D01*
X134445Y205689D01*
X134102Y205899D01*
X133682Y206070D01*
X133187Y206204D01*
X132616Y206299D01*
X131968Y206356D01*
X131244Y206375D01*
Y210185D01*
X131968Y210204D01*
X132616Y210261D01*
X133187Y210356D01*
X133682Y210490D01*
X134102Y210661D01*
X134445Y210871D01*
X134711Y211118D01*
X134902Y211404D01*
X135016Y211728D01*
X135054Y212090D01*
Y204470D01*
D02*
G37*
G36*
X133850Y116950D02*
X133812Y117312D01*
X133698Y117636D01*
X133508Y117922D01*
X133241Y118169D01*
X132898Y118379D01*
X132479Y118550D01*
X131984Y118684D01*
X131412Y118779D01*
X130764Y118836D01*
X130041Y118855D01*
Y122665D01*
X130764Y122684D01*
X131412Y122741D01*
X131984Y122837D01*
X132479Y122970D01*
X132898Y123141D01*
X133241Y123351D01*
X133508Y123598D01*
X133698Y123884D01*
X133812Y124208D01*
X133850Y124570D01*
Y116950D01*
D02*
G37*
G36*
X142268Y115752D02*
X141944Y115638D01*
X141658Y115448D01*
X141411Y115181D01*
X141201Y114838D01*
X141030Y114419D01*
X140896Y113924D01*
X140801Y113352D01*
X140744Y112704D01*
X140725Y111980D01*
X136915D01*
X136896Y112704D01*
X136839Y113352D01*
X136743Y113924D01*
X136610Y114419D01*
X136439Y114838D01*
X136229Y115181D01*
X135982Y115448D01*
X135696Y115638D01*
X135372Y115752D01*
X135010Y115791D01*
X142630D01*
X142268Y115752D01*
D02*
G37*
G36*
X140744Y111066D02*
X140801Y110418D01*
X140896Y109846D01*
X141030Y109351D01*
X141201Y108932D01*
X141411Y108589D01*
X141658Y108322D01*
X141944Y108132D01*
X142268Y108018D01*
X142630Y107979D01*
X135010D01*
X135372Y108018D01*
X135696Y108132D01*
X135982Y108322D01*
X136229Y108589D01*
X136439Y108932D01*
X136610Y109351D01*
X136743Y109846D01*
X136839Y110418D01*
X136896Y111066D01*
X136915Y111790D01*
X140725D01*
X140744Y111066D01*
D02*
G37*
G36*
X424211Y234599D02*
X424134Y235149D01*
X423906Y235640D01*
X423525Y236074D01*
X422991Y236449D01*
X422305Y236767D01*
X421467Y237027D01*
X420477Y237230D01*
X419334Y237374D01*
X418038Y237461D01*
X416590Y237490D01*
Y245110D01*
X418038Y245139D01*
X420477Y245370D01*
X421467Y245572D01*
X422305Y245833D01*
X422991Y246151D01*
X423525Y246526D01*
X423906Y246960D01*
X424134Y247451D01*
X424211Y248001D01*
Y234599D01*
D02*
G37*
G36*
X256570Y213360D02*
X256545Y213601D01*
X256469Y213817D01*
X256342Y214008D01*
X256164Y214173D01*
X255935Y214312D01*
X255656Y214427D01*
X255326Y214516D01*
X254945Y214579D01*
X254513Y214617D01*
X254030Y214630D01*
Y217170D01*
X254513Y217183D01*
X254945Y217221D01*
X255326Y217284D01*
X255656Y217373D01*
X255935Y217488D01*
X256164Y217627D01*
X256342Y217792D01*
X256469Y217983D01*
X256545Y218199D01*
X256570Y218440D01*
Y213360D01*
D02*
G37*
G36*
Y187960D02*
X256545Y188201D01*
X256469Y188417D01*
X256342Y188608D01*
X256164Y188773D01*
X255935Y188913D01*
X255656Y189027D01*
X255326Y189116D01*
X254945Y189179D01*
X254513Y189217D01*
X254030Y189230D01*
Y191770D01*
X254513Y191783D01*
X254945Y191821D01*
X255326Y191884D01*
X255656Y191973D01*
X255935Y192087D01*
X256164Y192227D01*
X256342Y192392D01*
X256469Y192583D01*
X256545Y192799D01*
X256570Y193040D01*
Y187960D01*
D02*
G37*
G36*
X241311Y139573D02*
X241344Y139262D01*
X241399Y138966D01*
X241477Y138684D01*
X241576Y138417D01*
X241697Y138164D01*
X241841Y137926D01*
X242006Y137703D01*
X242194Y137494D01*
X242404Y137300D01*
X237793Y136964D01*
X237977Y137189D01*
X238141Y137424D01*
X238286Y137670D01*
X238412Y137928D01*
X238518Y138195D01*
X238605Y138474D01*
X238673Y138764D01*
X238721Y139064D01*
X238750Y139376D01*
X238760Y139698D01*
X241300Y139899D01*
X241311Y139573D01*
D02*
G37*
G36*
X209613Y76407D02*
X209651Y75975D01*
X209714Y75594D01*
X209803Y75264D01*
X209918Y74984D01*
X210057Y74756D01*
X210222Y74578D01*
X210413Y74451D01*
X210629Y74375D01*
X210870Y74349D01*
X205790D01*
X206031Y74375D01*
X206247Y74451D01*
X206438Y74578D01*
X206603Y74756D01*
X206742Y74984D01*
X206857Y75264D01*
X206946Y75594D01*
X207009Y75975D01*
X207047Y76407D01*
X207060Y76890D01*
X209600D01*
X209613Y76407D01*
D02*
G37*
G36*
X276855Y243599D02*
X276931Y243383D01*
X277058Y243192D01*
X277236Y243027D01*
X277465Y242887D01*
X277744Y242773D01*
X278074Y242684D01*
X278455Y242621D01*
X278887Y242583D01*
X279370Y242570D01*
Y240030D01*
X278887Y240017D01*
X278455Y239979D01*
X278074Y239916D01*
X277744Y239827D01*
X277465Y239713D01*
X277236Y239573D01*
X277058Y239408D01*
X276931Y239217D01*
X276855Y239001D01*
X276829Y238760D01*
Y243840D01*
X276855Y243599D01*
D02*
G37*
G36*
X524485Y231155D02*
X523492Y229992D01*
X523088Y229431D01*
X522746Y228883D01*
X522467Y228349D01*
X522249Y227829D01*
X522094Y227323D01*
X522001Y226830D01*
X521970Y226350D01*
X519430D01*
X519399Y226830D01*
X519306Y227323D01*
X519151Y227829D01*
X518933Y228349D01*
X518654Y228883D01*
X518312Y229431D01*
X517909Y229992D01*
X517443Y230566D01*
X516325Y231757D01*
X525075D01*
X524485Y231155D01*
D02*
G37*
G36*
X521983Y216098D02*
X522021Y215666D01*
X522084Y215285D01*
X522173Y214955D01*
X522287Y214675D01*
X522427Y214447D01*
X522592Y214269D01*
X522783Y214142D01*
X522999Y214066D01*
X523240Y214040D01*
X518160D01*
X518401Y214066D01*
X518617Y214142D01*
X518808Y214269D01*
X518973Y214447D01*
X519113Y214675D01*
X519227Y214955D01*
X519316Y215285D01*
X519379Y215666D01*
X519417Y216098D01*
X519430Y216580D01*
X521970D01*
X521983Y216098D01*
D02*
G37*
G36*
X515670Y205740D02*
X515644Y205981D01*
X515568Y206197D01*
X515441Y206388D01*
X515263Y206553D01*
X515035Y206693D01*
X514755Y206807D01*
X514425Y206896D01*
X514044Y206959D01*
X513612Y206997D01*
X513130Y207010D01*
Y209550D01*
X513612Y209563D01*
X514044Y209601D01*
X514425Y209664D01*
X514755Y209753D01*
X515035Y209867D01*
X515263Y210007D01*
X515441Y210172D01*
X515568Y210363D01*
X515644Y210579D01*
X515670Y210820D01*
Y205740D01*
D02*
G37*
G36*
X649109Y201404D02*
X648814Y201251D01*
X648553Y200997D01*
X648326Y200641D01*
X648135Y200184D01*
X647978Y199625D01*
X647857Y198965D01*
X647770Y198203D01*
X647717Y197339D01*
X647700Y196374D01*
X642620D01*
X642603Y197339D01*
X642463Y198965D01*
X642342Y199625D01*
X642185Y200184D01*
X641993Y200641D01*
X641767Y200997D01*
X641506Y201251D01*
X641210Y201404D01*
X640880Y201454D01*
X649440D01*
X649109Y201404D01*
D02*
G37*
G36*
X588579Y201274D02*
X588406Y201213D01*
X588254Y201111D01*
X588122Y200969D01*
X588010Y200786D01*
X587919Y200563D01*
X587847Y200299D01*
X587797Y199994D01*
X587766Y199648D01*
X587756Y199262D01*
X585724D01*
X585714Y199648D01*
X585683Y199994D01*
X585633Y200299D01*
X585561Y200563D01*
X585470Y200786D01*
X585358Y200969D01*
X585226Y201111D01*
X585074Y201213D01*
X584901Y201274D01*
X584708Y201294D01*
X588772D01*
X588579Y201274D01*
D02*
G37*
G36*
X587769Y198646D02*
X587808Y198354D01*
X587873Y198066D01*
X587963Y197783D01*
X588080Y197504D01*
X588222Y197230D01*
X588391Y196960D01*
X588585Y196695D01*
X588805Y196434D01*
X589051Y196178D01*
X584429D01*
X584675Y196434D01*
X584895Y196695D01*
X585089Y196960D01*
X585258Y197230D01*
X585400Y197504D01*
X585517Y197783D01*
X585607Y198066D01*
X585672Y198354D01*
X585711Y198646D01*
X585724Y198943D01*
X587756D01*
X587769Y198646D01*
D02*
G37*
G36*
X444520Y195097D02*
X444673Y194666D01*
X444927Y194285D01*
X445282Y193954D01*
X445740Y193675D01*
X446298Y193446D01*
X446959Y193269D01*
X447721Y193142D01*
X448584Y193065D01*
X449549Y193040D01*
Y187960D01*
X448584Y187935D01*
X447721Y187858D01*
X446959Y187731D01*
X446298Y187554D01*
X445740Y187325D01*
X445282Y187046D01*
X444927Y186715D01*
X444673Y186334D01*
X444520Y185903D01*
X444469Y185420D01*
Y195580D01*
X444520Y195097D01*
D02*
G37*
G36*
X611231Y170688D02*
X611210Y170881D01*
X611149Y171054D01*
X611048Y171206D01*
X610905Y171338D01*
X610723Y171450D01*
X610499Y171541D01*
X610235Y171613D01*
X609930Y171663D01*
X609585Y171694D01*
X609198Y171704D01*
Y173736D01*
X609585Y173746D01*
X609930Y173777D01*
X610235Y173827D01*
X610499Y173899D01*
X610723Y173990D01*
X610905Y174102D01*
X611048Y174234D01*
X611149Y174386D01*
X611210Y174559D01*
X611231Y174752D01*
Y170688D01*
D02*
G37*
G36*
X605564Y174785D02*
X605825Y174565D01*
X606090Y174371D01*
X606360Y174202D01*
X606634Y174060D01*
X606913Y173943D01*
X607196Y173853D01*
X607484Y173788D01*
X607776Y173749D01*
X608073Y173736D01*
Y171704D01*
X607776Y171691D01*
X607484Y171652D01*
X607196Y171587D01*
X606913Y171497D01*
X606634Y171380D01*
X606360Y171238D01*
X606090Y171069D01*
X605825Y170875D01*
X605564Y170655D01*
X605308Y170409D01*
Y175031D01*
X605564Y174785D01*
D02*
G37*
G36*
X525257Y185929D02*
X524834Y185777D01*
X524460Y185523D01*
X524137Y185167D01*
X523863Y184710D01*
X523638Y184151D01*
X523464Y183491D01*
X523340Y182729D01*
X523265Y181865D01*
X523240Y180900D01*
X518160D01*
X518135Y181865D01*
X518060Y182729D01*
X517936Y183491D01*
X517762Y184151D01*
X517537Y184710D01*
X517263Y185167D01*
X516940Y185523D01*
X516566Y185777D01*
X516143Y185929D01*
X515670Y185980D01*
X525730D01*
X525257Y185929D01*
D02*
G37*
G36*
X156768Y177792D02*
X156444Y177678D01*
X156158Y177488D01*
X155911Y177221D01*
X155701Y176878D01*
X155530Y176459D01*
X155396Y175964D01*
X155301Y175392D01*
X155244Y174744D01*
X155225Y174021D01*
X151415D01*
X151396Y174744D01*
X151339Y175392D01*
X151243Y175964D01*
X151110Y176459D01*
X150939Y176878D01*
X150729Y177221D01*
X150482Y177488D01*
X150196Y177678D01*
X149872Y177792D01*
X149510Y177831D01*
X157130D01*
X156768Y177792D01*
D02*
G37*
G36*
X183120Y175310D02*
X182846Y175205D01*
X182605Y175029D01*
X182396Y174783D01*
X182219Y174467D01*
X182074Y174081D01*
X181962Y173624D01*
X181881Y173097D01*
X181833Y172499D01*
X181817Y171832D01*
X178007D01*
X177994Y172499D01*
X177887Y173624D01*
X177794Y174081D01*
X177674Y174467D01*
X177528Y174783D01*
X177354Y175029D01*
X177155Y175205D01*
X176928Y175310D01*
X176675Y175345D01*
X183425D01*
X183120Y175310D01*
D02*
G37*
G36*
X181674Y171115D02*
X181749Y170123D01*
X181814Y169697D01*
X181898Y169318D01*
X182000Y168985D01*
X182121Y168698D01*
X182261Y168457D01*
X182419Y168263D01*
X182596Y168116D01*
X176924D01*
X177101Y168263D01*
X177259Y168457D01*
X177399Y168698D01*
X177520Y168985D01*
X177622Y169318D01*
X177706Y169697D01*
X177771Y170123D01*
X177818Y170596D01*
X177855Y171680D01*
X181665D01*
X181674Y171115D01*
D02*
G37*
G36*
X155244Y173186D02*
X155301Y172538D01*
X155396Y171966D01*
X155530Y171471D01*
X155701Y171052D01*
X155911Y170709D01*
X156158Y170442D01*
X156444Y170252D01*
X156768Y170138D01*
X157130Y170100D01*
X155377D01*
X155612Y166545D01*
X155731Y166055D01*
X155865Y165697D01*
X156014Y165474D01*
X156237Y165326D01*
X156595Y165191D01*
X157085Y165072D01*
X157709Y164970D01*
X158139Y164928D01*
Y166590D01*
X158178Y166228D01*
X158292Y165904D01*
X158482Y165618D01*
X158749Y165371D01*
X159092Y165161D01*
X159511Y164990D01*
X160006Y164856D01*
X160514Y164772D01*
X162819Y164693D01*
X163605Y164688D01*
X164195Y164704D01*
X164843Y164761D01*
X165414Y164856D01*
X165910Y164990D01*
X166329Y165161D01*
X166672Y165371D01*
X166938Y165618D01*
X167129Y165904D01*
X167243Y166228D01*
X167281Y166590D01*
Y158970D01*
X167243Y159332D01*
X167129Y159656D01*
X166938Y159942D01*
X166672Y160189D01*
X166329Y160399D01*
X165910Y160570D01*
X165414Y160704D01*
X164843Y160799D01*
X164195Y160856D01*
X163605Y160872D01*
X162819Y160867D01*
X159895Y160674D01*
X159511Y160570D01*
X159092Y160399D01*
X158749Y160189D01*
X158482Y159942D01*
X158292Y159656D01*
X158178Y159332D01*
X158139Y158970D01*
Y160557D01*
X157085Y160487D01*
X156595Y160369D01*
X156237Y160235D01*
X156012Y160084D01*
Y165472D01*
X150624D01*
X150774Y165697D01*
X150909Y166055D01*
X151027Y166545D01*
X151130Y167169D01*
X151288Y168814D01*
X151333Y170100D01*
X149510D01*
X149872Y170138D01*
X150196Y170252D01*
X150482Y170442D01*
X150729Y170709D01*
X150939Y171052D01*
X151110Y171471D01*
X151243Y171966D01*
X151339Y172538D01*
X151396Y173186D01*
X151415Y173909D01*
X155225D01*
X155244Y173186D01*
D02*
G37*
G36*
X182419Y157301D02*
X182261Y157119D01*
X182121Y156898D01*
X182000Y156639D01*
X181898Y156342D01*
X181814Y156007D01*
X181749Y155633D01*
X181702Y155220D01*
X181665Y154280D01*
X177855D01*
X177846Y154769D01*
X177771Y155633D01*
X177706Y156007D01*
X177622Y156342D01*
X177520Y156639D01*
X177399Y156898D01*
X177259Y157119D01*
X177101Y157301D01*
X176924Y157444D01*
X182596D01*
X182419Y157301D01*
D02*
G37*
G36*
X157948Y155399D02*
X157776Y155213D01*
X157625Y154904D01*
X157493Y154472D01*
X157382Y153915D01*
X157291Y153236D01*
X157170Y151505D01*
X157130Y149280D01*
X149510D01*
X149500Y150454D01*
X149258Y153915D01*
X149147Y154472D01*
X149015Y154904D01*
X148864Y155213D01*
X148692Y155399D01*
X148500Y155461D01*
X158139D01*
X157948Y155399D01*
D02*
G37*
G36*
X203860Y146970D02*
X203822Y147332D01*
X203708Y147656D01*
X203518Y147942D01*
X203251Y148189D01*
X202908Y148399D01*
X202489Y148570D01*
X201994Y148704D01*
X201422Y148799D01*
X200774Y148856D01*
X200051Y148875D01*
Y152685D01*
X200774Y152704D01*
X201422Y152761D01*
X201994Y152857D01*
X202489Y152990D01*
X202908Y153161D01*
X203251Y153371D01*
X203518Y153618D01*
X203708Y153904D01*
X203822Y154228D01*
X203860Y154590D01*
Y146970D01*
D02*
G37*
G36*
X386262Y162789D02*
X386167Y162866D01*
X386042Y162935D01*
X385886Y162996D01*
X385700Y163049D01*
X385483Y163093D01*
X385235Y163130D01*
X384650Y163179D01*
X383942Y163195D01*
Y167005D01*
X384311Y167009D01*
X385235Y167070D01*
X385483Y167107D01*
X385700Y167151D01*
X385886Y167204D01*
X386042Y167265D01*
X386167Y167334D01*
X386262Y167411D01*
Y162789D01*
D02*
G37*
G36*
X276868Y168548D02*
X276982Y168224D01*
X277172Y167938D01*
X277439Y167691D01*
X277782Y167481D01*
X278201Y167310D01*
X278696Y167176D01*
X279268Y167081D01*
X279916Y167024D01*
X280639Y167005D01*
Y163195D01*
X279916Y163176D01*
X279268Y163119D01*
X278696Y163023D01*
X278201Y162890D01*
X277782Y162719D01*
X277439Y162509D01*
X277172Y162262D01*
X276982Y161976D01*
X276868Y161652D01*
X276829Y161290D01*
Y168910D01*
X276868Y168548D01*
D02*
G37*
G36*
X629011Y152910D02*
X628972Y153272D01*
X628858Y153596D01*
X628668Y153882D01*
X628401Y154129D01*
X628058Y154339D01*
X627639Y154510D01*
X627144Y154643D01*
X626572Y154739D01*
X625924Y154796D01*
X625201Y154815D01*
Y158625D01*
X625924Y158644D01*
X626572Y158701D01*
X627144Y158796D01*
X627639Y158930D01*
X628058Y159101D01*
X628401Y159311D01*
X628668Y159558D01*
X628858Y159844D01*
X628972Y160168D01*
X629011Y160530D01*
Y152910D01*
D02*
G37*
G36*
X620708Y160168D02*
X620822Y159844D01*
X621012Y159558D01*
X621279Y159311D01*
X621622Y159101D01*
X622041Y158930D01*
X622536Y158796D01*
X623108Y158701D01*
X623756Y158644D01*
X624479Y158625D01*
Y154815D01*
X623756Y154796D01*
X623108Y154739D01*
X622536Y154643D01*
X622041Y154510D01*
X621622Y154339D01*
X621279Y154129D01*
X621012Y153882D01*
X620822Y153596D01*
X620708Y153272D01*
X620670Y152910D01*
Y160530D01*
X620708Y160168D01*
D02*
G37*
G36*
X619398Y152212D02*
X619074Y152098D01*
X618788Y151908D01*
X618541Y151641D01*
X618331Y151298D01*
X618160Y150879D01*
X618026Y150384D01*
X617931Y149812D01*
X617874Y149164D01*
X617855Y148441D01*
X614045D01*
X614026Y149164D01*
X613969Y149812D01*
X613873Y150384D01*
X613740Y150879D01*
X613569Y151298D01*
X613359Y151641D01*
X613111Y151908D01*
X612826Y152098D01*
X612502Y152212D01*
X612140Y152250D01*
X619760D01*
X619398Y152212D01*
D02*
G37*
G36*
X617874Y144445D02*
X617931Y143797D01*
X618026Y143226D01*
X618160Y142731D01*
X618331Y142311D01*
X618541Y141968D01*
X618788Y141702D01*
X619074Y141511D01*
X619398Y141397D01*
X619760Y141359D01*
X612140D01*
X612502Y141397D01*
X612826Y141511D01*
X613111Y141702D01*
X613359Y141968D01*
X613569Y142311D01*
X613740Y142731D01*
X613873Y143226D01*
X613969Y143797D01*
X614026Y144445D01*
X614045Y145169D01*
X617855D01*
X617874Y144445D01*
D02*
G37*
G36*
X574883Y162151D02*
X574706Y161928D01*
X574550Y161693D01*
X574415Y161444D01*
X574300Y161184D01*
X574207Y160910D01*
X574134Y160624D01*
X574082Y160326D01*
X574060Y160112D01*
X574091Y159765D01*
X574154Y159384D01*
X574243Y159054D01*
X574357Y158774D01*
X574497Y158546D01*
X574662Y158368D01*
X574853Y158241D01*
X575069Y158165D01*
X575310Y158139D01*
X570230D01*
X570471Y158165D01*
X570687Y158241D01*
X570878Y158368D01*
X571043Y158546D01*
X571183Y158774D01*
X571297Y159054D01*
X571386Y159384D01*
X571449Y159765D01*
X571480Y160112D01*
X571458Y160326D01*
X571406Y160624D01*
X571333Y160910D01*
X571240Y161184D01*
X571125Y161444D01*
X570990Y161693D01*
X570834Y161928D01*
X570657Y162151D01*
X570459Y162362D01*
X575081D01*
X574883Y162151D01*
D02*
G37*
G36*
X469867Y141478D02*
X469578Y141469D01*
X469295Y141437D01*
X469018Y141381D01*
X468747Y141301D01*
X468482Y141197D01*
X468222Y141070D01*
X467968Y140920D01*
X467720Y140745D01*
X467478Y140547D01*
X467242Y140326D01*
X465446Y142122D01*
X465667Y142358D01*
X465865Y142600D01*
X466040Y142848D01*
X466190Y143102D01*
X466317Y143362D01*
X466421Y143627D01*
X466501Y143898D01*
X466557Y144175D01*
X466589Y144458D01*
X466598Y144747D01*
X469867Y141478D01*
D02*
G37*
G36*
X444495Y141999D02*
X444571Y141783D01*
X444698Y141592D01*
X444876Y141427D01*
X445104Y141287D01*
X445384Y141173D01*
X445714Y141084D01*
X446095Y141021D01*
X446527Y140983D01*
X447010Y140970D01*
Y138430D01*
X446527Y138417D01*
X446095Y138379D01*
X445714Y138316D01*
X445384Y138227D01*
X445104Y138112D01*
X444876Y137973D01*
X444698Y137808D01*
X444571Y137617D01*
X444495Y137401D01*
X444469Y137160D01*
Y142240D01*
X444495Y141999D01*
D02*
G37*
G36*
X203860Y131970D02*
X203822Y132332D01*
X203708Y132656D01*
X203518Y132942D01*
X203251Y133189D01*
X202908Y133399D01*
X202489Y133570D01*
X201994Y133704D01*
X201422Y133799D01*
X200774Y133856D01*
X200051Y133875D01*
Y137685D01*
X200774Y137704D01*
X201422Y137761D01*
X201994Y137857D01*
X202489Y137990D01*
X202908Y138161D01*
X203251Y138371D01*
X203518Y138618D01*
X203708Y138904D01*
X203822Y139228D01*
X203860Y139590D01*
Y131970D01*
D02*
G37*
G36*
X192277Y139228D02*
X192391Y138904D01*
X192582Y138618D01*
X192848Y138371D01*
X193191Y138161D01*
X193610Y137990D01*
X194106Y137857D01*
X194677Y137761D01*
X195325Y137704D01*
X196049Y137685D01*
Y133875D01*
X195325Y133856D01*
X194677Y133799D01*
X194106Y133704D01*
X193610Y133570D01*
X193191Y133399D01*
X192848Y133189D01*
X192582Y132942D01*
X192391Y132656D01*
X192277Y132332D01*
X192239Y131970D01*
Y139590D01*
X192277Y139228D01*
D02*
G37*
G36*
X167281Y131970D02*
X167243Y132332D01*
X167129Y132656D01*
X166938Y132942D01*
X166672Y133189D01*
X166329Y133399D01*
X165910Y133570D01*
X165414Y133704D01*
X164843Y133799D01*
X164195Y133856D01*
X163471Y133875D01*
Y137685D01*
X164195Y137704D01*
X164843Y137761D01*
X165414Y137857D01*
X165910Y137990D01*
X166329Y138161D01*
X166672Y138371D01*
X166938Y138618D01*
X167129Y138904D01*
X167243Y139228D01*
X167281Y139590D01*
Y131970D01*
D02*
G37*
G36*
X158078Y138547D02*
X158192Y138366D01*
X158382Y138207D01*
X158649Y138068D01*
X158992Y137951D01*
X159411Y137855D01*
X159906Y137781D01*
X160478Y137728D01*
X161849Y137685D01*
Y133875D01*
X161126Y133864D01*
X159906Y133779D01*
X159411Y133705D01*
X158992Y133609D01*
X158649Y133492D01*
X158382Y133353D01*
X158192Y133194D01*
X158078Y133013D01*
X158040Y132810D01*
X157695Y132772D01*
X157386Y132658D01*
X157114Y132468D01*
X156878Y132201D01*
X156679Y131858D01*
X156515Y131439D01*
X156388Y130944D01*
X156298Y130372D01*
X156243Y129724D01*
X156232Y129277D01*
X156244Y128816D01*
X156301Y128168D01*
X156396Y127596D01*
X156530Y127101D01*
X156701Y126682D01*
X156911Y126339D01*
X157158Y126072D01*
X157444Y125882D01*
X157768Y125768D01*
X158130Y125730D01*
X150510D01*
X150872Y125768D01*
X151196Y125882D01*
X151482Y126072D01*
X151729Y126339D01*
X151939Y126682D01*
X152110Y127101D01*
X152243Y127596D01*
X152339Y128168D01*
X152396Y128816D01*
X152408Y129277D01*
X152397Y129724D01*
X152342Y130372D01*
X152252Y130944D01*
X152125Y131439D01*
X151961Y131858D01*
X151762Y132201D01*
X151526Y132468D01*
X151254Y132658D01*
X150945Y132772D01*
X150601Y132810D01*
X158040D01*
Y138750D01*
X158078Y138547D01*
D02*
G37*
G36*
X182419Y130293D02*
X182261Y130087D01*
X182121Y129827D01*
X182000Y129513D01*
X181898Y129145D01*
X181814Y128723D01*
X181749Y128246D01*
X181723Y127868D01*
X181741Y127668D01*
X181836Y127096D01*
X181970Y126601D01*
X182141Y126182D01*
X182351Y125839D01*
X182598Y125572D01*
X182884Y125382D01*
X183208Y125268D01*
X183570Y125230D01*
X175950D01*
X176312Y125268D01*
X176636Y125382D01*
X176922Y125572D01*
X177169Y125839D01*
X177379Y126182D01*
X177550Y126601D01*
X177684Y127096D01*
X177779Y127668D01*
X177789Y127780D01*
X177706Y128723D01*
X177622Y129145D01*
X177520Y129513D01*
X177399Y129827D01*
X177259Y130087D01*
X177101Y130293D01*
X176924Y130444D01*
X182596D01*
X182419Y130293D01*
D02*
G37*
G36*
X195611Y116950D02*
X195572Y117312D01*
X195458Y117636D01*
X195268Y117922D01*
X195001Y118169D01*
X194658Y118379D01*
X194239Y118550D01*
X193744Y118684D01*
X193172Y118779D01*
X192524Y118836D01*
X191800Y118855D01*
Y122665D01*
X192524Y122684D01*
X193172Y122741D01*
X193744Y122837D01*
X194239Y122970D01*
X194658Y123141D01*
X195001Y123351D01*
X195268Y123598D01*
X195458Y123884D01*
X195572Y124208D01*
X195611Y124570D01*
Y116950D01*
D02*
G37*
G36*
X183768Y124208D02*
X183882Y123884D01*
X184072Y123598D01*
X184339Y123351D01*
X184682Y123141D01*
X185101Y122970D01*
X185596Y122837D01*
X186168Y122741D01*
X186816Y122684D01*
X187540Y122665D01*
Y118855D01*
X186816Y118836D01*
X186168Y118779D01*
X185596Y118684D01*
X185101Y118550D01*
X184682Y118379D01*
X184339Y118169D01*
X184072Y117922D01*
X183882Y117636D01*
X183768Y117312D01*
X183729Y116950D01*
Y124570D01*
X183768Y124208D01*
D02*
G37*
G36*
X157768Y115752D02*
X157444Y115638D01*
X157158Y115448D01*
X156911Y115181D01*
X156701Y114838D01*
X156530Y114419D01*
X156396Y113924D01*
X156301Y113352D01*
X156244Y112704D01*
X156225Y111980D01*
X152415D01*
X152396Y112704D01*
X152339Y113352D01*
X152243Y113924D01*
X152110Y114419D01*
X151939Y114838D01*
X151729Y115181D01*
X151482Y115448D01*
X151196Y115638D01*
X150872Y115752D01*
X150510Y115791D01*
X158130D01*
X157768Y115752D01*
D02*
G37*
G36*
X156241Y111066D02*
X156366Y109846D01*
X156475Y109351D01*
X156616Y108932D01*
X156788Y108589D01*
X156992Y108322D01*
X157226Y108132D01*
X157492Y108018D01*
X157789Y107979D01*
X150510D01*
X150872Y108018D01*
X151196Y108132D01*
X151482Y108322D01*
X151729Y108589D01*
X151939Y108932D01*
X152110Y109351D01*
X152243Y109846D01*
X152339Y110418D01*
X152396Y111066D01*
X152415Y111790D01*
X156225D01*
X156241Y111066D01*
D02*
G37*
G36*
X722642Y155032D02*
X722815Y152242D01*
X722920Y151560D01*
X723047Y151002D01*
X723198Y150568D01*
X723372Y150258D01*
X723569Y150071D01*
X723790Y150009D01*
X713850D01*
X714071Y150071D01*
X714268Y150258D01*
X714442Y150568D01*
X714593Y151002D01*
X714720Y151560D01*
X714825Y152242D01*
X714964Y153978D01*
X715010Y156210D01*
X722630D01*
X722642Y155032D01*
D02*
G37*
G36*
X386262Y137389D02*
X386167Y137466D01*
X386042Y137535D01*
X385886Y137596D01*
X385700Y137649D01*
X385483Y137693D01*
X385235Y137730D01*
X384650Y137779D01*
X383942Y137795D01*
Y141605D01*
X384311Y141609D01*
X385235Y141670D01*
X385483Y141707D01*
X385700Y141751D01*
X385886Y141804D01*
X386042Y141865D01*
X386167Y141934D01*
X386262Y142011D01*
Y137389D01*
D02*
G37*
G36*
X276868Y143148D02*
X276982Y142824D01*
X277172Y142538D01*
X277439Y142291D01*
X277782Y142081D01*
X278201Y141910D01*
X278696Y141776D01*
X279268Y141681D01*
X279916Y141624D01*
X280639Y141605D01*
Y137795D01*
X279916Y137776D01*
X279268Y137719D01*
X278696Y137624D01*
X278201Y137490D01*
X277782Y137319D01*
X277439Y137109D01*
X277172Y136861D01*
X276982Y136576D01*
X276868Y136252D01*
X276829Y135890D01*
Y143510D01*
X276868Y143148D01*
D02*
G37*
G36*
X480242Y125959D02*
X479986Y126205D01*
X479725Y126425D01*
X479460Y126619D01*
X479190Y126788D01*
X478916Y126930D01*
X478637Y127047D01*
X478354Y127137D01*
X478066Y127202D01*
X477774Y127241D01*
X477477Y127254D01*
Y129286D01*
X477774Y129299D01*
X478066Y129338D01*
X478354Y129403D01*
X478637Y129493D01*
X478916Y129610D01*
X479190Y129752D01*
X479460Y129921D01*
X479725Y130115D01*
X479986Y130335D01*
X480242Y130581D01*
Y125959D01*
D02*
G37*
G36*
X444490Y65339D02*
X444551Y65166D01*
X444652Y65014D01*
X444795Y64882D01*
X444977Y64770D01*
X445201Y64679D01*
X445465Y64607D01*
X445770Y64557D01*
X446115Y64526D01*
X446502Y64516D01*
Y62484D01*
X446115Y62474D01*
X445770Y62443D01*
X445465Y62393D01*
X445201Y62321D01*
X444977Y62230D01*
X444795Y62118D01*
X444652Y61986D01*
X444551Y61834D01*
X444490Y61661D01*
X444469Y61468D01*
Y65532D01*
X444490Y65339D01*
D02*
G37*
G36*
X250219Y116413D02*
X250442Y116236D01*
X250677Y116080D01*
X250926Y115945D01*
X251186Y115830D01*
X251460Y115737D01*
X251746Y115664D01*
X252044Y115612D01*
X252355Y115580D01*
X252679Y115570D01*
Y113030D01*
X252355Y113020D01*
X252044Y112988D01*
X251746Y112936D01*
X251460Y112863D01*
X251186Y112770D01*
X250926Y112655D01*
X250677Y112520D01*
X250442Y112364D01*
X250219Y112186D01*
X250008Y111989D01*
Y116611D01*
X250219Y116413D01*
D02*
G37*
G36*
X256570Y111760D02*
X256545Y112001D01*
X256469Y112217D01*
X256342Y112408D01*
X256164Y112573D01*
X255935Y112712D01*
X255656Y112827D01*
X255326Y112916D01*
X254945Y112979D01*
X254513Y113017D01*
X254030Y113030D01*
Y115570D01*
X254513Y115583D01*
X254945Y115621D01*
X255326Y115684D01*
X255656Y115773D01*
X255935Y115887D01*
X256164Y116027D01*
X256342Y116192D01*
X256469Y116383D01*
X256545Y116599D01*
X256570Y116840D01*
Y111760D01*
D02*
G37*
G36*
X578849Y121494D02*
X579072Y121316D01*
X579307Y121160D01*
X579556Y121025D01*
X579816Y120910D01*
X580090Y120817D01*
X580376Y120744D01*
X580674Y120692D01*
X580985Y120660D01*
X581309Y120650D01*
Y118110D01*
X580985Y118100D01*
X580674Y118068D01*
X580376Y118016D01*
X580090Y117943D01*
X579816Y117850D01*
X579556Y117735D01*
X579307Y117600D01*
X579072Y117444D01*
X578849Y117267D01*
X578638Y117069D01*
Y121691D01*
X578849Y121494D01*
D02*
G37*
G36*
X573922Y117069D02*
X573712Y117267D01*
X573488Y117444D01*
X573253Y117600D01*
X573004Y117735D01*
X572744Y117850D01*
X572470Y117943D01*
X572184Y118016D01*
X571886Y118068D01*
X571575Y118100D01*
X571251Y118110D01*
Y120650D01*
X571575Y120660D01*
X571886Y120692D01*
X572184Y120744D01*
X572470Y120817D01*
X572744Y120910D01*
X573004Y121025D01*
X573253Y121160D01*
X573488Y121316D01*
X573712Y121494D01*
X573922Y121691D01*
Y117069D01*
D02*
G37*
G36*
X584481Y116840D02*
X584410Y117081D01*
X584298Y117297D01*
X584146Y117488D01*
X583952Y117653D01*
X583717Y117793D01*
X583442Y117907D01*
X583125Y117996D01*
X582768Y118059D01*
X582370Y118097D01*
X581931Y118110D01*
Y120650D01*
X582370Y120663D01*
X582768Y120701D01*
X583125Y120764D01*
X583442Y120853D01*
X583717Y120968D01*
X583952Y121107D01*
X584146Y121272D01*
X584298Y121463D01*
X584410Y121679D01*
X584481Y121920D01*
Y116840D01*
D02*
G37*
G36*
X566605Y121679D02*
X566681Y121463D01*
X566808Y121272D01*
X566986Y121107D01*
X567215Y120968D01*
X567494Y120853D01*
X567824Y120764D01*
X568205Y120701D01*
X568637Y120663D01*
X569119Y120650D01*
Y118110D01*
X568637Y118097D01*
X568205Y118059D01*
X567824Y117996D01*
X567494Y117907D01*
X567215Y117793D01*
X566986Y117653D01*
X566808Y117488D01*
X566681Y117297D01*
X566605Y117081D01*
X566580Y116840D01*
Y121920D01*
X566605Y121679D01*
D02*
G37*
G36*
X722268Y125032D02*
X721944Y124918D01*
X721658Y124728D01*
X721411Y124461D01*
X721201Y124118D01*
X721030Y123699D01*
X720896Y123204D01*
X720801Y122632D01*
X720744Y121984D01*
X720725Y121260D01*
X716915D01*
X716896Y121984D01*
X716839Y122632D01*
X716743Y123204D01*
X716610Y123699D01*
X716439Y124118D01*
X716229Y124461D01*
X715982Y124728D01*
X715696Y124918D01*
X715372Y125032D01*
X715010Y125070D01*
X722630D01*
X722268Y125032D01*
D02*
G37*
G36*
X720744Y115456D02*
X720801Y114808D01*
X720896Y114236D01*
X721030Y113741D01*
X721201Y113322D01*
X721411Y112979D01*
X721658Y112712D01*
X721944Y112522D01*
X722268Y112408D01*
X722630Y112369D01*
X715010D01*
X715372Y112408D01*
X715696Y112522D01*
X715982Y112712D01*
X716229Y112979D01*
X716439Y113322D01*
X716610Y113741D01*
X716743Y114236D01*
X716839Y114808D01*
X716896Y115456D01*
X716915Y116180D01*
X720725D01*
X720744Y115456D01*
D02*
G37*
G36*
X797455Y103800D02*
X795980Y103788D01*
X793326Y103598D01*
X792147Y103420D01*
X791067Y103188D01*
X790086Y102900D01*
X789204Y102557D01*
X788421Y102158D01*
X787736Y101705D01*
X787151Y101197D01*
X784457Y103891D01*
X784965Y104476D01*
X785418Y105161D01*
X785817Y105944D01*
X786160Y106826D01*
X786448Y107807D01*
X786681Y108887D01*
X786858Y110065D01*
X786981Y111343D01*
X787060Y114195D01*
X797455Y103800D01*
D02*
G37*
G36*
X730128Y105048D02*
X730242Y104724D01*
X730432Y104438D01*
X730699Y104191D01*
X731042Y103981D01*
X731461Y103810D01*
X731956Y103676D01*
X732528Y103581D01*
X733176Y103524D01*
X733900Y103505D01*
Y99695D01*
X733176Y99676D01*
X732528Y99619D01*
X731956Y99524D01*
X731461Y99390D01*
X731042Y99219D01*
X730699Y99009D01*
X730432Y98762D01*
X730242Y98476D01*
X730128Y98152D01*
X730089Y97790D01*
Y105410D01*
X730128Y105048D01*
D02*
G37*
G36*
X707551Y97790D02*
X707512Y98152D01*
X707398Y98476D01*
X707208Y98762D01*
X706941Y99009D01*
X706598Y99219D01*
X706179Y99390D01*
X705684Y99524D01*
X705112Y99619D01*
X704464Y99676D01*
X703740Y99695D01*
Y103505D01*
X704464Y103524D01*
X705112Y103581D01*
X705684Y103676D01*
X706179Y103810D01*
X706598Y103981D01*
X706941Y104191D01*
X707208Y104438D01*
X707398Y104724D01*
X707512Y105048D01*
X707551Y105410D01*
Y97790D01*
D02*
G37*
G36*
X690688Y105048D02*
X690802Y104724D01*
X690992Y104438D01*
X691259Y104191D01*
X691602Y103981D01*
X692021Y103810D01*
X692516Y103676D01*
X693088Y103581D01*
X693736Y103524D01*
X694460Y103505D01*
Y99695D01*
X693736Y99676D01*
X693088Y99619D01*
X692516Y99524D01*
X692021Y99390D01*
X691602Y99219D01*
X691259Y99009D01*
X690992Y98762D01*
X690802Y98476D01*
X690688Y98152D01*
X690649Y97790D01*
Y105410D01*
X690688Y105048D01*
D02*
G37*
G36*
X175791Y99291D02*
X175731Y99416D01*
X175551Y99528D01*
X175252Y99627D01*
X174834Y99713D01*
X174295Y99785D01*
X172860Y99891D01*
X169810Y99950D01*
Y107570D01*
X170946Y107577D01*
X174834Y107807D01*
X175252Y107893D01*
X175551Y107992D01*
X175731Y108104D01*
X175791Y108230D01*
Y99291D01*
D02*
G37*
G36*
X61707Y158162D02*
X61284Y157607D01*
X60910Y157006D01*
X60586Y156361D01*
X60312Y155671D01*
X60088Y154936D01*
X59914Y154156D01*
X59790Y153331D01*
X59715Y152461D01*
X59690Y151546D01*
X52070D01*
X52045Y152461D01*
X51970Y153331D01*
X51846Y154156D01*
X51672Y154936D01*
X51448Y155671D01*
X51174Y156361D01*
X50850Y157006D01*
X50476Y157607D01*
X50053Y158162D01*
X49580Y158673D01*
X62180D01*
X61707Y158162D01*
D02*
G37*
G36*
X30902Y98053D02*
X31120Y97465D01*
X31484Y96946D01*
X31993Y96496D01*
X32647Y96115D01*
X33447Y95804D01*
X34392Y95562D01*
X35483Y95388D01*
X36719Y95285D01*
X38100Y95250D01*
Y87630D01*
X36719Y87595D01*
X35483Y87492D01*
X34392Y87318D01*
X33447Y87076D01*
X32647Y86765D01*
X31993Y86384D01*
X31484Y85934D01*
X31120Y85415D01*
X30902Y84827D01*
X30830Y84170D01*
Y98710D01*
X30902Y98053D01*
D02*
G37*
G36*
X256570Y86360D02*
X256545Y86601D01*
X256469Y86817D01*
X256342Y87008D01*
X256164Y87173D01*
X255935Y87312D01*
X255656Y87427D01*
X255326Y87516D01*
X254945Y87579D01*
X254513Y87617D01*
X254030Y87630D01*
Y90170D01*
X254513Y90183D01*
X254945Y90221D01*
X255326Y90284D01*
X255656Y90373D01*
X255935Y90487D01*
X256164Y90627D01*
X256342Y90792D01*
X256469Y90983D01*
X256545Y91199D01*
X256570Y91440D01*
Y86360D01*
D02*
G37*
G36*
X244724Y78038D02*
X244503Y77802D01*
X244305Y77560D01*
X244130Y77312D01*
X243980Y77058D01*
X243853Y76798D01*
X243749Y76533D01*
X243669Y76262D01*
X243613Y75985D01*
X243581Y75702D01*
X243572Y75413D01*
X240303Y78682D01*
X240592Y78691D01*
X240875Y78723D01*
X241152Y78779D01*
X241423Y78859D01*
X241688Y78963D01*
X241948Y79090D01*
X242202Y79240D01*
X242450Y79415D01*
X242692Y79613D01*
X242928Y79834D01*
X244724Y78038D01*
D02*
G37*
G36*
X95006Y98336D02*
X95234Y97688D01*
X95615Y97117D01*
X96149Y96622D01*
X96834Y96202D01*
X97673Y95860D01*
X98663Y95593D01*
X99806Y95402D01*
X101102Y95288D01*
X102549Y95250D01*
Y87630D01*
X101102Y87592D01*
X99806Y87478D01*
X98663Y87287D01*
X97673Y87020D01*
X96834Y86678D01*
X96149Y86258D01*
X95615Y85763D01*
X95234Y85192D01*
X95006Y84544D01*
X94930Y83820D01*
Y99060D01*
X95006Y98336D01*
D02*
G37*
G36*
X370807Y122428D02*
X370685Y122416D01*
X370548Y122376D01*
X370395Y122309D01*
X370225Y122214D01*
X370041Y122093D01*
X369840Y121944D01*
X369391Y121564D01*
X368879Y121075D01*
X366185Y123769D01*
X366443Y124033D01*
X367054Y124730D01*
X367203Y124930D01*
X367324Y125115D01*
X367419Y125285D01*
X367486Y125438D01*
X367526Y125575D01*
X367538Y125697D01*
X370807Y122428D01*
D02*
G37*
G36*
X276868Y66948D02*
X276982Y66624D01*
X277172Y66338D01*
X277439Y66091D01*
X277782Y65881D01*
X278201Y65710D01*
X278696Y65576D01*
X279268Y65481D01*
X279916Y65424D01*
X280639Y65405D01*
Y61595D01*
X279916Y61576D01*
X279268Y61519D01*
X278696Y61424D01*
X278201Y61290D01*
X277782Y61119D01*
X277439Y60909D01*
X277172Y60662D01*
X276982Y60376D01*
X276868Y60052D01*
X276829Y59690D01*
Y67310D01*
X276868Y66948D01*
D02*
G37*
G36*
X621437Y122039D02*
X621643Y121881D01*
X621903Y121741D01*
X622217Y121620D01*
X622585Y121518D01*
X623007Y121434D01*
X623484Y121369D01*
X624600Y121294D01*
X625239Y121285D01*
Y117475D01*
X624600Y117466D01*
X623007Y117326D01*
X622585Y117242D01*
X622217Y117140D01*
X621903Y117019D01*
X621643Y116879D01*
X621437Y116721D01*
X621286Y116544D01*
Y122216D01*
X621437Y122039D01*
D02*
G37*
G36*
X641244Y109656D02*
X641301Y109008D01*
X641396Y108436D01*
X641530Y107941D01*
X641701Y107522D01*
X641911Y107179D01*
X642159Y106912D01*
X642444Y106722D01*
X642768Y106608D01*
X643130Y106569D01*
X635510D01*
X635872Y106608D01*
X636196Y106722D01*
X636482Y106912D01*
X636729Y107179D01*
X636939Y107522D01*
X637110Y107941D01*
X637244Y108436D01*
X637339Y109008D01*
X637396Y109656D01*
X637415Y110379D01*
X641225D01*
X641244Y109656D01*
D02*
G37*
G36*
X642768Y96592D02*
X642444Y96478D01*
X642159Y96288D01*
X641911Y96021D01*
X641701Y95678D01*
X641530Y95259D01*
X641396Y94764D01*
X641301Y94192D01*
X641244Y93544D01*
X641225Y92821D01*
X637415D01*
X637396Y93544D01*
X637339Y94192D01*
X637244Y94764D01*
X637110Y95259D01*
X636939Y95678D01*
X636729Y96021D01*
X636482Y96288D01*
X636196Y96478D01*
X635872Y96592D01*
X635510Y96630D01*
X643130D01*
X642768Y96592D01*
D02*
G37*
G36*
X641244Y79656D02*
X641301Y79008D01*
X641396Y78436D01*
X641530Y77941D01*
X641701Y77522D01*
X641911Y77179D01*
X642159Y76912D01*
X642444Y76722D01*
X642768Y76608D01*
X643130Y76569D01*
X635510D01*
X635872Y76608D01*
X636196Y76722D01*
X636482Y76912D01*
X636729Y77179D01*
X636939Y77522D01*
X637110Y77941D01*
X637244Y78436D01*
X637339Y79008D01*
X637396Y79656D01*
X637415Y80379D01*
X641225D01*
X641244Y79656D01*
D02*
G37*
G36*
X187533Y82521D02*
X187356Y82298D01*
X187200Y82063D01*
X187065Y81814D01*
X186950Y81554D01*
X186857Y81280D01*
X186784Y80994D01*
X186732Y80696D01*
X186700Y80385D01*
X186690Y80061D01*
X184150D01*
X184140Y80385D01*
X184108Y80696D01*
X184056Y80994D01*
X183983Y81280D01*
X183890Y81554D01*
X183775Y81814D01*
X183640Y82063D01*
X183484Y82298D01*
X183307Y82521D01*
X183109Y82732D01*
X187731D01*
X187533Y82521D01*
D02*
G37*
G36*
X186703Y76407D02*
X186741Y75975D01*
X186804Y75594D01*
X186893Y75264D01*
X187008Y74984D01*
X187147Y74756D01*
X187312Y74578D01*
X187503Y74451D01*
X187719Y74375D01*
X187960Y74349D01*
X182880D01*
X183121Y74375D01*
X183337Y74451D01*
X183528Y74578D01*
X183693Y74756D01*
X183832Y74984D01*
X183947Y75264D01*
X184036Y75594D01*
X184099Y75975D01*
X184137Y76407D01*
X184150Y76890D01*
X186690D01*
X186703Y76407D01*
D02*
G37*
G36*
X164674Y82521D02*
X164496Y82298D01*
X164340Y82063D01*
X164205Y81814D01*
X164090Y81554D01*
X163997Y81280D01*
X163924Y80994D01*
X163872Y80696D01*
X163840Y80385D01*
X163830Y80061D01*
X161290D01*
X161280Y80385D01*
X161248Y80696D01*
X161196Y80994D01*
X161123Y81280D01*
X161030Y81554D01*
X160915Y81814D01*
X160780Y82063D01*
X160623Y82298D01*
X160446Y82521D01*
X160249Y82732D01*
X164871D01*
X164674Y82521D01*
D02*
G37*
G36*
X163843Y76407D02*
X163881Y75975D01*
X163944Y75594D01*
X164033Y75264D01*
X164147Y74984D01*
X164287Y74756D01*
X164452Y74578D01*
X164643Y74451D01*
X164859Y74375D01*
X165100Y74349D01*
X160020D01*
X160261Y74375D01*
X160477Y74451D01*
X160668Y74578D01*
X160833Y74756D01*
X160972Y74984D01*
X161087Y75264D01*
X161176Y75594D01*
X161239Y75975D01*
X161277Y76407D01*
X161290Y76890D01*
X163830D01*
X163843Y76407D01*
D02*
G37*
G36*
X141813Y82521D02*
X141636Y82298D01*
X141480Y82063D01*
X141345Y81814D01*
X141230Y81554D01*
X141137Y81280D01*
X141064Y80994D01*
X141012Y80696D01*
X140980Y80385D01*
X140970Y80061D01*
X138430D01*
X138420Y80385D01*
X138388Y80696D01*
X138336Y80994D01*
X138263Y81280D01*
X138170Y81554D01*
X138055Y81814D01*
X137920Y82063D01*
X137764Y82298D01*
X137586Y82521D01*
X137389Y82732D01*
X142011D01*
X141813Y82521D01*
D02*
G37*
G36*
X140983Y76407D02*
X141021Y75975D01*
X141084Y75594D01*
X141173Y75264D01*
X141287Y74984D01*
X141427Y74756D01*
X141592Y74578D01*
X141783Y74451D01*
X141999Y74375D01*
X142240Y74349D01*
X137160D01*
X137401Y74375D01*
X137617Y74451D01*
X137808Y74578D01*
X137973Y74756D01*
X138112Y74984D01*
X138227Y75264D01*
X138316Y75594D01*
X138379Y75975D01*
X138417Y76407D01*
X138430Y76890D01*
X140970D01*
X140983Y76407D01*
D02*
G37*
G36*
X665711Y97790D02*
X665672Y98152D01*
X665558Y98476D01*
X665368Y98762D01*
X665101Y99009D01*
X664758Y99219D01*
X664339Y99390D01*
X663844Y99524D01*
X663272Y99619D01*
X662750Y99665D01*
X662228Y99619D01*
X661656Y99524D01*
X661161Y99390D01*
X660742Y99219D01*
X660399Y99009D01*
X660132Y98762D01*
X659942Y98476D01*
X659828Y98152D01*
X659790Y97790D01*
Y105410D01*
X659828Y105048D01*
X659942Y104724D01*
X660132Y104438D01*
X660399Y104191D01*
X660742Y103981D01*
X661161Y103810D01*
X661656Y103676D01*
X662228Y103581D01*
X662750Y103535D01*
X663272Y103581D01*
X663844Y103676D01*
X664339Y103810D01*
X664758Y103981D01*
X665101Y104191D01*
X665368Y104438D01*
X665558Y104724D01*
X665672Y105048D01*
X665711Y105410D01*
Y97790D01*
D02*
G37*
G36*
X673628Y96842D02*
X673304Y96728D01*
X673018Y96538D01*
X672771Y96271D01*
X672561Y95928D01*
X672390Y95509D01*
X672256Y95014D01*
X672161Y94442D01*
X672104Y93794D01*
X672085Y93070D01*
X668275D01*
X668256Y93794D01*
X668199Y94442D01*
X668103Y95014D01*
X667970Y95509D01*
X667799Y95928D01*
X667589Y96271D01*
X667342Y96538D01*
X667056Y96728D01*
X666732Y96842D01*
X666370Y96881D01*
X673990D01*
X673628Y96842D01*
D02*
G37*
G36*
X672104Y80946D02*
X672161Y80299D01*
X672256Y79727D01*
X672390Y79232D01*
X672561Y78813D01*
X672771Y78470D01*
X673018Y78203D01*
X673304Y78013D01*
X673628Y77898D01*
X673990Y77860D01*
X666370D01*
X666732Y77898D01*
X667056Y78013D01*
X667342Y78203D01*
X667589Y78470D01*
X667799Y78813D01*
X667970Y79232D01*
X668103Y79727D01*
X668199Y80299D01*
X668256Y80946D01*
X668275Y81670D01*
X672085D01*
X672104Y80946D01*
D02*
G37*
G36*
X211452Y53372D02*
X211186Y53258D01*
X210952Y53068D01*
X210748Y52801D01*
X210576Y52458D01*
X210435Y52039D01*
X210326Y51544D01*
X210248Y50972D01*
X210201Y50324D01*
X210185Y49601D01*
X206375D01*
X206359Y50324D01*
X206234Y51544D01*
X206125Y52039D01*
X205984Y52458D01*
X205812Y52801D01*
X205608Y53068D01*
X205374Y53258D01*
X205108Y53372D01*
X204811Y53411D01*
X211749D01*
X211452Y53372D01*
D02*
G37*
G36*
X210204Y43996D02*
X210261Y43348D01*
X210356Y42776D01*
X210490Y42281D01*
X210661Y41862D01*
X210871Y41519D01*
X211118Y41252D01*
X211404Y41062D01*
X211728Y40948D01*
X212090Y40910D01*
X204470D01*
X204832Y40948D01*
X205156Y41062D01*
X205441Y41252D01*
X205689Y41519D01*
X205899Y41862D01*
X206070Y42281D01*
X206204Y42776D01*
X206299Y43348D01*
X206356Y43996D01*
X206375Y44720D01*
X210185D01*
X210204Y43996D01*
D02*
G37*
G36*
X188592Y53372D02*
X188326Y53258D01*
X188092Y53068D01*
X187888Y52801D01*
X187716Y52458D01*
X187575Y52039D01*
X187466Y51544D01*
X187388Y50972D01*
X187341Y50324D01*
X187325Y49601D01*
X183515D01*
X183499Y50324D01*
X183374Y51544D01*
X183265Y52039D01*
X183124Y52458D01*
X182952Y52801D01*
X182748Y53068D01*
X182514Y53258D01*
X182248Y53372D01*
X181950Y53411D01*
X188890D01*
X188592Y53372D01*
D02*
G37*
G36*
X187344Y43996D02*
X187401Y43348D01*
X187496Y42776D01*
X187630Y42281D01*
X187801Y41862D01*
X188011Y41519D01*
X188258Y41252D01*
X188544Y41062D01*
X188868Y40948D01*
X189230Y40910D01*
X181610D01*
X181972Y40948D01*
X182296Y41062D01*
X182582Y41252D01*
X182829Y41519D01*
X183039Y41862D01*
X183210Y42281D01*
X183344Y42776D01*
X183439Y43348D01*
X183496Y43996D01*
X183515Y44720D01*
X187325D01*
X187344Y43996D01*
D02*
G37*
G36*
X165732Y53372D02*
X165466Y53258D01*
X165232Y53068D01*
X165028Y52801D01*
X164856Y52458D01*
X164715Y52039D01*
X164606Y51544D01*
X164528Y50972D01*
X164481Y50324D01*
X164465Y49601D01*
X160655D01*
X160639Y50324D01*
X160514Y51544D01*
X160405Y52039D01*
X160264Y52458D01*
X160092Y52801D01*
X159888Y53068D01*
X159654Y53258D01*
X159388Y53372D01*
X159090Y53411D01*
X166029D01*
X165732Y53372D01*
D02*
G37*
G36*
X164484Y43996D02*
X164541Y43348D01*
X164636Y42776D01*
X164770Y42281D01*
X164941Y41862D01*
X165151Y41519D01*
X165398Y41252D01*
X165684Y41062D01*
X166008Y40948D01*
X166370Y40910D01*
X158750D01*
X159112Y40948D01*
X159436Y41062D01*
X159721Y41252D01*
X159969Y41519D01*
X160179Y41862D01*
X160350Y42281D01*
X160483Y42776D01*
X160579Y43348D01*
X160636Y43996D01*
X160655Y44720D01*
X164465D01*
X164484Y43996D01*
D02*
G37*
G36*
X142872Y53372D02*
X142606Y53258D01*
X142372Y53068D01*
X142168Y52801D01*
X141996Y52458D01*
X141855Y52039D01*
X141746Y51544D01*
X141668Y50972D01*
X141621Y50324D01*
X141605Y49601D01*
X137795D01*
X137779Y50324D01*
X137654Y51544D01*
X137545Y52039D01*
X137404Y52458D01*
X137232Y52801D01*
X137028Y53068D01*
X136794Y53258D01*
X136528Y53372D01*
X136230Y53411D01*
X143169D01*
X142872Y53372D01*
D02*
G37*
G36*
X141624Y43996D02*
X141681Y43348D01*
X141776Y42776D01*
X141910Y42281D01*
X142081Y41862D01*
X142291Y41519D01*
X142538Y41252D01*
X142824Y41062D01*
X143148Y40948D01*
X143510Y40910D01*
X135890D01*
X136252Y40948D01*
X136576Y41062D01*
X136861Y41252D01*
X137109Y41519D01*
X137319Y41862D01*
X137490Y42281D01*
X137624Y42776D01*
X137719Y43348D01*
X137776Y43996D01*
X137795Y44720D01*
X141605D01*
X141624Y43996D01*
D02*
G37*
D17*
X718820Y145540D02*
D03*
Y129540D02*
D03*
D18*
X86360Y91440D02*
D03*
X22260D02*
D03*
D19*
X153320Y162780D02*
D03*
X136720D02*
D03*
D20*
X153320Y182300D02*
D03*
X153820Y103510D02*
D03*
X138820D02*
D03*
X138320Y182300D02*
D03*
X547610Y119380D02*
D03*
X562610D02*
D03*
X726440Y257810D02*
D03*
X711440D02*
D03*
D21*
X179760Y103760D02*
D03*
Y120760D02*
D03*
D22*
X170260Y162780D02*
D03*
X189260Y135780D02*
D03*
X179760D02*
D03*
X170260D02*
D03*
X189260Y162780D02*
D03*
X179760D02*
D03*
D23*
X819110Y260380D02*
D03*
X814110D02*
D03*
X808960Y257730D02*
D03*
Y252730D02*
D03*
Y247730D02*
D03*
X814110Y245080D02*
D03*
X819110D02*
D03*
X824260Y247730D02*
D03*
Y252730D02*
D03*
Y257730D02*
D03*
D24*
X810260Y207130D02*
D03*
Y222130D02*
D03*
X613925Y199820D02*
D03*
Y214820D02*
D03*
X208330Y150780D02*
D03*
Y135780D02*
D03*
X682540Y265110D02*
D03*
Y250110D02*
D03*
D25*
X770730Y255110D02*
D03*
Y245110D02*
D03*
Y235110D02*
D03*
X750730D02*
D03*
Y245110D02*
D03*
Y255110D02*
D03*
D26*
X266700Y241300D02*
D03*
Y215900D02*
D03*
Y190500D02*
D03*
Y165100D02*
D03*
Y139700D02*
D03*
Y114300D02*
D03*
Y63500D02*
D03*
X434340Y241300D02*
D03*
Y215900D02*
D03*
Y190500D02*
D03*
Y165100D02*
D03*
Y139700D02*
D03*
Y114300D02*
D03*
Y88900D02*
D03*
Y63500D02*
D03*
X266700Y88900D02*
D03*
D27*
X200080Y120760D02*
D03*
Y102760D02*
D03*
X138320Y120760D02*
D03*
X154320D02*
D03*
X655320Y101600D02*
D03*
X639320D02*
D03*
D28*
X150820Y208280D02*
D03*
X139789D02*
D03*
D29*
X143320Y135780D02*
D03*
X154320D02*
D03*
D30*
X151280Y229350D02*
D03*
X136280D02*
D03*
X151280Y249670D02*
D03*
X136280D02*
D03*
D31*
X193790Y187380D02*
D03*
Y245800D02*
D03*
D32*
X520700Y191740D02*
D03*
Y208280D02*
D03*
X670180Y55560D02*
D03*
Y72100D02*
D03*
D33*
X692040Y233830D02*
D03*
Y227330D02*
D03*
Y220830D02*
D03*
X710040D02*
D03*
Y227330D02*
D03*
Y233830D02*
D03*
D34*
X586740Y204582D02*
D03*
Y217170D02*
D03*
X645160Y204742D02*
D03*
Y217330D02*
D03*
D35*
X686180Y101600D02*
D03*
X670180D02*
D03*
D36*
X718820Y52600D02*
D03*
Y101600D02*
D03*
D37*
X639320Y56100D02*
D03*
Y72100D02*
D03*
X572770Y137670D02*
D03*
Y153670D02*
D03*
X615950Y156720D02*
D03*
Y172720D02*
D03*
X633730D02*
D03*
Y156720D02*
D03*
D38*
X208280Y70880D02*
D03*
Y56880D02*
D03*
X185420Y70880D02*
D03*
Y56880D02*
D03*
X162560Y70880D02*
D03*
Y56880D02*
D03*
X139700Y70880D02*
D03*
Y56880D02*
D03*
D39*
X208280Y35940D02*
D03*
Y19940D02*
D03*
X185420Y35940D02*
D03*
Y19940D02*
D03*
X162560Y35940D02*
D03*
Y19940D02*
D03*
X139700Y35940D02*
D03*
Y19940D02*
D03*
D40*
X589950Y119380D02*
D03*
Y138380D02*
D03*
X615950D02*
D03*
Y128880D02*
D03*
Y119380D02*
D03*
D45*
X608800Y243840D02*
D03*
Y248840D02*
D03*
X624050D02*
D03*
Y243840D02*
D03*
D46*
X608925Y253965D02*
D03*
X613925D02*
D03*
X618925D02*
D03*
X623925D02*
D03*
Y238715D02*
D03*
X618925D02*
D03*
X613925D02*
D03*
X608925D02*
D03*
D59*
X613925Y226768D02*
X618925Y231768D01*
Y238715D01*
X819110Y238940D02*
X826910Y231140D01*
X819110Y238940D02*
Y245080D01*
X469900Y128270D02*
X482600D01*
X459740Y118110D02*
X469900Y128270D01*
X459740Y71297D02*
Y118110D01*
X451943Y63500D02*
X459740Y71297D01*
X434340Y63500D02*
X451943D01*
X801370Y267970D02*
X812920D01*
X814110Y266780D01*
Y260380D02*
Y266780D01*
X779780Y246598D02*
Y267970D01*
X778292Y245110D02*
X779780Y246598D01*
X770730Y245110D02*
X778292D01*
X762000Y233920D02*
X763190Y235110D01*
X762000Y226060D02*
Y233920D01*
X763190Y235110D02*
X770730D01*
X797560D01*
X801370Y238920D01*
Y250190D01*
X803910Y252730D01*
X808960D01*
X710040Y220830D02*
X719940D01*
Y233830D02*
X731520Y222250D01*
X721520Y227330D02*
X727440Y221410D01*
X731520Y222250D02*
X758190D01*
X574593Y212643D02*
X579120Y217170D01*
X568653Y212643D02*
X574593D01*
X568100Y212090D02*
X568653Y212643D01*
X586740Y193820D02*
Y204582D01*
X602950Y172720D02*
X615950D01*
X635910Y243840D02*
X640910Y248840D01*
X624050Y243840D02*
X635910D01*
X624050Y248840D02*
X640910D01*
X635035Y253965D02*
X640910Y259840D01*
X623925Y253965D02*
X635035D01*
X623535Y266700D02*
X624050D01*
X618925Y262090D02*
X623535Y266700D01*
X618925Y253965D02*
Y262090D01*
X669290Y266110D02*
X681540D01*
X682540Y265110D01*
X699770Y257610D02*
X699970Y257810D01*
X711440D01*
X613050Y265825D02*
X613925Y266700D01*
X610590Y265825D02*
X613050D01*
X608925Y264160D02*
X610590Y265825D01*
X608925Y253965D02*
Y264160D01*
X613925Y253965D02*
Y266700D01*
X585740Y243840D02*
X590990D01*
X608800D01*
X568100Y248840D02*
X608800D01*
X727440Y215476D02*
Y221410D01*
X710040Y227330D02*
X721520D01*
X579120Y217170D02*
X586740D01*
X719940Y233830D02*
Y241330D01*
X735730Y235110D02*
X750730D01*
X596865Y238715D02*
X608925D01*
X586740Y228590D02*
X596865Y238715D01*
X586740Y217170D02*
Y228590D01*
X623925Y238715D02*
X639410D01*
X645160Y232965D01*
Y217330D02*
Y232965D01*
X710040Y233830D02*
X719940D01*
X758190Y222250D02*
X762000Y226060D01*
D60*
X836930Y263030D02*
Y267970D01*
X831630Y257730D02*
X836930Y263030D01*
X824260Y257730D02*
X831630D01*
X820850Y267970D02*
X836930D01*
X819110Y266230D02*
X820850Y267970D01*
X819110Y260380D02*
Y266230D01*
X795020Y223520D02*
X808870D01*
X810260Y222130D01*
Y235060D01*
X814110Y238910D01*
Y245080D01*
X549910Y152400D02*
Y208010D01*
X502920Y144780D02*
X542290D01*
X549910Y152400D01*
X472222Y175478D02*
X502920Y144780D01*
X613925Y214820D02*
Y226768D01*
Y238715D01*
X572770Y153670D02*
Y164720D01*
X613925Y189230D02*
Y199820D01*
X633730Y172720D02*
X647700D01*
X727440Y258810D02*
Y266310D01*
X726440Y257810D02*
X727440Y258810D01*
X657860Y248840D02*
X658960D01*
X660230Y250110D01*
X682540D01*
X670180Y40800D02*
Y55560D01*
X639320Y44769D02*
Y56100D01*
X535940Y119380D02*
X547610D01*
X576280D02*
X589950D01*
X562610D02*
X576280D01*
X615950Y128880D02*
X628450D01*
X549910Y208010D02*
X585740Y243840D01*
X415508Y175478D02*
X472222D01*
X410210Y170180D02*
X415508Y175478D01*
X410210Y97790D02*
Y170180D01*
Y97790D02*
X419100Y88900D01*
X434340D01*
X464820Y139700D02*
X469900Y144780D01*
X434340Y139700D02*
X464820D01*
X499110Y208280D02*
X520700D01*
X478790Y228600D02*
X499110Y208280D01*
X317500Y228600D02*
X478790D01*
X304800Y241300D02*
X317500Y228600D01*
X266700Y241300D02*
X304800D01*
X520700Y208280D02*
Y236220D01*
X726440Y257810D02*
X726972Y257278D01*
X732762D01*
X739730Y250310D01*
Y246598D02*
Y250310D01*
Y246598D02*
X741218Y245110D01*
X750730D01*
X682540Y237330D02*
Y250110D01*
Y237330D02*
X686040Y233830D01*
X692040D01*
X253790Y88900D02*
X266700D01*
X240270Y75380D02*
X253790Y88900D01*
X185420Y70880D02*
Y85090D01*
X247650Y114300D02*
X266700D01*
X240030Y135020D02*
X240270Y134780D01*
X240030Y135020D02*
Y185420D01*
X139700Y70880D02*
Y85090D01*
X162560Y70880D02*
Y85090D01*
X240030Y185420D02*
X245110Y190500D01*
X266700D01*
X245110Y215900D02*
X266700D01*
X232410Y203200D02*
X245110Y215900D01*
X232410Y85090D02*
Y203200D01*
X229870Y82550D02*
X232410Y85090D01*
X212140Y82550D02*
X229870D01*
X208330Y78740D02*
X212140Y82550D01*
X208330Y70930D02*
Y78740D01*
X208280Y70880D02*
X208330Y70930D01*
D61*
X153320Y162780D02*
X170260D01*
X153320D02*
Y182300D01*
X718820Y33020D02*
Y52600D01*
X308610Y63500D02*
X370840Y125730D01*
X266700Y63500D02*
X308610D01*
X266700Y139700D02*
X388620D01*
X266700Y165100D02*
X388620D01*
X434340D02*
X472440D01*
X499160Y138380D01*
X572770D01*
X784860Y101600D02*
X797560Y114300D01*
X718820Y101600D02*
X784860D01*
X572770Y138380D02*
X589950D01*
X639320Y101600D02*
Y113630D01*
X633570Y119380D02*
X639320Y113630D01*
X615950Y119380D02*
X633570D01*
X670180Y72100D02*
Y101600D01*
X639320Y72100D02*
Y101600D01*
X655320D02*
X670180D01*
X686180D02*
X718820D01*
Y129540D01*
X615950Y156720D02*
X633730D01*
X615950Y138380D02*
Y156720D01*
X208280Y35940D02*
Y56880D01*
X185420Y35940D02*
Y56880D01*
X162560Y35940D02*
Y56880D01*
X139700Y35940D02*
Y56880D01*
X179760Y154280D02*
Y162780D01*
Y154280D02*
X183260Y150780D01*
X208330D01*
X122340Y208280D02*
X139789D01*
X116840Y202780D02*
X122340Y208280D01*
X116840Y125080D02*
Y202780D01*
Y125080D02*
X119382Y122538D01*
X121160Y120760D01*
X138320D01*
X151280Y229350D02*
Y249670D01*
X150820Y228890D02*
X151280Y229350D01*
X150820Y208280D02*
Y228890D01*
X190072Y187380D02*
X193790D01*
X179912Y177220D02*
X190072Y187380D01*
X179912Y171832D02*
Y177220D01*
X179760Y171680D02*
X179912Y171832D01*
X179760Y162780D02*
Y171680D01*
X138320Y120760D02*
X138820Y120260D01*
Y103510D02*
Y120260D01*
X153820Y103510D02*
X154320Y104010D01*
Y120760D01*
Y135780D01*
X170260D01*
X179760Y120760D02*
X200080D01*
X189260Y135780D02*
X208330D01*
X179760Y120760D02*
Y135780D01*
D62*
X86360Y91440D02*
X106680D01*
X169810Y103760D02*
X179760D01*
X153320Y149280D02*
Y162780D01*
X718820Y145540D02*
Y156210D01*
X220400Y245800D02*
X236220Y261620D01*
X193790Y245800D02*
X220400D01*
X408940Y241300D02*
X434340D01*
X388620Y261620D02*
X408940Y241300D01*
X193790Y245800D02*
Y249670D01*
X151280D02*
X193790D01*
X22260Y91440D02*
X38100D01*
X55880Y109220D01*
Y165100D01*
D63*
X520700Y173990D02*
Y191740D01*
X645160Y195580D02*
Y204742D01*
X434340Y190500D02*
X457200D01*
D64*
X797560Y114300D02*
D03*
Y63500D02*
D03*
D65*
Y165100D02*
D03*
D66*
X55880D02*
D03*
Y215900D02*
D03*
D67*
X495300Y236220D02*
D03*
X520700D02*
D03*
X546100D02*
D03*
D68*
X825500Y205740D02*
D03*
X812800Y180340D02*
D03*
X825500Y154940D02*
D03*
X812800Y129540D02*
D03*
X825500Y104140D02*
D03*
X812800Y78740D02*
D03*
X825500Y53340D02*
D03*
X812800Y27940D02*
D03*
X800100Y256540D02*
D03*
Y205740D02*
D03*
X787400Y180340D02*
D03*
Y129540D02*
D03*
Y78740D02*
D03*
Y27940D02*
D03*
X774700Y205740D02*
D03*
X762000Y180340D02*
D03*
X774700Y154940D02*
D03*
X762000Y129540D02*
D03*
Y78740D02*
D03*
X774700Y53340D02*
D03*
X762000Y27940D02*
D03*
X749300Y205740D02*
D03*
X736600Y180340D02*
D03*
X749300Y154940D02*
D03*
X736600Y129540D02*
D03*
Y78740D02*
D03*
X749300Y53340D02*
D03*
X736600Y27940D02*
D03*
X711200Y180340D02*
D03*
Y78740D02*
D03*
Y27940D02*
D03*
X685800Y180340D02*
D03*
X698500Y154940D02*
D03*
X685800Y129540D02*
D03*
Y78740D02*
D03*
X698500Y53340D02*
D03*
X685800Y27940D02*
D03*
X673100Y256540D02*
D03*
X660400Y180340D02*
D03*
X673100Y154940D02*
D03*
X660400Y129540D02*
D03*
Y78740D02*
D03*
Y27940D02*
D03*
X647700Y154940D02*
D03*
X635000Y27940D02*
D03*
X622300Y104140D02*
D03*
X609600Y78740D02*
D03*
X622300Y53340D02*
D03*
X609600Y27940D02*
D03*
X596900Y256540D02*
D03*
X584200Y180340D02*
D03*
X596900Y154940D02*
D03*
X584200Y129540D02*
D03*
X596900Y104140D02*
D03*
X584200Y78740D02*
D03*
X596900Y53340D02*
D03*
X584200Y27940D02*
D03*
X571500Y256540D02*
D03*
X558800Y180340D02*
D03*
Y129540D02*
D03*
X571500Y104140D02*
D03*
X558800Y78740D02*
D03*
X571500Y53340D02*
D03*
X558800Y27940D02*
D03*
X546100Y256540D02*
D03*
X533400Y180340D02*
D03*
Y129540D02*
D03*
X546100Y104140D02*
D03*
X533400Y78740D02*
D03*
X546100Y53340D02*
D03*
X533400Y27940D02*
D03*
X520700Y256540D02*
D03*
X508000Y180340D02*
D03*
X520700Y154940D02*
D03*
X508000Y129540D02*
D03*
X520700Y104140D02*
D03*
X508000Y78740D02*
D03*
X520700Y53340D02*
D03*
X508000Y27940D02*
D03*
X495300Y256540D02*
D03*
Y104140D02*
D03*
X482600Y78740D02*
D03*
X495300Y53340D02*
D03*
X482600Y27940D02*
D03*
X469900Y256540D02*
D03*
Y205740D02*
D03*
X457200Y129540D02*
D03*
X469900Y104140D02*
D03*
Y53340D02*
D03*
X457200Y27940D02*
D03*
X444500Y256540D02*
D03*
X431800Y27940D02*
D03*
X419100Y256540D02*
D03*
X406400Y180340D02*
D03*
X419100Y154940D02*
D03*
Y104140D02*
D03*
X406400Y78740D02*
D03*
X419100Y53340D02*
D03*
X406400Y27940D02*
D03*
X381000Y180340D02*
D03*
X393700Y154940D02*
D03*
X381000Y129540D02*
D03*
X393700Y104140D02*
D03*
X381000Y78740D02*
D03*
X393700Y53340D02*
D03*
X381000Y27940D02*
D03*
X368300Y256540D02*
D03*
Y205740D02*
D03*
X355600Y180340D02*
D03*
Y129540D02*
D03*
X368300Y104140D02*
D03*
X355600Y78740D02*
D03*
X368300Y53340D02*
D03*
X355600Y27940D02*
D03*
X342900Y256540D02*
D03*
Y205740D02*
D03*
X330200Y180340D02*
D03*
X342900Y154940D02*
D03*
X330200Y129540D02*
D03*
X342900Y53340D02*
D03*
X330200Y27940D02*
D03*
X317500Y256540D02*
D03*
X304800Y231140D02*
D03*
X317500Y205740D02*
D03*
X304800Y180340D02*
D03*
X317500Y154940D02*
D03*
X304800Y129540D02*
D03*
X317500Y104140D02*
D03*
X304800Y78740D02*
D03*
X317500Y53340D02*
D03*
X304800Y27940D02*
D03*
X292100Y256540D02*
D03*
Y205740D02*
D03*
Y154940D02*
D03*
Y104140D02*
D03*
Y53340D02*
D03*
X279400Y27940D02*
D03*
X266700Y256540D02*
D03*
X254000Y27940D02*
D03*
X228600Y231140D02*
D03*
X241300Y53340D02*
D03*
X228600Y27940D02*
D03*
X215900Y256540D02*
D03*
Y205740D02*
D03*
Y104140D02*
D03*
X190500Y205740D02*
D03*
X165100D02*
D03*
X127000Y180340D02*
D03*
Y129540D02*
D03*
Y78740D02*
D03*
Y27940D02*
D03*
X114300Y256540D02*
D03*
X101600Y231140D02*
D03*
Y180340D02*
D03*
Y129540D02*
D03*
X114300Y104140D02*
D03*
X101600Y78740D02*
D03*
X114300Y53340D02*
D03*
X101600Y27940D02*
D03*
X88900Y256540D02*
D03*
X76200Y231140D02*
D03*
X88900Y205740D02*
D03*
X76200Y180340D02*
D03*
X88900Y154940D02*
D03*
X76200Y129540D02*
D03*
X88900Y53340D02*
D03*
X76200Y27940D02*
D03*
X63500Y256540D02*
D03*
X50800Y231140D02*
D03*
Y180340D02*
D03*
X63500Y104140D02*
D03*
X50800Y78740D02*
D03*
X63500Y53340D02*
D03*
X50800Y27940D02*
D03*
X38100Y256540D02*
D03*
X25400Y231140D02*
D03*
X38100Y205740D02*
D03*
X25400Y180340D02*
D03*
X38100Y154940D02*
D03*
X25400Y129540D02*
D03*
X38100Y104140D02*
D03*
Y53340D02*
D03*
X25400Y27940D02*
D03*
X236220Y261620D02*
D03*
X388620D02*
D03*
D69*
X836930Y267970D02*
D03*
X795020Y223520D02*
D03*
X826910Y231140D02*
D03*
X482600Y128270D02*
D03*
X801370Y267970D02*
D03*
X106680Y91440D02*
D03*
X169810Y103760D02*
D03*
X153320Y149280D02*
D03*
X718820Y156210D02*
D03*
X719940Y220830D02*
D03*
X568100Y212090D02*
D03*
X520700Y173990D02*
D03*
X613925Y226768D02*
D03*
X586740Y193820D02*
D03*
X572770Y164720D02*
D03*
X613925Y189230D02*
D03*
X602950Y172720D02*
D03*
X645160Y195580D02*
D03*
X647700Y172720D02*
D03*
X727440Y266310D02*
D03*
X657860Y248840D02*
D03*
X718820Y33020D02*
D03*
X670180Y40800D02*
D03*
X639320Y44769D02*
D03*
X640910Y248840D02*
D03*
Y259840D02*
D03*
X624050Y266700D02*
D03*
X669290Y266110D02*
D03*
X699770Y257610D02*
D03*
X779780Y267970D02*
D03*
X535940Y119380D02*
D03*
X576280D02*
D03*
X613925Y266700D02*
D03*
X628450Y128880D02*
D03*
X568100Y248840D02*
D03*
X370840Y125730D02*
D03*
X727440Y215476D02*
D03*
X469900Y144780D02*
D03*
X388620Y139700D02*
D03*
Y165100D02*
D03*
X645160Y232965D02*
D03*
X719940Y241330D02*
D03*
X735730Y235110D02*
D03*
X457200Y190500D02*
D03*
X240270Y75380D02*
D03*
X185420Y85090D02*
D03*
X247650Y114300D02*
D03*
X240270Y134780D02*
D03*
X139700Y85090D02*
D03*
X162560D02*
D03*
M02*
