G04*
G04 #@! TF.GenerationSoftware,Altium Limited,Altium Designer,26.3.0 (6)*
G04*
G04 Layer_Color=65535*
%FSLAX44Y44*%
%MOMM*%
G71*
G04*
G04 #@! TF.SameCoordinates,6D605524-E43E-4BB1-BD99-AA3E501A16AE*
G04*
G04*
G04 #@! TF.FilePolarity,Positive*
G04*
G01*
G75*
%ADD10C,0.1000*%
%ADD11C,0.2000*%
%ADD12C,0.2500*%
%ADD13C,0.1270*%
G36*
X528759Y94995D02*
X529350D01*
Y94798D01*
X529745D01*
Y94601D01*
X529942D01*
Y94404D01*
X530336D01*
Y94206D01*
X530533D01*
Y94009D01*
X530731D01*
Y93615D01*
X530928D01*
Y93418D01*
X531125D01*
Y93023D01*
X531322D01*
Y92629D01*
X531519D01*
Y92234D01*
X531716D01*
Y91643D01*
X531914D01*
Y90657D01*
X532111D01*
Y88488D01*
X531914D01*
Y87305D01*
X532111D01*
Y86910D01*
X532308D01*
Y86713D01*
X532505D01*
Y86516D01*
X532703D01*
Y86319D01*
X533294D01*
Y86122D01*
X533886D01*
Y86319D01*
X534674D01*
Y86516D01*
X535266D01*
Y86713D01*
X535661D01*
Y86910D01*
X536055D01*
Y87107D01*
X536449D01*
Y87305D01*
X536646D01*
Y87502D01*
X537041D01*
Y87699D01*
X537632D01*
Y87896D01*
X538027D01*
Y88093D01*
X538618D01*
Y88291D01*
X546506D01*
Y88093D01*
X548084D01*
Y87896D01*
X549070D01*
Y87699D01*
X549859D01*
Y87502D01*
X550844D01*
Y87699D01*
X551042D01*
Y87896D01*
X551239D01*
Y88093D01*
X551436D01*
Y88291D01*
X551633D01*
Y88488D01*
X551830D01*
Y88685D01*
X552028D01*
Y88882D01*
X552225D01*
Y89080D01*
X552422D01*
Y89277D01*
X552619D01*
Y89474D01*
X552817D01*
Y89868D01*
X553014D01*
Y90065D01*
X553211D01*
Y90263D01*
X553408D01*
Y90460D01*
X553605D01*
Y90657D01*
X553802D01*
Y90854D01*
X554000D01*
Y91051D01*
X554197D01*
Y91249D01*
X554394D01*
Y91446D01*
X554591D01*
Y91643D01*
X554788D01*
Y91840D01*
X554986D01*
Y92037D01*
X555183D01*
Y92234D01*
X555577D01*
Y92432D01*
X555774D01*
Y92629D01*
X555972D01*
Y92826D01*
X556366D01*
Y93023D01*
X556760D01*
Y93221D01*
X557155D01*
Y93418D01*
X557746D01*
Y93615D01*
X558338D01*
Y93812D01*
X558535D01*
Y93615D01*
X558732D01*
Y93418D01*
X558535D01*
Y92629D01*
X558338D01*
Y92234D01*
X558141D01*
Y91840D01*
X557943D01*
Y91249D01*
X557746D01*
Y91051D01*
X557549D01*
Y90854D01*
X557352D01*
Y90460D01*
X557155D01*
Y90263D01*
X556958D01*
Y90065D01*
X556760D01*
Y89671D01*
X556563D01*
Y89474D01*
X556366D01*
Y89277D01*
X556169D01*
Y89080D01*
X555972D01*
Y88882D01*
X555774D01*
Y88685D01*
X555577D01*
Y88488D01*
X555380D01*
Y88291D01*
X555183D01*
Y88093D01*
X554986D01*
Y87896D01*
X554788D01*
Y87699D01*
X554591D01*
Y87502D01*
X554394D01*
Y87305D01*
X554197D01*
Y86910D01*
X554000D01*
Y86713D01*
X553802D01*
Y86516D01*
X553605D01*
Y86122D01*
X553408D01*
Y85924D01*
X553211D01*
Y85530D01*
X553014D01*
Y85333D01*
X551633D01*
Y85530D01*
X550056D01*
Y85727D01*
X548281D01*
Y85924D01*
X548084D01*
Y85727D01*
X548281D01*
Y85333D01*
X548478D01*
Y85136D01*
X548675D01*
Y84938D01*
X548872D01*
Y84741D01*
X549070D01*
Y84544D01*
X549267D01*
Y84347D01*
X549464D01*
Y84150D01*
X549661D01*
Y83952D01*
X550056D01*
Y83755D01*
X550253D01*
Y83558D01*
X550647D01*
Y83361D01*
X551042D01*
Y83164D01*
X551436D01*
Y82966D01*
X551830D01*
Y82769D01*
X552225D01*
Y82572D01*
X552817D01*
Y82375D01*
X553211D01*
Y82178D01*
X553605D01*
Y81980D01*
X554000D01*
Y81783D01*
X554394D01*
Y81192D01*
X554591D01*
Y80206D01*
X554788D01*
Y79220D01*
X554986D01*
Y77248D01*
X555183D01*
Y75276D01*
X554986D01*
Y72909D01*
X554788D01*
Y71726D01*
X555183D01*
Y71923D01*
X556760D01*
Y72121D01*
X557549D01*
Y72318D01*
X558535D01*
Y72515D01*
X559127D01*
Y72712D01*
X559718D01*
Y72909D01*
X560310D01*
Y73107D01*
X560901D01*
Y73304D01*
X561296D01*
Y73501D01*
X561888D01*
Y73698D01*
X562282D01*
Y73895D01*
X562676D01*
Y74093D01*
X563071D01*
Y74290D01*
X563662D01*
Y74487D01*
X563859D01*
Y74684D01*
X564254D01*
Y74881D01*
X564648D01*
Y75079D01*
X565043D01*
Y75276D01*
X565437D01*
Y75473D01*
X565634D01*
Y75670D01*
X566029D01*
Y75867D01*
X566423D01*
Y76065D01*
X566620D01*
Y76262D01*
X567015D01*
Y76459D01*
X567212D01*
Y76656D01*
X567606D01*
Y76853D01*
X567803D01*
Y77050D01*
X568198D01*
Y77248D01*
X568395D01*
Y77445D01*
X568789D01*
Y77642D01*
X568986D01*
Y77839D01*
X569184D01*
Y78036D01*
X569578D01*
Y78234D01*
X569775D01*
Y78431D01*
X570169D01*
Y78628D01*
X570367D01*
Y78825D01*
X570564D01*
Y79022D01*
X570959D01*
Y79220D01*
X571156D01*
Y79417D01*
X571353D01*
Y79614D01*
X571550D01*
Y79811D01*
X571944D01*
Y80008D01*
X572142D01*
Y80206D01*
X572339D01*
Y80403D01*
X572536D01*
Y80600D01*
X572930D01*
Y80797D01*
X573128D01*
Y80995D01*
X573325D01*
Y81192D01*
X573522D01*
Y81389D01*
X573916D01*
Y81586D01*
X574114D01*
Y81783D01*
X574311D01*
Y81980D01*
X574508D01*
Y82178D01*
X574902D01*
Y82375D01*
X575099D01*
Y82572D01*
X575297D01*
Y82769D01*
X575494D01*
Y82966D01*
X575691D01*
Y83164D01*
X576086D01*
Y83361D01*
X576283D01*
Y83558D01*
X576480D01*
Y83755D01*
X576677D01*
Y83952D01*
X576874D01*
Y84150D01*
X577269D01*
Y84347D01*
X577466D01*
Y84544D01*
X577663D01*
Y84741D01*
X577860D01*
Y84938D01*
X578255D01*
Y85136D01*
X578452D01*
Y85333D01*
X578649D01*
Y85530D01*
X578846D01*
Y85727D01*
X579043D01*
Y85924D01*
X579438D01*
Y86122D01*
X579635D01*
Y86319D01*
X579832D01*
Y86516D01*
X580029D01*
Y86713D01*
X580227D01*
Y86910D01*
X580424D01*
Y87107D01*
X580621D01*
Y87305D01*
X580818D01*
Y87502D01*
X581213D01*
Y87699D01*
X581410D01*
Y87896D01*
X581607D01*
Y88093D01*
X581804D01*
Y88291D01*
X582198D01*
Y88488D01*
X582396D01*
Y88685D01*
X582790D01*
Y88882D01*
X583185D01*
Y89080D01*
X583382D01*
Y89277D01*
X583776D01*
Y89474D01*
X584170D01*
Y89671D01*
X584762D01*
Y89868D01*
X585156D01*
Y90065D01*
X585551D01*
Y90263D01*
X586143D01*
Y90460D01*
X586734D01*
Y90657D01*
X587326D01*
Y90854D01*
X587917D01*
Y91051D01*
X588509D01*
Y91249D01*
X589298D01*
Y91446D01*
X590086D01*
Y91643D01*
X590875D01*
Y91840D01*
X591861D01*
Y92037D01*
X592650D01*
Y92234D01*
X593636D01*
Y92432D01*
X594622D01*
Y92629D01*
X595608D01*
Y92826D01*
X596397D01*
Y93023D01*
X597185D01*
Y93221D01*
X597777D01*
Y93023D01*
X598566D01*
Y92826D01*
X599355D01*
Y92629D01*
X600143D01*
Y92432D01*
X601129D01*
Y92234D01*
X602510D01*
Y92037D01*
X603890D01*
Y91840D01*
X605073D01*
Y91643D01*
X606256D01*
Y91446D01*
X607242D01*
Y91249D01*
X608228D01*
Y91051D01*
X609017D01*
Y90854D01*
X609609D01*
Y90657D01*
X610200D01*
Y90460D01*
X610792D01*
Y90263D01*
X611186D01*
Y90065D01*
X611581D01*
Y89868D01*
X611975D01*
Y89671D01*
X612369D01*
Y89474D01*
X612566D01*
Y89277D01*
X612764D01*
Y88882D01*
X612961D01*
Y88685D01*
X613158D01*
Y88291D01*
X613355D01*
Y88093D01*
X613553D01*
Y87896D01*
X613750D01*
Y87502D01*
X613947D01*
Y87305D01*
X614144D01*
Y87107D01*
X614341D01*
Y86910D01*
X614538D01*
Y86713D01*
X614736D01*
Y86516D01*
X614933D01*
Y86319D01*
X615130D01*
Y85924D01*
X615327D01*
Y85727D01*
X615524D01*
Y85530D01*
X615722D01*
Y85333D01*
X615919D01*
Y85136D01*
X616116D01*
Y84741D01*
X616313D01*
Y84544D01*
X616511D01*
Y84347D01*
X616708D01*
Y83952D01*
X616905D01*
Y83755D01*
X617102D01*
Y83361D01*
X617299D01*
Y82966D01*
X617496D01*
Y82572D01*
X617694D01*
Y82178D01*
X617891D01*
Y81389D01*
X618088D01*
Y79614D01*
X617891D01*
Y79417D01*
X617694D01*
Y79220D01*
X617496D01*
Y78825D01*
X617299D01*
Y78628D01*
X617102D01*
Y78431D01*
X616905D01*
Y78234D01*
X616708D01*
Y78036D01*
X616511D01*
Y77642D01*
X616313D01*
Y77445D01*
X616116D01*
Y77248D01*
X615919D01*
Y77050D01*
X615722D01*
Y76853D01*
X615524D01*
Y76656D01*
X615327D01*
Y76459D01*
X615130D01*
Y76262D01*
X614933D01*
Y76065D01*
X614736D01*
Y75867D01*
X614538D01*
Y75670D01*
X614341D01*
Y75473D01*
X614144D01*
Y75276D01*
X613947D01*
Y75079D01*
X613750D01*
Y74881D01*
X613553D01*
Y74684D01*
X613355D01*
Y74487D01*
X613158D01*
Y74290D01*
X612961D01*
Y74093D01*
X612764D01*
Y73895D01*
X612566D01*
Y73698D01*
X612369D01*
Y73501D01*
X612172D01*
Y73304D01*
X611975D01*
Y73107D01*
X611581D01*
Y72909D01*
X611383D01*
Y72712D01*
X611186D01*
Y72515D01*
X610989D01*
Y72121D01*
X610792D01*
Y71923D01*
X610595D01*
Y71726D01*
X610397D01*
Y71529D01*
X610200D01*
Y71332D01*
X610003D01*
Y71135D01*
X609806D01*
Y70938D01*
X609609D01*
Y70740D01*
X609412D01*
Y70543D01*
X609214D01*
Y70149D01*
X609017D01*
Y69952D01*
X608820D01*
Y69754D01*
X608623D01*
Y69360D01*
X608425D01*
Y69163D01*
X608228D01*
Y68966D01*
X608031D01*
Y68571D01*
X607834D01*
Y68374D01*
X607637D01*
Y67979D01*
X607440D01*
Y67782D01*
X607242D01*
Y67388D01*
X607045D01*
Y66994D01*
X606848D01*
Y66599D01*
X606651D01*
Y66008D01*
X606454D01*
Y65613D01*
X606256D01*
Y65022D01*
X606059D01*
Y64430D01*
X605862D01*
Y64233D01*
X605467D01*
Y64036D01*
X604876D01*
Y63838D01*
X604284D01*
Y63641D01*
X603298D01*
Y63444D01*
X602312D01*
Y63247D01*
X600932D01*
Y63050D01*
X599157D01*
Y62853D01*
X596199D01*
Y62655D01*
X593636D01*
Y62458D01*
X592650D01*
Y61866D01*
X592847D01*
Y60289D01*
X592650D01*
Y59500D01*
X592453D01*
Y59303D01*
X592256D01*
Y58909D01*
X592058D01*
Y58514D01*
X591861D01*
Y58317D01*
X591664D01*
Y58120D01*
X591467D01*
Y57923D01*
X591072D01*
Y57725D01*
X590875D01*
Y57528D01*
X590678D01*
Y57331D01*
X590284D01*
Y57134D01*
X589889D01*
Y56937D01*
X589692D01*
Y56740D01*
X589298D01*
Y56542D01*
X588903D01*
Y56345D01*
X588312D01*
Y56148D01*
X587917D01*
Y55951D01*
X587523D01*
Y55753D01*
X587128D01*
Y55556D01*
X586734D01*
Y55359D01*
X586340D01*
Y55162D01*
X585748D01*
Y54965D01*
X585354D01*
Y54767D01*
X585156D01*
Y54570D01*
X584762D01*
Y54373D01*
X584368D01*
Y54176D01*
X584170D01*
Y53979D01*
X583776D01*
Y53781D01*
X583579D01*
Y53584D01*
X583382D01*
Y53387D01*
X583185D01*
Y53190D01*
X582987D01*
Y52993D01*
X582790D01*
Y52796D01*
X582593D01*
Y52598D01*
X582396D01*
Y52401D01*
X582198D01*
Y52204D01*
X582001D01*
Y52007D01*
X581607D01*
Y51810D01*
X581410D01*
Y51612D01*
X581015D01*
Y51415D01*
X580621D01*
Y51218D01*
X580227D01*
Y51021D01*
X579438D01*
Y50824D01*
X578452D01*
Y50626D01*
X575099D01*
Y50824D01*
X573719D01*
Y51021D01*
X572536D01*
Y51218D01*
X571550D01*
Y51415D01*
X570367D01*
Y51612D01*
X569184D01*
Y51810D01*
X567606D01*
Y52007D01*
X566226D01*
Y50824D01*
X566423D01*
Y50232D01*
X566620D01*
Y50035D01*
X566817D01*
Y49640D01*
X567015D01*
Y49443D01*
X567409D01*
Y49246D01*
X567606D01*
Y49049D01*
X568198D01*
Y48852D01*
X569972D01*
Y49049D01*
X570564D01*
Y49246D01*
X571156D01*
Y49049D01*
X571353D01*
Y48260D01*
X571550D01*
Y47668D01*
X571747D01*
Y47077D01*
X571944D01*
Y46485D01*
X572142D01*
Y46091D01*
X572339D01*
Y45499D01*
X572536D01*
Y45105D01*
X572733D01*
Y44710D01*
X572930D01*
Y44316D01*
X573128D01*
Y43922D01*
X573325D01*
Y43527D01*
X573522D01*
Y43133D01*
X573719D01*
Y42739D01*
X573916D01*
Y42344D01*
X574114D01*
Y42147D01*
X574311D01*
Y41753D01*
X574508D01*
Y41358D01*
X574705D01*
Y41161D01*
X574902D01*
Y40767D01*
X575099D01*
Y40569D01*
X575297D01*
Y40175D01*
X575494D01*
Y39978D01*
X575691D01*
Y39583D01*
X575888D01*
Y39386D01*
X576086D01*
Y39189D01*
X576283D01*
Y38795D01*
X576480D01*
Y38598D01*
X576677D01*
Y38203D01*
X576874D01*
Y38006D01*
X577071D01*
Y37809D01*
X577269D01*
Y37414D01*
X577466D01*
Y37217D01*
X577663D01*
Y37020D01*
X577860D01*
Y35837D01*
X577663D01*
Y35640D01*
X577466D01*
Y35442D01*
X577269D01*
Y35245D01*
X577071D01*
Y35048D01*
X576874D01*
Y34851D01*
X576677D01*
Y34654D01*
X576283D01*
Y34456D01*
X575888D01*
Y34259D01*
X575691D01*
Y34062D01*
X575297D01*
Y34259D01*
X575099D01*
Y34654D01*
X574902D01*
Y34851D01*
X574705D01*
Y35245D01*
X574508D01*
Y35442D01*
X574311D01*
Y35640D01*
X574114D01*
Y36034D01*
X573916D01*
Y36231D01*
X573719D01*
Y36626D01*
X573522D01*
Y37020D01*
X573325D01*
Y37217D01*
X573128D01*
Y37611D01*
X572930D01*
Y38006D01*
X572733D01*
Y38203D01*
X572536D01*
Y38598D01*
X572339D01*
Y38992D01*
X572142D01*
Y39386D01*
X571944D01*
Y39583D01*
X571747D01*
Y40175D01*
X571550D01*
Y40569D01*
X571353D01*
Y40964D01*
X571156D01*
Y41358D01*
X570959D01*
Y41753D01*
X570761D01*
Y42147D01*
X570564D01*
Y42541D01*
X570367D01*
Y43133D01*
X570169D01*
Y43527D01*
X569972D01*
Y44119D01*
X569775D01*
Y44710D01*
X569578D01*
Y45105D01*
X569381D01*
Y45302D01*
X569184D01*
Y45499D01*
X568789D01*
Y45697D01*
X568395D01*
Y45894D01*
X568198D01*
Y46091D01*
X568000D01*
Y46288D01*
X567803D01*
Y46485D01*
X567606D01*
Y46682D01*
X567409D01*
Y46880D01*
X567212D01*
Y47077D01*
X567015D01*
Y47274D01*
X566817D01*
Y47668D01*
X566620D01*
Y47866D01*
X566423D01*
Y48063D01*
X566226D01*
Y48260D01*
X566029D01*
Y48654D01*
X565831D01*
Y48852D01*
X565634D01*
Y49049D01*
X565437D01*
Y49246D01*
X565240D01*
Y49443D01*
X565043D01*
Y49640D01*
X564845D01*
Y49838D01*
X564648D01*
Y50035D01*
X564451D01*
Y50232D01*
X564057D01*
Y50429D01*
X563465D01*
Y50626D01*
X562282D01*
Y50429D01*
X561493D01*
Y50232D01*
X561099D01*
Y50429D01*
X560901D01*
Y50626D01*
X560704D01*
Y50824D01*
X560507D01*
Y51021D01*
X560310D01*
Y51218D01*
X560113D01*
Y51612D01*
X559915D01*
Y51810D01*
X559718D01*
Y52007D01*
X559521D01*
Y52204D01*
X559324D01*
Y52401D01*
X559127D01*
Y52796D01*
X558929D01*
Y52993D01*
X558732D01*
Y53190D01*
X558535D01*
Y53387D01*
X558338D01*
Y53781D01*
X558141D01*
Y53979D01*
X557943D01*
Y54176D01*
X557746D01*
Y54570D01*
X557549D01*
Y54767D01*
X557352D01*
Y54965D01*
X557155D01*
Y52598D01*
X557352D01*
Y52007D01*
X557549D01*
Y51612D01*
X557746D01*
Y51218D01*
X557943D01*
Y51021D01*
X558141D01*
Y50824D01*
X558338D01*
Y50626D01*
X558535D01*
Y50429D01*
X558732D01*
Y50232D01*
X558929D01*
Y50035D01*
X559127D01*
Y49838D01*
X559521D01*
Y49640D01*
X559718D01*
Y49443D01*
X560113D01*
Y49246D01*
X560310D01*
Y49049D01*
X560704D01*
Y48852D01*
X561099D01*
Y48654D01*
X561296D01*
Y48457D01*
X561690D01*
Y48260D01*
X562085D01*
Y48063D01*
X562282D01*
Y47866D01*
X562676D01*
Y47668D01*
X563071D01*
Y47471D01*
X563268D01*
Y47274D01*
X563465D01*
Y47077D01*
X563859D01*
Y46880D01*
X564057D01*
Y46682D01*
X564254D01*
Y46485D01*
X564451D01*
Y46288D01*
X564648D01*
Y46091D01*
X564845D01*
Y45894D01*
X565043D01*
Y45697D01*
X565240D01*
Y45499D01*
X565437D01*
Y45105D01*
X565634D01*
Y44710D01*
X565831D01*
Y44316D01*
X566029D01*
Y43724D01*
X566226D01*
Y42936D01*
X566029D01*
Y42147D01*
X565831D01*
Y41358D01*
X565634D01*
Y39978D01*
X565437D01*
Y37414D01*
X565240D01*
Y36231D01*
X565437D01*
Y33470D01*
X565634D01*
Y31696D01*
X565831D01*
Y30512D01*
X566029D01*
Y29329D01*
X566226D01*
Y28146D01*
X566423D01*
Y26963D01*
X566620D01*
Y25780D01*
X566817D01*
Y25583D01*
X567212D01*
Y25385D01*
X567606D01*
Y25188D01*
X567803D01*
Y24991D01*
X568198D01*
Y24794D01*
X568395D01*
Y24597D01*
X568789D01*
Y24399D01*
X568986D01*
Y24202D01*
X569184D01*
Y24005D01*
X569381D01*
Y23808D01*
X569578D01*
Y23611D01*
X569775D01*
Y23414D01*
X570169D01*
Y23216D01*
X570367D01*
Y22822D01*
X570564D01*
Y22625D01*
X570761D01*
Y22427D01*
X570959D01*
Y22230D01*
X571156D01*
Y21836D01*
X571353D01*
Y21639D01*
X571550D01*
Y21244D01*
X571747D01*
Y20850D01*
X571944D01*
Y20456D01*
X572142D01*
Y20061D01*
X572339D01*
Y19470D01*
X572536D01*
Y18681D01*
X572733D01*
Y17695D01*
X572930D01*
Y16314D01*
X572733D01*
Y16117D01*
X572536D01*
Y15920D01*
X571550D01*
Y16117D01*
X570761D01*
Y16314D01*
X570367D01*
Y16512D01*
X570169D01*
Y16709D01*
X569775D01*
Y17103D01*
X569578D01*
Y17300D01*
X569381D01*
Y17695D01*
X569184D01*
Y20061D01*
X569381D01*
Y20653D01*
X569578D01*
Y21047D01*
X569775D01*
Y21244D01*
X569381D01*
Y21047D01*
X568789D01*
Y20850D01*
X567803D01*
Y20653D01*
X566817D01*
Y20850D01*
X566226D01*
Y21047D01*
X566029D01*
Y21244D01*
X565831D01*
Y21639D01*
X565634D01*
Y21836D01*
X564845D01*
Y21639D01*
X563662D01*
Y21442D01*
X562479D01*
Y21639D01*
X561690D01*
Y21836D01*
X561099D01*
Y22033D01*
X560901D01*
Y22230D01*
X560704D01*
Y22427D01*
X560507D01*
Y22625D01*
X560310D01*
Y22822D01*
X560113D01*
Y23019D01*
X559915D01*
Y23414D01*
X559718D01*
Y24005D01*
X559521D01*
Y24794D01*
X559324D01*
Y26371D01*
X559127D01*
Y28343D01*
X559324D01*
Y31893D01*
X559521D01*
Y35640D01*
X559324D01*
Y36823D01*
X559127D01*
Y37414D01*
X558929D01*
Y38006D01*
X558732D01*
Y38203D01*
X558535D01*
Y38598D01*
X558338D01*
Y38795D01*
X558141D01*
Y38992D01*
X557746D01*
Y39189D01*
X557352D01*
Y39386D01*
X554788D01*
Y33668D01*
X554591D01*
Y30315D01*
X553408D01*
Y31696D01*
X553605D01*
Y32879D01*
X553802D01*
Y34456D01*
X554000D01*
Y37414D01*
X553802D01*
Y37611D01*
X553605D01*
Y37414D01*
X553408D01*
Y37217D01*
X553211D01*
Y37020D01*
X553014D01*
Y36626D01*
X552817D01*
Y36428D01*
X552619D01*
Y36034D01*
X552422D01*
Y35837D01*
X552225D01*
Y35442D01*
X552028D01*
Y35245D01*
X551830D01*
Y34851D01*
X551633D01*
Y34654D01*
X551436D01*
Y34259D01*
X551239D01*
Y33865D01*
X551042D01*
Y33668D01*
X550844D01*
Y33470D01*
X550647D01*
Y33076D01*
X549859D01*
Y32879D01*
X548872D01*
Y33076D01*
X547295D01*
Y33273D01*
X546112D01*
Y33470D01*
X544929D01*
Y33668D01*
X544731D01*
Y33470D01*
X544534D01*
Y32879D01*
X544337D01*
Y32682D01*
X544140D01*
Y32485D01*
X543943D01*
Y32287D01*
X543745D01*
Y32090D01*
X543548D01*
Y31893D01*
X543154D01*
Y31696D01*
X540393D01*
Y31893D01*
X539604D01*
Y32090D01*
X538618D01*
Y32287D01*
X538027D01*
Y32485D01*
X537041D01*
Y32682D01*
X535463D01*
Y32287D01*
X535661D01*
Y31696D01*
X535858D01*
Y31301D01*
X536055D01*
Y30907D01*
X536252D01*
Y30710D01*
X536449D01*
Y30315D01*
X536646D01*
Y30118D01*
X536844D01*
Y29724D01*
X537041D01*
Y29527D01*
X537238D01*
Y29329D01*
X537435D01*
Y29132D01*
X537632D01*
Y28935D01*
X537830D01*
Y28738D01*
X538027D01*
Y28540D01*
X538224D01*
Y28343D01*
X538421D01*
Y28146D01*
X538618D01*
Y27949D01*
X538816D01*
Y27752D01*
X539210D01*
Y27555D01*
X539407D01*
Y27357D01*
X539604D01*
Y27160D01*
X539999D01*
Y26963D01*
X540393D01*
Y26766D01*
X540590D01*
Y26569D01*
X540985D01*
Y26371D01*
X541379D01*
Y26174D01*
X541774D01*
Y25977D01*
X542365D01*
Y25780D01*
X542759D01*
Y25583D01*
X543351D01*
Y25385D01*
X543943D01*
Y25188D01*
X544731D01*
Y24991D01*
X545520D01*
Y24794D01*
X546309D01*
Y24597D01*
X547295D01*
Y24399D01*
X548675D01*
Y24202D01*
X550844D01*
Y24005D01*
X551830D01*
Y24202D01*
X552028D01*
Y24597D01*
X552225D01*
Y24991D01*
X552422D01*
Y25385D01*
X552619D01*
Y25780D01*
X552817D01*
Y26174D01*
X553014D01*
Y26569D01*
X553211D01*
Y26766D01*
X553408D01*
Y26963D01*
X553605D01*
Y27160D01*
X553802D01*
Y27357D01*
X554788D01*
Y27160D01*
X555183D01*
Y26963D01*
X555380D01*
Y26766D01*
X555577D01*
Y26569D01*
X555774D01*
Y25385D01*
X555577D01*
Y24794D01*
X555380D01*
Y24399D01*
X555183D01*
Y24005D01*
X554986D01*
Y23611D01*
X554788D01*
Y23414D01*
X554591D01*
Y23216D01*
X554394D01*
Y23019D01*
X554197D01*
Y22822D01*
X554000D01*
Y22625D01*
X553802D01*
Y22427D01*
X553605D01*
Y22230D01*
X553211D01*
Y22033D01*
X552817D01*
Y21836D01*
X552422D01*
Y21639D01*
X552028D01*
Y21442D01*
X551633D01*
Y21244D01*
X551239D01*
Y21047D01*
X550647D01*
Y20850D01*
X550253D01*
Y20653D01*
X549859D01*
Y20456D01*
X549267D01*
Y20258D01*
X548872D01*
Y20061D01*
X548478D01*
Y19864D01*
X548084D01*
Y19667D01*
X547887D01*
Y19470D01*
X547492D01*
Y19272D01*
X547098D01*
Y19075D01*
X546901D01*
Y18878D01*
X546703D01*
Y18681D01*
X546506D01*
Y18484D01*
X546309D01*
Y18286D01*
X546112D01*
Y18089D01*
X545915D01*
Y17695D01*
X545717D01*
Y17300D01*
X545520D01*
Y16709D01*
X545323D01*
Y16314D01*
X545126D01*
Y15920D01*
X544929D01*
Y15329D01*
X544731D01*
Y14737D01*
X544534D01*
Y14342D01*
X544337D01*
Y13948D01*
X544140D01*
Y13356D01*
X543943D01*
Y12962D01*
X543745D01*
Y12568D01*
X543548D01*
Y12371D01*
X543351D01*
Y11976D01*
X543154D01*
Y11779D01*
X542957D01*
Y11385D01*
X542759D01*
Y11187D01*
X542562D01*
Y10990D01*
X542365D01*
Y10793D01*
X542168D01*
Y10596D01*
X541971D01*
Y10399D01*
X541774D01*
Y10201D01*
X541576D01*
Y10004D01*
X541182D01*
Y9807D01*
X540985D01*
Y9610D01*
X540393D01*
Y10004D01*
X540590D01*
Y10990D01*
X540788D01*
Y11779D01*
X540985D01*
Y12371D01*
X541182D01*
Y13159D01*
X541379D01*
Y13948D01*
X541576D01*
Y15131D01*
X541774D01*
Y16117D01*
X541576D01*
Y16906D01*
X541379D01*
Y17300D01*
X541182D01*
Y17498D01*
X540985D01*
Y17695D01*
X540590D01*
Y17892D01*
X540393D01*
Y18089D01*
X539801D01*
Y18286D01*
X538816D01*
Y18484D01*
X538224D01*
Y18681D01*
X537830D01*
Y18878D01*
X537435D01*
Y19075D01*
X537238D01*
Y19272D01*
X537041D01*
Y19470D01*
X536844D01*
Y19667D01*
X536646D01*
Y19864D01*
X536252D01*
Y20061D01*
X536055D01*
Y20258D01*
X535858D01*
Y20653D01*
X535661D01*
Y20850D01*
X535463D01*
Y21047D01*
X535266D01*
Y21244D01*
X535069D01*
Y21442D01*
X534872D01*
Y21836D01*
X534674D01*
Y22033D01*
X534477D01*
Y22230D01*
X534280D01*
Y22625D01*
X534083D01*
Y22822D01*
X533886D01*
Y23019D01*
X533689D01*
Y23216D01*
X533491D01*
Y23611D01*
X533294D01*
Y23808D01*
X533097D01*
Y24005D01*
X532900D01*
Y24202D01*
X532703D01*
Y24399D01*
X532308D01*
Y24597D01*
X532111D01*
Y24794D01*
X531914D01*
Y24991D01*
X531716D01*
Y25188D01*
X531322D01*
Y25385D01*
X530928D01*
Y25583D01*
X530533D01*
Y25977D01*
X530336D01*
Y26371D01*
X530139D01*
Y26963D01*
X529942D01*
Y27357D01*
X529745D01*
Y28146D01*
X529547D01*
Y28935D01*
X529350D01*
Y29921D01*
X529153D01*
Y31301D01*
X528956D01*
Y33865D01*
X528759D01*
Y37611D01*
X528561D01*
Y39583D01*
X528364D01*
Y39386D01*
X528167D01*
Y39189D01*
X527773D01*
Y38992D01*
X527575D01*
Y38795D01*
X527378D01*
Y38400D01*
X527181D01*
Y38203D01*
X526984D01*
Y37809D01*
X526787D01*
Y37414D01*
X526590D01*
Y37020D01*
X526392D01*
Y36231D01*
X526195D01*
Y35640D01*
X525998D01*
Y34851D01*
X525801D01*
Y34062D01*
X525603D01*
Y33470D01*
X525406D01*
Y32879D01*
X525209D01*
Y32682D01*
X525012D01*
Y32287D01*
X524815D01*
Y31893D01*
X524618D01*
Y31696D01*
X524420D01*
Y31498D01*
X524223D01*
Y31301D01*
X524026D01*
Y31104D01*
X523829D01*
Y30907D01*
X523632D01*
Y30710D01*
X523434D01*
Y30512D01*
X523237D01*
Y30315D01*
X523040D01*
Y30118D01*
X522646D01*
Y29921D01*
X522448D01*
Y29724D01*
X522251D01*
Y29527D01*
X522054D01*
Y29329D01*
X521857D01*
Y29132D01*
X521660D01*
Y28935D01*
X521462D01*
Y28738D01*
X521265D01*
Y28540D01*
X521068D01*
Y28343D01*
X520871D01*
Y28146D01*
X520674D01*
Y27949D01*
X520476D01*
Y27752D01*
X520279D01*
Y27555D01*
X520082D01*
Y27357D01*
X519885D01*
Y27160D01*
X519688D01*
Y26963D01*
X519491D01*
Y26766D01*
X519293D01*
Y26569D01*
X519096D01*
Y26371D01*
X518899D01*
Y26174D01*
X518702D01*
Y25977D01*
X518504D01*
Y25780D01*
X518307D01*
Y25583D01*
X518110D01*
Y25385D01*
X517913D01*
Y24991D01*
X517716D01*
Y24794D01*
X517519D01*
Y24597D01*
X517321D01*
Y24399D01*
X517124D01*
Y24202D01*
X516927D01*
Y23808D01*
X516730D01*
Y23611D01*
X516533D01*
Y23414D01*
X516335D01*
Y23019D01*
X516138D01*
Y22822D01*
X515941D01*
Y22427D01*
X515744D01*
Y22033D01*
X515547D01*
Y21836D01*
X515349D01*
Y21442D01*
X515152D01*
Y21047D01*
X514955D01*
Y20653D01*
X514758D01*
Y20061D01*
X514561D01*
Y19667D01*
X514363D01*
Y19075D01*
X514166D01*
Y18878D01*
X512786D01*
Y18681D01*
X511800D01*
Y19075D01*
X511997D01*
Y19864D01*
X512194D01*
Y20653D01*
X512391D01*
Y21244D01*
X512589D01*
Y21639D01*
X512786D01*
Y22230D01*
X512983D01*
Y22625D01*
X513180D01*
Y23019D01*
X513377D01*
Y23611D01*
X513574D01*
Y23808D01*
X513772D01*
Y24202D01*
X513969D01*
Y24597D01*
X514166D01*
Y24991D01*
X514363D01*
Y25385D01*
X514561D01*
Y25583D01*
X514758D01*
Y25977D01*
X514955D01*
Y26174D01*
X515152D01*
Y26569D01*
X515349D01*
Y26766D01*
X515547D01*
Y27160D01*
X515744D01*
Y27357D01*
X515941D01*
Y27752D01*
X516138D01*
Y27949D01*
X516335D01*
Y28146D01*
X516533D01*
Y28540D01*
X516730D01*
Y28738D01*
X516927D01*
Y28935D01*
X517124D01*
Y29329D01*
X517321D01*
Y29527D01*
X517519D01*
Y29724D01*
X517716D01*
Y30118D01*
X517913D01*
Y30315D01*
X518110D01*
Y30512D01*
X518307D01*
Y30907D01*
X518504D01*
Y31104D01*
X518702D01*
Y31301D01*
X518899D01*
Y31696D01*
X519096D01*
Y31893D01*
X519293D01*
Y32090D01*
X519491D01*
Y32287D01*
X519688D01*
Y32682D01*
X519885D01*
Y32879D01*
X520082D01*
Y33076D01*
X520279D01*
Y33470D01*
X520476D01*
Y33668D01*
X520674D01*
Y33865D01*
X520871D01*
Y34259D01*
X521068D01*
Y34456D01*
X521265D01*
Y34851D01*
X521462D01*
Y35048D01*
X521660D01*
Y35245D01*
X521857D01*
Y35640D01*
X522054D01*
Y35837D01*
X522251D01*
Y36231D01*
X522448D01*
Y36626D01*
X522646D01*
Y36823D01*
X522843D01*
Y37217D01*
X523040D01*
Y37611D01*
X523237D01*
Y37809D01*
X523434D01*
Y38203D01*
X523632D01*
Y38598D01*
X523829D01*
Y38992D01*
X524026D01*
Y39386D01*
X524223D01*
Y39978D01*
X524420D01*
Y40372D01*
X524618D01*
Y40964D01*
X524815D01*
Y41555D01*
X524618D01*
Y41358D01*
X524026D01*
Y41161D01*
X523237D01*
Y40964D01*
X523040D01*
Y41161D01*
X522448D01*
Y41358D01*
X522054D01*
Y41753D01*
X521857D01*
Y42344D01*
X521660D01*
Y44513D01*
X521857D01*
Y45894D01*
X522054D01*
Y46880D01*
X522251D01*
Y47668D01*
X522448D01*
Y48457D01*
X522646D01*
Y49246D01*
X522843D01*
Y50035D01*
X523040D01*
Y50824D01*
X523237D01*
Y51612D01*
X523434D01*
Y52204D01*
X523237D01*
Y52007D01*
X522843D01*
Y51810D01*
X522646D01*
Y51612D01*
X522448D01*
Y51415D01*
X522054D01*
Y51218D01*
X521857D01*
Y51021D01*
X521660D01*
Y50824D01*
X521462D01*
Y50626D01*
X521265D01*
Y50429D01*
X521068D01*
Y50035D01*
X520871D01*
Y49838D01*
X520674D01*
Y49640D01*
X520476D01*
Y49443D01*
X520279D01*
Y49049D01*
X520082D01*
Y48852D01*
X519885D01*
Y48654D01*
X519688D01*
Y48260D01*
X519491D01*
Y48063D01*
X519293D01*
Y47668D01*
X519096D01*
Y47274D01*
X518899D01*
Y46880D01*
X518702D01*
Y46485D01*
X518504D01*
Y46091D01*
X518307D01*
Y45697D01*
X518110D01*
Y45302D01*
X517913D01*
Y44908D01*
X517716D01*
Y44316D01*
X517519D01*
Y43922D01*
X517321D01*
Y43330D01*
X517124D01*
Y42739D01*
X516927D01*
Y42344D01*
X516730D01*
Y41753D01*
X516533D01*
Y41161D01*
X516335D01*
Y40569D01*
X516138D01*
Y39781D01*
X515941D01*
Y39189D01*
X515744D01*
Y38598D01*
X515547D01*
Y38203D01*
X512391D01*
Y38006D01*
X511997D01*
Y38203D01*
X511800D01*
Y38400D01*
X511997D01*
Y38795D01*
X512194D01*
Y39386D01*
X512391D01*
Y39978D01*
X512589D01*
Y40569D01*
X512786D01*
Y41161D01*
X512983D01*
Y41753D01*
X513180D01*
Y42344D01*
X513377D01*
Y42936D01*
X513574D01*
Y43527D01*
X513772D01*
Y44119D01*
X513969D01*
Y44908D01*
X514166D01*
Y45302D01*
X514363D01*
Y45894D01*
X514561D01*
Y46485D01*
X514758D01*
Y46880D01*
X514955D01*
Y47471D01*
X515152D01*
Y47866D01*
X515349D01*
Y48260D01*
X515547D01*
Y48654D01*
X515744D01*
Y49049D01*
X515941D01*
Y49443D01*
X516138D01*
Y49838D01*
X516335D01*
Y50035D01*
X516533D01*
Y50429D01*
X516730D01*
Y50626D01*
X516927D01*
Y51021D01*
X516730D01*
Y51218D01*
X516335D01*
Y51415D01*
X516138D01*
Y51612D01*
X515547D01*
Y51810D01*
X514955D01*
Y52007D01*
X514166D01*
Y52204D01*
X513180D01*
Y52401D01*
X512194D01*
Y52598D01*
X511603D01*
Y52796D01*
X511011D01*
Y52993D01*
X510814D01*
Y53190D01*
X510420D01*
Y53387D01*
X510222D01*
Y53584D01*
X510025D01*
Y53781D01*
X509828D01*
Y53979D01*
X509631D01*
Y54176D01*
X509433D01*
Y54373D01*
X509236D01*
Y54570D01*
X509039D01*
Y54767D01*
X508842D01*
Y54965D01*
X508645D01*
Y55162D01*
X508250D01*
Y55359D01*
X507856D01*
Y55556D01*
X507462D01*
Y55753D01*
X506870D01*
Y55951D01*
X505687D01*
Y56148D01*
X499968D01*
Y56345D01*
X498785D01*
Y56542D01*
X498193D01*
Y56937D01*
X497996D01*
Y57134D01*
X497799D01*
Y57528D01*
X497602D01*
Y57923D01*
X497405D01*
Y58317D01*
X497207D01*
Y58514D01*
X497010D01*
Y58711D01*
X496813D01*
Y59106D01*
X496616D01*
Y59303D01*
X496419D01*
Y59500D01*
X496222D01*
Y59697D01*
X496024D01*
Y59895D01*
X495827D01*
Y60092D01*
X495630D01*
Y60289D01*
X495433D01*
Y60486D01*
X495235D01*
Y60683D01*
X495038D01*
Y60881D01*
X494644D01*
Y61078D01*
X494447D01*
Y61275D01*
X494249D01*
Y61472D01*
X493855D01*
Y61669D01*
X493658D01*
Y61866D01*
X493264D01*
Y62064D01*
X493066D01*
Y62261D01*
X492672D01*
Y62458D01*
X492277D01*
Y62655D01*
X491883D01*
Y62853D01*
X491489D01*
Y63050D01*
X491094D01*
Y63247D01*
X490700D01*
Y63444D01*
X490108D01*
Y63641D01*
X489714D01*
Y63838D01*
X489122D01*
Y64036D01*
X488728D01*
Y64430D01*
X488531D01*
Y66205D01*
X488728D01*
Y66599D01*
X488925D01*
Y66994D01*
X489122D01*
Y67191D01*
X489319D01*
Y67388D01*
X489517D01*
Y67585D01*
X489714D01*
Y67782D01*
X489911D01*
Y67979D01*
X490108D01*
Y68177D01*
X490305D01*
Y68374D01*
X490503D01*
Y68571D01*
X490700D01*
Y68768D01*
X490897D01*
Y69163D01*
X491094D01*
Y69557D01*
X491292D01*
Y69952D01*
X490897D01*
Y69754D01*
X490503D01*
Y69557D01*
X490108D01*
Y69360D01*
X489319D01*
Y69163D01*
X486953D01*
Y69360D01*
X486164D01*
Y69557D01*
X485573D01*
Y69754D01*
X485179D01*
Y69952D01*
X484981D01*
Y70149D01*
X484587D01*
Y70346D01*
X484193D01*
Y70543D01*
X483995D01*
Y70740D01*
X483798D01*
Y70938D01*
X483404D01*
Y71135D01*
X483206D01*
Y71332D01*
X483009D01*
Y71529D01*
X482812D01*
Y71726D01*
X482418D01*
Y71923D01*
X482221D01*
Y72121D01*
X482023D01*
Y72318D01*
X481826D01*
Y72515D01*
X481629D01*
Y72712D01*
X481432D01*
Y72909D01*
X481037D01*
Y73107D01*
X480840D01*
Y73304D01*
X480643D01*
Y73501D01*
X480446D01*
Y73698D01*
X480249D01*
Y73895D01*
X480051D01*
Y74093D01*
X479657D01*
Y74290D01*
X479460D01*
Y74487D01*
X479263D01*
Y74684D01*
X479065D01*
Y74881D01*
X478868D01*
Y75079D01*
X478474D01*
Y75276D01*
X478277D01*
Y75473D01*
X477882D01*
Y75670D01*
X477685D01*
Y75867D01*
X477488D01*
Y76065D01*
X477291D01*
Y77248D01*
X477094D01*
Y78234D01*
X476896D01*
Y79022D01*
X476699D01*
Y79811D01*
X476502D01*
Y80403D01*
X476305D01*
Y80995D01*
X476108D01*
Y81783D01*
X475910D01*
Y82375D01*
X475713D01*
Y82966D01*
X475516D01*
Y83361D01*
X475319D01*
Y83952D01*
X475121D01*
Y84544D01*
X474924D01*
Y84938D01*
X474727D01*
Y85530D01*
X474530D01*
Y85924D01*
X474333D01*
Y86319D01*
X474136D01*
Y86910D01*
X473938D01*
Y87305D01*
X473741D01*
Y87699D01*
X473544D01*
Y88291D01*
X473347D01*
Y88488D01*
X473544D01*
Y88685D01*
X473938D01*
Y88882D01*
X474136D01*
Y89080D01*
X474333D01*
Y89277D01*
X474530D01*
Y89474D01*
X474727D01*
Y89671D01*
X474924D01*
Y89868D01*
X475121D01*
Y90065D01*
X475516D01*
Y90263D01*
X475713D01*
Y90460D01*
X476108D01*
Y90657D01*
X476305D01*
Y90854D01*
X476699D01*
Y91051D01*
X476896D01*
Y91249D01*
X477291D01*
Y91446D01*
X477685D01*
Y91643D01*
X478079D01*
Y91840D01*
X478474D01*
Y92037D01*
X479065D01*
Y92234D01*
X479460D01*
Y92432D01*
X480051D01*
Y92629D01*
X480840D01*
Y92826D01*
X481432D01*
Y93023D01*
X482418D01*
Y93221D01*
X483404D01*
Y93418D01*
X485573D01*
Y93615D01*
X489122D01*
Y93418D01*
X491489D01*
Y93221D01*
X492869D01*
Y93023D01*
X494249D01*
Y92826D01*
X495235D01*
Y92629D01*
X496419D01*
Y92432D01*
X497405D01*
Y92234D01*
X498193D01*
Y92037D01*
X499179D01*
Y91840D01*
X500165D01*
Y91643D01*
X501151D01*
Y91446D01*
X501940D01*
Y91249D01*
X502729D01*
Y91051D01*
X503715D01*
Y90854D01*
X504306D01*
Y90657D01*
X504504D01*
Y90460D01*
X504898D01*
Y90263D01*
X505095D01*
Y90065D01*
X505490D01*
Y89868D01*
X505687D01*
Y89671D01*
X506081D01*
Y89474D01*
X506278D01*
Y89277D01*
X506476D01*
Y89080D01*
X506870D01*
Y88882D01*
X507067D01*
Y88685D01*
X507462D01*
Y88488D01*
X507659D01*
Y88291D01*
X508053D01*
Y88093D01*
X508250D01*
Y87896D01*
X508645D01*
Y87699D01*
X508842D01*
Y87502D01*
X509236D01*
Y87305D01*
X509433D01*
Y87107D01*
X509828D01*
Y86910D01*
X510025D01*
Y86713D01*
X510420D01*
Y86516D01*
X510617D01*
Y86319D01*
X511011D01*
Y86122D01*
X511208D01*
Y85924D01*
X511405D01*
Y85727D01*
X511800D01*
Y85530D01*
X511997D01*
Y85333D01*
X512391D01*
Y85136D01*
X512589D01*
Y84938D01*
X512983D01*
Y84741D01*
X513180D01*
Y84544D01*
X513574D01*
Y84347D01*
X513772D01*
Y84150D01*
X514166D01*
Y83952D01*
X514363D01*
Y83755D01*
X514758D01*
Y83558D01*
X514955D01*
Y83361D01*
X515349D01*
Y83164D01*
X515547D01*
Y82966D01*
X515941D01*
Y82769D01*
X516138D01*
Y82572D01*
X516533D01*
Y82375D01*
X516730D01*
Y82178D01*
X517124D01*
Y81980D01*
X517321D01*
Y81783D01*
X517716D01*
Y81586D01*
X517913D01*
Y81389D01*
X518307D01*
Y81192D01*
X518504D01*
Y80995D01*
X518899D01*
Y80797D01*
X519096D01*
Y80600D01*
X519491D01*
Y80403D01*
X519688D01*
Y80206D01*
X520082D01*
Y80008D01*
X520279D01*
Y79811D01*
X520674D01*
Y79614D01*
X520871D01*
Y79417D01*
X521265D01*
Y79220D01*
X521462D01*
Y79022D01*
X521857D01*
Y78825D01*
X522054D01*
Y78628D01*
X522448D01*
Y78431D01*
X522646D01*
Y78234D01*
X523040D01*
Y78036D01*
X523237D01*
Y77839D01*
X523632D01*
Y77642D01*
X523829D01*
Y77445D01*
X524223D01*
Y77248D01*
X524420D01*
Y77050D01*
X524815D01*
Y76853D01*
X525012D01*
Y76656D01*
X525406D01*
Y76459D01*
X525603D01*
Y76262D01*
X525998D01*
Y76065D01*
X526195D01*
Y75867D01*
X526590D01*
Y75670D01*
X526787D01*
Y75473D01*
X527181D01*
Y75276D01*
X527378D01*
Y75079D01*
X527575D01*
Y74881D01*
X527970D01*
Y74684D01*
X528364D01*
Y74487D01*
X531125D01*
Y74684D01*
X531914D01*
Y74881D01*
X532703D01*
Y75079D01*
X533294D01*
Y75276D01*
X533886D01*
Y75473D01*
X534872D01*
Y75670D01*
X535266D01*
Y75473D01*
X535069D01*
Y75079D01*
X534872D01*
Y74881D01*
X534674D01*
Y74487D01*
X534477D01*
Y74290D01*
X534280D01*
Y73895D01*
X534083D01*
Y73698D01*
X533886D01*
Y73501D01*
X533689D01*
Y73107D01*
X533491D01*
Y72909D01*
X533294D01*
Y72515D01*
X533097D01*
Y72318D01*
X532900D01*
Y72121D01*
X533886D01*
Y71923D01*
X534280D01*
Y71726D01*
X534477D01*
Y71332D01*
X534674D01*
Y69952D01*
X534477D01*
Y69163D01*
X534280D01*
Y68571D01*
X534083D01*
Y67979D01*
X534280D01*
Y68177D01*
X534477D01*
Y68374D01*
X534872D01*
Y68571D01*
X535069D01*
Y68768D01*
X535266D01*
Y68966D01*
X535661D01*
Y69163D01*
X535858D01*
Y69360D01*
X536055D01*
Y69557D01*
X536449D01*
Y69754D01*
X536646D01*
Y69952D01*
X537632D01*
Y69754D01*
X537830D01*
Y69557D01*
X538027D01*
Y68966D01*
X538224D01*
Y68571D01*
X541379D01*
Y68374D01*
X542562D01*
Y68177D01*
X543351D01*
Y67979D01*
X543943D01*
Y67782D01*
X544337D01*
Y67585D01*
X544929D01*
Y67388D01*
X545323D01*
Y67191D01*
X545717D01*
Y66994D01*
X546112D01*
Y66796D01*
X546309D01*
Y66599D01*
X546703D01*
Y66402D01*
X546901D01*
Y66205D01*
X547098D01*
Y66008D01*
X547492D01*
Y65810D01*
X547689D01*
Y65613D01*
X547887D01*
Y66796D01*
X548084D01*
Y67191D01*
X548478D01*
Y67388D01*
X548872D01*
Y67585D01*
X549267D01*
Y67388D01*
X551436D01*
Y67191D01*
X551830D01*
Y67388D01*
X552422D01*
Y67585D01*
X552817D01*
Y67782D01*
X553014D01*
Y67979D01*
X553211D01*
Y68374D01*
X553014D01*
Y69557D01*
X552817D01*
Y70740D01*
X552619D01*
Y71726D01*
X552422D01*
Y72712D01*
X552225D01*
Y73698D01*
X552028D01*
Y74487D01*
X551830D01*
Y75276D01*
X551633D01*
Y76065D01*
X551436D01*
Y76853D01*
X551239D01*
Y77642D01*
X551042D01*
Y78234D01*
X550844D01*
Y79022D01*
X550647D01*
Y79614D01*
X550450D01*
Y80206D01*
X548478D01*
Y80600D01*
X548281D01*
Y80797D01*
X548084D01*
Y81192D01*
X547887D01*
Y81586D01*
X547689D01*
Y81783D01*
X547492D01*
Y81980D01*
X547295D01*
Y82178D01*
X547098D01*
Y82375D01*
X546901D01*
Y82572D01*
X546703D01*
Y82769D01*
X546506D01*
Y82966D01*
X546309D01*
Y83164D01*
X546112D01*
Y83361D01*
X545915D01*
Y83558D01*
X545717D01*
Y83755D01*
X545323D01*
Y83952D01*
X545126D01*
Y84150D01*
X544731D01*
Y84347D01*
X544534D01*
Y84544D01*
X544140D01*
Y84741D01*
X543745D01*
Y84938D01*
X543548D01*
Y85136D01*
X543154D01*
Y85333D01*
X542759D01*
Y85530D01*
X542365D01*
Y85727D01*
X541971D01*
Y85924D01*
X541576D01*
Y86122D01*
X541182D01*
Y86319D01*
X540590D01*
Y86516D01*
X540196D01*
Y86713D01*
X539801D01*
Y86910D01*
X539407D01*
Y87107D01*
X539210D01*
Y86910D01*
X539013D01*
Y86516D01*
X538816D01*
Y85924D01*
X538618D01*
Y85530D01*
X538421D01*
Y84938D01*
X538224D01*
Y84544D01*
X538027D01*
Y83952D01*
X537830D01*
Y83558D01*
X537632D01*
Y83164D01*
X537435D01*
Y82966D01*
X537238D01*
Y82572D01*
X537041D01*
Y82375D01*
X536844D01*
Y82178D01*
X536449D01*
Y81980D01*
X536252D01*
Y81783D01*
X535858D01*
Y81586D01*
X535069D01*
Y81389D01*
X534280D01*
Y81192D01*
X533886D01*
Y80995D01*
X532900D01*
Y81192D01*
X532703D01*
Y83164D01*
X532505D01*
Y84150D01*
X532308D01*
Y84544D01*
X531914D01*
Y84741D01*
X531322D01*
Y84347D01*
X531125D01*
Y83755D01*
X530928D01*
Y83164D01*
X530731D01*
Y82375D01*
X530533D01*
Y81783D01*
X530336D01*
Y80797D01*
X530139D01*
Y78825D01*
X530336D01*
Y78628D01*
X530533D01*
Y78431D01*
X531716D01*
Y78628D01*
X532308D01*
Y78825D01*
X532703D01*
Y79022D01*
X533097D01*
Y79220D01*
X533491D01*
Y79417D01*
X533886D01*
Y79614D01*
X534280D01*
Y79811D01*
X534674D01*
Y80008D01*
X535069D01*
Y80206D01*
X535661D01*
Y80403D01*
X536055D01*
Y80600D01*
X536646D01*
Y80797D01*
X537830D01*
Y80403D01*
X537632D01*
Y80008D01*
X537435D01*
Y79811D01*
X537238D01*
Y79614D01*
X537041D01*
Y79417D01*
X536844D01*
Y79022D01*
X536646D01*
Y78825D01*
X536252D01*
Y78628D01*
X536055D01*
Y78431D01*
X535858D01*
Y78234D01*
X535463D01*
Y78036D01*
X535266D01*
Y77839D01*
X534872D01*
Y77642D01*
X534477D01*
Y77445D01*
X533886D01*
Y77248D01*
X533294D01*
Y77050D01*
X532308D01*
Y76853D01*
X530533D01*
Y77050D01*
X530139D01*
Y77445D01*
X529942D01*
Y77839D01*
X529745D01*
Y78431D01*
X529547D01*
Y79022D01*
X529350D01*
Y80206D01*
X529153D01*
Y84150D01*
X529350D01*
Y86516D01*
X529547D01*
Y90854D01*
X529350D01*
Y91840D01*
X529153D01*
Y92432D01*
X528956D01*
Y92826D01*
X528759D01*
Y93418D01*
X528561D01*
Y93615D01*
X528364D01*
Y94009D01*
X528167D01*
Y94206D01*
X527970D01*
Y94601D01*
X527773D01*
Y94798D01*
X527575D01*
Y95192D01*
X528759D01*
Y94995D01*
D02*
G37*
G36*
X839348Y17118D02*
X839479D01*
X839630Y17099D01*
X839968Y17024D01*
X840344Y16930D01*
X840757Y16779D01*
X841171Y16573D01*
X841359Y16441D01*
X841547Y16291D01*
X841565D01*
X841584Y16253D01*
X841641Y16197D01*
X841697Y16140D01*
X841791Y16046D01*
X841866Y15952D01*
X842073Y15689D01*
X842280Y15332D01*
X842486Y14918D01*
X842674Y14448D01*
X842806Y13885D01*
X840400Y13621D01*
Y13659D01*
X840381Y13734D01*
X840344Y13866D01*
X840306Y14035D01*
X840250Y14204D01*
X840156Y14392D01*
X840062Y14561D01*
X839930Y14712D01*
X839911Y14730D01*
X839855Y14768D01*
X839780Y14825D01*
X839667Y14900D01*
X839536Y14956D01*
X839366Y15012D01*
X839160Y15050D01*
X838953Y15069D01*
X838915D01*
X838821Y15050D01*
X838671Y15031D01*
X838483Y14975D01*
X838276Y14900D01*
X838051Y14768D01*
X837825Y14599D01*
X837618Y14355D01*
X837599Y14317D01*
X837562Y14279D01*
X837524Y14204D01*
X837487Y14129D01*
X837430Y14016D01*
X837393Y13885D01*
X837336Y13715D01*
X837261Y13527D01*
X837205Y13321D01*
X837148Y13076D01*
X837092Y12813D01*
X837036Y12513D01*
X836998Y12174D01*
X836961Y11798D01*
X836923Y11404D01*
X836942Y11422D01*
X836961Y11460D01*
X837017Y11498D01*
X837092Y11573D01*
X837186Y11667D01*
X837299Y11761D01*
X837562Y11968D01*
X837900Y12155D01*
X838295Y12343D01*
X838521Y12419D01*
X838746Y12456D01*
X838990Y12494D01*
X839254Y12513D01*
X839404D01*
X839517Y12494D01*
X839648Y12475D01*
X839799Y12456D01*
X839987Y12419D01*
X840175Y12362D01*
X840588Y12212D01*
X840814Y12118D01*
X841039Y12005D01*
X841265Y11874D01*
X841490Y11704D01*
X841716Y11516D01*
X841923Y11310D01*
X841941Y11291D01*
X841979Y11253D01*
X842035Y11197D01*
X842092Y11103D01*
X842186Y10971D01*
X842280Y10840D01*
X842374Y10670D01*
X842486Y10483D01*
X842599Y10276D01*
X842693Y10031D01*
X842787Y9787D01*
X842881Y9505D01*
X842938Y9223D01*
X842994Y8904D01*
X843032Y8584D01*
X843050Y8227D01*
Y8208D01*
Y8133D01*
Y8039D01*
X843032Y7889D01*
X843013Y7720D01*
X842994Y7532D01*
X842956Y7306D01*
X842900Y7081D01*
X842768Y6554D01*
X842674Y6291D01*
X842543Y6028D01*
X842411Y5765D01*
X842261Y5502D01*
X842073Y5239D01*
X841866Y5013D01*
X841847Y4994D01*
X841810Y4957D01*
X841753Y4900D01*
X841659Y4825D01*
X841547Y4731D01*
X841396Y4637D01*
X841246Y4524D01*
X841058Y4412D01*
X840851Y4299D01*
X840626Y4186D01*
X840381Y4092D01*
X840099Y3998D01*
X839818Y3923D01*
X839517Y3866D01*
X839197Y3829D01*
X838859Y3810D01*
X838765D01*
X838671Y3829D01*
X838539D01*
X838370Y3866D01*
X838163Y3885D01*
X837957Y3942D01*
X837712Y3998D01*
X837468Y4073D01*
X837205Y4186D01*
X836923Y4299D01*
X836660Y4449D01*
X836378Y4618D01*
X836115Y4825D01*
X835852Y5069D01*
X835607Y5332D01*
X835588Y5351D01*
X835551Y5408D01*
X835494Y5502D01*
X835419Y5633D01*
X835306Y5802D01*
X835212Y6009D01*
X835100Y6253D01*
X834987Y6535D01*
X834855Y6874D01*
X834743Y7231D01*
X834649Y7644D01*
X834555Y8114D01*
X834461Y8603D01*
X834404Y9148D01*
X834367Y9731D01*
X834348Y10370D01*
Y10389D01*
Y10407D01*
Y10464D01*
Y10520D01*
Y10708D01*
X834367Y10953D01*
X834385Y11253D01*
X834423Y11592D01*
X834461Y11968D01*
X834517Y12362D01*
X834573Y12776D01*
X834667Y13208D01*
X834780Y13640D01*
X834912Y14073D01*
X835062Y14467D01*
X835231Y14862D01*
X835438Y15219D01*
X835664Y15539D01*
X835682Y15558D01*
X835720Y15614D01*
X835795Y15689D01*
X835908Y15783D01*
X836040Y15915D01*
X836190Y16046D01*
X836378Y16197D01*
X836585Y16347D01*
X836829Y16479D01*
X837073Y16629D01*
X837374Y16760D01*
X837675Y16892D01*
X837994Y16986D01*
X838351Y17061D01*
X838708Y17118D01*
X839103Y17136D01*
X839254D01*
X839348Y17118D01*
D02*
G37*
G36*
X828841D02*
X829010Y17099D01*
X829198Y17080D01*
X829405Y17042D01*
X829630Y17005D01*
X830119Y16873D01*
X830607Y16685D01*
X830871Y16573D01*
X831096Y16441D01*
X831340Y16272D01*
X831547Y16084D01*
X831566Y16065D01*
X831604Y16046D01*
X831641Y15971D01*
X831716Y15896D01*
X831810Y15802D01*
X831904Y15670D01*
X831998Y15539D01*
X832111Y15369D01*
X832299Y14994D01*
X832487Y14561D01*
X832562Y14317D01*
X832600Y14054D01*
X832637Y13772D01*
X832656Y13490D01*
Y13452D01*
Y13340D01*
X832637Y13170D01*
X832619Y12964D01*
X832581Y12701D01*
X832525Y12419D01*
X832449Y12118D01*
X832337Y11817D01*
X832318Y11780D01*
X832280Y11686D01*
X832205Y11516D01*
X832092Y11310D01*
X831961Y11065D01*
X831792Y10783D01*
X831585Y10483D01*
X831340Y10163D01*
X831322Y10144D01*
X831246Y10050D01*
X831134Y9919D01*
X830965Y9731D01*
X830739Y9505D01*
X830457Y9204D01*
X830119Y8885D01*
X829705Y8490D01*
X829686Y8471D01*
X829649Y8453D01*
X829592Y8396D01*
X829517Y8321D01*
X829311Y8133D01*
X829066Y7908D01*
X828822Y7663D01*
X828577Y7419D01*
X828352Y7212D01*
X828277Y7118D01*
X828202Y7043D01*
X828183Y7024D01*
X828145Y6987D01*
X828089Y6911D01*
X828014Y6817D01*
X827844Y6611D01*
X827694Y6366D01*
X832656D01*
Y4054D01*
X823916D01*
Y4073D01*
Y4111D01*
X823935Y4186D01*
X823954Y4280D01*
X823972Y4393D01*
X823991Y4524D01*
X824066Y4863D01*
X824179Y5239D01*
X824330Y5652D01*
X824518Y6103D01*
X824762Y6535D01*
Y6554D01*
X824799Y6592D01*
X824837Y6667D01*
X824912Y6742D01*
X824987Y6874D01*
X825100Y7005D01*
X825232Y7175D01*
X825382Y7362D01*
X825551Y7588D01*
X825758Y7814D01*
X825984Y8077D01*
X826247Y8359D01*
X826529Y8641D01*
X826848Y8960D01*
X827187Y9298D01*
X827562Y9656D01*
X827581Y9674D01*
X827638Y9731D01*
X827713Y9806D01*
X827826Y9919D01*
X827976Y10031D01*
X828126Y10182D01*
X828465Y10520D01*
X828803Y10877D01*
X829141Y11234D01*
X829292Y11385D01*
X829442Y11554D01*
X829555Y11686D01*
X829630Y11798D01*
X829649Y11836D01*
X829705Y11930D01*
X829799Y12080D01*
X829893Y12287D01*
X829987Y12513D01*
X830081Y12776D01*
X830137Y13039D01*
X830156Y13321D01*
Y13340D01*
Y13358D01*
Y13452D01*
X830137Y13621D01*
X830100Y13809D01*
X830044Y14016D01*
X829968Y14223D01*
X829856Y14430D01*
X829705Y14618D01*
X829686Y14636D01*
X829630Y14693D01*
X829517Y14768D01*
X829386Y14843D01*
X829198Y14918D01*
X828991Y14994D01*
X828747Y15050D01*
X828465Y15069D01*
X828333D01*
X828183Y15050D01*
X828014Y15012D01*
X827807Y14956D01*
X827600Y14862D01*
X827393Y14749D01*
X827205Y14599D01*
X827187Y14580D01*
X827130Y14505D01*
X827055Y14392D01*
X826980Y14223D01*
X826886Y14016D01*
X826811Y13734D01*
X826736Y13415D01*
X826698Y13039D01*
X824217Y13283D01*
Y13302D01*
X824236Y13377D01*
Y13471D01*
X824273Y13621D01*
X824292Y13791D01*
X824348Y13979D01*
X824405Y14185D01*
X824461Y14430D01*
X824649Y14900D01*
X824875Y15388D01*
X825025Y15633D01*
X825194Y15858D01*
X825382Y16046D01*
X825589Y16234D01*
X825608Y16253D01*
X825645Y16272D01*
X825702Y16309D01*
X825796Y16385D01*
X825908Y16441D01*
X826059Y16516D01*
X826209Y16610D01*
X826397Y16685D01*
X826604Y16779D01*
X826829Y16854D01*
X827318Y17005D01*
X827901Y17099D01*
X828202Y17118D01*
X828521Y17136D01*
X828709D01*
X828841Y17118D01*
D02*
G37*
G36*
X808616D02*
X808785Y17099D01*
X808973Y17080D01*
X809180Y17042D01*
X809406Y17005D01*
X809894Y16873D01*
X810383Y16685D01*
X810646Y16573D01*
X810872Y16441D01*
X811116Y16272D01*
X811323Y16084D01*
X811341Y16065D01*
X811379Y16046D01*
X811417Y15971D01*
X811492Y15896D01*
X811586Y15802D01*
X811680Y15670D01*
X811774Y15539D01*
X811887Y15369D01*
X812075Y14994D01*
X812262Y14561D01*
X812338Y14317D01*
X812375Y14054D01*
X812413Y13772D01*
X812432Y13490D01*
Y13452D01*
Y13340D01*
X812413Y13170D01*
X812394Y12964D01*
X812356Y12701D01*
X812300Y12419D01*
X812225Y12118D01*
X812112Y11817D01*
X812093Y11780D01*
X812056Y11686D01*
X811981Y11516D01*
X811868Y11310D01*
X811736Y11065D01*
X811567Y10783D01*
X811360Y10483D01*
X811116Y10163D01*
X811097Y10144D01*
X811022Y10050D01*
X810909Y9919D01*
X810740Y9731D01*
X810515Y9505D01*
X810233Y9204D01*
X809894Y8885D01*
X809481Y8490D01*
X809462Y8471D01*
X809424Y8453D01*
X809368Y8396D01*
X809293Y8321D01*
X809086Y8133D01*
X808842Y7908D01*
X808597Y7663D01*
X808353Y7419D01*
X808127Y7212D01*
X808052Y7118D01*
X807977Y7043D01*
X807958Y7024D01*
X807921Y6987D01*
X807864Y6911D01*
X807789Y6817D01*
X807620Y6611D01*
X807470Y6366D01*
X812432D01*
Y4054D01*
X803692D01*
Y4073D01*
Y4111D01*
X803710Y4186D01*
X803729Y4280D01*
X803748Y4393D01*
X803767Y4524D01*
X803842Y4863D01*
X803955Y5239D01*
X804105Y5652D01*
X804293Y6103D01*
X804537Y6535D01*
Y6554D01*
X804575Y6592D01*
X804613Y6667D01*
X804688Y6742D01*
X804763Y6874D01*
X804876Y7005D01*
X805007Y7175D01*
X805158Y7362D01*
X805327Y7588D01*
X805534Y7814D01*
X805759Y8077D01*
X806022Y8359D01*
X806304Y8641D01*
X806624Y8960D01*
X806962Y9298D01*
X807338Y9656D01*
X807357Y9674D01*
X807413Y9731D01*
X807488Y9806D01*
X807601Y9919D01*
X807751Y10031D01*
X807902Y10182D01*
X808240Y10520D01*
X808578Y10877D01*
X808917Y11234D01*
X809067Y11385D01*
X809218Y11554D01*
X809330Y11686D01*
X809406Y11798D01*
X809424Y11836D01*
X809481Y11930D01*
X809575Y12080D01*
X809669Y12287D01*
X809763Y12513D01*
X809857Y12776D01*
X809913Y13039D01*
X809932Y13321D01*
Y13340D01*
Y13358D01*
Y13452D01*
X809913Y13621D01*
X809875Y13809D01*
X809819Y14016D01*
X809744Y14223D01*
X809631Y14430D01*
X809481Y14618D01*
X809462Y14636D01*
X809406Y14693D01*
X809293Y14768D01*
X809161Y14843D01*
X808973Y14918D01*
X808766Y14994D01*
X808522Y15050D01*
X808240Y15069D01*
X808109D01*
X807958Y15050D01*
X807789Y15012D01*
X807582Y14956D01*
X807376Y14862D01*
X807169Y14749D01*
X806981Y14599D01*
X806962Y14580D01*
X806906Y14505D01*
X806831Y14392D01*
X806755Y14223D01*
X806661Y14016D01*
X806586Y13734D01*
X806511Y13415D01*
X806473Y13039D01*
X803992Y13283D01*
Y13302D01*
X804011Y13377D01*
Y13471D01*
X804049Y13621D01*
X804068Y13791D01*
X804124Y13979D01*
X804180Y14185D01*
X804237Y14430D01*
X804425Y14900D01*
X804650Y15388D01*
X804800Y15633D01*
X804970Y15858D01*
X805158Y16046D01*
X805364Y16234D01*
X805383Y16253D01*
X805421Y16272D01*
X805477Y16309D01*
X805571Y16385D01*
X805684Y16441D01*
X805834Y16516D01*
X805985Y16610D01*
X806173Y16685D01*
X806379Y16779D01*
X806605Y16854D01*
X807094Y17005D01*
X807676Y17099D01*
X807977Y17118D01*
X808297Y17136D01*
X808484D01*
X808616Y17118D01*
D02*
G37*
G36*
X776118Y14862D02*
X769821D01*
Y11780D01*
X775253D01*
Y9580D01*
X769821D01*
Y4054D01*
X767190D01*
Y17061D01*
X776118D01*
Y14862D01*
D02*
G37*
G36*
X759991Y15088D02*
X759972Y15069D01*
X759934Y15031D01*
X759878Y14975D01*
X759803Y14900D01*
X759709Y14787D01*
X759596Y14655D01*
X759465Y14505D01*
X759314Y14317D01*
X759164Y14110D01*
X758995Y13885D01*
X758807Y13640D01*
X758619Y13377D01*
X758431Y13076D01*
X758243Y12776D01*
X758036Y12437D01*
X757829Y12080D01*
X757811Y12061D01*
X757773Y11986D01*
X757717Y11892D01*
X757641Y11742D01*
X757566Y11573D01*
X757453Y11347D01*
X757341Y11103D01*
X757209Y10840D01*
X757077Y10539D01*
X756946Y10219D01*
X756796Y9881D01*
X756664Y9524D01*
X756401Y8753D01*
X756156Y7945D01*
Y7926D01*
X756138Y7851D01*
X756100Y7738D01*
X756062Y7569D01*
X756025Y7381D01*
X755987Y7175D01*
X755931Y6911D01*
X755874Y6648D01*
X755818Y6348D01*
X755781Y6047D01*
X755687Y5389D01*
X755630Y4712D01*
X755611Y4054D01*
X753205D01*
Y4092D01*
Y4167D01*
X753224Y4317D01*
Y4524D01*
X753243Y4769D01*
X753281Y5051D01*
X753318Y5389D01*
X753375Y5746D01*
X753431Y6141D01*
X753506Y6573D01*
X753600Y7024D01*
X753694Y7513D01*
X753826Y8001D01*
X753957Y8509D01*
X754127Y9017D01*
X754314Y9543D01*
X754333Y9580D01*
X754371Y9674D01*
X754427Y9825D01*
X754502Y10013D01*
X754615Y10257D01*
X754747Y10558D01*
X754897Y10877D01*
X755066Y11234D01*
X755254Y11610D01*
X755461Y12005D01*
X755687Y12437D01*
X755950Y12851D01*
X756495Y13734D01*
X757115Y14580D01*
X751458D01*
Y16892D01*
X759991D01*
Y15088D01*
D02*
G37*
G36*
X747717Y4054D02*
X745217D01*
Y13471D01*
X745198Y13452D01*
X745161Y13415D01*
X745086Y13358D01*
X744973Y13264D01*
X744841Y13152D01*
X744691Y13039D01*
X744503Y12907D01*
X744296Y12757D01*
X744071Y12607D01*
X743826Y12456D01*
X743563Y12287D01*
X743281Y12137D01*
X742680Y11855D01*
X742003Y11592D01*
Y13847D01*
X742022D01*
X742041Y13866D01*
X742097Y13885D01*
X742172Y13903D01*
X742360Y13997D01*
X742623Y14110D01*
X742943Y14261D01*
X743300Y14467D01*
X743695Y14730D01*
X744108Y15031D01*
X744127Y15050D01*
X744165Y15069D01*
X744221Y15125D01*
X744296Y15200D01*
X744503Y15388D01*
X744728Y15633D01*
X744992Y15933D01*
X745255Y16309D01*
X745499Y16704D01*
X745687Y17136D01*
X747717D01*
Y4054D01*
D02*
G37*
G36*
X790779Y12381D02*
X790798Y12400D01*
X790835Y12437D01*
X790891Y12494D01*
X790985Y12588D01*
X791098Y12682D01*
X791230Y12795D01*
X791380Y12926D01*
X791549Y13039D01*
X791944Y13283D01*
X792414Y13490D01*
X792658Y13584D01*
X792940Y13640D01*
X793222Y13678D01*
X793504Y13697D01*
X793673D01*
X793786Y13678D01*
X793936Y13659D01*
X794106Y13621D01*
X794294Y13584D01*
X794519Y13546D01*
X794970Y13396D01*
X795196Y13283D01*
X795440Y13170D01*
X795685Y13020D01*
X795910Y12851D01*
X796136Y12663D01*
X796361Y12437D01*
X796380Y12419D01*
X796417Y12381D01*
X796474Y12306D01*
X796549Y12212D01*
X796624Y12080D01*
X796718Y11930D01*
X796831Y11742D01*
X796944Y11535D01*
X797038Y11291D01*
X797151Y11028D01*
X797244Y10727D01*
X797338Y10407D01*
X797395Y10069D01*
X797451Y9693D01*
X797489Y9298D01*
X797508Y8866D01*
Y8847D01*
Y8753D01*
Y8641D01*
X797489Y8471D01*
X797470Y8265D01*
X797451Y8039D01*
X797414Y7776D01*
X797357Y7494D01*
X797226Y6892D01*
X797132Y6592D01*
X797019Y6272D01*
X796887Y5972D01*
X796718Y5671D01*
X796549Y5408D01*
X796342Y5145D01*
X796323Y5126D01*
X796286Y5088D01*
X796229Y5032D01*
X796136Y4938D01*
X796023Y4844D01*
X795891Y4731D01*
X795741Y4618D01*
X795572Y4505D01*
X795365Y4374D01*
X795158Y4261D01*
X794669Y4054D01*
X794406Y3960D01*
X794143Y3904D01*
X793842Y3866D01*
X793542Y3848D01*
X793410D01*
X793241Y3866D01*
X793034Y3904D01*
X792790Y3942D01*
X792527Y4017D01*
X792245Y4111D01*
X791944Y4242D01*
X791907Y4261D01*
X791813Y4317D01*
X791662Y4412D01*
X791474Y4543D01*
X791267Y4712D01*
X791042Y4900D01*
X790816Y5145D01*
X790591Y5426D01*
Y4054D01*
X788279D01*
Y17061D01*
X790779D01*
Y12381D01*
D02*
G37*
G36*
X782208Y13678D02*
X782377Y13659D01*
X782584Y13621D01*
X782809Y13584D01*
X783054Y13527D01*
X783317Y13452D01*
X783580Y13358D01*
X783862Y13246D01*
X784144Y13095D01*
X784407Y12945D01*
X784670Y12757D01*
X784933Y12531D01*
X785159Y12287D01*
X785178Y12268D01*
X785215Y12231D01*
X785272Y12137D01*
X785347Y12024D01*
X785441Y11874D01*
X785535Y11704D01*
X785647Y11479D01*
X785760Y11234D01*
X785873Y10953D01*
X785986Y10633D01*
X786080Y10295D01*
X786174Y9900D01*
X786249Y9486D01*
X786305Y9035D01*
X786343Y8565D01*
Y8039D01*
X780103D01*
Y8020D01*
Y7983D01*
Y7926D01*
X780121Y7851D01*
X780140Y7663D01*
X780178Y7400D01*
X780253Y7137D01*
X780366Y6836D01*
X780497Y6554D01*
X780685Y6310D01*
X780704Y6291D01*
X780798Y6216D01*
X780911Y6122D01*
X781080Y6009D01*
X781287Y5896D01*
X781550Y5802D01*
X781832Y5727D01*
X782132Y5708D01*
X782226D01*
X782339Y5727D01*
X782471Y5746D01*
X782621Y5784D01*
X782790Y5840D01*
X782960Y5915D01*
X783110Y6028D01*
X783129Y6047D01*
X783185Y6084D01*
X783260Y6159D01*
X783335Y6272D01*
X783448Y6423D01*
X783542Y6592D01*
X783636Y6817D01*
X783730Y7062D01*
X786211Y6648D01*
Y6629D01*
X786192Y6592D01*
X786155Y6517D01*
X786117Y6423D01*
X786061Y6310D01*
X786004Y6178D01*
X785835Y5878D01*
X785629Y5539D01*
X785366Y5182D01*
X785046Y4863D01*
X784689Y4562D01*
X784670D01*
X784651Y4524D01*
X784576Y4505D01*
X784501Y4449D01*
X784407Y4393D01*
X784275Y4336D01*
X784144Y4280D01*
X783975Y4205D01*
X783599Y4073D01*
X783166Y3960D01*
X782659Y3885D01*
X782114Y3848D01*
X782001D01*
X781888Y3866D01*
X781719D01*
X781512Y3904D01*
X781268Y3942D01*
X781005Y3979D01*
X780742Y4054D01*
X780441Y4130D01*
X780140Y4242D01*
X779839Y4374D01*
X779539Y4524D01*
X779238Y4712D01*
X778956Y4919D01*
X778712Y5163D01*
X778467Y5445D01*
X778448Y5464D01*
X778430Y5502D01*
X778392Y5577D01*
X778317Y5671D01*
X778261Y5802D01*
X778185Y5953D01*
X778091Y6122D01*
X778016Y6329D01*
X777922Y6554D01*
X777847Y6799D01*
X777753Y7062D01*
X777697Y7362D01*
X777640Y7663D01*
X777584Y7983D01*
X777565Y8340D01*
X777546Y8697D01*
Y8716D01*
Y8791D01*
Y8923D01*
X777565Y9092D01*
X777584Y9280D01*
X777603Y9505D01*
X777640Y9750D01*
X777697Y10031D01*
X777847Y10614D01*
X777941Y10915D01*
X778054Y11234D01*
X778204Y11535D01*
X778373Y11817D01*
X778561Y12099D01*
X778768Y12362D01*
X778787Y12381D01*
X778824Y12419D01*
X778900Y12494D01*
X778994Y12569D01*
X779106Y12663D01*
X779257Y12776D01*
X779426Y12907D01*
X779614Y13039D01*
X779821Y13152D01*
X780065Y13283D01*
X780309Y13396D01*
X780591Y13490D01*
X780873Y13565D01*
X781193Y13640D01*
X781512Y13678D01*
X781851Y13697D01*
X782057D01*
X782208Y13678D01*
D02*
G37*
G36*
X818653Y17118D02*
X818803Y17099D01*
X818991Y17061D01*
X819180Y17024D01*
X819405Y16967D01*
X819649Y16892D01*
X819875Y16798D01*
X820119Y16704D01*
X820364Y16573D01*
X820608Y16403D01*
X820852Y16234D01*
X821078Y16027D01*
X821285Y15783D01*
X821303Y15764D01*
X821341Y15708D01*
X821397Y15614D01*
X821491Y15482D01*
X821585Y15294D01*
X821698Y15069D01*
X821811Y14825D01*
X821924Y14505D01*
X822037Y14167D01*
X822168Y13772D01*
X822262Y13340D01*
X822356Y12851D01*
X822450Y12325D01*
X822506Y11761D01*
X822544Y11140D01*
X822563Y10464D01*
Y10445D01*
Y10426D01*
Y10370D01*
Y10295D01*
Y10107D01*
X822544Y9862D01*
X822525Y9562D01*
X822488Y9204D01*
X822450Y8828D01*
X822412Y8415D01*
X822337Y7983D01*
X822243Y7532D01*
X822149Y7099D01*
X822018Y6667D01*
X821886Y6235D01*
X821698Y5840D01*
X821510Y5464D01*
X821285Y5145D01*
X821266Y5126D01*
X821228Y5088D01*
X821172Y5013D01*
X821097Y4938D01*
X820984Y4844D01*
X820852Y4731D01*
X820683Y4599D01*
X820514Y4487D01*
X820307Y4355D01*
X820100Y4223D01*
X819856Y4111D01*
X819593Y4017D01*
X819311Y3942D01*
X818991Y3866D01*
X818672Y3829D01*
X818334Y3810D01*
X818259D01*
X818146Y3829D01*
X818014D01*
X817864Y3848D01*
X817676Y3885D01*
X817469Y3923D01*
X817243Y3998D01*
X816999Y4073D01*
X816755Y4167D01*
X816492Y4280D01*
X816247Y4430D01*
X815984Y4581D01*
X815740Y4787D01*
X815495Y4994D01*
X815270Y5257D01*
X815251Y5276D01*
X815213Y5332D01*
X815157Y5426D01*
X815101Y5539D01*
X815007Y5708D01*
X814913Y5915D01*
X814800Y6178D01*
X814706Y6460D01*
X814593Y6799D01*
X814481Y7175D01*
X814387Y7607D01*
X814311Y8077D01*
X814236Y8603D01*
X814180Y9186D01*
X814142Y9806D01*
X814123Y10483D01*
Y10501D01*
Y10520D01*
Y10577D01*
Y10652D01*
Y10840D01*
X814142Y11084D01*
X814161Y11385D01*
X814199Y11742D01*
X814236Y12118D01*
X814274Y12531D01*
X814349Y12964D01*
X814424Y13396D01*
X814537Y13847D01*
X814650Y14279D01*
X814800Y14693D01*
X814969Y15088D01*
X815157Y15464D01*
X815383Y15783D01*
X815402Y15802D01*
X815439Y15839D01*
X815495Y15915D01*
X815589Y15990D01*
X815683Y16103D01*
X815815Y16215D01*
X815984Y16328D01*
X816153Y16460D01*
X816360Y16591D01*
X816567Y16704D01*
X816811Y16817D01*
X817074Y16930D01*
X817356Y17005D01*
X817676Y17080D01*
X817995Y17118D01*
X818334Y17136D01*
X818522D01*
X818653Y17118D01*
D02*
G37*
G36*
X352029Y20917D02*
X352236Y20898D01*
X352480Y20879D01*
X352725Y20842D01*
X353007Y20804D01*
X353608Y20673D01*
X353909Y20579D01*
X354210Y20485D01*
X354510Y20353D01*
X354792Y20203D01*
X355055Y20034D01*
X355300Y19845D01*
X355319Y19827D01*
X355356Y19789D01*
X355412Y19733D01*
X355488Y19658D01*
X355582Y19545D01*
X355695Y19413D01*
X355807Y19263D01*
X355939Y19094D01*
X356052Y18887D01*
X356164Y18680D01*
X356277Y18436D01*
X356371Y18173D01*
X356465Y17909D01*
X356540Y17609D01*
X356597Y17308D01*
X356615Y16970D01*
X353984Y16876D01*
Y16895D01*
Y16913D01*
X353946Y17045D01*
X353909Y17214D01*
X353834Y17421D01*
X353740Y17665D01*
X353608Y17891D01*
X353439Y18116D01*
X353251Y18304D01*
X353232Y18323D01*
X353157Y18379D01*
X353026Y18455D01*
X352837Y18530D01*
X352612Y18605D01*
X352330Y18680D01*
X351992Y18737D01*
X351597Y18755D01*
X351409D01*
X351202Y18737D01*
X350958Y18699D01*
X350676Y18643D01*
X350375Y18549D01*
X350093Y18436D01*
X349830Y18267D01*
X349811Y18248D01*
X349774Y18210D01*
X349699Y18154D01*
X349623Y18060D01*
X349548Y17947D01*
X349473Y17797D01*
X349435Y17646D01*
X349417Y17458D01*
Y17440D01*
Y17383D01*
X349435Y17289D01*
X349473Y17195D01*
X349511Y17064D01*
X349567Y16932D01*
X349661Y16801D01*
X349793Y16669D01*
X349811Y16650D01*
X349905Y16594D01*
X349962Y16556D01*
X350056Y16519D01*
X350150Y16462D01*
X350281Y16406D01*
X350432Y16350D01*
X350601Y16274D01*
X350807Y16199D01*
X351014Y16124D01*
X351277Y16049D01*
X351559Y15974D01*
X351860Y15898D01*
X352198Y15804D01*
X352217D01*
X352292Y15786D01*
X352386Y15767D01*
X352518Y15729D01*
X352668Y15692D01*
X352856Y15635D01*
X353063Y15579D01*
X353270Y15522D01*
X353721Y15372D01*
X354191Y15222D01*
X354642Y15052D01*
X354830Y14959D01*
X355018Y14865D01*
X355037D01*
X355055Y14846D01*
X355168Y14771D01*
X355337Y14658D01*
X355544Y14507D01*
X355770Y14319D01*
X356014Y14094D01*
X356258Y13831D01*
X356465Y13530D01*
X356484Y13492D01*
X356540Y13380D01*
X356634Y13211D01*
X356728Y12966D01*
X356822Y12665D01*
X356916Y12308D01*
X356973Y11914D01*
X356991Y11463D01*
Y11444D01*
Y11406D01*
Y11350D01*
Y11275D01*
X356973Y11181D01*
X356954Y11049D01*
X356916Y10786D01*
X356841Y10447D01*
X356728Y10090D01*
X356559Y9733D01*
X356352Y9357D01*
Y9339D01*
X356315Y9320D01*
X356240Y9207D01*
X356089Y9019D01*
X355901Y8812D01*
X355657Y8568D01*
X355337Y8342D01*
X354999Y8117D01*
X354585Y7910D01*
X354567D01*
X354529Y7891D01*
X354473Y7872D01*
X354379Y7835D01*
X354266Y7797D01*
X354134Y7760D01*
X353984Y7722D01*
X353815Y7685D01*
X353608Y7628D01*
X353401Y7591D01*
X352913Y7515D01*
X352368Y7459D01*
X351766Y7440D01*
X351522D01*
X351353Y7459D01*
X351146Y7478D01*
X350920Y7497D01*
X350657Y7534D01*
X350375Y7591D01*
X349755Y7722D01*
X349435Y7816D01*
X349135Y7910D01*
X348815Y8042D01*
X348514Y8192D01*
X348232Y8361D01*
X347969Y8568D01*
X347951Y8587D01*
X347913Y8624D01*
X347838Y8681D01*
X347763Y8775D01*
X347650Y8906D01*
X347537Y9057D01*
X347406Y9226D01*
X347274Y9414D01*
X347142Y9639D01*
X347011Y9884D01*
X346879Y10166D01*
X346748Y10466D01*
X346654Y10786D01*
X346541Y11143D01*
X346466Y11519D01*
X346409Y11914D01*
X348965Y12158D01*
Y12139D01*
X348984Y12102D01*
Y12026D01*
X349003Y11951D01*
X349078Y11726D01*
X349172Y11444D01*
X349285Y11124D01*
X349454Y10805D01*
X349642Y10523D01*
X349887Y10260D01*
X349924Y10241D01*
X350018Y10166D01*
X350168Y10072D01*
X350394Y9959D01*
X350676Y9846D01*
X350995Y9752D01*
X351371Y9677D01*
X351804Y9658D01*
X352010D01*
X352236Y9696D01*
X352518Y9733D01*
X352819Y9790D01*
X353138Y9884D01*
X353439Y10015D01*
X353702Y10184D01*
X353740Y10203D01*
X353815Y10278D01*
X353909Y10391D01*
X354040Y10541D01*
X354153Y10730D01*
X354266Y10955D01*
X354341Y11181D01*
X354360Y11444D01*
Y11463D01*
Y11519D01*
X354341Y11613D01*
X354322Y11726D01*
X354285Y11838D01*
X354247Y11970D01*
X354172Y12102D01*
X354078Y12233D01*
X354059Y12252D01*
X354022Y12290D01*
X353965Y12346D01*
X353871Y12421D01*
X353740Y12515D01*
X353571Y12609D01*
X353383Y12703D01*
X353138Y12797D01*
X353119D01*
X353044Y12835D01*
X352913Y12872D01*
X352819Y12910D01*
X352706Y12929D01*
X352574Y12966D01*
X352424Y13023D01*
X352255Y13060D01*
X352067Y13117D01*
X351841Y13173D01*
X351597Y13229D01*
X351334Y13305D01*
X351033Y13380D01*
X351014D01*
X350939Y13398D01*
X350826Y13436D01*
X350695Y13474D01*
X350526Y13530D01*
X350319Y13586D01*
X350112Y13662D01*
X349868Y13737D01*
X349379Y13925D01*
X348909Y14150D01*
X348665Y14263D01*
X348458Y14395D01*
X348251Y14526D01*
X348082Y14658D01*
X348063Y14677D01*
X348026Y14714D01*
X347969Y14771D01*
X347894Y14846D01*
X347800Y14959D01*
X347706Y15090D01*
X347593Y15222D01*
X347499Y15391D01*
X347274Y15786D01*
X347086Y16237D01*
X347011Y16481D01*
X346954Y16725D01*
X346917Y17007D01*
X346898Y17289D01*
Y17308D01*
Y17327D01*
Y17383D01*
Y17458D01*
X346936Y17646D01*
X346973Y17891D01*
X347029Y18173D01*
X347123Y18492D01*
X347255Y18830D01*
X347443Y19150D01*
Y19169D01*
X347462Y19188D01*
X347556Y19300D01*
X347669Y19451D01*
X347857Y19639D01*
X348082Y19845D01*
X348364Y20071D01*
X348684Y20278D01*
X349059Y20466D01*
X349078D01*
X349116Y20485D01*
X349172Y20503D01*
X349248Y20541D01*
X349360Y20579D01*
X349473Y20616D01*
X349623Y20654D01*
X349793Y20710D01*
X350168Y20785D01*
X350601Y20861D01*
X351090Y20917D01*
X351635Y20936D01*
X351860D01*
X352029Y20917D01*
D02*
G37*
G36*
X406293Y17308D02*
X406500Y17270D01*
X406763Y17214D01*
X407045Y17120D01*
X407327Y17007D01*
X407628Y16838D01*
X406838Y14677D01*
X406820Y14695D01*
X406726Y14733D01*
X406613Y14808D01*
X406463Y14883D01*
X406274Y14959D01*
X406087Y15034D01*
X405880Y15071D01*
X405673Y15090D01*
X405598D01*
X405485Y15071D01*
X405372Y15052D01*
X405241Y15015D01*
X405090Y14959D01*
X404940Y14883D01*
X404790Y14789D01*
X404771Y14771D01*
X404733Y14733D01*
X404658Y14658D01*
X404583Y14545D01*
X404489Y14413D01*
X404395Y14225D01*
X404301Y14000D01*
X404226Y13737D01*
Y13699D01*
X404207Y13643D01*
X404188Y13586D01*
Y13492D01*
X404169Y13380D01*
X404151Y13229D01*
X404132Y13060D01*
X404113Y12872D01*
X404094Y12628D01*
X404075Y12384D01*
Y12083D01*
X404057Y11763D01*
X404038Y11406D01*
Y11011D01*
Y10579D01*
Y7685D01*
X401538D01*
Y17120D01*
X403850D01*
Y15786D01*
X403869Y15804D01*
X403944Y15917D01*
X404057Y16086D01*
X404207Y16293D01*
X404357Y16500D01*
X404545Y16707D01*
X404715Y16895D01*
X404902Y17026D01*
X404921Y17045D01*
X404978Y17083D01*
X405090Y17120D01*
X405222Y17177D01*
X405372Y17233D01*
X405560Y17289D01*
X405748Y17308D01*
X405974Y17327D01*
X406124D01*
X406293Y17308D01*
D02*
G37*
G36*
X374998D02*
X375205Y17289D01*
X375430Y17252D01*
X375675Y17195D01*
X375938Y17120D01*
X376201Y17026D01*
X376239Y17007D01*
X376314Y16970D01*
X376445Y16913D01*
X376596Y16819D01*
X376765Y16707D01*
X376934Y16575D01*
X377103Y16425D01*
X377253Y16256D01*
X377272Y16237D01*
X377310Y16180D01*
X377366Y16086D01*
X377441Y15955D01*
X377535Y15804D01*
X377611Y15616D01*
X377686Y15429D01*
X377742Y15203D01*
Y15184D01*
X377761Y15090D01*
X377799Y14959D01*
X377817Y14771D01*
X377855Y14545D01*
X377874Y14244D01*
X377893Y13925D01*
Y13530D01*
Y7685D01*
X375393D01*
Y12478D01*
Y12496D01*
Y12553D01*
Y12628D01*
Y12722D01*
Y12853D01*
Y12985D01*
X375374Y13305D01*
X375355Y13624D01*
X375317Y13962D01*
X375280Y14244D01*
X375261Y14357D01*
X375224Y14451D01*
Y14470D01*
X375186Y14526D01*
X375148Y14601D01*
X375092Y14714D01*
X374923Y14940D01*
X374829Y15052D01*
X374697Y15146D01*
X374678Y15165D01*
X374641Y15184D01*
X374566Y15222D01*
X374453Y15278D01*
X374321Y15335D01*
X374190Y15372D01*
X374021Y15391D01*
X373833Y15410D01*
X373720D01*
X373607Y15391D01*
X373457Y15372D01*
X373269Y15316D01*
X373081Y15259D01*
X372874Y15165D01*
X372667Y15052D01*
X372649Y15034D01*
X372592Y14996D01*
X372498Y14902D01*
X372385Y14808D01*
X372273Y14658D01*
X372160Y14507D01*
X372047Y14301D01*
X371972Y14094D01*
Y14075D01*
X371934Y13981D01*
X371915Y13831D01*
X371878Y13605D01*
X371859Y13474D01*
X371840Y13305D01*
X371822Y13135D01*
Y12929D01*
X371803Y12722D01*
X371784Y12478D01*
Y12214D01*
Y11932D01*
Y7685D01*
X369284D01*
Y17120D01*
X371596D01*
Y15729D01*
X371615Y15748D01*
X371652Y15804D01*
X371727Y15880D01*
X371822Y15974D01*
X371934Y16105D01*
X372085Y16237D01*
X372254Y16387D01*
X372442Y16537D01*
X372649Y16669D01*
X372893Y16819D01*
X373137Y16951D01*
X373419Y17083D01*
X373720Y17177D01*
X374021Y17252D01*
X374359Y17308D01*
X374697Y17327D01*
X374829D01*
X374998Y17308D01*
D02*
G37*
G36*
X298197D02*
X298404Y17289D01*
X298630Y17252D01*
X298874Y17195D01*
X299137Y17120D01*
X299401Y17026D01*
X299438Y17007D01*
X299513Y16970D01*
X299645Y16913D01*
X299795Y16819D01*
X299964Y16707D01*
X300133Y16575D01*
X300303Y16425D01*
X300453Y16256D01*
X300472Y16237D01*
X300509Y16180D01*
X300566Y16086D01*
X300641Y15955D01*
X300735Y15804D01*
X300810Y15616D01*
X300885Y15429D01*
X300942Y15203D01*
Y15184D01*
X300961Y15090D01*
X300998Y14959D01*
X301017Y14771D01*
X301054Y14545D01*
X301073Y14244D01*
X301092Y13925D01*
Y13530D01*
Y7685D01*
X298592D01*
Y12478D01*
Y12496D01*
Y12553D01*
Y12628D01*
Y12722D01*
Y12853D01*
Y12985D01*
X298573Y13305D01*
X298555Y13624D01*
X298517Y13962D01*
X298479Y14244D01*
X298461Y14357D01*
X298423Y14451D01*
Y14470D01*
X298386Y14526D01*
X298348Y14601D01*
X298291Y14714D01*
X298122Y14940D01*
X298028Y15052D01*
X297897Y15146D01*
X297878Y15165D01*
X297840Y15184D01*
X297765Y15222D01*
X297652Y15278D01*
X297521Y15335D01*
X297389Y15372D01*
X297220Y15391D01*
X297032Y15410D01*
X296919D01*
X296807Y15391D01*
X296656Y15372D01*
X296468Y15316D01*
X296280Y15259D01*
X296074Y15165D01*
X295867Y15052D01*
X295848Y15034D01*
X295792Y14996D01*
X295698Y14902D01*
X295585Y14808D01*
X295472Y14658D01*
X295359Y14507D01*
X295247Y14301D01*
X295171Y14094D01*
Y14075D01*
X295134Y13981D01*
X295115Y13831D01*
X295077Y13605D01*
X295059Y13474D01*
X295040Y13305D01*
X295021Y13135D01*
Y12929D01*
X295002Y12722D01*
X294983Y12478D01*
Y12214D01*
Y11932D01*
Y7685D01*
X292484D01*
Y17120D01*
X294795D01*
Y15729D01*
X294814Y15748D01*
X294852Y15804D01*
X294927Y15880D01*
X295021Y15974D01*
X295134Y16105D01*
X295284Y16237D01*
X295453Y16387D01*
X295641Y16537D01*
X295848Y16669D01*
X296092Y16819D01*
X296337Y16951D01*
X296619Y17083D01*
X296919Y17177D01*
X297220Y17252D01*
X297558Y17308D01*
X297897Y17327D01*
X298028D01*
X298197Y17308D01*
D02*
G37*
G36*
X384321D02*
X384509Y17289D01*
X384715Y17270D01*
X384941Y17252D01*
X385411Y17177D01*
X385881Y17064D01*
X386332Y16895D01*
X386539Y16801D01*
X386727Y16688D01*
X386745D01*
X386764Y16650D01*
X386877Y16575D01*
X387046Y16425D01*
X387234Y16218D01*
X387460Y15974D01*
X387667Y15654D01*
X387873Y15278D01*
X388024Y14846D01*
X385674Y14413D01*
Y14432D01*
X385636Y14507D01*
X385599Y14601D01*
X385542Y14714D01*
X385467Y14865D01*
X385355Y14996D01*
X385242Y15128D01*
X385091Y15240D01*
X385073Y15259D01*
X385016Y15297D01*
X384922Y15335D01*
X384791Y15391D01*
X384622Y15447D01*
X384415Y15504D01*
X384170Y15522D01*
X383889Y15541D01*
X383719D01*
X383550Y15522D01*
X383343Y15504D01*
X383099Y15466D01*
X382873Y15429D01*
X382667Y15353D01*
X382479Y15259D01*
X382460D01*
X382441Y15222D01*
X382347Y15128D01*
X382234Y14959D01*
X382216Y14865D01*
X382197Y14752D01*
Y14733D01*
Y14714D01*
X382234Y14601D01*
X382310Y14451D01*
X382366Y14376D01*
X382441Y14301D01*
X382460Y14282D01*
X382535Y14263D01*
X382573Y14225D01*
X382648Y14207D01*
X382742Y14169D01*
X382855Y14113D01*
X383005Y14075D01*
X383155Y14019D01*
X383343Y13962D01*
X383569Y13906D01*
X383813Y13831D01*
X384095Y13756D01*
X384415Y13680D01*
X384772Y13586D01*
X384791D01*
X384866Y13568D01*
X384960Y13549D01*
X385091Y13511D01*
X385261Y13455D01*
X385449Y13417D01*
X385862Y13286D01*
X386332Y13117D01*
X386783Y12929D01*
X387009Y12816D01*
X387215Y12722D01*
X387384Y12590D01*
X387554Y12478D01*
X387591Y12440D01*
X387685Y12365D01*
X387798Y12214D01*
X387948Y12008D01*
X388099Y11745D01*
X388212Y11425D01*
X388306Y11049D01*
X388343Y10635D01*
Y10617D01*
Y10579D01*
Y10504D01*
X388324Y10410D01*
X388306Y10316D01*
X388287Y10184D01*
X388212Y9865D01*
X388080Y9527D01*
X387986Y9339D01*
X387892Y9151D01*
X387761Y8963D01*
X387610Y8775D01*
X387441Y8587D01*
X387253Y8399D01*
X387234Y8380D01*
X387197Y8361D01*
X387140Y8324D01*
X387046Y8248D01*
X386933Y8192D01*
X386802Y8117D01*
X386633Y8023D01*
X386445Y7948D01*
X386238Y7854D01*
X385994Y7778D01*
X385731Y7685D01*
X385449Y7628D01*
X385129Y7572D01*
X384791Y7515D01*
X384434Y7497D01*
X384058Y7478D01*
X383870D01*
X383738Y7497D01*
X383569D01*
X383381Y7515D01*
X383174Y7534D01*
X382949Y7572D01*
X382460Y7666D01*
X381953Y7797D01*
X381445Y7985D01*
X381219Y8117D01*
X380994Y8248D01*
X380975Y8267D01*
X380938Y8286D01*
X380881Y8324D01*
X380825Y8399D01*
X380618Y8568D01*
X380392Y8812D01*
X380148Y9113D01*
X379922Y9470D01*
X379716Y9902D01*
X379547Y10372D01*
X382047Y10748D01*
Y10711D01*
X382084Y10635D01*
X382122Y10504D01*
X382178Y10335D01*
X382272Y10147D01*
X382385Y9978D01*
X382516Y9790D01*
X382686Y9639D01*
X382704Y9621D01*
X382780Y9583D01*
X382892Y9527D01*
X383043Y9470D01*
X383231Y9395D01*
X383475Y9339D01*
X383738Y9301D01*
X384058Y9282D01*
X384208D01*
X384396Y9301D01*
X384603Y9320D01*
X384828Y9357D01*
X385073Y9433D01*
X385298Y9508D01*
X385505Y9621D01*
X385524Y9639D01*
X385561Y9677D01*
X385618Y9733D01*
X385674Y9808D01*
X385731Y9902D01*
X385787Y10015D01*
X385825Y10147D01*
X385843Y10297D01*
Y10316D01*
Y10353D01*
X385825Y10466D01*
X385768Y10617D01*
X385655Y10767D01*
X385618Y10805D01*
X385561Y10823D01*
X385486Y10880D01*
X385373Y10917D01*
X385223Y10974D01*
X385054Y11030D01*
X384828Y11087D01*
X384791D01*
X384697Y11124D01*
X384546Y11162D01*
X384340Y11199D01*
X384095Y11256D01*
X383832Y11331D01*
X383531Y11406D01*
X383212Y11500D01*
X382554Y11688D01*
X382234Y11782D01*
X381934Y11895D01*
X381652Y11989D01*
X381389Y12102D01*
X381163Y12214D01*
X380994Y12308D01*
X380975Y12327D01*
X380938Y12346D01*
X380900Y12384D01*
X380825Y12459D01*
X380637Y12628D01*
X380449Y12872D01*
X380242Y13173D01*
X380054Y13530D01*
X379979Y13737D01*
X379941Y13962D01*
X379904Y14188D01*
X379885Y14432D01*
Y14451D01*
Y14489D01*
Y14545D01*
X379904Y14639D01*
X379922Y14733D01*
X379941Y14865D01*
X379998Y15146D01*
X380111Y15466D01*
X380299Y15804D01*
X380392Y15992D01*
X380524Y16162D01*
X380674Y16331D01*
X380844Y16481D01*
X380862Y16500D01*
X380881Y16519D01*
X380938Y16556D01*
X381031Y16613D01*
X381125Y16669D01*
X381257Y16744D01*
X381407Y16819D01*
X381577Y16913D01*
X381783Y16989D01*
X382009Y17064D01*
X382253Y17139D01*
X382516Y17195D01*
X382817Y17252D01*
X383137Y17289D01*
X383475Y17327D01*
X384170D01*
X384321Y17308D01*
D02*
G37*
G36*
X419958Y7685D02*
X417120D01*
X412458Y20691D01*
X415297D01*
X418605Y11068D01*
X421781Y20691D01*
X424582D01*
X419958Y7685D01*
D02*
G37*
G36*
X269722D02*
X267410D01*
Y9094D01*
X267391Y9057D01*
X267316Y8963D01*
X267203Y8831D01*
X267034Y8662D01*
X266846Y8455D01*
X266601Y8267D01*
X266338Y8060D01*
X266038Y7891D01*
X266000Y7872D01*
X265887Y7835D01*
X265718Y7760D01*
X265492Y7685D01*
X265229Y7609D01*
X264929Y7534D01*
X264609Y7497D01*
X264271Y7478D01*
X264102D01*
X263932Y7497D01*
X263707Y7534D01*
X263425Y7572D01*
X263143Y7647D01*
X262842Y7760D01*
X262560Y7891D01*
X262523Y7910D01*
X262447Y7966D01*
X262297Y8060D01*
X262147Y8192D01*
X261959Y8361D01*
X261790Y8549D01*
X261621Y8794D01*
X261470Y9057D01*
X261451Y9094D01*
X261414Y9188D01*
X261357Y9357D01*
X261301Y9602D01*
X261245Y9902D01*
X261188Y10260D01*
X261151Y10673D01*
X261132Y11143D01*
Y17120D01*
X263632D01*
Y12778D01*
Y12759D01*
Y12684D01*
Y12590D01*
Y12459D01*
Y12308D01*
Y12139D01*
X263650Y11745D01*
X263669Y11312D01*
X263688Y10917D01*
X263707Y10748D01*
X263726Y10579D01*
X263745Y10447D01*
X263763Y10353D01*
Y10335D01*
X263782Y10278D01*
X263820Y10203D01*
X263876Y10090D01*
X263932Y9978D01*
X264026Y9865D01*
X264120Y9752D01*
X264252Y9639D01*
X264271Y9621D01*
X264327Y9602D01*
X264402Y9564D01*
X264515Y9527D01*
X264647Y9470D01*
X264816Y9433D01*
X264985Y9414D01*
X265192Y9395D01*
X265305D01*
X265417Y9414D01*
X265568Y9433D01*
X265756Y9470D01*
X265944Y9545D01*
X266150Y9621D01*
X266338Y9733D01*
X266357Y9752D01*
X266413Y9790D01*
X266507Y9865D01*
X266620Y9978D01*
X266733Y10109D01*
X266846Y10241D01*
X266959Y10410D01*
X267034Y10598D01*
Y10617D01*
X267071Y10711D01*
Y10786D01*
X267090Y10880D01*
X267109Y10974D01*
X267128Y11105D01*
X267146Y11275D01*
X267165Y11444D01*
X267184Y11651D01*
Y11895D01*
X267203Y12158D01*
X267222Y12459D01*
Y12778D01*
Y13135D01*
Y17120D01*
X269722D01*
Y7685D01*
D02*
G37*
G36*
X446893D02*
X444393D01*
Y17101D01*
X444374Y17083D01*
X444336Y17045D01*
X444261Y16989D01*
X444148Y16895D01*
X444017Y16782D01*
X443867Y16669D01*
X443679Y16537D01*
X443472Y16387D01*
X443246Y16237D01*
X443002Y16086D01*
X442739Y15917D01*
X442457Y15767D01*
X441855Y15485D01*
X441179Y15222D01*
Y17477D01*
X441198D01*
X441216Y17496D01*
X441273Y17515D01*
X441348Y17534D01*
X441536Y17628D01*
X441799Y17740D01*
X442118Y17891D01*
X442476Y18097D01*
X442870Y18361D01*
X443284Y18661D01*
X443303Y18680D01*
X443340Y18699D01*
X443397Y18755D01*
X443472Y18830D01*
X443679Y19018D01*
X443904Y19263D01*
X444167Y19564D01*
X444430Y19940D01*
X444675Y20334D01*
X444863Y20766D01*
X446893D01*
Y7685D01*
D02*
G37*
G36*
X438491D02*
X435991D01*
Y10184D01*
X438491D01*
Y7685D01*
D02*
G37*
G36*
X431724D02*
X429224D01*
Y17101D01*
X429206Y17083D01*
X429168Y17045D01*
X429093Y16989D01*
X428980Y16895D01*
X428848Y16782D01*
X428698Y16669D01*
X428510Y16537D01*
X428303Y16387D01*
X428078Y16237D01*
X427834Y16086D01*
X427570Y15917D01*
X427289Y15767D01*
X426687Y15485D01*
X426010Y15222D01*
Y17477D01*
X426029D01*
X426048Y17496D01*
X426104Y17515D01*
X426180Y17534D01*
X426367Y17628D01*
X426631Y17740D01*
X426950Y17891D01*
X427307Y18097D01*
X427702Y18361D01*
X428116Y18661D01*
X428134Y18680D01*
X428172Y18699D01*
X428228Y18755D01*
X428303Y18830D01*
X428510Y19018D01*
X428736Y19263D01*
X428999Y19564D01*
X429262Y19940D01*
X429506Y20334D01*
X429694Y20766D01*
X431724D01*
Y7685D01*
D02*
G37*
G36*
X314757Y20673D02*
X315133Y20654D01*
X315509Y20635D01*
X315866Y20597D01*
X316185Y20560D01*
X316223D01*
X316317Y20541D01*
X316448Y20503D01*
X316636Y20447D01*
X316843Y20372D01*
X317069Y20278D01*
X317313Y20165D01*
X317539Y20015D01*
X317557Y19996D01*
X317633Y19940D01*
X317745Y19845D01*
X317896Y19733D01*
X318046Y19564D01*
X318215Y19376D01*
X318384Y19169D01*
X318535Y18924D01*
X318554Y18887D01*
X318591Y18812D01*
X318666Y18661D01*
X318742Y18473D01*
X318817Y18248D01*
X318892Y18003D01*
X318930Y17703D01*
X318948Y17402D01*
Y17383D01*
Y17364D01*
Y17252D01*
X318930Y17083D01*
X318892Y16857D01*
X318817Y16594D01*
X318742Y16312D01*
X318610Y16030D01*
X318441Y15729D01*
X318422Y15692D01*
X318347Y15598D01*
X318234Y15466D01*
X318102Y15297D01*
X317915Y15128D01*
X317689Y14921D01*
X317426Y14752D01*
X317125Y14583D01*
X317144D01*
X317181Y14564D01*
X317238Y14545D01*
X317313Y14526D01*
X317539Y14432D01*
X317802Y14301D01*
X318084Y14150D01*
X318403Y13944D01*
X318685Y13699D01*
X318948Y13398D01*
X318967Y13361D01*
X319042Y13248D01*
X319155Y13079D01*
X319268Y12853D01*
X319381Y12553D01*
X319493Y12233D01*
X319569Y11857D01*
X319587Y11444D01*
Y11425D01*
Y11406D01*
Y11293D01*
X319569Y11124D01*
X319531Y10899D01*
X319493Y10635D01*
X319418Y10335D01*
X319305Y10034D01*
X319174Y9714D01*
X319155Y9677D01*
X319099Y9583D01*
X319005Y9433D01*
X318873Y9245D01*
X318723Y9019D01*
X318516Y8812D01*
X318309Y8587D01*
X318046Y8380D01*
X318008Y8361D01*
X317915Y8305D01*
X317764Y8211D01*
X317557Y8117D01*
X317294Y8004D01*
X316994Y7910D01*
X316655Y7816D01*
X316279Y7760D01*
X316204D01*
X316129Y7741D01*
X315941D01*
X315809Y7722D01*
X315452D01*
X315227Y7703D01*
X314663D01*
X314343Y7685D01*
X308704D01*
Y20691D01*
X314419D01*
X314757Y20673D01*
D02*
G37*
G36*
X395166Y17308D02*
X395354Y17289D01*
X395561Y17252D01*
X395805Y17214D01*
X396049Y17158D01*
X396331Y17083D01*
X396613Y16989D01*
X396895Y16876D01*
X397196Y16744D01*
X397497Y16575D01*
X397779Y16387D01*
X398061Y16180D01*
X398324Y15936D01*
X398343Y15917D01*
X398380Y15880D01*
X398455Y15786D01*
X398531Y15692D01*
X398643Y15541D01*
X398756Y15391D01*
X398888Y15184D01*
X399019Y14977D01*
X399132Y14733D01*
X399264Y14470D01*
X399376Y14169D01*
X399489Y13868D01*
X399564Y13530D01*
X399640Y13192D01*
X399677Y12816D01*
X399696Y12421D01*
Y12402D01*
Y12327D01*
Y12214D01*
X399677Y12064D01*
X399658Y11876D01*
X399621Y11669D01*
X399583Y11425D01*
X399527Y11181D01*
X399452Y10899D01*
X399358Y10617D01*
X399245Y10316D01*
X399113Y10015D01*
X398944Y9714D01*
X398756Y9433D01*
X398549Y9151D01*
X398305Y8869D01*
X398286Y8850D01*
X398249Y8812D01*
X398173Y8737D01*
X398061Y8643D01*
X397929Y8549D01*
X397760Y8436D01*
X397572Y8305D01*
X397365Y8173D01*
X397121Y8042D01*
X396858Y7910D01*
X396576Y7797D01*
X396256Y7703D01*
X395937Y7609D01*
X395580Y7534D01*
X395223Y7497D01*
X394828Y7478D01*
X394696D01*
X394602Y7497D01*
X394489D01*
X394358Y7515D01*
X394038Y7553D01*
X393644Y7628D01*
X393230Y7722D01*
X392798Y7872D01*
X392347Y8060D01*
X392328D01*
X392290Y8079D01*
X392234Y8117D01*
X392159Y8173D01*
X391952Y8305D01*
X391689Y8493D01*
X391407Y8737D01*
X391106Y9038D01*
X390824Y9376D01*
X390561Y9771D01*
Y9790D01*
X390542Y9827D01*
X390505Y9884D01*
X390467Y9978D01*
X390429Y10090D01*
X390373Y10222D01*
X390317Y10372D01*
X390260Y10541D01*
X390204Y10730D01*
X390148Y10936D01*
X390054Y11406D01*
X389978Y11951D01*
X389960Y12534D01*
Y12553D01*
Y12590D01*
Y12665D01*
X389978Y12741D01*
Y12853D01*
X389997Y12985D01*
X390035Y13305D01*
X390110Y13662D01*
X390223Y14056D01*
X390354Y14489D01*
X390561Y14921D01*
Y14940D01*
X390599Y14977D01*
X390617Y15034D01*
X390674Y15109D01*
X390824Y15316D01*
X391012Y15579D01*
X391256Y15861D01*
X391557Y16162D01*
X391896Y16444D01*
X392290Y16707D01*
X392309D01*
X392347Y16725D01*
X392403Y16763D01*
X392497Y16801D01*
X392591Y16857D01*
X392723Y16895D01*
X392873Y16951D01*
X393023Y17026D01*
X393399Y17139D01*
X393832Y17233D01*
X394301Y17308D01*
X394809Y17327D01*
X395016D01*
X395166Y17308D01*
D02*
G37*
G36*
X363138D02*
X363307Y17289D01*
X363514Y17252D01*
X363739Y17214D01*
X363983Y17158D01*
X364247Y17083D01*
X364510Y16989D01*
X364792Y16876D01*
X365074Y16725D01*
X365337Y16575D01*
X365600Y16387D01*
X365863Y16162D01*
X366089Y15917D01*
X366107Y15898D01*
X366145Y15861D01*
X366202Y15767D01*
X366277Y15654D01*
X366371Y15504D01*
X366465Y15335D01*
X366577Y15109D01*
X366690Y14865D01*
X366803Y14583D01*
X366916Y14263D01*
X367010Y13925D01*
X367104Y13530D01*
X367179Y13117D01*
X367235Y12665D01*
X367273Y12196D01*
Y11669D01*
X361033D01*
Y11651D01*
Y11613D01*
Y11557D01*
X361051Y11481D01*
X361070Y11293D01*
X361108Y11030D01*
X361183Y10767D01*
X361296Y10466D01*
X361427Y10184D01*
X361615Y9940D01*
X361634Y9921D01*
X361728Y9846D01*
X361841Y9752D01*
X362010Y9639D01*
X362217Y9527D01*
X362480Y9433D01*
X362762Y9357D01*
X363063Y9339D01*
X363157D01*
X363269Y9357D01*
X363401Y9376D01*
X363551Y9414D01*
X363720Y9470D01*
X363890Y9545D01*
X364040Y9658D01*
X364059Y9677D01*
X364115Y9714D01*
X364190Y9790D01*
X364266Y9902D01*
X364378Y10053D01*
X364472Y10222D01*
X364566Y10447D01*
X364660Y10692D01*
X367141Y10278D01*
Y10260D01*
X367122Y10222D01*
X367085Y10147D01*
X367047Y10053D01*
X366991Y9940D01*
X366935Y9808D01*
X366765Y9508D01*
X366559Y9169D01*
X366295Y8812D01*
X365976Y8493D01*
X365619Y8192D01*
X365600D01*
X365581Y8154D01*
X365506Y8136D01*
X365431Y8079D01*
X365337Y8023D01*
X365205Y7966D01*
X365074Y7910D01*
X364905Y7835D01*
X364529Y7703D01*
X364096Y7591D01*
X363589Y7515D01*
X363044Y7478D01*
X362931D01*
X362818Y7497D01*
X362649D01*
X362442Y7534D01*
X362198Y7572D01*
X361935Y7609D01*
X361672Y7685D01*
X361371Y7760D01*
X361070Y7872D01*
X360769Y8004D01*
X360469Y8154D01*
X360168Y8342D01*
X359886Y8549D01*
X359642Y8794D01*
X359397Y9075D01*
X359379Y9094D01*
X359360Y9132D01*
X359322Y9207D01*
X359247Y9301D01*
X359190Y9433D01*
X359115Y9583D01*
X359021Y9752D01*
X358946Y9959D01*
X358852Y10184D01*
X358777Y10429D01*
X358683Y10692D01*
X358627Y10993D01*
X358570Y11293D01*
X358514Y11613D01*
X358495Y11970D01*
X358476Y12327D01*
Y12346D01*
Y12421D01*
Y12553D01*
X358495Y12722D01*
X358514Y12910D01*
X358533Y13135D01*
X358570Y13380D01*
X358627Y13662D01*
X358777Y14244D01*
X358871Y14545D01*
X358984Y14865D01*
X359134Y15165D01*
X359303Y15447D01*
X359491Y15729D01*
X359698Y15992D01*
X359717Y16011D01*
X359754Y16049D01*
X359830Y16124D01*
X359924Y16199D01*
X360036Y16293D01*
X360187Y16406D01*
X360356Y16537D01*
X360544Y16669D01*
X360751Y16782D01*
X360995Y16913D01*
X361239Y17026D01*
X361521Y17120D01*
X361803Y17195D01*
X362123Y17270D01*
X362442Y17308D01*
X362781Y17327D01*
X362987D01*
X363138Y17308D01*
D02*
G37*
G36*
X335846D02*
X336015Y17289D01*
X336222Y17252D01*
X336447Y17214D01*
X336692Y17158D01*
X336955Y17083D01*
X337218Y16989D01*
X337500Y16876D01*
X337782Y16725D01*
X338045Y16575D01*
X338308Y16387D01*
X338571Y16162D01*
X338797Y15917D01*
X338816Y15898D01*
X338853Y15861D01*
X338910Y15767D01*
X338985Y15654D01*
X339079Y15504D01*
X339173Y15335D01*
X339286Y15109D01*
X339398Y14865D01*
X339511Y14583D01*
X339624Y14263D01*
X339718Y13925D01*
X339812Y13530D01*
X339887Y13117D01*
X339943Y12665D01*
X339981Y12196D01*
Y11669D01*
X333741D01*
Y11651D01*
Y11613D01*
Y11557D01*
X333760Y11481D01*
X333778Y11293D01*
X333816Y11030D01*
X333891Y10767D01*
X334004Y10466D01*
X334136Y10184D01*
X334323Y9940D01*
X334342Y9921D01*
X334436Y9846D01*
X334549Y9752D01*
X334718Y9639D01*
X334925Y9527D01*
X335188Y9433D01*
X335470Y9357D01*
X335771Y9339D01*
X335865D01*
X335978Y9357D01*
X336109Y9376D01*
X336259Y9414D01*
X336429Y9470D01*
X336598Y9545D01*
X336748Y9658D01*
X336767Y9677D01*
X336823Y9714D01*
X336898Y9790D01*
X336974Y9902D01*
X337086Y10053D01*
X337180Y10222D01*
X337274Y10447D01*
X337368Y10692D01*
X339850Y10278D01*
Y10260D01*
X339831Y10222D01*
X339793Y10147D01*
X339756Y10053D01*
X339699Y9940D01*
X339643Y9808D01*
X339473Y9508D01*
X339267Y9169D01*
X339004Y8812D01*
X338684Y8493D01*
X338327Y8192D01*
X338308D01*
X338289Y8154D01*
X338214Y8136D01*
X338139Y8079D01*
X338045Y8023D01*
X337914Y7966D01*
X337782Y7910D01*
X337613Y7835D01*
X337237Y7703D01*
X336805Y7591D01*
X336297Y7515D01*
X335752Y7478D01*
X335639D01*
X335526Y7497D01*
X335357D01*
X335150Y7534D01*
X334906Y7572D01*
X334643Y7609D01*
X334380Y7685D01*
X334079Y7760D01*
X333778Y7872D01*
X333478Y8004D01*
X333177Y8154D01*
X332876Y8342D01*
X332594Y8549D01*
X332350Y8794D01*
X332105Y9075D01*
X332087Y9094D01*
X332068Y9132D01*
X332030Y9207D01*
X331955Y9301D01*
X331899Y9433D01*
X331824Y9583D01*
X331730Y9752D01*
X331654Y9959D01*
X331560Y10184D01*
X331485Y10429D01*
X331391Y10692D01*
X331335Y10993D01*
X331278Y11293D01*
X331222Y11613D01*
X331203Y11970D01*
X331185Y12327D01*
Y12346D01*
Y12421D01*
Y12553D01*
X331203Y12722D01*
X331222Y12910D01*
X331241Y13135D01*
X331278Y13380D01*
X331335Y13662D01*
X331485Y14244D01*
X331579Y14545D01*
X331692Y14865D01*
X331842Y15165D01*
X332011Y15447D01*
X332200Y15729D01*
X332406Y15992D01*
X332425Y16011D01*
X332463Y16049D01*
X332538Y16124D01*
X332632Y16199D01*
X332745Y16293D01*
X332895Y16406D01*
X333064Y16537D01*
X333252Y16669D01*
X333459Y16782D01*
X333703Y16913D01*
X333947Y17026D01*
X334230Y17120D01*
X334511Y17195D01*
X334831Y17270D01*
X335150Y17308D01*
X335489Y17327D01*
X335695D01*
X335846Y17308D01*
D02*
G37*
G36*
X325734D02*
X325903Y17289D01*
X326110Y17252D01*
X326335Y17214D01*
X326580Y17158D01*
X326843Y17083D01*
X327106Y16989D01*
X327388Y16876D01*
X327670Y16725D01*
X327933Y16575D01*
X328196Y16387D01*
X328459Y16162D01*
X328685Y15917D01*
X328703Y15898D01*
X328741Y15861D01*
X328797Y15767D01*
X328873Y15654D01*
X328967Y15504D01*
X329061Y15335D01*
X329173Y15109D01*
X329286Y14865D01*
X329399Y14583D01*
X329512Y14263D01*
X329606Y13925D01*
X329700Y13530D01*
X329775Y13117D01*
X329831Y12665D01*
X329869Y12196D01*
Y11669D01*
X323629D01*
Y11651D01*
Y11613D01*
Y11557D01*
X323647Y11481D01*
X323666Y11293D01*
X323704Y11030D01*
X323779Y10767D01*
X323892Y10466D01*
X324023Y10184D01*
X324211Y9940D01*
X324230Y9921D01*
X324324Y9846D01*
X324437Y9752D01*
X324606Y9639D01*
X324813Y9527D01*
X325076Y9433D01*
X325358Y9357D01*
X325658Y9339D01*
X325752D01*
X325865Y9357D01*
X325997Y9376D01*
X326147Y9414D01*
X326316Y9470D01*
X326485Y9545D01*
X326636Y9658D01*
X326655Y9677D01*
X326711Y9714D01*
X326786Y9790D01*
X326861Y9902D01*
X326974Y10053D01*
X327068Y10222D01*
X327162Y10447D01*
X327256Y10692D01*
X329737Y10278D01*
Y10260D01*
X329718Y10222D01*
X329681Y10147D01*
X329643Y10053D01*
X329587Y9940D01*
X329530Y9808D01*
X329361Y9508D01*
X329155Y9169D01*
X328891Y8812D01*
X328572Y8493D01*
X328215Y8192D01*
X328196D01*
X328177Y8154D01*
X328102Y8136D01*
X328027Y8079D01*
X327933Y8023D01*
X327801Y7966D01*
X327670Y7910D01*
X327500Y7835D01*
X327125Y7703D01*
X326692Y7591D01*
X326185Y7515D01*
X325640Y7478D01*
X325527D01*
X325414Y7497D01*
X325245D01*
X325038Y7534D01*
X324794Y7572D01*
X324531Y7609D01*
X324268Y7685D01*
X323967Y7760D01*
X323666Y7872D01*
X323365Y8004D01*
X323065Y8154D01*
X322764Y8342D01*
X322482Y8549D01*
X322238Y8794D01*
X321993Y9075D01*
X321974Y9094D01*
X321956Y9132D01*
X321918Y9207D01*
X321843Y9301D01*
X321786Y9433D01*
X321711Y9583D01*
X321617Y9752D01*
X321542Y9959D01*
X321448Y10184D01*
X321373Y10429D01*
X321279Y10692D01*
X321223Y10993D01*
X321166Y11293D01*
X321110Y11613D01*
X321091Y11970D01*
X321072Y12327D01*
Y12346D01*
Y12421D01*
Y12553D01*
X321091Y12722D01*
X321110Y12910D01*
X321129Y13135D01*
X321166Y13380D01*
X321223Y13662D01*
X321373Y14244D01*
X321467Y14545D01*
X321580Y14865D01*
X321730Y15165D01*
X321899Y15447D01*
X322087Y15729D01*
X322294Y15992D01*
X322313Y16011D01*
X322350Y16049D01*
X322426Y16124D01*
X322519Y16199D01*
X322632Y16293D01*
X322783Y16406D01*
X322952Y16537D01*
X323140Y16669D01*
X323347Y16782D01*
X323591Y16913D01*
X323835Y17026D01*
X324117Y17120D01*
X324399Y17195D01*
X324719Y17270D01*
X325038Y17308D01*
X325377Y17327D01*
X325583D01*
X325734Y17308D01*
D02*
G37*
G36*
X286337D02*
X286506Y17289D01*
X286713Y17252D01*
X286939Y17214D01*
X287183Y17158D01*
X287446Y17083D01*
X287709Y16989D01*
X287991Y16876D01*
X288273Y16725D01*
X288536Y16575D01*
X288799Y16387D01*
X289063Y16162D01*
X289288Y15917D01*
X289307Y15898D01*
X289345Y15861D01*
X289401Y15767D01*
X289476Y15654D01*
X289570Y15504D01*
X289664Y15335D01*
X289777Y15109D01*
X289890Y14865D01*
X290002Y14583D01*
X290115Y14263D01*
X290209Y13925D01*
X290303Y13530D01*
X290378Y13117D01*
X290435Y12665D01*
X290472Y12196D01*
Y11669D01*
X284232D01*
Y11651D01*
Y11613D01*
Y11557D01*
X284251Y11481D01*
X284270Y11293D01*
X284307Y11030D01*
X284382Y10767D01*
X284495Y10466D01*
X284627Y10184D01*
X284815Y9940D01*
X284834Y9921D01*
X284928Y9846D01*
X285040Y9752D01*
X285210Y9639D01*
X285416Y9527D01*
X285679Y9433D01*
X285961Y9357D01*
X286262Y9339D01*
X286356D01*
X286469Y9357D01*
X286600Y9376D01*
X286751Y9414D01*
X286920Y9470D01*
X287089Y9545D01*
X287239Y9658D01*
X287258Y9677D01*
X287315Y9714D01*
X287390Y9790D01*
X287465Y9902D01*
X287578Y10053D01*
X287672Y10222D01*
X287766Y10447D01*
X287860Y10692D01*
X290341Y10278D01*
Y10260D01*
X290322Y10222D01*
X290284Y10147D01*
X290247Y10053D01*
X290190Y9940D01*
X290134Y9808D01*
X289965Y9508D01*
X289758Y9169D01*
X289495Y8812D01*
X289175Y8493D01*
X288818Y8192D01*
X288799D01*
X288781Y8154D01*
X288706Y8136D01*
X288630Y8079D01*
X288536Y8023D01*
X288405Y7966D01*
X288273Y7910D01*
X288104Y7835D01*
X287728Y7703D01*
X287296Y7591D01*
X286788Y7515D01*
X286243Y7478D01*
X286131D01*
X286018Y7497D01*
X285849D01*
X285642Y7534D01*
X285397Y7572D01*
X285134Y7609D01*
X284871Y7685D01*
X284570Y7760D01*
X284270Y7872D01*
X283969Y8004D01*
X283668Y8154D01*
X283368Y8342D01*
X283085Y8549D01*
X282841Y8794D01*
X282597Y9075D01*
X282578Y9094D01*
X282559Y9132D01*
X282522Y9207D01*
X282446Y9301D01*
X282390Y9433D01*
X282315Y9583D01*
X282221Y9752D01*
X282146Y9959D01*
X282052Y10184D01*
X281977Y10429D01*
X281883Y10692D01*
X281826Y10993D01*
X281770Y11293D01*
X281713Y11613D01*
X281695Y11970D01*
X281676Y12327D01*
Y12346D01*
Y12421D01*
Y12553D01*
X281695Y12722D01*
X281713Y12910D01*
X281732Y13135D01*
X281770Y13380D01*
X281826Y13662D01*
X281977Y14244D01*
X282071Y14545D01*
X282183Y14865D01*
X282334Y15165D01*
X282503Y15447D01*
X282691Y15729D01*
X282898Y15992D01*
X282916Y16011D01*
X282954Y16049D01*
X283029Y16124D01*
X283123Y16199D01*
X283236Y16293D01*
X283386Y16406D01*
X283555Y16537D01*
X283743Y16669D01*
X283950Y16782D01*
X284195Y16913D01*
X284439Y17026D01*
X284721Y17120D01*
X285003Y17195D01*
X285322Y17270D01*
X285642Y17308D01*
X285980Y17327D01*
X286187D01*
X286337Y17308D01*
D02*
G37*
G36*
X276225D02*
X276394Y17289D01*
X276601Y17252D01*
X276826Y17214D01*
X277071Y17158D01*
X277334Y17083D01*
X277597Y16989D01*
X277879Y16876D01*
X278161Y16725D01*
X278424Y16575D01*
X278687Y16387D01*
X278950Y16162D01*
X279176Y15917D01*
X279195Y15898D01*
X279232Y15861D01*
X279289Y15767D01*
X279364Y15654D01*
X279458Y15504D01*
X279552Y15335D01*
X279665Y15109D01*
X279777Y14865D01*
X279890Y14583D01*
X280003Y14263D01*
X280097Y13925D01*
X280191Y13530D01*
X280266Y13117D01*
X280322Y12665D01*
X280360Y12196D01*
Y11669D01*
X274120D01*
Y11651D01*
Y11613D01*
Y11557D01*
X274139Y11481D01*
X274157Y11293D01*
X274195Y11030D01*
X274270Y10767D01*
X274383Y10466D01*
X274515Y10184D01*
X274702Y9940D01*
X274721Y9921D01*
X274815Y9846D01*
X274928Y9752D01*
X275097Y9639D01*
X275304Y9527D01*
X275567Y9433D01*
X275849Y9357D01*
X276150Y9339D01*
X276244D01*
X276357Y9357D01*
X276488Y9376D01*
X276639Y9414D01*
X276808Y9470D01*
X276977Y9545D01*
X277127Y9658D01*
X277146Y9677D01*
X277202Y9714D01*
X277278Y9790D01*
X277353Y9902D01*
X277465Y10053D01*
X277560Y10222D01*
X277654Y10447D01*
X277747Y10692D01*
X280229Y10278D01*
Y10260D01*
X280210Y10222D01*
X280172Y10147D01*
X280135Y10053D01*
X280078Y9940D01*
X280022Y9808D01*
X279853Y9508D01*
X279646Y9169D01*
X279383Y8812D01*
X279063Y8493D01*
X278706Y8192D01*
X278687D01*
X278668Y8154D01*
X278593Y8136D01*
X278518Y8079D01*
X278424Y8023D01*
X278293Y7966D01*
X278161Y7910D01*
X277992Y7835D01*
X277616Y7703D01*
X277184Y7591D01*
X276676Y7515D01*
X276131Y7478D01*
X276018D01*
X275905Y7497D01*
X275736D01*
X275529Y7534D01*
X275285Y7572D01*
X275022Y7609D01*
X274759Y7685D01*
X274458Y7760D01*
X274157Y7872D01*
X273857Y8004D01*
X273556Y8154D01*
X273255Y8342D01*
X272973Y8549D01*
X272729Y8794D01*
X272485Y9075D01*
X272466Y9094D01*
X272447Y9132D01*
X272409Y9207D01*
X272334Y9301D01*
X272278Y9433D01*
X272203Y9583D01*
X272109Y9752D01*
X272034Y9959D01*
X271940Y10184D01*
X271864Y10429D01*
X271770Y10692D01*
X271714Y10993D01*
X271658Y11293D01*
X271601Y11613D01*
X271582Y11970D01*
X271564Y12327D01*
Y12346D01*
Y12421D01*
Y12553D01*
X271582Y12722D01*
X271601Y12910D01*
X271620Y13135D01*
X271658Y13380D01*
X271714Y13662D01*
X271864Y14244D01*
X271958Y14545D01*
X272071Y14865D01*
X272222Y15165D01*
X272391Y15447D01*
X272579Y15729D01*
X272785Y15992D01*
X272804Y16011D01*
X272842Y16049D01*
X272917Y16124D01*
X273011Y16199D01*
X273124Y16293D01*
X273274Y16406D01*
X273443Y16537D01*
X273631Y16669D01*
X273838Y16782D01*
X274082Y16913D01*
X274327Y17026D01*
X274608Y17120D01*
X274890Y17195D01*
X275210Y17270D01*
X275529Y17308D01*
X275868Y17327D01*
X276075D01*
X276225Y17308D01*
D02*
G37*
G36*
X253125Y20917D02*
X253332D01*
X253557Y20879D01*
X253858Y20842D01*
X254158Y20785D01*
X254497Y20710D01*
X254854Y20616D01*
X255230Y20503D01*
X255625Y20353D01*
X256000Y20184D01*
X256376Y19977D01*
X256752Y19733D01*
X257091Y19470D01*
X257429Y19150D01*
X257448Y19131D01*
X257504Y19075D01*
X257579Y18962D01*
X257692Y18830D01*
X257824Y18643D01*
X257974Y18417D01*
X258125Y18173D01*
X258294Y17872D01*
X258444Y17534D01*
X258594Y17158D01*
X258745Y16763D01*
X258876Y16312D01*
X258989Y15842D01*
X259064Y15316D01*
X259121Y14771D01*
X259139Y14188D01*
Y14169D01*
Y14113D01*
Y14019D01*
Y13906D01*
X259121Y13756D01*
Y13586D01*
X259102Y13398D01*
X259083Y13192D01*
X259027Y12722D01*
X258933Y12214D01*
X258820Y11707D01*
X258651Y11218D01*
Y11199D01*
X258632Y11181D01*
X258613Y11124D01*
X258576Y11049D01*
X258500Y10861D01*
X258369Y10617D01*
X258218Y10335D01*
X258030Y9996D01*
X257786Y9658D01*
X257523Y9320D01*
X257542D01*
X257561Y9282D01*
X257617Y9245D01*
X257692Y9207D01*
X257880Y9075D01*
X258143Y8925D01*
X258463Y8756D01*
X258820Y8568D01*
X259215Y8399D01*
X259628Y8230D01*
X258651Y6350D01*
X258632D01*
X258557Y6388D01*
X258425Y6425D01*
X258275Y6482D01*
X258106Y6557D01*
X257899Y6651D01*
X257485Y6858D01*
X257448Y6876D01*
X257373Y6933D01*
X257297Y6970D01*
X257222Y7027D01*
X257128Y7083D01*
X257015Y7158D01*
X256865Y7252D01*
X256696Y7365D01*
X256508Y7478D01*
X256282Y7628D01*
X256019Y7797D01*
X255737Y7985D01*
X255719D01*
X255681Y7966D01*
X255606Y7929D01*
X255512Y7910D01*
X255399Y7854D01*
X255249Y7816D01*
X255098Y7760D01*
X254910Y7722D01*
X254497Y7609D01*
X254008Y7534D01*
X253482Y7459D01*
X252918Y7440D01*
X252786D01*
X252636Y7459D01*
X252429Y7478D01*
X252166Y7497D01*
X251884Y7534D01*
X251546Y7591D01*
X251208Y7666D01*
X250832Y7760D01*
X250456Y7872D01*
X250061Y8023D01*
X249666Y8192D01*
X249290Y8380D01*
X248914Y8624D01*
X248557Y8888D01*
X248219Y9207D01*
X248200Y9226D01*
X248144Y9282D01*
X248069Y9395D01*
X247956Y9527D01*
X247824Y9714D01*
X247693Y9940D01*
X247523Y10203D01*
X247373Y10485D01*
X247223Y10823D01*
X247072Y11199D01*
X246922Y11613D01*
X246791Y12045D01*
X246678Y12534D01*
X246602Y13060D01*
X246546Y13605D01*
X246527Y14188D01*
Y14225D01*
Y14338D01*
X246546Y14489D01*
Y14714D01*
X246584Y14977D01*
X246621Y15297D01*
X246678Y15635D01*
X246734Y16011D01*
X246828Y16406D01*
X246941Y16801D01*
X247072Y17214D01*
X247242Y17628D01*
X247430Y18041D01*
X247655Y18436D01*
X247918Y18812D01*
X248219Y19150D01*
X248238Y19169D01*
X248294Y19225D01*
X248388Y19319D01*
X248538Y19432D01*
X248708Y19564D01*
X248914Y19714D01*
X249159Y19883D01*
X249441Y20052D01*
X249760Y20203D01*
X250099Y20372D01*
X250474Y20522D01*
X250888Y20654D01*
X251339Y20766D01*
X251809Y20861D01*
X252316Y20917D01*
X252843Y20936D01*
X252974D01*
X253125Y20917D01*
D02*
G37*
%LPC*%
G36*
X494052Y90854D02*
X493855D01*
Y90460D01*
X493658D01*
Y89080D01*
X493855D01*
Y88488D01*
X494052D01*
Y88093D01*
X494249D01*
Y87896D01*
X494447D01*
Y87699D01*
X494644D01*
Y87502D01*
X494841D01*
Y87305D01*
X495038D01*
Y87107D01*
X495433D01*
Y86910D01*
X495630D01*
Y86713D01*
X496024D01*
Y86516D01*
X496616D01*
Y86319D01*
X497405D01*
Y86122D01*
X498588D01*
Y85924D01*
X504109D01*
Y87699D01*
X503912D01*
Y88093D01*
X503715D01*
Y88291D01*
X503518D01*
Y88488D01*
X503123D01*
Y88685D01*
X502729D01*
Y88882D01*
X501940D01*
Y89080D01*
X499179D01*
Y89277D01*
X497010D01*
Y89474D01*
X496024D01*
Y89671D01*
X495630D01*
Y89868D01*
X495038D01*
Y90065D01*
X494841D01*
Y90263D01*
X494447D01*
Y90460D01*
X494249D01*
Y90657D01*
X494052D01*
Y90854D01*
D02*
G37*
G36*
X487150Y92826D02*
X486756D01*
Y92629D01*
X485573D01*
Y92432D01*
X484981D01*
Y92234D01*
X484587D01*
Y92037D01*
X484193D01*
Y91840D01*
X483995D01*
Y91643D01*
X483404D01*
Y91446D01*
X482812D01*
Y91249D01*
X482418D01*
Y91051D01*
X481826D01*
Y90854D01*
X481235D01*
Y90657D01*
X480840D01*
Y90460D01*
X480249D01*
Y90263D01*
X479657D01*
Y90065D01*
X479065D01*
Y89868D01*
X478277D01*
Y89671D01*
X477685D01*
Y89474D01*
X477291D01*
Y88291D01*
X477094D01*
Y86713D01*
X477291D01*
Y83952D01*
X477488D01*
Y82769D01*
X477685D01*
Y81783D01*
X477882D01*
Y80995D01*
X478079D01*
Y80403D01*
X478277D01*
Y80008D01*
X478474D01*
Y79417D01*
X478671D01*
Y79022D01*
X478868D01*
Y78825D01*
X479065D01*
Y78431D01*
X479263D01*
Y78036D01*
X479460D01*
Y77839D01*
X479657D01*
Y77642D01*
X479854D01*
Y77445D01*
X480051D01*
Y77248D01*
X480249D01*
Y76853D01*
X480446D01*
Y76656D01*
X480840D01*
Y76459D01*
X481037D01*
Y76262D01*
X481235D01*
Y76065D01*
X481432D01*
Y75867D01*
X481826D01*
Y75670D01*
X482023D01*
Y75473D01*
X482418D01*
Y75276D01*
X482812D01*
Y75079D01*
X483206D01*
Y74684D01*
X483404D01*
Y74487D01*
X483601D01*
Y74093D01*
X483798D01*
Y73895D01*
X483995D01*
Y73698D01*
X484193D01*
Y73501D01*
X484390D01*
Y73304D01*
X484587D01*
Y73107D01*
X484784D01*
Y72909D01*
X485179D01*
Y72712D01*
X485376D01*
Y72515D01*
X485770D01*
Y72318D01*
X486164D01*
Y72121D01*
X486559D01*
Y71923D01*
X487150D01*
Y71726D01*
X487742D01*
Y71529D01*
X488531D01*
Y71332D01*
X489714D01*
Y71135D01*
X493264D01*
Y70938D01*
X497602D01*
Y70740D01*
X498785D01*
Y70938D01*
X498982D01*
Y71332D01*
X499179D01*
Y71529D01*
X499377D01*
Y71726D01*
X499574D01*
Y72121D01*
X499771D01*
Y72318D01*
X499968D01*
Y72515D01*
X500165D01*
Y72712D01*
X500363D01*
Y72909D01*
X500560D01*
Y73107D01*
X500757D01*
Y73304D01*
X500954D01*
Y73698D01*
X501348D01*
Y73895D01*
X501546D01*
Y74093D01*
X501743D01*
Y74290D01*
X501940D01*
Y74487D01*
X502137D01*
Y74684D01*
X502335D01*
Y74881D01*
X502729D01*
Y75079D01*
X502926D01*
Y75276D01*
X503123D01*
Y75473D01*
X503518D01*
Y75670D01*
X503715D01*
Y75867D01*
X503912D01*
Y76262D01*
X503715D01*
Y76459D01*
X503518D01*
Y76853D01*
X503320D01*
Y77050D01*
X503123D01*
Y77445D01*
X502926D01*
Y77642D01*
X502729D01*
Y77839D01*
X502532D01*
Y78036D01*
X502335D01*
Y78431D01*
X502137D01*
Y78628D01*
X501940D01*
Y78825D01*
X501743D01*
Y79022D01*
X501546D01*
Y79220D01*
X501151D01*
Y79417D01*
X500954D01*
Y79614D01*
X500757D01*
Y79811D01*
X500363D01*
Y80008D01*
X499968D01*
Y80206D01*
X499574D01*
Y80403D01*
X499179D01*
Y80600D01*
X498391D01*
Y80797D01*
X497405D01*
Y80995D01*
X496419D01*
Y81192D01*
X495827D01*
Y81389D01*
X495038D01*
Y81586D01*
X494447D01*
Y81783D01*
X493461D01*
Y81980D01*
X491883D01*
Y81783D01*
X491489D01*
Y81586D01*
X491292D01*
Y81192D01*
X491094D01*
Y79614D01*
X491292D01*
Y78628D01*
X491489D01*
Y77839D01*
X491686D01*
Y77445D01*
X491883D01*
Y76853D01*
X492080D01*
Y76262D01*
X492277D01*
Y75867D01*
X492475D01*
Y75670D01*
X492277D01*
Y75473D01*
X491094D01*
Y75276D01*
X489714D01*
Y75079D01*
X485967D01*
Y75276D01*
X485770D01*
Y75473D01*
X485573D01*
Y75670D01*
X485770D01*
Y75867D01*
X485967D01*
Y76065D01*
X486164D01*
Y76262D01*
X486362D01*
Y76459D01*
X486756D01*
Y76656D01*
X487348D01*
Y76853D01*
X487939D01*
Y77050D01*
X488925D01*
Y77248D01*
X491094D01*
Y77050D01*
X491292D01*
Y78431D01*
X491094D01*
Y79220D01*
X490897D01*
Y79811D01*
X490700D01*
Y80008D01*
X490503D01*
Y80403D01*
X490305D01*
Y80600D01*
X490108D01*
Y80797D01*
X489911D01*
Y80995D01*
X489714D01*
Y81192D01*
X489517D01*
Y81389D01*
X489319D01*
Y81586D01*
X489122D01*
Y81783D01*
X488728D01*
Y81980D01*
X488531D01*
Y82178D01*
X488136D01*
Y82375D01*
X487939D01*
Y82572D01*
X487545D01*
Y82769D01*
X487150D01*
Y82966D01*
X486756D01*
Y83164D01*
X486362D01*
Y83361D01*
X486164D01*
Y83558D01*
X485770D01*
Y83755D01*
X485376D01*
Y83952D01*
X484981D01*
Y84150D01*
X484587D01*
Y84347D01*
X484193D01*
Y84544D01*
X483798D01*
Y84741D01*
X483404D01*
Y84938D01*
X483206D01*
Y85136D01*
X482812D01*
Y85333D01*
X482615D01*
Y85530D01*
X482221D01*
Y85727D01*
X482023D01*
Y85924D01*
X481826D01*
Y86122D01*
X481629D01*
Y86319D01*
X481432D01*
Y86516D01*
X481235D01*
Y86713D01*
X481037D01*
Y87107D01*
X480840D01*
Y87305D01*
X482023D01*
Y87107D01*
X482812D01*
Y86910D01*
X483404D01*
Y86713D01*
X483995D01*
Y86516D01*
X484390D01*
Y86319D01*
X484981D01*
Y86122D01*
X485376D01*
Y85924D01*
X485770D01*
Y85727D01*
X486164D01*
Y85530D01*
X486559D01*
Y85333D01*
X486953D01*
Y85136D01*
X487150D01*
Y84938D01*
X487545D01*
Y84741D01*
X487939D01*
Y84544D01*
X488334D01*
Y84347D01*
X488925D01*
Y84150D01*
X489319D01*
Y83952D01*
X489911D01*
Y83755D01*
X490503D01*
Y83558D01*
X491489D01*
Y83361D01*
X492475D01*
Y83558D01*
X492672D01*
Y83952D01*
X492869D01*
Y84544D01*
X493066D01*
Y87502D01*
X492869D01*
Y88093D01*
X492672D01*
Y88685D01*
X492475D01*
Y89080D01*
X492277D01*
Y89474D01*
X492080D01*
Y89868D01*
X491883D01*
Y90065D01*
X491686D01*
Y90263D01*
X491489D01*
Y90460D01*
X491292D01*
Y90854D01*
X491094D01*
Y91051D01*
X490897D01*
Y91249D01*
X490700D01*
Y91446D01*
X490305D01*
Y91643D01*
X490108D01*
Y91840D01*
X489714D01*
Y92037D01*
X489319D01*
Y92234D01*
X488925D01*
Y92432D01*
X488334D01*
Y92629D01*
X487150D01*
Y92826D01*
D02*
G37*
G36*
X505884Y85924D02*
X505490D01*
Y84938D01*
X505687D01*
Y84150D01*
X505884D01*
Y83755D01*
X506081D01*
Y83361D01*
X506278D01*
Y82966D01*
X506476D01*
Y82769D01*
X506673D01*
Y82572D01*
X506870D01*
Y82375D01*
X507067D01*
Y82178D01*
X507264D01*
Y81980D01*
X507659D01*
Y81783D01*
X507856D01*
Y81586D01*
X508250D01*
Y81389D01*
X508645D01*
Y81192D01*
X509039D01*
Y80995D01*
X509828D01*
Y80797D01*
X513180D01*
Y80995D01*
X512983D01*
Y81192D01*
X512589D01*
Y81389D01*
X512391D01*
Y81586D01*
X511997D01*
Y81783D01*
X511800D01*
Y81980D01*
X511603D01*
Y82178D01*
X511208D01*
Y82375D01*
X511011D01*
Y82572D01*
X510814D01*
Y82769D01*
X510617D01*
Y82966D01*
X510222D01*
Y83164D01*
X510025D01*
Y83361D01*
X509828D01*
Y83558D01*
X509433D01*
Y83755D01*
X509236D01*
Y83952D01*
X509039D01*
Y84150D01*
X508842D01*
Y84347D01*
X508447D01*
Y84544D01*
X508250D01*
Y84741D01*
X507856D01*
Y84938D01*
X507659D01*
Y85136D01*
X507264D01*
Y85333D01*
X506870D01*
Y85530D01*
X506476D01*
Y85727D01*
X505884D01*
Y85924D01*
D02*
G37*
G36*
X502729Y84741D02*
X501151D01*
Y84544D01*
X500560D01*
Y84347D01*
X500363D01*
Y84150D01*
X500165D01*
Y83952D01*
X499968D01*
Y83755D01*
X499771D01*
Y83558D01*
X499574D01*
Y83164D01*
X499377D01*
Y82572D01*
X499574D01*
Y82375D01*
X499771D01*
Y82178D01*
X499968D01*
Y81980D01*
X500165D01*
Y81783D01*
X500560D01*
Y81586D01*
X501348D01*
Y81389D01*
X501940D01*
Y81192D01*
X502926D01*
Y80995D01*
X504306D01*
Y80797D01*
X505292D01*
Y81389D01*
X505095D01*
Y81980D01*
X504898D01*
Y82178D01*
Y82572D01*
X504701D01*
Y82966D01*
X504504D01*
Y83361D01*
X504306D01*
Y83558D01*
X504109D01*
Y83755D01*
X503912D01*
Y83952D01*
X503715D01*
Y84150D01*
X503518D01*
Y84347D01*
X503320D01*
Y84544D01*
X502729D01*
Y84741D01*
D02*
G37*
G36*
X580424Y82966D02*
X579240D01*
Y82769D01*
X579043D01*
Y82572D01*
X578846D01*
Y82375D01*
X578452D01*
Y82178D01*
X578255D01*
Y81980D01*
X578057D01*
Y81783D01*
X577860D01*
Y81586D01*
X577663D01*
Y81389D01*
X577466D01*
Y81192D01*
X577269D01*
Y80797D01*
X577071D01*
Y79811D01*
X577269D01*
Y79614D01*
X577663D01*
Y79417D01*
X578255D01*
Y79220D01*
X579240D01*
Y79417D01*
X579832D01*
Y79614D01*
X580227D01*
Y79811D01*
X580424D01*
Y80008D01*
X580621D01*
Y80206D01*
X580818D01*
Y80403D01*
X581015D01*
Y80797D01*
X581213D01*
Y82375D01*
X581015D01*
Y82572D01*
X580818D01*
Y82769D01*
X580424D01*
Y82966D01*
D02*
G37*
G36*
X603101Y89868D02*
X602510D01*
Y89671D01*
X600538D01*
Y89474D01*
X600143D01*
Y89277D01*
X599946D01*
Y89080D01*
X599749D01*
Y88882D01*
X599552D01*
Y88685D01*
X599355D01*
Y88488D01*
X599157D01*
Y88291D01*
X598763D01*
Y88093D01*
X598566D01*
Y87896D01*
X598369D01*
Y87699D01*
X598171D01*
Y87502D01*
X597974D01*
Y87305D01*
X597777D01*
Y87107D01*
X597580D01*
Y86910D01*
X597383D01*
Y86713D01*
X597185D01*
Y86516D01*
X596988D01*
Y86319D01*
X596791D01*
Y85924D01*
X596594D01*
Y85727D01*
X596397D01*
Y85136D01*
X596199D01*
Y83558D01*
X596594D01*
Y83361D01*
X596791D01*
Y83164D01*
X596988D01*
Y82966D01*
X597185D01*
Y82769D01*
X597580D01*
Y82572D01*
X597777D01*
Y82375D01*
X597974D01*
Y82178D01*
X598171D01*
Y81980D01*
X598566D01*
Y81783D01*
X598763D01*
Y81586D01*
X599157D01*
Y81389D01*
X599355D01*
Y81192D01*
X599552D01*
Y80995D01*
X599946D01*
Y80797D01*
X600143D01*
Y80600D01*
X600538D01*
Y80403D01*
X600735D01*
Y80206D01*
X601129D01*
Y80008D01*
X601326D01*
Y79811D01*
X601721D01*
Y79614D01*
X601918D01*
Y79417D01*
X602312D01*
Y79220D01*
X602707D01*
Y79022D01*
X603101D01*
Y78825D01*
X603496D01*
Y78628D01*
X603890D01*
Y78431D01*
X604482D01*
Y78234D01*
X604876D01*
Y78036D01*
X605467D01*
Y77839D01*
X606256D01*
Y77642D01*
X607440D01*
Y77445D01*
X609412D01*
Y77642D01*
X610397D01*
Y77839D01*
X610989D01*
Y78036D01*
X611581D01*
Y78234D01*
X611975D01*
Y78431D01*
X612172D01*
Y78628D01*
X612566D01*
Y78825D01*
X612961D01*
Y79022D01*
X613158D01*
Y79220D01*
X613355D01*
Y79417D01*
X613750D01*
Y79614D01*
X613947D01*
Y82375D01*
X613750D01*
Y82966D01*
X613553D01*
Y83558D01*
X613355D01*
Y84150D01*
X613158D01*
Y84544D01*
X612961D01*
Y84741D01*
X612764D01*
Y85136D01*
X612566D01*
Y85333D01*
X612369D01*
Y85727D01*
X612172D01*
Y85924D01*
X611975D01*
Y86122D01*
X611778D01*
Y86319D01*
X611581D01*
Y86516D01*
X611383D01*
Y86713D01*
X611186D01*
Y86910D01*
X610989D01*
Y87107D01*
X610595D01*
Y87305D01*
X610397D01*
Y87502D01*
X610200D01*
Y87699D01*
X609806D01*
Y87896D01*
X609412D01*
Y88093D01*
X609214D01*
Y88291D01*
X608820D01*
Y88488D01*
X608425D01*
Y88685D01*
X607834D01*
Y88882D01*
X607440D01*
Y89080D01*
X606848D01*
Y89277D01*
X606059D01*
Y89474D01*
X605270D01*
Y89671D01*
X603101D01*
Y89868D01*
D02*
G37*
G36*
X596791Y90460D02*
X595213D01*
Y90263D01*
X594227D01*
Y90065D01*
X593439D01*
Y89868D01*
X592650D01*
Y89671D01*
X591861D01*
Y89474D01*
X591269D01*
Y89277D01*
X590481D01*
Y89080D01*
X589889D01*
Y88882D01*
X589298D01*
Y88685D01*
X588706D01*
Y88488D01*
X588312D01*
Y88291D01*
X587720D01*
Y88093D01*
X587326D01*
Y87896D01*
X586734D01*
Y87699D01*
X586143D01*
Y87502D01*
X585748D01*
Y87305D01*
X585156D01*
Y87107D01*
X584762D01*
Y86910D01*
X584368D01*
Y86713D01*
X583973D01*
Y86516D01*
X583579D01*
Y86319D01*
X583185D01*
Y86122D01*
X582593D01*
Y85924D01*
X582198D01*
Y85727D01*
X582001D01*
Y85530D01*
X582198D01*
Y85136D01*
X582396D01*
Y84544D01*
X582593D01*
Y80600D01*
X582396D01*
Y77839D01*
X582593D01*
Y77445D01*
X582790D01*
Y77248D01*
X583185D01*
Y77050D01*
X583579D01*
Y76853D01*
X582198D01*
Y76656D01*
X581804D01*
Y76459D01*
X581607D01*
Y76065D01*
X581410D01*
Y75670D01*
X581213D01*
Y75079D01*
X581015D01*
Y73501D01*
X581213D01*
Y72909D01*
X581410D01*
Y72515D01*
X581607D01*
Y72318D01*
X581804D01*
Y72121D01*
X582001D01*
Y71726D01*
X582396D01*
Y71529D01*
X582593D01*
Y71332D01*
X582790D01*
Y71135D01*
X583185D01*
Y70938D01*
X583776D01*
Y70740D01*
X584959D01*
Y70938D01*
X585551D01*
Y71135D01*
X585748D01*
Y71332D01*
X586143D01*
Y71529D01*
X586340D01*
Y71923D01*
X586537D01*
Y72121D01*
X586931D01*
Y72318D01*
X587128D01*
Y72515D01*
X587326D01*
Y72712D01*
X587720D01*
Y72909D01*
X589889D01*
Y72712D01*
X590481D01*
Y72515D01*
X590875D01*
Y72318D01*
X591269D01*
Y72121D01*
X591664D01*
Y71923D01*
X592058D01*
Y71726D01*
X592453D01*
Y71529D01*
X592847D01*
Y71332D01*
X593241D01*
Y71135D01*
X593833D01*
Y70938D01*
X594425D01*
Y70740D01*
X594819D01*
Y70938D01*
X595213D01*
Y71135D01*
X595608D01*
Y71332D01*
X595805D01*
Y71529D01*
X596397D01*
Y71726D01*
X596791D01*
Y71923D01*
X597383D01*
Y72121D01*
X598960D01*
Y71923D01*
X599552D01*
Y71726D01*
X599749D01*
Y71529D01*
X599946D01*
Y71332D01*
X600143D01*
Y71135D01*
X600340D01*
Y70938D01*
X600538D01*
Y70740D01*
X600735D01*
Y70346D01*
X600932D01*
Y69952D01*
X601129D01*
Y69754D01*
X601326D01*
Y69360D01*
X601524D01*
Y68966D01*
X601721D01*
Y68768D01*
X601918D01*
Y68374D01*
X602115D01*
Y68177D01*
X602312D01*
Y67782D01*
X602510D01*
Y67585D01*
X602707D01*
Y67388D01*
X602904D01*
Y67191D01*
X603298D01*
Y66994D01*
X603693D01*
Y66796D01*
X604482D01*
Y66599D01*
X604679D01*
Y68177D01*
X604876D01*
Y68768D01*
X605073D01*
Y69163D01*
X605270D01*
Y69557D01*
X605467D01*
Y69952D01*
X605665D01*
Y70149D01*
X605862D01*
Y70543D01*
X606059D01*
Y70740D01*
X606256D01*
Y70938D01*
X606454D01*
Y71135D01*
X606651D01*
Y71529D01*
X606848D01*
Y71726D01*
X607045D01*
Y71923D01*
X607242D01*
Y72121D01*
X607440D01*
Y72515D01*
X607637D01*
Y72712D01*
X607834D01*
Y72909D01*
X608031D01*
Y73304D01*
X608228D01*
Y73698D01*
X608425D01*
Y73895D01*
X608623D01*
Y74487D01*
X608820D01*
Y75079D01*
X609017D01*
Y75276D01*
X608623D01*
Y75079D01*
X608031D01*
Y74881D01*
X607242D01*
Y74684D01*
X605467D01*
Y74881D01*
X604679D01*
Y75079D01*
X604284D01*
Y75276D01*
X603890D01*
Y75473D01*
X603496D01*
Y75670D01*
X603298D01*
Y75867D01*
X602904D01*
Y76065D01*
X602707D01*
Y76262D01*
X602510D01*
Y76459D01*
X602115D01*
Y76656D01*
X601918D01*
Y76853D01*
X601721D01*
Y77050D01*
X601524D01*
Y77248D01*
X601326D01*
Y77445D01*
X601129D01*
Y77642D01*
X600932D01*
Y77839D01*
X600735D01*
Y78036D01*
X600538D01*
Y78234D01*
X600340D01*
Y78431D01*
X600143D01*
Y78628D01*
X599749D01*
Y78825D01*
X599552D01*
Y79022D01*
X599157D01*
Y78825D01*
X598763D01*
Y78628D01*
X598369D01*
Y78431D01*
X597974D01*
Y78234D01*
X597580D01*
Y78036D01*
X597185D01*
Y77839D01*
X596791D01*
Y77642D01*
X596397D01*
Y77445D01*
X596002D01*
Y77248D01*
X595608D01*
Y77050D01*
X595213D01*
Y76853D01*
X595016D01*
Y76656D01*
X594622D01*
Y76459D01*
X594227D01*
Y76262D01*
X594030D01*
Y76065D01*
X593636D01*
Y75867D01*
X593241D01*
Y75670D01*
X593044D01*
Y75473D01*
X592650D01*
Y75276D01*
X592256D01*
Y75079D01*
X592058D01*
Y74881D01*
X591072D01*
Y75079D01*
X590284D01*
Y75276D01*
X589495D01*
Y75473D01*
X588903D01*
Y75670D01*
X588312D01*
Y75867D01*
X587720D01*
Y76065D01*
X587128D01*
Y76262D01*
X586537D01*
Y76459D01*
X585748D01*
Y76656D01*
X584959D01*
Y76853D01*
X584170D01*
Y77050D01*
X585156D01*
Y77248D01*
X585748D01*
Y77445D01*
X586340D01*
Y77642D01*
X586931D01*
Y77839D01*
X587523D01*
Y78036D01*
X587917D01*
Y78234D01*
X588312D01*
Y79417D01*
X588114D01*
Y79811D01*
X587917D01*
Y80008D01*
X587720D01*
Y80206D01*
X587523D01*
Y80403D01*
X587326D01*
Y80600D01*
X586931D01*
Y80797D01*
X586734D01*
Y80995D01*
X586340D01*
Y81192D01*
X586143D01*
Y81389D01*
X585945D01*
Y81586D01*
X585748D01*
Y81980D01*
X585551D01*
Y83361D01*
X587720D01*
Y83558D01*
X590481D01*
Y82572D01*
X590284D01*
Y81980D01*
X590086D01*
Y81192D01*
X589889D01*
Y80206D01*
X589692D01*
Y78628D01*
X589495D01*
Y76853D01*
X590086D01*
Y77050D01*
X590875D01*
Y77248D01*
X591467D01*
Y77445D01*
X592058D01*
Y77642D01*
X592453D01*
Y77839D01*
X593044D01*
Y78036D01*
X593241D01*
Y78234D01*
X593636D01*
Y78431D01*
X594030D01*
Y78628D01*
X594425D01*
Y78825D01*
X594622D01*
Y79022D01*
X595016D01*
Y79220D01*
X595213D01*
Y79417D01*
X595411D01*
Y79614D01*
X595805D01*
Y80008D01*
X596002D01*
Y81389D01*
X595805D01*
Y81586D01*
X595608D01*
Y81980D01*
X595411D01*
Y82178D01*
X595213D01*
Y82375D01*
X594819D01*
Y82572D01*
X594425D01*
Y82769D01*
X594227D01*
Y82966D01*
X593636D01*
Y83164D01*
X593241D01*
Y83361D01*
X592847D01*
Y83558D01*
X592453D01*
Y83755D01*
X592256D01*
Y84150D01*
X592453D01*
Y84347D01*
X592650D01*
Y84544D01*
X592847D01*
Y84741D01*
X593044D01*
Y84938D01*
X593241D01*
Y85333D01*
X593439D01*
Y85530D01*
X593636D01*
Y85727D01*
X593833D01*
Y85924D01*
X594030D01*
Y86122D01*
X594227D01*
Y86319D01*
X594425D01*
Y86516D01*
X594622D01*
Y86713D01*
X594819D01*
Y86910D01*
X595016D01*
Y87107D01*
X595213D01*
Y87305D01*
X595411D01*
Y87502D01*
X595608D01*
Y87699D01*
X595805D01*
Y87896D01*
X596002D01*
Y88093D01*
X596199D01*
Y88291D01*
X596397D01*
Y88685D01*
X596594D01*
Y88882D01*
X596791D01*
Y89277D01*
X596988D01*
Y90263D01*
X596791D01*
Y90460D01*
D02*
G37*
G36*
X515349Y79417D02*
X514758D01*
Y78628D01*
X514955D01*
Y78036D01*
X515152D01*
Y77642D01*
X515349D01*
Y77248D01*
X515547D01*
Y77050D01*
X515744D01*
Y76656D01*
X515941D01*
Y76459D01*
X516138D01*
Y76262D01*
X516335D01*
Y76065D01*
X516533D01*
Y75867D01*
X516730D01*
Y75670D01*
X516927D01*
Y75473D01*
X517124D01*
Y75276D01*
X517321D01*
Y75079D01*
X517716D01*
Y74881D01*
X518110D01*
Y74684D01*
X518307D01*
Y74487D01*
X518702D01*
Y74290D01*
X519293D01*
Y74093D01*
X519688D01*
Y73895D01*
X520279D01*
Y73698D01*
X521068D01*
Y73501D01*
X521857D01*
Y73304D01*
X523237D01*
Y73107D01*
X524815D01*
Y73304D01*
X524618D01*
Y73501D01*
X524420D01*
Y73698D01*
X524223D01*
Y73895D01*
X524026D01*
Y74290D01*
X523829D01*
Y74487D01*
X523434D01*
Y74684D01*
X523237D01*
Y74881D01*
X523040D01*
Y75079D01*
X522843D01*
Y75276D01*
X522646D01*
Y75473D01*
X522448D01*
Y75670D01*
X522251D01*
Y75867D01*
X521857D01*
Y76065D01*
X521660D01*
Y76262D01*
X521462D01*
Y76459D01*
X521068D01*
Y76656D01*
X520871D01*
Y76853D01*
X520476D01*
Y77050D01*
X520279D01*
Y77248D01*
X519885D01*
Y77445D01*
X519491D01*
Y77642D01*
X519096D01*
Y77839D01*
X518899D01*
Y78036D01*
X518307D01*
Y78234D01*
X517913D01*
Y78431D01*
X517519D01*
Y78628D01*
X517124D01*
Y78825D01*
X516533D01*
Y79022D01*
X515941D01*
Y79220D01*
X515349D01*
Y79417D01*
D02*
G37*
G36*
X509631Y80008D02*
X506870D01*
Y79811D01*
X506081D01*
Y79614D01*
X505687D01*
Y79417D01*
X505490D01*
Y78234D01*
X505687D01*
Y77839D01*
X505884D01*
Y77642D01*
X506081D01*
Y77445D01*
X506278D01*
Y77248D01*
X506476D01*
Y77050D01*
X506870D01*
Y76853D01*
X507067D01*
Y76656D01*
X507462D01*
Y76459D01*
X507659D01*
Y76262D01*
X507856D01*
Y76065D01*
X508250D01*
Y75867D01*
X508447D01*
Y75670D01*
X508645D01*
Y75473D01*
X508842D01*
Y75276D01*
X509039D01*
Y75079D01*
X509236D01*
Y74881D01*
X509433D01*
Y74290D01*
X509631D01*
Y73107D01*
X509236D01*
Y73304D01*
X509039D01*
Y73501D01*
X508842D01*
Y73698D01*
X508645D01*
Y73895D01*
X508447D01*
Y74093D01*
X508053D01*
Y74290D01*
X507659D01*
Y74487D01*
X507264D01*
Y74684D01*
X506476D01*
Y74881D01*
X505884D01*
Y74684D01*
X505292D01*
Y74487D01*
X504898D01*
Y74290D01*
X504504D01*
Y74093D01*
X504306D01*
Y73895D01*
X504109D01*
Y73698D01*
X503912D01*
Y73501D01*
X503715D01*
Y73304D01*
X503518D01*
Y72909D01*
X503320D01*
Y72712D01*
X503123D01*
Y72318D01*
X502926D01*
Y71923D01*
X503912D01*
Y71726D01*
X505292D01*
Y71529D01*
X506476D01*
Y71332D01*
X507659D01*
Y71135D01*
X508842D01*
Y70938D01*
X510222D01*
Y70740D01*
X511603D01*
Y70543D01*
X514561D01*
Y70938D01*
X514758D01*
Y71332D01*
X514955D01*
Y72318D01*
X515152D01*
Y74093D01*
X514955D01*
Y74881D01*
X514758D01*
Y75670D01*
X514561D01*
Y76065D01*
X514363D01*
Y76459D01*
X514166D01*
Y76656D01*
X513969D01*
Y77050D01*
X513772D01*
Y77248D01*
X513574D01*
Y77445D01*
X513377D01*
Y77642D01*
X513180D01*
Y77839D01*
X512983D01*
Y78036D01*
X512786D01*
Y78234D01*
X512589D01*
Y78431D01*
X512391D01*
Y78628D01*
X512194D01*
Y78825D01*
X511800D01*
Y79022D01*
X511603D01*
Y79220D01*
X511208D01*
Y79417D01*
X510814D01*
Y79614D01*
X510222D01*
Y79811D01*
X509631D01*
Y80008D01*
D02*
G37*
G36*
X580424Y78234D02*
X577860D01*
Y78036D01*
X576480D01*
Y77839D01*
X575691D01*
Y77642D01*
X575494D01*
Y77445D01*
X575297D01*
Y77050D01*
X575099D01*
Y76853D01*
X574902D01*
Y76459D01*
X574705D01*
Y76262D01*
X574508D01*
Y75867D01*
X574311D01*
Y75670D01*
X574114D01*
Y75276D01*
X573916D01*
Y74881D01*
X573719D01*
Y74487D01*
X573522D01*
Y74093D01*
X573325D01*
Y73501D01*
X573128D01*
Y73107D01*
X572930D01*
Y72318D01*
X572733D01*
Y70346D01*
X572930D01*
Y69754D01*
X573128D01*
Y69557D01*
X573325D01*
Y69360D01*
X573522D01*
Y69163D01*
X573719D01*
Y68966D01*
X574114D01*
Y68768D01*
X574508D01*
Y68571D01*
X575297D01*
Y68374D01*
X575888D01*
Y68177D01*
X576283D01*
Y67979D01*
X576677D01*
Y67782D01*
X577071D01*
Y67585D01*
X577663D01*
Y67388D01*
X578057D01*
Y67191D01*
X578649D01*
Y66994D01*
X579438D01*
Y66796D01*
X580818D01*
Y66994D01*
X581213D01*
Y67191D01*
X581607D01*
Y67585D01*
X581804D01*
Y69163D01*
X581607D01*
Y69557D01*
X581410D01*
Y69952D01*
X581213D01*
Y70149D01*
X581015D01*
Y70346D01*
X580818D01*
Y70543D01*
X580621D01*
Y70740D01*
X580424D01*
Y70938D01*
X580029D01*
Y71135D01*
X579438D01*
Y71332D01*
X578057D01*
Y71135D01*
X577663D01*
Y70938D01*
X577269D01*
Y70740D01*
X576874D01*
Y71135D01*
X577071D01*
Y71332D01*
X577269D01*
Y71726D01*
X577466D01*
Y71923D01*
X577663D01*
Y72318D01*
X577860D01*
Y72515D01*
X578057D01*
Y72909D01*
X578255D01*
Y73107D01*
X578452D01*
Y73501D01*
X578649D01*
Y73698D01*
X578846D01*
Y74093D01*
X579043D01*
Y74290D01*
X579240D01*
Y74684D01*
X579438D01*
Y75079D01*
X579635D01*
Y75473D01*
X579832D01*
Y75867D01*
X580029D01*
Y76459D01*
X580227D01*
Y77050D01*
X580424D01*
Y78234D01*
D02*
G37*
G36*
X573719D02*
X573325D01*
Y78036D01*
X572733D01*
Y77839D01*
X571944D01*
Y77642D01*
X571550D01*
Y77445D01*
X571353D01*
Y77248D01*
X570958D01*
Y77050D01*
X570761D01*
Y76853D01*
X570564D01*
Y76656D01*
X570169D01*
Y76459D01*
X569972D01*
Y76262D01*
X569775D01*
Y76065D01*
X569381D01*
Y75867D01*
X569184D01*
Y75670D01*
X568986D01*
Y75473D01*
X568789D01*
Y75276D01*
X568395D01*
Y75079D01*
X568198D01*
Y74881D01*
X568000D01*
Y74684D01*
X567803D01*
Y74487D01*
X567606D01*
Y74290D01*
X567212D01*
Y74093D01*
X567015D01*
Y73895D01*
X566817D01*
Y73698D01*
X566620D01*
Y73501D01*
X566423D01*
Y73304D01*
X566226D01*
Y73107D01*
X566029D01*
Y72909D01*
X565831D01*
Y72712D01*
X565437D01*
Y72515D01*
X565240D01*
Y72318D01*
X565043D01*
Y72121D01*
X564845D01*
Y71923D01*
X564648D01*
Y71726D01*
X564451D01*
Y71529D01*
X564254D01*
Y71332D01*
X564057D01*
Y71135D01*
X563859D01*
Y70938D01*
X563662D01*
Y70740D01*
X563465D01*
Y70543D01*
X563859D01*
Y70346D01*
X564254D01*
Y70149D01*
X564648D01*
Y69952D01*
X565240D01*
Y69754D01*
X565634D01*
Y69557D01*
X565240D01*
Y69360D01*
X564451D01*
Y69163D01*
X563859D01*
Y68966D01*
X563268D01*
Y68768D01*
X562676D01*
Y68571D01*
X562085D01*
Y68374D01*
X561690D01*
Y68177D01*
X561296D01*
Y67979D01*
X561099D01*
Y67782D01*
X560704D01*
Y67585D01*
X560507D01*
Y67388D01*
X560310D01*
Y67191D01*
X560113D01*
Y66994D01*
X559915D01*
Y66796D01*
X561888D01*
Y66994D01*
X563071D01*
Y67191D01*
X564451D01*
Y67388D01*
X567606D01*
Y67191D01*
X568198D01*
Y66994D01*
X568592D01*
Y66796D01*
X568986D01*
Y66599D01*
X569184D01*
Y66402D01*
X569381D01*
Y66205D01*
X569578D01*
Y66008D01*
X569775D01*
Y65613D01*
X569972D01*
Y65416D01*
X570169D01*
Y67979D01*
X569972D01*
Y68374D01*
X569775D01*
Y68768D01*
X569578D01*
Y68966D01*
X569381D01*
Y69163D01*
X569184D01*
Y69360D01*
X568592D01*
Y69557D01*
X568395D01*
Y69754D01*
X568789D01*
Y69952D01*
X568986D01*
Y70149D01*
X569381D01*
Y70346D01*
X569578D01*
Y70543D01*
X569775D01*
Y70740D01*
X569972D01*
Y70938D01*
X570169D01*
Y71332D01*
X570367D01*
Y71529D01*
X570564D01*
Y71923D01*
X570761D01*
Y72318D01*
X570958D01*
Y72712D01*
X571156D01*
Y73107D01*
X571353D01*
Y73501D01*
X571550D01*
Y73895D01*
X571747D01*
Y74487D01*
X571944D01*
Y74881D01*
X572142D01*
Y75276D01*
X572339D01*
Y75867D01*
X572536D01*
Y76262D01*
X572733D01*
Y76656D01*
X572930D01*
Y77050D01*
X573128D01*
Y77445D01*
X573325D01*
Y77642D01*
X573522D01*
Y78036D01*
X573719D01*
Y78234D01*
D02*
G37*
G36*
X517519Y72712D02*
X517124D01*
Y72121D01*
X517321D01*
Y71726D01*
X517519D01*
Y71529D01*
X517716D01*
Y71135D01*
X517913D01*
Y70938D01*
X518110D01*
Y70543D01*
X518307D01*
Y70346D01*
X518504D01*
Y70149D01*
X518702D01*
Y69952D01*
X518899D01*
Y69754D01*
X519096D01*
Y69557D01*
X519491D01*
Y69360D01*
X519688D01*
Y69163D01*
X519885D01*
Y68966D01*
X520082D01*
Y68768D01*
X520279D01*
Y68571D01*
X520476D01*
Y68374D01*
X520674D01*
Y68177D01*
X520871D01*
Y67979D01*
X521068D01*
Y67782D01*
X521265D01*
Y67585D01*
X521462D01*
Y67388D01*
X521660D01*
Y66994D01*
X521857D01*
Y66796D01*
X522054D01*
Y66402D01*
X522251D01*
Y66008D01*
X522448D01*
Y65416D01*
X522646D01*
Y64430D01*
X522843D01*
Y64627D01*
X523829D01*
Y64824D01*
X525012D01*
Y65022D01*
X525998D01*
Y65219D01*
X527181D01*
Y65416D01*
X528167D01*
Y65613D01*
X528759D01*
Y65810D01*
X528561D01*
Y66008D01*
X528364D01*
Y66402D01*
X528167D01*
Y66599D01*
X527773D01*
Y66796D01*
X527575D01*
Y66994D01*
X527378D01*
Y67191D01*
X526984D01*
Y67388D01*
X526590D01*
Y67585D01*
X526195D01*
Y67782D01*
X525603D01*
Y67979D01*
X525012D01*
Y68177D01*
X524420D01*
Y68374D01*
X523829D01*
Y68571D01*
X523040D01*
Y68768D01*
X522448D01*
Y68966D01*
X522054D01*
Y69163D01*
X521660D01*
Y69360D01*
X521462D01*
Y69557D01*
X521660D01*
Y71135D01*
X521462D01*
Y71529D01*
X521068D01*
Y71726D01*
X520674D01*
Y71923D01*
X519885D01*
Y72121D01*
X519096D01*
Y72318D01*
X518110D01*
Y72515D01*
X517519D01*
Y72712D01*
D02*
G37*
G36*
X588706Y71135D02*
X588312D01*
Y70938D01*
X588114D01*
Y70740D01*
X587917D01*
Y70543D01*
X587523D01*
Y70346D01*
X587128D01*
Y70149D01*
X586734D01*
Y69952D01*
X586537D01*
Y69754D01*
X586143D01*
Y69557D01*
X585748D01*
Y69360D01*
X585551D01*
Y69163D01*
X585354D01*
Y68966D01*
X585156D01*
Y68768D01*
X584959D01*
Y68571D01*
X584762D01*
Y68374D01*
X584565D01*
Y67782D01*
X584368D01*
Y66796D01*
X585551D01*
Y66599D01*
X587128D01*
Y66402D01*
X588509D01*
Y66205D01*
X589495D01*
Y66008D01*
X590481D01*
Y65810D01*
X591467D01*
Y65613D01*
X592453D01*
Y65416D01*
X593439D01*
Y65219D01*
X594425D01*
Y65022D01*
X595411D01*
Y64824D01*
X596397D01*
Y64627D01*
X597383D01*
Y64430D01*
X598763D01*
Y64233D01*
X599749D01*
Y64430D01*
X599946D01*
Y64627D01*
X600143D01*
Y64824D01*
X600340D01*
Y65022D01*
X600538D01*
Y65416D01*
X600735D01*
Y65810D01*
X600932D01*
Y66402D01*
X601129D01*
Y68177D01*
X600932D01*
Y68571D01*
X600735D01*
Y68966D01*
X600538D01*
Y69163D01*
X600340D01*
Y69360D01*
X600143D01*
Y69557D01*
X599552D01*
Y69754D01*
X598171D01*
Y69557D01*
X597383D01*
Y69360D01*
X596791D01*
Y69163D01*
X596397D01*
Y68966D01*
X596002D01*
Y68768D01*
X595608D01*
Y68571D01*
X595213D01*
Y68374D01*
X594819D01*
Y68571D01*
X593833D01*
Y68768D01*
X593241D01*
Y68966D01*
X592847D01*
Y69163D01*
X592453D01*
Y69360D01*
X592058D01*
Y69557D01*
X591664D01*
Y69754D01*
X591269D01*
Y69952D01*
X590875D01*
Y70149D01*
X590481D01*
Y70346D01*
X590086D01*
Y70543D01*
X589692D01*
Y70740D01*
X589298D01*
Y70938D01*
X588706D01*
Y71135D01*
D02*
G37*
G36*
X553014Y65022D02*
X552817D01*
Y64824D01*
X552619D01*
Y64430D01*
X552422D01*
Y64233D01*
X552225D01*
Y64036D01*
X552028D01*
Y63641D01*
X551830D01*
Y63444D01*
X551633D01*
Y63247D01*
X551436D01*
Y63050D01*
X551239D01*
Y62853D01*
X551042D01*
Y62655D01*
X550647D01*
Y62458D01*
X550253D01*
Y62261D01*
X550056D01*
Y62064D01*
X549464D01*
Y61866D01*
X548872D01*
Y61669D01*
X547887D01*
Y61472D01*
X544731D01*
Y61669D01*
X542759D01*
Y61866D01*
X540985D01*
Y62064D01*
X536055D01*
Y61866D01*
X535266D01*
Y61669D01*
X534674D01*
Y61472D01*
X534280D01*
Y61275D01*
X534083D01*
Y61078D01*
X534280D01*
Y60683D01*
X534477D01*
Y60289D01*
X534674D01*
Y60092D01*
X534872D01*
Y59697D01*
X535069D01*
Y59500D01*
X535266D01*
Y59303D01*
X535463D01*
Y58909D01*
X535661D01*
Y58711D01*
X535858D01*
Y58514D01*
X536055D01*
Y58317D01*
X536252D01*
Y58120D01*
X536449D01*
Y57923D01*
X536646D01*
Y57725D01*
X536844D01*
Y57528D01*
X537041D01*
Y57331D01*
X537238D01*
Y57134D01*
X537435D01*
Y56937D01*
X537632D01*
Y56740D01*
X537830D01*
Y56542D01*
X538027D01*
Y56345D01*
X538421D01*
Y56148D01*
X538618D01*
Y55951D01*
X538816D01*
Y55753D01*
X539210D01*
Y55556D01*
X539407D01*
Y55359D01*
X539801D01*
Y55162D01*
X539999D01*
Y54965D01*
X540393D01*
Y54767D01*
X540788D01*
Y54570D01*
X540985D01*
Y54373D01*
X541379D01*
Y54176D01*
X541774D01*
Y53979D01*
X542168D01*
Y53781D01*
X542562D01*
Y53584D01*
X543154D01*
Y53387D01*
X543548D01*
Y53190D01*
X544140D01*
Y52993D01*
X544731D01*
Y52796D01*
X545323D01*
Y52598D01*
X545915D01*
Y52401D01*
X546703D01*
Y52204D01*
X547492D01*
Y52007D01*
X548478D01*
Y51810D01*
X549859D01*
Y51612D01*
X551042D01*
Y51415D01*
X553605D01*
Y51218D01*
X554394D01*
Y51415D01*
X554591D01*
Y52007D01*
X554788D01*
Y52401D01*
X554986D01*
Y52993D01*
X555183D01*
Y53584D01*
X555380D01*
Y54767D01*
X555577D01*
Y57725D01*
X555380D01*
Y59106D01*
X555183D01*
Y59895D01*
X554986D01*
Y60683D01*
X554788D01*
Y61275D01*
X554591D01*
Y61866D01*
X554394D01*
Y62261D01*
X554197D01*
Y62853D01*
X554000D01*
Y63247D01*
X553802D01*
Y63641D01*
X553605D01*
Y64036D01*
X553408D01*
Y64430D01*
X553211D01*
Y64824D01*
X553014D01*
Y65022D01*
D02*
G37*
G36*
X584368Y65219D02*
X583579D01*
Y65022D01*
X582001D01*
Y64824D01*
X580621D01*
Y64627D01*
X579635D01*
Y64430D01*
X578846D01*
Y64233D01*
X578057D01*
Y64036D01*
X577071D01*
Y63838D01*
X576283D01*
Y63641D01*
X575297D01*
Y63444D01*
X574508D01*
Y63247D01*
X573719D01*
Y63050D01*
X572733D01*
Y62853D01*
X571944D01*
Y62655D01*
X570958D01*
Y62458D01*
X570169D01*
Y62261D01*
X570367D01*
Y62064D01*
X570564D01*
Y61669D01*
X570761D01*
Y61472D01*
X570958D01*
Y61275D01*
X571156D01*
Y61078D01*
X571353D01*
Y60881D01*
X571550D01*
Y60683D01*
X572733D01*
Y60881D01*
X573916D01*
Y61078D01*
X575494D01*
Y61275D01*
X577269D01*
Y61472D01*
X578452D01*
Y61669D01*
X579240D01*
Y61866D01*
X580029D01*
Y62064D01*
X580621D01*
Y62261D01*
X581213D01*
Y62458D01*
X581607D01*
Y62655D01*
X582001D01*
Y62853D01*
X582198D01*
Y63050D01*
X582593D01*
Y63247D01*
X582790D01*
Y63444D01*
X582987D01*
Y63641D01*
X583382D01*
Y63838D01*
X583579D01*
Y64233D01*
X583776D01*
Y64430D01*
X583973D01*
Y64627D01*
X584170D01*
Y65022D01*
X584368D01*
Y65219D01*
D02*
G37*
G36*
X588509Y62655D02*
X585945D01*
Y62458D01*
X585354D01*
Y62261D01*
X584762D01*
Y62064D01*
X584368D01*
Y61866D01*
X583973D01*
Y61669D01*
X583579D01*
Y61472D01*
X583185D01*
Y61275D01*
X582593D01*
Y61078D01*
X582198D01*
Y60881D01*
X581804D01*
Y60683D01*
X581213D01*
Y60486D01*
X580818D01*
Y60289D01*
X580227D01*
Y60092D01*
X579438D01*
Y59895D01*
X578649D01*
Y59697D01*
X577269D01*
Y59500D01*
X575494D01*
Y59697D01*
X574508D01*
Y59895D01*
X574114D01*
Y59500D01*
X574311D01*
Y58711D01*
X574508D01*
Y57725D01*
X574705D01*
Y56740D01*
X574902D01*
Y55753D01*
X575099D01*
Y54767D01*
X575297D01*
Y53781D01*
X575494D01*
Y52598D01*
X575691D01*
Y52401D01*
X575888D01*
Y52598D01*
X576480D01*
Y52796D01*
X577071D01*
Y52993D01*
X577466D01*
Y53190D01*
X577860D01*
Y53387D01*
X578255D01*
Y53584D01*
X578649D01*
Y53781D01*
X579043D01*
Y53979D01*
X579438D01*
Y54176D01*
X579832D01*
Y54373D01*
X580029D01*
Y54570D01*
X580424D01*
Y54767D01*
X580621D01*
Y54965D01*
X581015D01*
Y55162D01*
X581410D01*
Y55359D01*
X581607D01*
Y55556D01*
X582001D01*
Y55753D01*
X582198D01*
Y55951D01*
X582593D01*
Y56148D01*
X582790D01*
Y56345D01*
X583185D01*
Y56542D01*
X583382D01*
Y56740D01*
X583776D01*
Y56937D01*
X583973D01*
Y57134D01*
X584368D01*
Y57331D01*
X584565D01*
Y57528D01*
X584959D01*
Y57725D01*
X585156D01*
Y57923D01*
X585551D01*
Y58120D01*
X585945D01*
Y58317D01*
X586143D01*
Y58514D01*
X586537D01*
Y58711D01*
X586931D01*
Y58909D01*
X587326D01*
Y59106D01*
X587720D01*
Y59303D01*
X588114D01*
Y59500D01*
X588509D01*
Y59697D01*
X589100D01*
Y59895D01*
X589692D01*
Y60092D01*
X590481D01*
Y60289D01*
X590678D01*
Y60881D01*
X590481D01*
Y61275D01*
X590284D01*
Y61472D01*
X590086D01*
Y61669D01*
X589889D01*
Y61866D01*
X589692D01*
Y62064D01*
X589495D01*
Y62261D01*
X589100D01*
Y62458D01*
X588509D01*
Y62655D01*
D02*
G37*
G36*
X502335Y69163D02*
X499179D01*
Y68966D01*
X497996D01*
Y68768D01*
X497207D01*
Y68571D01*
X496616D01*
Y68374D01*
X495827D01*
Y68177D01*
X495038D01*
Y67979D01*
X494249D01*
Y67782D01*
X493658D01*
Y67585D01*
X493264D01*
Y67388D01*
X492869D01*
Y67191D01*
X492475D01*
Y66994D01*
X492080D01*
Y66796D01*
X491883D01*
Y66599D01*
X491686D01*
Y66205D01*
X491489D01*
Y65613D01*
X491292D01*
Y64627D01*
X491489D01*
Y64430D01*
X492672D01*
Y64233D01*
X493461D01*
Y64036D01*
X493855D01*
Y63838D01*
X494249D01*
Y63641D01*
X494644D01*
Y63444D01*
X494841D01*
Y63247D01*
X495235D01*
Y63050D01*
X495433D01*
Y62853D01*
X495630D01*
Y62655D01*
X495827D01*
Y62458D01*
X496024D01*
Y62261D01*
X496222D01*
Y62064D01*
X496419D01*
Y61866D01*
X496616D01*
Y61669D01*
X496813D01*
Y61472D01*
X497010D01*
Y61275D01*
X497405D01*
Y61078D01*
X497602D01*
Y60881D01*
X497799D01*
Y60683D01*
X497996D01*
Y60486D01*
X498193D01*
Y60289D01*
X498391D01*
Y60092D01*
X498785D01*
Y59895D01*
X498982D01*
Y59697D01*
X499377D01*
Y59500D01*
X499771D01*
Y59303D01*
X500165D01*
Y59500D01*
X500363D01*
Y59697D01*
X500560D01*
Y59895D01*
X500757D01*
Y60092D01*
X500954D01*
Y60289D01*
X501151D01*
Y60486D01*
X501348D01*
Y60683D01*
X501546D01*
Y60881D01*
X501743D01*
Y61078D01*
X501940D01*
Y61275D01*
X502137D01*
Y61472D01*
X502335D01*
Y61669D01*
X502532D01*
Y61866D01*
X502729D01*
Y62064D01*
X502926D01*
Y62261D01*
X503123D01*
Y62458D01*
X503320D01*
Y62655D01*
X503518D01*
Y62853D01*
X503715D01*
Y63050D01*
X503912D01*
Y63247D01*
X504109D01*
Y63444D01*
X504306D01*
Y63641D01*
X504504D01*
Y63838D01*
X504701D01*
Y64233D01*
X504898D01*
Y64430D01*
X505292D01*
Y64627D01*
X505687D01*
Y64824D01*
X506278D01*
Y65022D01*
X507462D01*
Y65219D01*
X509236D01*
Y65416D01*
X510025D01*
Y65613D01*
X510222D01*
Y65810D01*
X510420D01*
Y66008D01*
X510617D01*
Y67585D01*
X509828D01*
Y67782D01*
X508645D01*
Y67979D01*
X507659D01*
Y68177D01*
X506673D01*
Y68374D01*
X505884D01*
Y68571D01*
X504898D01*
Y68768D01*
X503912D01*
Y68966D01*
X502335D01*
Y69163D01*
D02*
G37*
G36*
X566029Y65219D02*
X561099D01*
Y64233D01*
X561296D01*
Y62853D01*
X561493D01*
Y61866D01*
X561690D01*
Y60881D01*
X561888D01*
Y60092D01*
X562085D01*
Y59106D01*
X562282D01*
Y58120D01*
X562479D01*
Y57528D01*
X562282D01*
Y57725D01*
X562085D01*
Y58120D01*
X561888D01*
Y58317D01*
X561690D01*
Y58711D01*
X561493D01*
Y58909D01*
X561296D01*
Y59303D01*
X561099D01*
Y59500D01*
X560901D01*
Y59895D01*
X560704D01*
Y60092D01*
X560507D01*
Y60486D01*
X560310D01*
Y60683D01*
X560113D01*
Y60881D01*
X559915D01*
Y61275D01*
X559718D01*
Y61472D01*
X559521D01*
Y61669D01*
X559324D01*
Y61866D01*
X559127D01*
Y62064D01*
X558929D01*
Y62261D01*
X558732D01*
Y62458D01*
X558535D01*
Y62655D01*
X558141D01*
Y62853D01*
X557943D01*
Y63050D01*
X557746D01*
Y63247D01*
X557352D01*
Y63444D01*
X556958D01*
Y63641D01*
X556366D01*
Y63838D01*
X555972D01*
Y63050D01*
X556169D01*
Y62261D01*
X556366D01*
Y61669D01*
X556563D01*
Y61078D01*
X556760D01*
Y60683D01*
X556958D01*
Y60289D01*
X557155D01*
Y59895D01*
X557352D01*
Y59697D01*
X557549D01*
Y59303D01*
X557746D01*
Y59106D01*
X557943D01*
Y58711D01*
X558141D01*
Y58514D01*
X558338D01*
Y58317D01*
X558535D01*
Y58120D01*
X558732D01*
Y57923D01*
X558929D01*
Y57725D01*
X559127D01*
Y57528D01*
X559324D01*
Y57331D01*
X559521D01*
Y57134D01*
X559718D01*
Y56937D01*
X559915D01*
Y56740D01*
X560113D01*
Y56542D01*
X560310D01*
Y56345D01*
X560507D01*
Y56148D01*
X560704D01*
Y55951D01*
X560901D01*
Y55753D01*
X561296D01*
Y55556D01*
X561493D01*
Y55359D01*
X561690D01*
Y55162D01*
X562085D01*
Y54965D01*
X562282D01*
Y57331D01*
X562676D01*
Y57134D01*
X562873D01*
Y56740D01*
X563071D01*
Y56345D01*
X563268D01*
Y56148D01*
X563465D01*
Y55951D01*
X563662D01*
Y55753D01*
X563859D01*
Y55556D01*
X564057D01*
Y55359D01*
X564451D01*
Y55162D01*
X564845D01*
Y54965D01*
X566226D01*
Y55359D01*
X566029D01*
Y55753D01*
X565831D01*
Y56148D01*
X565634D01*
Y56740D01*
X565437D01*
Y57134D01*
X565240D01*
Y57528D01*
X565043D01*
Y57923D01*
X564845D01*
Y58317D01*
X564648D01*
Y58711D01*
X564451D01*
Y59106D01*
X564254D01*
Y59697D01*
X564057D01*
Y60289D01*
X563859D01*
Y61078D01*
X563662D01*
Y62458D01*
X563859D01*
Y63247D01*
X564057D01*
Y63444D01*
X564254D01*
Y63838D01*
X564451D01*
Y64036D01*
X564648D01*
Y64233D01*
X564845D01*
Y64430D01*
X565043D01*
Y64627D01*
X565437D01*
Y64824D01*
X565634D01*
Y65022D01*
X566029D01*
Y65219D01*
D02*
G37*
G36*
X518307Y67782D02*
X514363D01*
Y67585D01*
X513377D01*
Y67191D01*
X513180D01*
Y66994D01*
X512983D01*
Y66599D01*
X512786D01*
Y66402D01*
X512589D01*
Y66008D01*
X512391D01*
Y65613D01*
X512194D01*
Y65416D01*
X511997D01*
Y65022D01*
X511800D01*
Y64824D01*
X511603D01*
Y64430D01*
X511405D01*
Y64233D01*
X511208D01*
Y63838D01*
X511011D01*
Y63641D01*
X510814D01*
Y63444D01*
X510617D01*
Y63247D01*
X510222D01*
Y63050D01*
X510025D01*
Y62853D01*
X509631D01*
Y62655D01*
X507462D01*
Y62458D01*
X506476D01*
Y62261D01*
X505884D01*
Y62064D01*
X505687D01*
Y61866D01*
X505292D01*
Y61669D01*
X505095D01*
Y61472D01*
X504898D01*
Y61275D01*
X504504D01*
Y61078D01*
X504306D01*
Y60881D01*
X504109D01*
Y60683D01*
X503912D01*
Y60486D01*
X503715D01*
Y60289D01*
X503518D01*
Y59895D01*
X503320D01*
Y59697D01*
X503123D01*
Y59500D01*
X502926D01*
Y59303D01*
X502729D01*
Y58909D01*
X502532D01*
Y58711D01*
X502335D01*
Y58514D01*
X502137D01*
Y58317D01*
X501940D01*
Y58120D01*
X501743D01*
Y57725D01*
X503518D01*
Y57528D01*
X506278D01*
Y57331D01*
X507462D01*
Y57134D01*
X508250D01*
Y56937D01*
X509039D01*
Y56740D01*
X509433D01*
Y56542D01*
X509828D01*
Y56345D01*
X510222D01*
Y56148D01*
X510420D01*
Y55951D01*
X510617D01*
Y55753D01*
X511011D01*
Y55556D01*
X511208D01*
Y55753D01*
X511603D01*
Y55951D01*
X511800D01*
Y56148D01*
X512194D01*
Y56345D01*
X512391D01*
Y56542D01*
X512786D01*
Y56740D01*
X512983D01*
Y56937D01*
X513377D01*
Y57134D01*
X513574D01*
Y57331D01*
X513969D01*
Y57528D01*
X514166D01*
Y57725D01*
X514363D01*
Y57923D01*
X514758D01*
Y58120D01*
X514955D01*
Y58317D01*
X515152D01*
Y58514D01*
X515547D01*
Y58711D01*
X515744D01*
Y58909D01*
X515941D01*
Y59106D01*
X516335D01*
Y59303D01*
X516533D01*
Y59500D01*
X516730D01*
Y59697D01*
X516927D01*
Y59895D01*
X517321D01*
Y60092D01*
X517519D01*
Y60289D01*
X517716D01*
Y60486D01*
X517913D01*
Y60683D01*
X518110D01*
Y60881D01*
X518307D01*
Y61078D01*
X518504D01*
Y61275D01*
X518702D01*
Y61472D01*
X518899D01*
Y61669D01*
X519096D01*
Y61866D01*
X519293D01*
Y62064D01*
X519491D01*
Y62261D01*
X519688D01*
Y62458D01*
X518110D01*
Y62655D01*
X516533D01*
Y62853D01*
X515744D01*
Y63641D01*
X515941D01*
Y64233D01*
X516138D01*
Y64627D01*
X516335D01*
Y65022D01*
X516533D01*
Y65219D01*
X516730D01*
Y65613D01*
X516927D01*
Y65810D01*
X517124D01*
Y66205D01*
X517321D01*
Y66402D01*
X517519D01*
Y66599D01*
Y66796D01*
X517716D01*
Y66994D01*
X517913D01*
Y67388D01*
X518110D01*
Y67585D01*
X518307D01*
Y67782D01*
D02*
G37*
G36*
X528167Y63444D02*
X527378D01*
Y63247D01*
X526392D01*
Y63050D01*
X525603D01*
Y62853D01*
X524815D01*
Y62655D01*
X524026D01*
Y62458D01*
X523434D01*
Y62261D01*
X523040D01*
Y62064D01*
X522448D01*
Y61866D01*
X522251D01*
Y61669D01*
X521857D01*
Y61472D01*
X521462D01*
Y61275D01*
X521265D01*
Y61078D01*
X521068D01*
Y60881D01*
X520871D01*
Y60683D01*
X520674D01*
Y60486D01*
X520476D01*
Y60289D01*
X520279D01*
Y60092D01*
X520082D01*
Y59697D01*
X519885D01*
Y58909D01*
X519688D01*
Y56345D01*
X519885D01*
Y55753D01*
X520082D01*
Y55359D01*
X520279D01*
Y55162D01*
X520476D01*
Y54965D01*
X520674D01*
Y54767D01*
X520871D01*
Y54570D01*
X521068D01*
Y54373D01*
X521660D01*
Y54176D01*
X522448D01*
Y53979D01*
X523434D01*
Y54176D01*
X524815D01*
Y54373D01*
X525406D01*
Y54570D01*
X526195D01*
Y54767D01*
X526590D01*
Y54965D01*
X527181D01*
Y56542D01*
X527378D01*
Y57528D01*
X527575D01*
Y58120D01*
X527773D01*
Y58909D01*
X527970D01*
Y59500D01*
X528167D01*
Y60289D01*
X528364D01*
Y61078D01*
X528561D01*
Y63050D01*
X528364D01*
Y63247D01*
X528167D01*
Y63444D01*
D02*
G37*
G36*
X568198Y60092D02*
X566620D01*
Y59895D01*
X567015D01*
Y59697D01*
X567212D01*
Y59500D01*
X567409D01*
Y59303D01*
X567606D01*
Y58909D01*
X567803D01*
Y58514D01*
X568000D01*
Y55556D01*
X567803D01*
Y54373D01*
X567606D01*
Y53781D01*
X568789D01*
Y53584D01*
X570564D01*
Y53781D01*
X571944D01*
Y53979D01*
X572536D01*
Y54176D01*
X572930D01*
Y54373D01*
X573128D01*
Y54570D01*
X573325D01*
Y54767D01*
X573522D01*
Y55951D01*
X573325D01*
Y56148D01*
X573128D01*
Y56345D01*
X572930D01*
Y56542D01*
X572733D01*
Y56740D01*
X572536D01*
Y56937D01*
X572339D01*
Y57134D01*
X572142D01*
Y57331D01*
X571944D01*
Y57528D01*
X571747D01*
Y57725D01*
X571353D01*
Y57923D01*
X571156D01*
Y58120D01*
X570958D01*
Y58317D01*
X570761D01*
Y58514D01*
X570564D01*
Y58711D01*
X570367D01*
Y58909D01*
X569972D01*
Y59106D01*
X569775D01*
Y59303D01*
X569381D01*
Y59500D01*
X569184D01*
Y59697D01*
X568789D01*
Y59895D01*
X568198D01*
Y60092D01*
D02*
G37*
G36*
X535661Y53387D02*
X535266D01*
Y53190D01*
Y51810D01*
X535463D01*
Y51415D01*
X535661D01*
Y51218D01*
X535858D01*
Y50824D01*
X536055D01*
Y50626D01*
X536449D01*
Y50429D01*
X536844D01*
Y50232D01*
X537238D01*
Y50035D01*
X537830D01*
Y49838D01*
X539013D01*
Y49640D01*
X540788D01*
Y49838D01*
X541774D01*
Y50035D01*
X541576D01*
Y50232D01*
X541379D01*
Y50429D01*
X540985D01*
Y50626D01*
X540788D01*
Y50824D01*
X540590D01*
Y51021D01*
X540196D01*
Y51218D01*
X539801D01*
Y51415D01*
X539407D01*
Y51612D01*
X539210D01*
Y51810D01*
X538816D01*
Y52007D01*
X538421D01*
Y52204D01*
X537830D01*
Y52401D01*
X537435D01*
Y52598D01*
X537041D01*
Y52796D01*
X536646D01*
Y52993D01*
X536252D01*
Y53190D01*
X535661D01*
Y53387D01*
D02*
G37*
G36*
X555380Y49640D02*
X554394D01*
Y49443D01*
X554000D01*
Y49246D01*
X553605D01*
Y49049D01*
X553408D01*
Y48852D01*
X553014D01*
Y48654D01*
X552817D01*
Y48457D01*
X552619D01*
Y48260D01*
X552225D01*
Y48063D01*
X552028D01*
Y47866D01*
X551633D01*
Y47668D01*
X551436D01*
Y47471D01*
X551239D01*
Y47274D01*
X550844D01*
Y47077D01*
X550647D01*
Y46880D01*
X550253D01*
Y46682D01*
X549859D01*
Y46485D01*
X549464D01*
Y46288D01*
X549070D01*
Y46091D01*
X548478D01*
Y45894D01*
X546901D01*
Y46091D01*
X546506D01*
Y46288D01*
X546112D01*
Y46485D01*
X545915D01*
Y46682D01*
X545717D01*
Y47077D01*
X545520D01*
Y47471D01*
X545323D01*
Y47866D01*
X545126D01*
Y48063D01*
X544929D01*
Y48260D01*
X544731D01*
Y48063D01*
X544534D01*
Y47274D01*
X544337D01*
Y46682D01*
X544140D01*
Y46288D01*
X543943D01*
Y46091D01*
X543745D01*
Y45894D01*
X542562D01*
Y45697D01*
X542168D01*
Y45499D01*
X541576D01*
Y45302D01*
X540590D01*
Y45105D01*
X539407D01*
Y45302D01*
X538618D01*
Y45499D01*
X538027D01*
Y45697D01*
X537632D01*
Y45894D01*
X537435D01*
Y46091D01*
X537041D01*
Y46288D01*
X536844D01*
Y46485D01*
X536449D01*
Y46682D01*
X536252D01*
Y46880D01*
X536055D01*
Y47077D01*
X535858D01*
Y47274D01*
X535661D01*
Y47471D01*
X535266D01*
Y47668D01*
X535069D01*
Y47866D01*
X534872D01*
Y48063D01*
X534674D01*
Y48260D01*
X534477D01*
Y48457D01*
X534280D01*
Y48654D01*
X534083D01*
Y48852D01*
X533886D01*
Y49049D01*
X533491D01*
Y49246D01*
X533294D01*
Y49443D01*
X532900D01*
Y49640D01*
X532703D01*
Y49443D01*
X532900D01*
Y48654D01*
X533097D01*
Y47668D01*
X533294D01*
Y46880D01*
X533491D01*
Y46091D01*
X533689D01*
Y45499D01*
X533886D01*
Y44908D01*
X534083D01*
Y44316D01*
X534280D01*
Y44119D01*
X534477D01*
Y43724D01*
X534674D01*
Y43330D01*
X534872D01*
Y43133D01*
X535069D01*
Y42936D01*
X535266D01*
Y42739D01*
X535463D01*
Y42541D01*
X535661D01*
Y42344D01*
X535858D01*
Y42147D01*
X536252D01*
Y41950D01*
X536449D01*
Y41753D01*
X536646D01*
Y41555D01*
X536844D01*
Y41358D01*
X537041D01*
Y41161D01*
X537435D01*
Y40964D01*
X537632D01*
Y40767D01*
X538027D01*
Y40569D01*
X538421D01*
Y40372D01*
X539013D01*
Y40175D01*
X539604D01*
Y39978D01*
X540393D01*
Y39781D01*
X541576D01*
Y39583D01*
X542562D01*
Y39386D01*
X543548D01*
Y39189D01*
X544337D01*
Y38992D01*
X545126D01*
Y38795D01*
X545520D01*
Y38598D01*
X545915D01*
Y38400D01*
X546309D01*
Y38203D01*
X546506D01*
Y38006D01*
X546901D01*
Y37809D01*
X547098D01*
Y37611D01*
X547295D01*
Y37414D01*
X550253D01*
Y37611D01*
X550844D01*
Y37809D01*
X551239D01*
Y38006D01*
X551633D01*
Y38203D01*
X552028D01*
Y38400D01*
X552422D01*
Y38598D01*
X552619D01*
Y38795D01*
X552817D01*
Y38992D01*
X553014D01*
Y39189D01*
X553211D01*
Y39386D01*
X553408D01*
Y39583D01*
X553605D01*
Y39978D01*
X553802D01*
Y40175D01*
X554000D01*
Y40569D01*
X554197D01*
Y41161D01*
X554394D01*
Y41950D01*
X554591D01*
Y43724D01*
X554788D01*
Y44513D01*
X554986D01*
Y45302D01*
X555183D01*
Y46288D01*
X555380D01*
Y47274D01*
X555577D01*
Y49246D01*
X555380D01*
Y49640D01*
D02*
G37*
G36*
X543943Y23414D02*
X543351D01*
Y23216D01*
X542957D01*
Y23019D01*
X542562D01*
Y22822D01*
X542168D01*
Y22625D01*
X541774D01*
Y22427D01*
X541182D01*
Y22230D01*
X540393D01*
Y22033D01*
X537435D01*
Y22230D01*
X536646D01*
Y22033D01*
X536844D01*
Y21639D01*
X537041D01*
Y21442D01*
X537238D01*
Y21244D01*
X537435D01*
Y21047D01*
X537632D01*
Y20850D01*
X538027D01*
Y20653D01*
X538421D01*
Y20456D01*
X538618D01*
Y20258D01*
X539210D01*
Y20061D01*
X539604D01*
Y19864D01*
X540196D01*
Y19667D01*
X540985D01*
Y19469D01*
X541774D01*
Y19272D01*
X542562D01*
Y19075D01*
X543154D01*
Y18878D01*
X543745D01*
Y19272D01*
X543548D01*
Y19469D01*
X543745D01*
Y20850D01*
X543943D01*
Y22230D01*
X544140D01*
Y23216D01*
X543943D01*
Y23414D01*
D02*
G37*
%LPD*%
G36*
X576874Y70543D02*
X576677D01*
Y70740D01*
X576874D01*
Y70543D01*
D02*
G37*
G36*
X563132Y58539D02*
X563030D01*
Y58640D01*
X563132D01*
Y58539D01*
D02*
G37*
%LPC*%
G36*
X838859Y10670D02*
X838746D01*
X838596Y10633D01*
X838427Y10595D01*
X838239Y10520D01*
X838032Y10426D01*
X837825Y10276D01*
X837637Y10088D01*
X837618Y10069D01*
X837562Y9975D01*
X837487Y9844D01*
X837393Y9674D01*
X837299Y9430D01*
X837224Y9148D01*
X837167Y8810D01*
X837148Y8415D01*
Y8396D01*
Y8359D01*
Y8302D01*
Y8208D01*
X837186Y8001D01*
X837224Y7720D01*
X837280Y7419D01*
X837374Y7099D01*
X837506Y6799D01*
X837693Y6535D01*
X837712Y6517D01*
X837787Y6441D01*
X837919Y6329D01*
X838069Y6216D01*
X838257Y6084D01*
X838464Y5990D01*
X838708Y5915D01*
X838972Y5878D01*
X839084D01*
X839216Y5915D01*
X839385Y5953D01*
X839554Y6009D01*
X839761Y6103D01*
X839949Y6235D01*
X840137Y6404D01*
X840156Y6423D01*
X840212Y6517D01*
X840287Y6648D01*
X840381Y6836D01*
X840456Y7081D01*
X840532Y7381D01*
X840588Y7757D01*
X840607Y8189D01*
Y8208D01*
Y8246D01*
Y8321D01*
Y8396D01*
X840588Y8622D01*
X840551Y8904D01*
X840475Y9204D01*
X840400Y9524D01*
X840269Y9825D01*
X840099Y10069D01*
X840081Y10088D01*
X840005Y10163D01*
X839911Y10257D01*
X839761Y10370D01*
X839573Y10483D01*
X839366Y10577D01*
X839122Y10652D01*
X838859Y10670D01*
D02*
G37*
G36*
X792846Y11780D02*
X792809D01*
X792696Y11761D01*
X792527Y11742D01*
X792320Y11686D01*
X792076Y11610D01*
X791813Y11479D01*
X791568Y11310D01*
X791324Y11084D01*
X791305Y11047D01*
X791230Y10953D01*
X791136Y10783D01*
X791042Y10558D01*
X790929Y10257D01*
X790835Y9900D01*
X790760Y9468D01*
X790741Y8960D01*
Y8941D01*
Y8904D01*
Y8828D01*
Y8716D01*
X790760Y8603D01*
Y8453D01*
X790798Y8133D01*
X790854Y7795D01*
X790929Y7438D01*
X791042Y7099D01*
X791192Y6799D01*
Y6780D01*
X791230Y6761D01*
X791305Y6648D01*
X791455Y6498D01*
X791662Y6310D01*
X791907Y6122D01*
X792207Y5972D01*
X792545Y5859D01*
X792734Y5840D01*
X792940Y5821D01*
X792978D01*
X793072Y5840D01*
X793241Y5859D01*
X793429Y5915D01*
X793654Y5990D01*
X793880Y6122D01*
X794124Y6291D01*
X794350Y6517D01*
X794369Y6554D01*
X794444Y6648D01*
X794538Y6817D01*
X794651Y7062D01*
X794763Y7362D01*
X794857Y7738D01*
X794895Y7964D01*
X794933Y8208D01*
X794951Y8453D01*
Y8735D01*
Y8753D01*
Y8810D01*
Y8885D01*
Y8998D01*
X794933Y9129D01*
X794914Y9280D01*
X794876Y9637D01*
X794801Y10013D01*
X794707Y10407D01*
X794557Y10764D01*
X794463Y10915D01*
X794350Y11065D01*
X794331Y11103D01*
X794237Y11178D01*
X794124Y11291D01*
X793936Y11422D01*
X793730Y11554D01*
X793466Y11667D01*
X793185Y11742D01*
X792846Y11780D01*
D02*
G37*
G36*
X782001D02*
X781869D01*
X781719Y11742D01*
X781531Y11704D01*
X781324Y11629D01*
X781099Y11535D01*
X780873Y11385D01*
X780667Y11178D01*
X780648Y11159D01*
X780591Y11065D01*
X780497Y10934D01*
X780403Y10746D01*
X780291Y10520D01*
X780215Y10238D01*
X780159Y9919D01*
X780140Y9562D01*
X783862D01*
Y9580D01*
Y9618D01*
Y9656D01*
X783843Y9731D01*
X783824Y9937D01*
X783787Y10163D01*
X783711Y10426D01*
X783617Y10708D01*
X783467Y10971D01*
X783298Y11197D01*
X783279Y11216D01*
X783204Y11291D01*
X783091Y11385D01*
X782941Y11498D01*
X782753Y11592D01*
X782527Y11686D01*
X782283Y11761D01*
X782001Y11780D01*
D02*
G37*
G36*
X818334Y15069D02*
X818259D01*
X818165Y15050D01*
X818071Y15031D01*
X817939Y14994D01*
X817807Y14937D01*
X817657Y14862D01*
X817525Y14768D01*
X817507Y14749D01*
X817469Y14712D01*
X817413Y14636D01*
X817337Y14542D01*
X817243Y14392D01*
X817168Y14223D01*
X817074Y13997D01*
X816999Y13734D01*
Y13715D01*
X816980Y13697D01*
Y13621D01*
X816962Y13546D01*
X816943Y13434D01*
X816924Y13302D01*
X816905Y13152D01*
X816886Y12964D01*
X816849Y12738D01*
X816830Y12513D01*
X816811Y12231D01*
X816792Y11949D01*
X816774Y11610D01*
Y11272D01*
X816755Y10877D01*
Y10464D01*
Y10445D01*
Y10370D01*
Y10238D01*
Y10088D01*
Y9900D01*
X816774Y9693D01*
Y9449D01*
X816792Y9204D01*
X816811Y8678D01*
X816849Y8152D01*
X816868Y7908D01*
X816905Y7682D01*
X816943Y7475D01*
X816980Y7287D01*
X816999Y7250D01*
X817018Y7156D01*
X817074Y7005D01*
X817131Y6836D01*
X817225Y6648D01*
X817319Y6460D01*
X817431Y6291D01*
X817544Y6159D01*
X817563Y6141D01*
X817601Y6122D01*
X817676Y6065D01*
X817770Y6028D01*
X817883Y5972D01*
X818014Y5915D01*
X818165Y5896D01*
X818334Y5878D01*
X818409D01*
X818503Y5896D01*
X818597Y5915D01*
X818728Y5953D01*
X818860Y5990D01*
X818991Y6065D01*
X819123Y6159D01*
X819142Y6178D01*
X819180Y6216D01*
X819255Y6291D01*
X819330Y6404D01*
X819405Y6535D01*
X819499Y6723D01*
X819593Y6930D01*
X819668Y7193D01*
Y7212D01*
X819687Y7231D01*
Y7306D01*
X819706Y7381D01*
X819725Y7494D01*
X819743Y7626D01*
X819781Y7776D01*
X819800Y7964D01*
X819818Y8171D01*
X819856Y8415D01*
X819875Y8678D01*
X819894Y8979D01*
X819912Y9298D01*
Y9656D01*
X819931Y10050D01*
Y10464D01*
Y10483D01*
Y10558D01*
Y10689D01*
Y10840D01*
Y11028D01*
X819912Y11234D01*
Y11479D01*
X819894Y11723D01*
X819875Y12249D01*
X819837Y12757D01*
X819800Y13001D01*
X819762Y13246D01*
X819725Y13452D01*
X819687Y13621D01*
Y13640D01*
X819668Y13659D01*
X819649Y13753D01*
X819593Y13903D01*
X819537Y14091D01*
X819443Y14279D01*
X819349Y14467D01*
X819236Y14636D01*
X819123Y14768D01*
X819104Y14787D01*
X819067Y14825D01*
X818991Y14862D01*
X818897Y14918D01*
X818785Y14975D01*
X818653Y15031D01*
X818503Y15050D01*
X818334Y15069D01*
D02*
G37*
G36*
X313949Y18530D02*
X311336D01*
Y15522D01*
X313855D01*
X314174Y15541D01*
X314757D01*
X314870Y15560D01*
X314982D01*
X315058Y15579D01*
X315170Y15598D01*
X315340Y15654D01*
X315509Y15710D01*
X315678Y15786D01*
X315847Y15880D01*
X315997Y16011D01*
X316016Y16030D01*
X316054Y16086D01*
X316129Y16162D01*
X316204Y16293D01*
X316261Y16444D01*
X316336Y16613D01*
X316373Y16819D01*
X316392Y17045D01*
Y17064D01*
Y17139D01*
X316373Y17252D01*
X316355Y17402D01*
X316317Y17552D01*
X316242Y17703D01*
X316166Y17872D01*
X316054Y18022D01*
X316035Y18041D01*
X315997Y18079D01*
X315903Y18154D01*
X315809Y18229D01*
X315659Y18304D01*
X315490Y18379D01*
X315283Y18436D01*
X315058Y18473D01*
X315039D01*
X314964Y18492D01*
X314757D01*
X314644Y18511D01*
X314155D01*
X313949Y18530D01*
D02*
G37*
G36*
X314061Y13361D02*
X311336D01*
Y9884D01*
X314230D01*
X314513Y9902D01*
X314813D01*
X315114Y9921D01*
X315358Y9940D01*
X315471D01*
X315546Y9959D01*
X315565D01*
X315640Y9978D01*
X315753Y10015D01*
X315885Y10053D01*
X316035Y10128D01*
X316204Y10222D01*
X316355Y10335D01*
X316505Y10466D01*
X316524Y10485D01*
X316561Y10541D01*
X316618Y10635D01*
X316693Y10767D01*
X316768Y10917D01*
X316824Y11105D01*
X316862Y11331D01*
X316881Y11575D01*
Y11594D01*
Y11669D01*
X316862Y11782D01*
X316843Y11914D01*
X316806Y12083D01*
X316749Y12233D01*
X316674Y12402D01*
X316580Y12572D01*
X316561Y12590D01*
X316524Y12647D01*
X316467Y12722D01*
X316373Y12797D01*
X316261Y12910D01*
X316110Y13004D01*
X315941Y13098D01*
X315753Y13173D01*
X315734D01*
X315640Y13211D01*
X315490Y13229D01*
X315396Y13248D01*
X315264Y13267D01*
X315133Y13286D01*
X314964Y13305D01*
X314776Y13323D01*
X314550D01*
X314324Y13342D01*
X314061Y13361D01*
D02*
G37*
G36*
X394828Y15297D02*
X394734D01*
X394659Y15278D01*
X394489Y15259D01*
X394264Y15203D01*
X394001Y15109D01*
X393719Y14977D01*
X393437Y14789D01*
X393174Y14545D01*
X393155Y14507D01*
X393080Y14413D01*
X392967Y14225D01*
X392854Y14000D01*
X392723Y13699D01*
X392629Y13323D01*
X392553Y12891D01*
X392516Y12402D01*
Y12384D01*
Y12346D01*
Y12271D01*
X392535Y12177D01*
Y12045D01*
X392553Y11914D01*
X392591Y11613D01*
X392685Y11256D01*
X392798Y10899D01*
X392948Y10541D01*
X393174Y10241D01*
X393211Y10203D01*
X393287Y10128D01*
X393437Y10015D01*
X393644Y9884D01*
X393869Y9733D01*
X394151Y9621D01*
X394471Y9545D01*
X394828Y9508D01*
X394922D01*
X394997Y9527D01*
X395166Y9545D01*
X395392Y9602D01*
X395655Y9696D01*
X395937Y9808D01*
X396200Y9996D01*
X396463Y10241D01*
X396501Y10278D01*
X396576Y10372D01*
X396670Y10560D01*
X396801Y10786D01*
X396933Y11105D01*
X397027Y11463D01*
X397102Y11914D01*
X397140Y12402D01*
Y12421D01*
Y12459D01*
Y12534D01*
X397121Y12628D01*
Y12741D01*
X397102Y12891D01*
X397065Y13192D01*
X396970Y13530D01*
X396858Y13887D01*
X396689Y14244D01*
X396463Y14545D01*
X396425Y14583D01*
X396350Y14658D01*
X396200Y14789D01*
X396012Y14921D01*
X395768Y15052D01*
X395504Y15184D01*
X395185Y15259D01*
X394828Y15297D01*
D02*
G37*
G36*
X362931Y15410D02*
X362799D01*
X362649Y15372D01*
X362461Y15335D01*
X362254Y15259D01*
X362029Y15165D01*
X361803Y15015D01*
X361596Y14808D01*
X361578Y14789D01*
X361521Y14695D01*
X361427Y14564D01*
X361333Y14376D01*
X361221Y14150D01*
X361145Y13868D01*
X361089Y13549D01*
X361070Y13192D01*
X364792D01*
Y13211D01*
Y13248D01*
Y13286D01*
X364773Y13361D01*
X364754Y13568D01*
X364717Y13793D01*
X364641Y14056D01*
X364547Y14338D01*
X364397Y14601D01*
X364228Y14827D01*
X364209Y14846D01*
X364134Y14921D01*
X364021Y15015D01*
X363871Y15128D01*
X363683Y15222D01*
X363457Y15316D01*
X363213Y15391D01*
X362931Y15410D01*
D02*
G37*
G36*
X335639D02*
X335508D01*
X335357Y15372D01*
X335169Y15335D01*
X334963Y15259D01*
X334737Y15165D01*
X334511Y15015D01*
X334305Y14808D01*
X334286Y14789D01*
X334230Y14695D01*
X334136Y14564D01*
X334041Y14376D01*
X333929Y14150D01*
X333853Y13868D01*
X333797Y13549D01*
X333778Y13192D01*
X337500D01*
Y13211D01*
Y13248D01*
Y13286D01*
X337481Y13361D01*
X337462Y13568D01*
X337425Y13793D01*
X337350Y14056D01*
X337256Y14338D01*
X337105Y14601D01*
X336936Y14827D01*
X336917Y14846D01*
X336842Y14921D01*
X336729Y15015D01*
X336579Y15128D01*
X336391Y15222D01*
X336165Y15316D01*
X335921Y15391D01*
X335639Y15410D01*
D02*
G37*
G36*
X325527D02*
X325395D01*
X325245Y15372D01*
X325057Y15335D01*
X324850Y15259D01*
X324625Y15165D01*
X324399Y15015D01*
X324192Y14808D01*
X324174Y14789D01*
X324117Y14695D01*
X324023Y14564D01*
X323929Y14376D01*
X323816Y14150D01*
X323741Y13868D01*
X323685Y13549D01*
X323666Y13192D01*
X327388D01*
Y13211D01*
Y13248D01*
Y13286D01*
X327369Y13361D01*
X327350Y13568D01*
X327313Y13793D01*
X327237Y14056D01*
X327143Y14338D01*
X326993Y14601D01*
X326824Y14827D01*
X326805Y14846D01*
X326730Y14921D01*
X326617Y15015D01*
X326467Y15128D01*
X326279Y15222D01*
X326053Y15316D01*
X325809Y15391D01*
X325527Y15410D01*
D02*
G37*
G36*
X286131D02*
X285999D01*
X285849Y15372D01*
X285661Y15335D01*
X285454Y15259D01*
X285228Y15165D01*
X285003Y15015D01*
X284796Y14808D01*
X284777Y14789D01*
X284721Y14695D01*
X284627Y14564D01*
X284533Y14376D01*
X284420Y14150D01*
X284345Y13868D01*
X284289Y13549D01*
X284270Y13192D01*
X287991D01*
Y13211D01*
Y13248D01*
Y13286D01*
X287973Y13361D01*
X287954Y13568D01*
X287916Y13793D01*
X287841Y14056D01*
X287747Y14338D01*
X287597Y14601D01*
X287427Y14827D01*
X287409Y14846D01*
X287333Y14921D01*
X287221Y15015D01*
X287070Y15128D01*
X286882Y15222D01*
X286657Y15316D01*
X286412Y15391D01*
X286131Y15410D01*
D02*
G37*
G36*
X276018D02*
X275887D01*
X275736Y15372D01*
X275548Y15335D01*
X275342Y15259D01*
X275116Y15165D01*
X274890Y15015D01*
X274684Y14808D01*
X274665Y14789D01*
X274608Y14695D01*
X274515Y14564D01*
X274421Y14376D01*
X274308Y14150D01*
X274233Y13868D01*
X274176Y13549D01*
X274157Y13192D01*
X277879D01*
Y13211D01*
Y13248D01*
Y13286D01*
X277860Y13361D01*
X277841Y13568D01*
X277804Y13793D01*
X277729Y14056D01*
X277635Y14338D01*
X277484Y14601D01*
X277315Y14827D01*
X277296Y14846D01*
X277221Y14921D01*
X277108Y15015D01*
X276958Y15128D01*
X276770Y15222D01*
X276544Y15316D01*
X276300Y15391D01*
X276018Y15410D01*
D02*
G37*
G36*
X252824Y18699D02*
X252674D01*
X252561Y18680D01*
X252429Y18661D01*
X252260Y18643D01*
X251903Y18567D01*
X251490Y18417D01*
X251283Y18342D01*
X251057Y18229D01*
X250832Y18097D01*
X250625Y17947D01*
X250418Y17778D01*
X250230Y17571D01*
X250211Y17552D01*
X250193Y17515D01*
X250136Y17458D01*
X250080Y17364D01*
X250005Y17233D01*
X249911Y17101D01*
X249817Y16932D01*
X249741Y16725D01*
X249648Y16500D01*
X249554Y16256D01*
X249459Y15974D01*
X249384Y15673D01*
X249328Y15335D01*
X249272Y14977D01*
X249253Y14601D01*
X249234Y14188D01*
Y14169D01*
Y14094D01*
Y13962D01*
X249253Y13812D01*
X249272Y13624D01*
X249290Y13398D01*
X249309Y13154D01*
X249366Y12891D01*
X249478Y12346D01*
X249648Y11763D01*
X249760Y11500D01*
X249911Y11218D01*
X250061Y10974D01*
X250230Y10748D01*
X250249Y10730D01*
X250268Y10692D01*
X250324Y10635D01*
X250418Y10579D01*
X250512Y10485D01*
X250625Y10391D01*
X250756Y10297D01*
X250926Y10184D01*
X251283Y9978D01*
X251715Y9790D01*
X251959Y9733D01*
X252204Y9677D01*
X252467Y9639D01*
X252749Y9621D01*
X252843D01*
X252956Y9639D01*
X253087D01*
X253256Y9658D01*
X253444Y9696D01*
X253820Y9790D01*
X253783Y9808D01*
X253689Y9884D01*
X253519Y9978D01*
X253313Y10090D01*
X253068Y10222D01*
X252805Y10353D01*
X252504Y10504D01*
X252204Y10617D01*
X252937Y12139D01*
X252956D01*
X252993Y12120D01*
X253068Y12102D01*
X253162Y12064D01*
X253275Y12008D01*
X253407Y11951D01*
X253726Y11801D01*
X254102Y11613D01*
X254516Y11387D01*
X254967Y11105D01*
X255399Y10786D01*
X255418Y10805D01*
X255474Y10899D01*
X255568Y11030D01*
X255681Y11199D01*
X255812Y11406D01*
X255944Y11651D01*
X256057Y11932D01*
X256170Y12233D01*
Y12252D01*
X256189Y12271D01*
X256207Y12384D01*
X256245Y12553D01*
X256301Y12797D01*
X256358Y13079D01*
X256395Y13417D01*
X256414Y13793D01*
X256433Y14188D01*
Y14207D01*
Y14282D01*
Y14413D01*
X256414Y14564D01*
X256395Y14752D01*
X256376Y14959D01*
X256358Y15203D01*
X256301Y15466D01*
X256189Y16011D01*
X256019Y16575D01*
X255907Y16838D01*
X255775Y17101D01*
X255606Y17346D01*
X255437Y17571D01*
X255418Y17590D01*
X255399Y17628D01*
X255343Y17684D01*
X255249Y17740D01*
X255155Y17834D01*
X255042Y17928D01*
X254891Y18022D01*
X254741Y18135D01*
X254553Y18248D01*
X254365Y18342D01*
X253914Y18530D01*
X253670Y18586D01*
X253407Y18643D01*
X253125Y18680D01*
X252824Y18699D01*
D02*
G37*
%LPD*%
D10*
X797560Y197100D02*
Y198100D01*
Y197100D01*
X57880Y133100D02*
G03*
X57880Y134100I0J500D01*
G01*
D02*
G03*
X57880Y133100I0J-500D01*
G01*
X687040Y233330D02*
G03*
X687040Y234330I0J500D01*
G01*
D02*
G03*
X687040Y233330I0J-500D01*
G01*
X691040Y237330D02*
X711040D01*
X691040Y217330D02*
X711040D01*
D11*
X820610Y267730D02*
G03*
X820610Y267730I-1000J0D01*
G01*
X739730Y255110D02*
G03*
X740730Y255110I500J0D01*
G01*
D02*
G03*
X739730Y255110I-500J0D01*
G01*
D02*
G03*
X740730Y255110I500J0D01*
G01*
X481700Y236220D02*
G03*
X479700Y236220I-1000J0D01*
G01*
D02*
G03*
X481700Y236220I1000J0D01*
G01*
X753560Y38100D02*
Y190500D01*
Y38100D02*
X850560D01*
Y190500D01*
X753560D02*
X850560D01*
X801760Y206130D02*
Y223130D01*
X818760Y206130D02*
Y223130D01*
X602925Y232840D02*
X629925D01*
Y259840D01*
X602925D02*
X629925D01*
X602925Y232840D02*
Y259840D01*
X605425Y198820D02*
Y215820D01*
X622425Y198820D02*
Y215820D01*
X216830Y134780D02*
Y151780D01*
X199830Y134780D02*
Y151780D01*
X208330Y103510D02*
Y120010D01*
X191830Y103510D02*
Y120010D01*
X164510Y145030D02*
Y153530D01*
X195010Y145030D02*
Y153530D01*
X145820Y116760D02*
X146820D01*
X145820Y124760D02*
X146820D01*
X135024Y216780D02*
X155586D01*
X135024Y199780D02*
X155586D01*
X138320Y95260D02*
X154320D01*
X138320Y111760D02*
X154320D01*
X880Y138700D02*
Y248300D01*
X100880D01*
Y138700D02*
Y248300D01*
X880Y138700D02*
X100880D01*
X171510Y103760D02*
Y120760D01*
X188010Y103760D02*
Y120760D01*
X137320Y190800D02*
X154320D01*
X137320Y173800D02*
X154320D01*
X89860Y60340D02*
Y71690D01*
Y111190D02*
Y122540D01*
X18760D02*
X89860D01*
X18760Y60340D02*
Y71690D01*
Y111190D02*
Y122540D01*
Y60340D02*
X89860D01*
X546610Y127880D02*
X563610D01*
X546610Y110880D02*
X563610D01*
X214935Y182290D02*
X226140D01*
X214935Y250890D02*
X226140D01*
Y182290D02*
Y250890D01*
X161440D02*
X172645D01*
X161440Y182290D02*
X172645D01*
X161440D02*
Y250890D01*
X710440Y249310D02*
X727440D01*
X710440Y266310D02*
X727440D01*
X529761Y185949D02*
Y214071D01*
X511639Y185949D02*
Y214071D01*
X498700Y224820D02*
X542700D01*
X691040Y249110D02*
Y266110D01*
X674040Y249110D02*
Y266110D01*
X595490Y201264D02*
Y220488D01*
X577990Y201264D02*
Y220488D01*
X653910Y201424D02*
Y220648D01*
X636410Y201424D02*
Y220648D01*
X714820Y137040D02*
Y138040D01*
X722820Y137040D02*
Y138040D01*
X678180Y98600D02*
Y104600D01*
X646820Y105600D02*
X647820D01*
X646820Y97600D02*
X647820D01*
X733870Y100850D02*
X738520D01*
X699120D02*
X703770D01*
X699120Y53350D02*
Y100850D01*
X733870Y53350D02*
X738520D01*
X699120D02*
X703770D01*
X738520D02*
Y100850D01*
X636320Y64100D02*
X642320D01*
X679241Y49769D02*
Y77891D01*
X661119Y49769D02*
Y77891D01*
X215530Y55380D02*
Y72380D01*
X201030Y55380D02*
Y72380D01*
X217280Y19690D02*
Y36190D01*
X199280Y19690D02*
Y36190D01*
X192670Y55380D02*
Y72380D01*
X178170Y55380D02*
Y72380D01*
X194420Y19690D02*
Y36190D01*
X176420Y19690D02*
Y36190D01*
X169810Y55380D02*
Y72380D01*
X155310Y55380D02*
Y72380D01*
X171560Y19690D02*
Y36190D01*
X153560Y19690D02*
Y36190D01*
X569770Y145670D02*
X575770D01*
X612950Y164720D02*
X618950D01*
X146950Y55380D02*
Y72380D01*
X132450Y55380D02*
Y72380D01*
X599200Y144130D02*
X606700D01*
X594200Y126130D02*
Y131630D01*
X599200Y113630D02*
X606700D01*
X148700Y19690D02*
Y36190D01*
X130700Y19690D02*
Y36190D01*
X630730Y164720D02*
X636730D01*
D12*
X610175Y226090D02*
G03*
X610175Y226090I-1250J0D01*
G01*
X190510Y173780D02*
G03*
X190510Y173780I-1250J0D01*
G01*
X101810Y91440D02*
G03*
X101810Y91440I-1250J0D01*
G01*
X720070Y118350D02*
G03*
X720070Y118350I-1250J0D01*
G01*
X209530Y47880D02*
G03*
X209530Y47880I-1250J0D01*
G01*
X186670D02*
G03*
X186670Y47880I-1250J0D01*
G01*
X163810D02*
G03*
X163810Y47880I-1250J0D01*
G01*
X140950D02*
G03*
X140950Y47880I-1250J0D01*
G01*
X628450Y119380D02*
G03*
X628450Y119380I-1250J0D01*
G01*
D13*
X806310Y261230D02*
Y263030D01*
X810310D01*
X822910D02*
X826910D01*
Y261230D02*
Y263030D01*
Y242430D02*
Y244230D01*
X822910Y242430D02*
X826910D01*
X806310D02*
Y244230D01*
Y242430D02*
X810310D01*
X260520Y255740D02*
X305520D01*
Y268740D01*
X395520Y255740D02*
Y268740D01*
X305520D02*
X395520D01*
X260520Y28740D02*
Y255740D01*
X395520D02*
X440520D01*
Y28740D02*
Y255740D01*
X260520Y28740D02*
X440520D01*
X835659Y256962D02*
X831427D01*
X830581Y256115D01*
Y254423D01*
X831427Y253576D01*
X835659D01*
X830581Y249344D02*
X835659D01*
X833120Y251884D01*
Y248498D01*
X825923Y215476D02*
X826769Y216323D01*
Y218015D01*
X825923Y218862D01*
X822537D01*
X821691Y218015D01*
Y216323D01*
X822537Y215476D01*
Y213784D02*
X821691Y212937D01*
Y211244D01*
X822537Y210398D01*
X825923D01*
X826769Y211244D01*
Y212937D01*
X825923Y213784D01*
X825076D01*
X824230Y212937D01*
Y210398D01*
X612193Y270469D02*
Y266237D01*
X613040Y265391D01*
X614732D01*
X615579Y266237D01*
Y270469D01*
X620657D02*
X617271D01*
Y267930D01*
X618964Y268776D01*
X619811D01*
X620657Y267930D01*
Y266237D01*
X619811Y265391D01*
X618118D01*
X617271Y266237D01*
X630858Y210282D02*
X631704Y211129D01*
Y212822D01*
X630858Y213668D01*
X627472D01*
X626626Y212822D01*
Y211129D01*
X627472Y210282D01*
X626626Y208590D02*
Y206897D01*
Y207743D01*
X631704D01*
X630858Y208590D01*
X626626Y200972D02*
Y204358D01*
X630011Y200972D01*
X630858D01*
X631704Y201818D01*
Y203511D01*
X630858Y204358D01*
X557226Y103937D02*
X558072Y103091D01*
X559765D01*
X560611Y103937D01*
Y107323D01*
X559765Y108169D01*
X558072D01*
X557226Y107323D01*
X555533Y108169D02*
X553840D01*
X554687D01*
Y103091D01*
X555533Y103937D01*
X551301Y108169D02*
X549608D01*
X550455D01*
Y103091D01*
X551301Y103937D01*
X245534Y251459D02*
Y247227D01*
X246381Y246381D01*
X248074D01*
X248920Y247227D01*
Y251459D01*
X250613Y246381D02*
X252306D01*
X251459D01*
Y251459D01*
X250613Y250613D01*
X836084Y199389D02*
X834391D01*
X835237D01*
Y195157D01*
X834391Y194311D01*
X833544D01*
X832698Y195157D01*
X841162Y194311D02*
X837776D01*
X841162Y197696D01*
Y198543D01*
X840316Y199389D01*
X838623D01*
X837776Y198543D01*
X1Y132080D02*
Y130387D01*
Y131234D01*
X4233D01*
X5079Y130387D01*
Y129541D01*
X4233Y128694D01*
X5079Y133773D02*
Y135466D01*
Y134619D01*
X1D01*
X847Y133773D01*
X622722Y104141D02*
Y108373D01*
X621875Y109219D01*
X620183D01*
X619336Y108373D01*
Y104141D01*
X617644Y104987D02*
X616797Y104141D01*
X615104D01*
X614258Y104987D01*
Y105834D01*
X615104Y106680D01*
X615951D01*
X615104D01*
X614258Y107526D01*
Y108373D01*
X615104Y109219D01*
X616797D01*
X617644Y108373D01*
X201291Y160868D02*
X205523D01*
X206369Y161714D01*
Y163407D01*
X205523Y164254D01*
X201291D01*
X206369Y169332D02*
Y165946D01*
X202984Y169332D01*
X202137D01*
X201291Y168486D01*
Y166793D01*
X202137Y165946D01*
X728981Y143965D02*
X734059D01*
Y141426D01*
X733213Y140579D01*
X731520D01*
X730674Y141426D01*
Y143965D01*
Y142272D02*
X728981Y140579D01*
Y135501D02*
Y138886D01*
X732366Y135501D01*
X733213D01*
X734059Y136347D01*
Y138040D01*
X733213Y138886D01*
X728981Y133808D02*
Y132115D01*
Y132962D01*
X734059D01*
X733213Y133808D01*
X133352Y5461D02*
Y10539D01*
X135891D01*
X136738Y9693D01*
Y8000D01*
X135891Y7154D01*
X133352D01*
X135045D02*
X136738Y5461D01*
X138430D02*
X140123D01*
X139277D01*
Y10539D01*
X138430Y9693D01*
X142662Y6307D02*
X143509Y5461D01*
X145202D01*
X146048Y6307D01*
Y9693D01*
X145202Y10539D01*
X143509D01*
X142662Y9693D01*
Y8846D01*
X143509Y8000D01*
X146048D01*
X156212Y5461D02*
Y10539D01*
X158751D01*
X159598Y9693D01*
Y8000D01*
X158751Y7154D01*
X156212D01*
X157905D02*
X159598Y5461D01*
X161290D02*
X162983D01*
X162137D01*
Y10539D01*
X161290Y9693D01*
X165522D02*
X166369Y10539D01*
X168062D01*
X168908Y9693D01*
Y8846D01*
X168062Y8000D01*
X168908Y7154D01*
Y6307D01*
X168062Y5461D01*
X166369D01*
X165522Y6307D01*
Y7154D01*
X166369Y8000D01*
X165522Y8846D01*
Y9693D01*
X166369Y8000D02*
X168062D01*
X179072Y5461D02*
Y10539D01*
X181611D01*
X182458Y9693D01*
Y8000D01*
X181611Y7154D01*
X179072D01*
X180765D02*
X182458Y5461D01*
X184150D02*
X185843D01*
X184997D01*
Y10539D01*
X184150Y9693D01*
X188382Y10539D02*
X191768D01*
Y9693D01*
X188382Y6307D01*
Y5461D01*
X201932D02*
Y10539D01*
X204471D01*
X205318Y9693D01*
Y8000D01*
X204471Y7154D01*
X201932D01*
X203625D02*
X205318Y5461D01*
X207010D02*
X208703D01*
X207857D01*
Y10539D01*
X207010Y9693D01*
X214628Y10539D02*
X212935Y9693D01*
X211242Y8000D01*
Y6307D01*
X212089Y5461D01*
X213782D01*
X214628Y6307D01*
Y7154D01*
X213782Y8000D01*
X211242D01*
X589279Y182882D02*
X584201D01*
Y185421D01*
X585047Y186268D01*
X586740D01*
X587586Y185421D01*
Y182882D01*
Y184575D02*
X589279Y186268D01*
Y187960D02*
Y189653D01*
Y188807D01*
X584201D01*
X585047Y187960D01*
X589279Y194732D02*
X584201D01*
X586740Y192192D01*
Y195578D01*
X657621Y217384D02*
X662699D01*
Y214845D01*
X661853Y213999D01*
X660160D01*
X659314Y214845D01*
Y217384D01*
Y215691D02*
X657621Y213999D01*
Y212306D02*
Y210613D01*
Y211459D01*
X662699D01*
X661853Y212306D01*
Y208074D02*
X662699Y207227D01*
Y205535D01*
X661853Y204688D01*
X661006D01*
X660160Y205535D01*
Y206381D01*
Y205535D01*
X659314Y204688D01*
X658467D01*
X657621Y205535D01*
Y207227D01*
X658467Y208074D01*
X533401Y206358D02*
X538479D01*
Y203819D01*
X537633Y202972D01*
X535940D01*
X535094Y203819D01*
Y206358D01*
Y204665D02*
X533401Y202972D01*
Y201280D02*
Y199587D01*
Y200433D01*
X538479D01*
X537633Y201280D01*
X533401Y193662D02*
Y197048D01*
X536786Y193662D01*
X537633D01*
X538479Y194508D01*
Y196201D01*
X537633Y197048D01*
X631191Y193461D02*
X636269D01*
Y190922D01*
X635423Y190076D01*
X633730D01*
X632884Y190922D01*
Y193461D01*
Y191769D02*
X631191Y190076D01*
Y188383D02*
Y186690D01*
Y187537D01*
X636269D01*
X635423Y188383D01*
X631191Y184151D02*
Y182458D01*
Y183305D01*
X636269D01*
X635423Y184151D01*
X575309Y162102D02*
X570231D01*
Y164641D01*
X571077Y165488D01*
X572770D01*
X573616Y164641D01*
Y162102D01*
Y163795D02*
X575309Y165488D01*
Y167180D02*
Y168873D01*
Y168027D01*
X570231D01*
X571077Y167180D01*
Y171412D02*
X570231Y172259D01*
Y173951D01*
X571077Y174798D01*
X574463D01*
X575309Y173951D01*
Y172259D01*
X574463Y171412D01*
X571077D01*
X613411Y192192D02*
X618489D01*
Y189653D01*
X617643Y188806D01*
X615950D01*
X615104Y189653D01*
Y192192D01*
Y190499D02*
X613411Y188806D01*
X614257Y187114D02*
X613411Y186267D01*
Y184574D01*
X614257Y183728D01*
X617643D01*
X618489Y184574D01*
Y186267D01*
X617643Y187114D01*
X616796D01*
X615950Y186267D01*
Y183728D01*
X649531Y68332D02*
X654609D01*
Y65793D01*
X653763Y64946D01*
X652070D01*
X651224Y65793D01*
Y68332D01*
Y66639D02*
X649531Y64946D01*
X653763Y63254D02*
X654609Y62407D01*
Y60714D01*
X653763Y59868D01*
X652916D01*
X652070Y60714D01*
X651224Y59868D01*
X650377D01*
X649531Y60714D01*
Y62407D01*
X650377Y63254D01*
X651224D01*
X652070Y62407D01*
X652916Y63254D01*
X653763D01*
X652070Y62407D02*
Y60714D01*
X652052Y91439D02*
Y86361D01*
X649513D01*
X648666Y87207D01*
Y88900D01*
X649513Y89746D01*
X652052D01*
X650359D02*
X648666Y91439D01*
X646974Y86361D02*
X643588D01*
Y87207D01*
X646974Y90593D01*
Y91439D01*
X684952D02*
Y86361D01*
X682413D01*
X681566Y87207D01*
Y88900D01*
X682413Y89746D01*
X684952D01*
X683259D02*
X681566Y91439D01*
X676488Y86361D02*
X678181Y87207D01*
X679874Y88900D01*
Y90593D01*
X679027Y91439D01*
X677334D01*
X676488Y90593D01*
Y89746D01*
X677334Y88900D01*
X679874D01*
X135359Y131548D02*
X130281D01*
Y134087D01*
X131127Y134934D01*
X132820D01*
X133666Y134087D01*
Y131548D01*
Y133241D02*
X135359Y134934D01*
X130281Y140012D02*
Y136626D01*
X132820D01*
X131974Y138319D01*
Y139166D01*
X132820Y140012D01*
X134513D01*
X135359Y139166D01*
Y137473D01*
X134513Y136626D01*
X129539Y116528D02*
X124461D01*
Y119067D01*
X125307Y119914D01*
X127000D01*
X127846Y119067D01*
Y116528D01*
Y118221D02*
X129539Y119914D01*
Y124146D02*
X124461D01*
X127000Y121606D01*
Y124992D01*
X203369Y84668D02*
X198291D01*
Y87207D01*
X199137Y88054D01*
X200830D01*
X201676Y87207D01*
Y84668D01*
Y86361D02*
X203369Y88054D01*
X199137Y89746D02*
X198291Y90593D01*
Y92286D01*
X199137Y93132D01*
X199984D01*
X200830Y92286D01*
Y91439D01*
Y92286D01*
X201676Y93132D01*
X202523D01*
X203369Y92286D01*
Y90593D01*
X202523Y89746D01*
X129539Y204048D02*
X124461D01*
Y206587D01*
X125307Y207434D01*
X127000D01*
X127846Y206587D01*
Y204048D01*
Y205741D02*
X129539Y207434D01*
Y212512D02*
Y209126D01*
X126154Y212512D01*
X125307D01*
X124461Y211666D01*
Y209973D01*
X125307Y209126D01*
X182879Y88055D02*
X177801D01*
Y90594D01*
X178647Y91440D01*
X180340D01*
X181186Y90594D01*
Y88055D01*
Y89747D02*
X182879Y91440D01*
Y93133D02*
Y94826D01*
Y93979D01*
X177801D01*
X178647Y93133D01*
X231141Y174415D02*
X236219D01*
Y177800D01*
Y179493D02*
Y181186D01*
Y180339D01*
X231141D01*
X231987Y179493D01*
X693532Y248769D02*
X695225D01*
X694379D01*
Y243691D01*
X693532D01*
X695225D01*
X701150Y247923D02*
X700303Y248769D01*
X698610D01*
X697764Y247923D01*
Y244537D01*
X698610Y243691D01*
X700303D01*
X701150Y244537D01*
X702842Y247923D02*
X703689Y248769D01*
X705382D01*
X706228Y247923D01*
Y247076D01*
X705382Y246230D01*
X704535D01*
X705382D01*
X706228Y245384D01*
Y244537D01*
X705382Y243691D01*
X703689D01*
X702842Y244537D01*
X560999Y257808D02*
Y256115D01*
Y256961D01*
X555921D01*
Y257808D01*
Y256115D01*
X560153Y250190D02*
X560999Y251037D01*
Y252730D01*
X560153Y253576D01*
X556767D01*
X555921Y252730D01*
Y251037D01*
X556767Y250190D01*
X555921Y245112D02*
Y248498D01*
X559306Y245112D01*
X560153D01*
X560999Y245958D01*
Y247651D01*
X560153Y248498D01*
X753959Y267969D02*
X755651D01*
X754805D01*
Y262891D01*
X753959D01*
X755651D01*
X761576Y267123D02*
X760730Y267969D01*
X759037D01*
X758190Y267123D01*
Y263737D01*
X759037Y262891D01*
X760730D01*
X761576Y263737D01*
X763269Y262891D02*
X764962D01*
X764115D01*
Y267969D01*
X763269Y267123D01*
X135468Y84199D02*
Y79121D01*
X138007D01*
X138854Y79967D01*
Y83353D01*
X138007Y84199D01*
X135468D01*
X140546D02*
X143932D01*
Y83353D01*
X140546Y79967D01*
Y79121D01*
X158328Y84199D02*
Y79121D01*
X160867D01*
X161714Y79967D01*
Y83353D01*
X160867Y84199D01*
X158328D01*
X166792D02*
X165099Y83353D01*
X163406Y81660D01*
Y79967D01*
X164253Y79121D01*
X165946D01*
X166792Y79967D01*
Y80814D01*
X165946Y81660D01*
X163406D01*
X181188Y84199D02*
Y79121D01*
X183727D01*
X184574Y79967D01*
Y83353D01*
X183727Y84199D01*
X181188D01*
X189652D02*
X186266D01*
Y81660D01*
X187959Y82506D01*
X188806D01*
X189652Y81660D01*
Y79967D01*
X188806Y79121D01*
X187113D01*
X186266Y79967D01*
X203378Y84199D02*
Y79121D01*
X205917D01*
X206764Y79967D01*
Y83353D01*
X205917Y84199D01*
X203378D01*
X210996Y79121D02*
Y84199D01*
X208456Y81660D01*
X211842D01*
X739139Y37252D02*
X734061D01*
Y34713D01*
X734907Y33866D01*
X738293D01*
X739139Y34713D01*
Y37252D01*
X734061Y28788D02*
Y32174D01*
X737446Y28788D01*
X738293D01*
X739139Y29634D01*
Y31327D01*
X738293Y32174D01*
X82974Y131239D02*
Y126161D01*
X85514D01*
X86360Y127007D01*
Y130393D01*
X85514Y131239D01*
X82974D01*
X88053Y126161D02*
X89746D01*
X88899D01*
Y131239D01*
X88053Y130393D01*
X667847Y254648D02*
X667001Y253801D01*
Y252108D01*
X667847Y251262D01*
X671233D01*
X672079Y252108D01*
Y253801D01*
X671233Y254648D01*
X672079Y256340D02*
Y258033D01*
Y257187D01*
X667001D01*
X667847Y256340D01*
Y260572D02*
X667001Y261419D01*
Y263112D01*
X667847Y263958D01*
X671233D01*
X672079Y263112D01*
Y261419D01*
X671233Y260572D01*
X667847D01*
X697654Y261803D02*
X696807Y262649D01*
X695115D01*
X694268Y261803D01*
Y258417D01*
X695115Y257571D01*
X696807D01*
X697654Y258417D01*
X699346Y261803D02*
X700193Y262649D01*
X701886D01*
X702732Y261803D01*
Y260956D01*
X701886Y260110D01*
X702732Y259264D01*
Y258417D01*
X701886Y257571D01*
X700193D01*
X699346Y258417D01*
Y259264D01*
X700193Y260110D01*
X699346Y260956D01*
Y261803D01*
X700193Y260110D02*
X701886D01*
X687873Y69676D02*
X688719Y70523D01*
Y72216D01*
X687873Y73062D01*
X684487D01*
X683641Y72216D01*
Y70523D01*
X684487Y69676D01*
X688719Y67984D02*
Y64598D01*
X687873D01*
X684487Y67984D01*
X683641D01*
X125307Y102914D02*
X124461Y102067D01*
Y100374D01*
X125307Y99528D01*
X128693D01*
X129539Y100374D01*
Y102067D01*
X128693Y102914D01*
X124461Y107992D02*
X125307Y106299D01*
X127000Y104606D01*
X128693D01*
X129539Y105453D01*
Y107146D01*
X128693Y107992D01*
X127846D01*
X127000Y107146D01*
Y104606D01*
X125307Y181454D02*
X124461Y180607D01*
Y178915D01*
X125307Y178068D01*
X128693D01*
X129539Y178915D01*
Y180607D01*
X128693Y181454D01*
X124461Y186532D02*
Y183146D01*
X127000D01*
X126154Y184839D01*
Y185686D01*
X127000Y186532D01*
X128693D01*
X129539Y185686D01*
Y183993D01*
X128693Y183146D01*
X121186Y247227D02*
X122033Y246381D01*
X123726D01*
X124572Y247227D01*
Y250613D01*
X123726Y251459D01*
X122033D01*
X121186Y250613D01*
X116954Y251459D02*
Y246381D01*
X119494Y248920D01*
X116108D01*
X123726Y227657D02*
X124573Y226811D01*
X126265D01*
X127112Y227657D01*
Y231043D01*
X126265Y231889D01*
X124573D01*
X123726Y231043D01*
X122034Y227657D02*
X121187Y226811D01*
X119494D01*
X118648Y227657D01*
Y228504D01*
X119494Y229350D01*
X120341D01*
X119494D01*
X118648Y230196D01*
Y231043D01*
X119494Y231889D01*
X121187D01*
X122034Y231043D01*
X122767Y161934D02*
X121921Y161087D01*
Y159395D01*
X122767Y158548D01*
X126153D01*
X126999Y159395D01*
Y161087D01*
X126153Y161934D01*
X126999Y167012D02*
Y163626D01*
X123614Y167012D01*
X122767D01*
X121921Y166166D01*
Y164473D01*
X122767Y163626D01*
X221827Y140530D02*
X220981Y139684D01*
Y137991D01*
X221827Y137144D01*
X225213D01*
X226059Y137991D01*
Y139684D01*
X225213Y140530D01*
X226059Y142223D02*
Y143916D01*
Y143069D01*
X220981D01*
X221827Y142223D01*
M02*
