G04*
G04 #@! TF.GenerationSoftware,Altium Limited,Altium Designer,26.3.0 (6)*
G04*
G04 Layer_Color=255*
%FSLAX44Y44*%
%MOMM*%
G71*
G04*
G04 #@! TF.SameCoordinates,6D605524-E43E-4BB1-BD99-AA3E501A16AE*
G04*
G04*
G04 #@! TF.FilePolarity,Positive*
G04*
G01*
G75*
%ADD17R,1.0000X0.9000*%
%ADD18R,1.7200X3.2000*%
%ADD19R,0.9700X1.4700*%
%ADD20R,0.8000X0.9000*%
%ADD21R,0.8000X0.9000*%
G04:AMPARAMS|DCode=22|XSize=1.1mm|YSize=0.6mm|CornerRadius=0.051mm|HoleSize=0mm|Usage=FLASHONLY|Rotation=270.000|XOffset=0mm|YOffset=0mm|HoleType=Round|Shape=RoundedRectangle|*
%AMROUNDEDRECTD22*
21,1,1.1000,0.4980,0,0,270.0*
21,1,0.9980,0.6000,0,0,270.0*
1,1,0.1020,-0.2490,-0.4990*
1,1,0.1020,-0.2490,0.4990*
1,1,0.1020,0.2490,0.4990*
1,1,0.1020,0.2490,-0.4990*
%
%ADD22ROUNDEDRECTD22*%
G04:AMPARAMS|DCode=23|XSize=0.38mm|YSize=0.35mm|CornerRadius=0.0158mm|HoleSize=0mm|Usage=FLASHONLY|Rotation=0.000|XOffset=0mm|YOffset=0mm|HoleType=Round|Shape=RoundedRectangle|*
%AMROUNDEDRECTD23*
21,1,0.3800,0.3185,0,0,0.0*
21,1,0.3485,0.3500,0,0,0.0*
1,1,0.0315,0.1743,-0.1593*
1,1,0.0315,-0.1743,-0.1593*
1,1,0.0315,-0.1743,0.1593*
1,1,0.0315,0.1743,0.1593*
%
%ADD23ROUNDEDRECTD23*%
%ADD24R,0.9000X0.8000*%
%ADD25R,0.8000X0.5000*%
%ADD26R,2.0320X1.3462*%
%ADD27R,0.9000X1.0000*%
%ADD28R,0.9531X0.8121*%
%ADD29R,0.7500X0.6000*%
%ADD30R,1.0500X1.3500*%
%ADD31R,3.4290X2.4130*%
%ADD32R,1.0121X1.1581*%
%ADD33R,0.6500X0.3000*%
%ADD34R,0.8621X0.6637*%
%ADD35R,0.9000X0.9500*%
%ADD36R,2.2600X2.1600*%
%ADD37R,0.9500X0.9000*%
%ADD38R,0.7000X0.7000*%
%ADD39R,1.0000X1.0000*%
G04:AMPARAMS|DCode=40|XSize=1.1mm|YSize=0.6mm|CornerRadius=0.051mm|HoleSize=0mm|Usage=FLASHONLY|Rotation=180.000|XOffset=0mm|YOffset=0mm|HoleType=Round|Shape=RoundedRectangle|*
%AMROUNDEDRECTD40*
21,1,1.1000,0.4980,0,0,180.0*
21,1,0.9980,0.6000,0,0,180.0*
1,1,0.1020,-0.4990,0.2490*
1,1,0.1020,0.4990,0.2490*
1,1,0.1020,0.4990,-0.2490*
1,1,0.1020,-0.4990,-0.2490*
%
%ADD40ROUNDEDRECTD40*%
%ADD45R,0.3750X0.3500*%
%ADD46R,0.3500X0.3750*%
%ADD64C,2.1000*%
%ADD65R,2.1000X2.1000*%
%ADD66C,1.8000*%
%ADD67C,1.2500*%
D17*
X718820Y145540D02*
D03*
Y129540D02*
D03*
D18*
X86360Y91440D02*
D03*
X22260D02*
D03*
D19*
X153320Y162780D02*
D03*
X136720D02*
D03*
D20*
X153320Y182300D02*
D03*
X153820Y103510D02*
D03*
X138820D02*
D03*
X138320Y182300D02*
D03*
X547610Y119380D02*
D03*
X562610D02*
D03*
X726440Y257810D02*
D03*
X711440D02*
D03*
D21*
X179760Y103760D02*
D03*
Y120760D02*
D03*
D22*
X170260Y162780D02*
D03*
X189260Y135780D02*
D03*
X179760D02*
D03*
X170260D02*
D03*
X189260Y162780D02*
D03*
X179760D02*
D03*
D23*
X819110Y260380D02*
D03*
X814110D02*
D03*
X808960Y257730D02*
D03*
Y252730D02*
D03*
Y247730D02*
D03*
X814110Y245080D02*
D03*
X819110D02*
D03*
X824260Y247730D02*
D03*
Y252730D02*
D03*
Y257730D02*
D03*
D24*
X810260Y207130D02*
D03*
Y222130D02*
D03*
X613925Y199820D02*
D03*
Y214820D02*
D03*
X208330Y150780D02*
D03*
Y135780D02*
D03*
X682540Y265110D02*
D03*
Y250110D02*
D03*
D25*
X770730Y255110D02*
D03*
Y245110D02*
D03*
Y235110D02*
D03*
X750730D02*
D03*
Y245110D02*
D03*
Y255110D02*
D03*
D26*
X266700Y241300D02*
D03*
Y215900D02*
D03*
Y190500D02*
D03*
Y165100D02*
D03*
Y139700D02*
D03*
Y114300D02*
D03*
Y63500D02*
D03*
X434340Y241300D02*
D03*
Y215900D02*
D03*
Y190500D02*
D03*
Y165100D02*
D03*
Y139700D02*
D03*
Y114300D02*
D03*
Y88900D02*
D03*
Y63500D02*
D03*
X266700Y88900D02*
D03*
D27*
X200080Y120760D02*
D03*
Y102760D02*
D03*
X138320Y120760D02*
D03*
X154320D02*
D03*
X655320Y101600D02*
D03*
X639320D02*
D03*
D28*
X150820Y208280D02*
D03*
X139789D02*
D03*
D29*
X143320Y135780D02*
D03*
X154320D02*
D03*
D30*
X151280Y229350D02*
D03*
X136280D02*
D03*
X151280Y249670D02*
D03*
X136280D02*
D03*
D31*
X193790Y187380D02*
D03*
Y245800D02*
D03*
D32*
X520700Y191740D02*
D03*
Y208280D02*
D03*
X670180Y55560D02*
D03*
Y72100D02*
D03*
D33*
X692040Y233830D02*
D03*
Y227330D02*
D03*
Y220830D02*
D03*
X710040D02*
D03*
Y227330D02*
D03*
Y233830D02*
D03*
D34*
X586740Y204582D02*
D03*
Y217170D02*
D03*
X645160Y204742D02*
D03*
Y217330D02*
D03*
D35*
X686180Y101600D02*
D03*
X670180D02*
D03*
D36*
X718820Y52600D02*
D03*
Y101600D02*
D03*
D37*
X639320Y56100D02*
D03*
Y72100D02*
D03*
X572770Y137670D02*
D03*
Y153670D02*
D03*
X615950Y156720D02*
D03*
Y172720D02*
D03*
X633730D02*
D03*
Y156720D02*
D03*
D38*
X208280Y70880D02*
D03*
Y56880D02*
D03*
X185420Y70880D02*
D03*
Y56880D02*
D03*
X162560Y70880D02*
D03*
Y56880D02*
D03*
X139700Y70880D02*
D03*
Y56880D02*
D03*
D39*
X208280Y35940D02*
D03*
Y19940D02*
D03*
X185420Y35940D02*
D03*
Y19940D02*
D03*
X162560Y35940D02*
D03*
Y19940D02*
D03*
X139700Y35940D02*
D03*
Y19940D02*
D03*
D40*
X589950Y119380D02*
D03*
Y138380D02*
D03*
X615950D02*
D03*
Y128880D02*
D03*
Y119380D02*
D03*
D45*
X608800Y243840D02*
D03*
Y248840D02*
D03*
X624050D02*
D03*
Y243840D02*
D03*
D46*
X608925Y253965D02*
D03*
X613925D02*
D03*
X618925D02*
D03*
X623925D02*
D03*
Y238715D02*
D03*
X618925D02*
D03*
X613925D02*
D03*
X608925D02*
D03*
D64*
X797560Y114300D02*
D03*
Y63500D02*
D03*
D65*
Y165100D02*
D03*
D66*
X55880D02*
D03*
Y215900D02*
D03*
D67*
X495300Y236220D02*
D03*
X520700D02*
D03*
X546100D02*
D03*
M02*
