G04*
G04 #@! TF.GenerationSoftware,Altium Limited,Altium Designer,26.3.0 (6)*
G04*
G04 Layer_Physical_Order=4*
G04 Layer_Color=16711680*
%FSLAX44Y44*%
%MOMM*%
G71*
G04*
G04 #@! TF.SameCoordinates,6D605524-E43E-4BB1-BD99-AA3E501A16AE*
G04*
G04*
G04 #@! TF.FilePolarity,Positive*
G04*
G01*
G75*
%ADD59C,0.2032*%
%ADD60C,0.2540*%
%ADD61C,0.3810*%
%ADD64C,2.1000*%
%ADD65R,2.1000X2.1000*%
%ADD66C,1.8000*%
%ADD67C,1.2500*%
%ADD68C,0.6000*%
%ADD69C,0.6604*%
G36*
X850900Y0D02*
X0D01*
Y279400D01*
X850900D01*
Y0D01*
D02*
G37*
%LPC*%
G36*
X837839Y272542D02*
X836021D01*
X834340Y271846D01*
X833054Y270560D01*
X832358Y268879D01*
Y267061D01*
X833054Y265380D01*
X834340Y264094D01*
X836021Y263398D01*
X837839D01*
X839520Y264094D01*
X840806Y265380D01*
X841502Y267061D01*
Y268879D01*
X840806Y270560D01*
X839520Y271846D01*
X837839Y272542D01*
D02*
G37*
G36*
X802279D02*
X800461D01*
X798780Y271846D01*
X798301Y271367D01*
X798059Y271273D01*
X797835Y271057D01*
X797644Y270896D01*
X797458Y270760D01*
X797278Y270647D01*
X797103Y270556D01*
X796931Y270484D01*
X796763Y270430D01*
X796594Y270392D01*
X796423Y270370D01*
X796187Y270359D01*
X796061Y270301D01*
X791810D01*
X790918Y270123D01*
X790162Y269618D01*
X787022Y266478D01*
X786517Y265722D01*
X786339Y264830D01*
Y242345D01*
X781435Y237441D01*
X766835D01*
Y258880D01*
X766432Y259852D01*
X765460Y260255D01*
X756000D01*
X755028Y259852D01*
X754625Y258880D01*
Y237441D01*
X741039D01*
X740913Y237499D01*
X740677Y237510D01*
X740506Y237532D01*
X740338Y237570D01*
X740169Y237624D01*
X739997Y237696D01*
X739822Y237787D01*
X739642Y237900D01*
X739456Y238036D01*
X739265Y238197D01*
X739041Y238413D01*
X738799Y238507D01*
X738320Y238986D01*
X736639Y239682D01*
X734821D01*
X733140Y238986D01*
X731854Y237700D01*
X731158Y236019D01*
Y235343D01*
X731054Y235105D01*
X731048Y234793D01*
X731027Y234545D01*
X730992Y234317D01*
X730944Y234110D01*
X730884Y233921D01*
X730814Y233749D01*
X730732Y233592D01*
X730640Y233446D01*
X730535Y233309D01*
X730376Y233135D01*
X730328Y233004D01*
X722916Y225592D01*
X722787Y225546D01*
X722609Y225384D01*
X722490Y225296D01*
X722382Y225234D01*
X722282Y225191D01*
X722184Y225163D01*
X722082Y225147D01*
X721968Y225144D01*
X721834Y225156D01*
X721677Y225187D01*
X721437Y225259D01*
X721241Y225240D01*
X720849Y225402D01*
X719031D01*
X717350Y224706D01*
X716924Y224279D01*
X716884Y224275D01*
X716861Y224275D01*
X716850Y224271D01*
X716824Y224268D01*
X716777Y224242D01*
X716767Y224238D01*
X716693Y224217D01*
X716563Y224191D01*
X716410Y224168D01*
X715578Y224113D01*
X715247Y224110D01*
X715147Y224067D01*
X708765D01*
Y226859D01*
X717834Y235928D01*
X717965Y235976D01*
X718139Y236135D01*
X718276Y236240D01*
X718422Y236332D01*
X718579Y236413D01*
X718751Y236484D01*
X718940Y236544D01*
X719147Y236591D01*
X719374Y236627D01*
X719623Y236648D01*
X719935Y236654D01*
X720172Y236758D01*
X720849D01*
X722530Y237454D01*
X723816Y238740D01*
X724512Y240421D01*
Y242239D01*
X723816Y243920D01*
X722530Y245206D01*
X720849Y245902D01*
X719031D01*
X717350Y245206D01*
X716064Y243920D01*
X715368Y242239D01*
Y241563D01*
X715264Y241325D01*
X715257Y241013D01*
X715237Y240764D01*
X715201Y240537D01*
X715154Y240329D01*
X715094Y240141D01*
X715023Y239969D01*
X714942Y239812D01*
X714850Y239666D01*
X714745Y239529D01*
X714585Y239355D01*
X714538Y239224D01*
X709938Y234624D01*
X708765Y235110D01*
Y237330D01*
X708362Y238302D01*
X707390Y238705D01*
X694690D01*
X693718Y238302D01*
X693315Y237330D01*
Y229098D01*
X652323D01*
X650747Y230674D01*
X650688Y230817D01*
X650473Y231035D01*
X650355Y231164D01*
X650250Y231301D01*
X650158Y231447D01*
X650076Y231604D01*
X650006Y231776D01*
X649946Y231965D01*
X649899Y232172D01*
X649863Y232399D01*
X649842Y232648D01*
X649836Y232960D01*
X649732Y233197D01*
Y233874D01*
X649036Y235555D01*
X647750Y236841D01*
X646069Y237537D01*
X644251D01*
X642570Y236841D01*
X641284Y235555D01*
X640588Y233874D01*
Y233271D01*
X640563Y233239D01*
X640546Y233224D01*
X640542Y233213D01*
X640525Y233193D01*
X640510Y233141D01*
X640506Y233131D01*
X640469Y233064D01*
X640396Y232954D01*
X640303Y232829D01*
X639754Y232202D01*
X639522Y231965D01*
X639482Y231865D01*
X630564Y222947D01*
X618230D01*
X617744Y224121D01*
X617801Y224178D01*
X618497Y225858D01*
Y227677D01*
X617801Y229357D01*
X616515Y230643D01*
X614834Y231339D01*
X613016D01*
X611335Y230643D01*
X610049Y229357D01*
X609353Y227677D01*
Y225858D01*
X610049Y224178D01*
X610106Y224121D01*
X609620Y222947D01*
X563301D01*
X562775Y224217D01*
X570389Y231831D01*
X571091Y232881D01*
X571337Y234120D01*
Y244035D01*
X571379Y244130D01*
X571395Y244797D01*
X571436Y245298D01*
X571461Y245463D01*
X571488Y245593D01*
X571508Y245667D01*
X571512Y245677D01*
X571538Y245723D01*
X571541Y245750D01*
X571545Y245761D01*
X571545Y245784D01*
X571549Y245823D01*
X571976Y246250D01*
X572672Y247931D01*
Y249749D01*
X571976Y251430D01*
X570690Y252716D01*
X569009Y253412D01*
X567191D01*
X565510Y252716D01*
X564224Y251430D01*
X563528Y249749D01*
Y247931D01*
X564224Y246250D01*
X564651Y245823D01*
X564655Y245784D01*
X564655Y245761D01*
X564659Y245750D01*
X564662Y245723D01*
X564688Y245677D01*
X564692Y245667D01*
X564712Y245593D01*
X564739Y245463D01*
X564762Y245310D01*
X564817Y244478D01*
X564820Y244147D01*
X564863Y244047D01*
Y235461D01*
X558729Y229327D01*
X551638D01*
X551112Y230597D01*
X552118Y231603D01*
X553107Y233317D01*
X553620Y235230D01*
Y237210D01*
X553107Y239123D01*
X552118Y240837D01*
X550717Y242237D01*
X549003Y243228D01*
X547090Y243740D01*
X545110D01*
X543197Y243228D01*
X541483Y242237D01*
X540083Y240837D01*
X539092Y239123D01*
X538580Y237210D01*
Y235230D01*
X539092Y233317D01*
X540083Y231603D01*
X541088Y230597D01*
X540562Y229327D01*
X526238D01*
X525712Y230597D01*
X526717Y231603D01*
X527707Y233317D01*
X528220Y235230D01*
Y237210D01*
X527707Y239123D01*
X526717Y240837D01*
X525317Y242237D01*
X523603Y243228D01*
X521690Y243740D01*
X519710D01*
X517797Y243228D01*
X516083Y242237D01*
X514683Y240837D01*
X513693Y239123D01*
X513180Y237210D01*
Y235230D01*
X513693Y233317D01*
X514683Y231603D01*
X515688Y230597D01*
X515162Y229327D01*
X502497D01*
X502011Y230501D01*
X502334Y230823D01*
X503491Y232827D01*
X504060Y234950D01*
X486540D01*
X487109Y232827D01*
X488266Y230823D01*
X488588Y230501D01*
X488102Y229327D01*
X406980D01*
X405741Y229081D01*
X404691Y228379D01*
X368551Y192239D01*
X367849Y191189D01*
X367603Y189950D01*
Y130535D01*
X367561Y130440D01*
X367545Y129773D01*
X367504Y129272D01*
X367479Y129107D01*
X367453Y128977D01*
X367431Y128903D01*
X367427Y128893D01*
X367402Y128847D01*
X367399Y128820D01*
X367395Y128809D01*
X367395Y128786D01*
X367391Y128747D01*
X366964Y128320D01*
X366268Y126639D01*
Y124821D01*
X366964Y123140D01*
X368250Y121854D01*
X369931Y121158D01*
X371749D01*
X373430Y121854D01*
X374716Y123140D01*
X375412Y124821D01*
Y126639D01*
X374716Y128320D01*
X374289Y128747D01*
X374285Y128786D01*
X374285Y128809D01*
X374281Y128820D01*
X374278Y128847D01*
X374253Y128893D01*
X374249Y128903D01*
X374227Y128977D01*
X374201Y129107D01*
X374178Y129260D01*
X374123Y130092D01*
X374120Y130423D01*
X374077Y130523D01*
Y188609D01*
X384113Y198645D01*
X385383Y198119D01*
Y169905D01*
X385341Y169810D01*
X385325Y169143D01*
X385284Y168642D01*
X385259Y168477D01*
X385233Y168347D01*
X385211Y168273D01*
X385207Y168263D01*
X385182Y168216D01*
X385179Y168190D01*
X385175Y168179D01*
X385175Y168156D01*
X385171Y168116D01*
X384744Y167690D01*
X384048Y166009D01*
Y164191D01*
X384744Y162510D01*
X386030Y161224D01*
X387711Y160528D01*
X389529D01*
X391210Y161224D01*
X392496Y162510D01*
X393192Y164191D01*
Y166009D01*
X392496Y167690D01*
X392069Y168116D01*
X392065Y168156D01*
X392065Y168179D01*
X392061Y168190D01*
X392058Y168216D01*
X392033Y168263D01*
X392029Y168273D01*
X392007Y168347D01*
X391981Y168477D01*
X391958Y168630D01*
X391903Y169462D01*
X391900Y169793D01*
X391857Y169893D01*
Y198049D01*
X410281Y216473D01*
X413435D01*
X413921Y215299D01*
X397761Y199139D01*
X397059Y198089D01*
X396813Y196850D01*
Y152471D01*
X389729Y145387D01*
X389632Y145349D01*
X389150Y144889D01*
X388766Y144564D01*
X388631Y144464D01*
X388521Y144391D01*
X388453Y144354D01*
X388444Y144350D01*
X388392Y144335D01*
X388372Y144318D01*
X388361Y144313D01*
X388346Y144297D01*
X388314Y144272D01*
X387711D01*
X386030Y143576D01*
X384744Y142290D01*
X384048Y140609D01*
Y138791D01*
X384744Y137110D01*
X386030Y135824D01*
X387711Y135128D01*
X389529D01*
X391210Y135824D01*
X392496Y137110D01*
X393192Y138791D01*
Y139394D01*
X393217Y139426D01*
X393233Y139441D01*
X393238Y139452D01*
X393255Y139473D01*
X393270Y139524D01*
X393274Y139534D01*
X393312Y139601D01*
X393384Y139711D01*
X393477Y139836D01*
X394026Y140463D01*
X394258Y140700D01*
X394298Y140800D01*
X402339Y148841D01*
X403041Y149891D01*
X403287Y151130D01*
Y195509D01*
X419171Y211393D01*
X563463D01*
X563528Y211328D01*
Y211181D01*
X564183Y209600D01*
X563735Y208330D01*
X482600D01*
X481609Y208133D01*
X480769Y207571D01*
X468069Y194871D01*
X467507Y194031D01*
X467310Y193040D01*
Y149973D01*
X467256Y149853D01*
X467247Y149576D01*
X467226Y149361D01*
X467191Y149164D01*
X467145Y148983D01*
X467088Y148816D01*
X467020Y148662D01*
X466941Y148517D01*
X466850Y148380D01*
X466746Y148248D01*
X466587Y148080D01*
X466498Y147843D01*
X466024Y147370D01*
X465328Y145689D01*
Y143871D01*
X466024Y142190D01*
X467310Y140904D01*
X468991Y140208D01*
X470809D01*
X472490Y140904D01*
X473776Y142190D01*
X474472Y143871D01*
Y145689D01*
X473776Y147370D01*
X473302Y147843D01*
X473213Y148080D01*
X473054Y148248D01*
X472950Y148380D01*
X472859Y148517D01*
X472780Y148662D01*
X472712Y148816D01*
X472655Y148983D01*
X472609Y149164D01*
X472574Y149361D01*
X472553Y149576D01*
X472544Y149853D01*
X472490Y149973D01*
Y191967D01*
X483673Y203150D01*
X486485D01*
X486971Y201977D01*
X480952Y195958D01*
X480447Y195202D01*
X480269Y194310D01*
Y133579D01*
X480211Y133453D01*
X480200Y133217D01*
X480178Y133046D01*
X480140Y132878D01*
X480086Y132709D01*
X480014Y132537D01*
X479923Y132362D01*
X479810Y132182D01*
X479674Y131996D01*
X479513Y131805D01*
X479297Y131580D01*
X479203Y131339D01*
X478724Y130860D01*
X478028Y129179D01*
Y127361D01*
X478724Y125680D01*
X480010Y124394D01*
X481691Y123698D01*
X483509D01*
X485190Y124394D01*
X486476Y125680D01*
X487172Y127361D01*
Y129179D01*
X486476Y130860D01*
X485997Y131339D01*
X485903Y131580D01*
X485687Y131805D01*
X485526Y131996D01*
X485390Y132182D01*
X485277Y132362D01*
X485186Y132537D01*
X485114Y132709D01*
X485060Y132877D01*
X485022Y133046D01*
X485000Y133217D01*
X484989Y133453D01*
X484931Y133579D01*
Y193345D01*
X491439Y199853D01*
X639064D01*
X639956Y200031D01*
X640712Y200536D01*
X646125Y205949D01*
X736680D01*
X737572Y206127D01*
X738328Y206632D01*
X739518Y207822D01*
X740023Y208578D01*
X740201Y209470D01*
Y225095D01*
X743915Y228809D01*
X792523D01*
X792776Y227539D01*
X792430Y227396D01*
X791144Y226110D01*
X790448Y224429D01*
Y222611D01*
X791144Y220930D01*
X792430Y219644D01*
X794111Y218948D01*
X795929D01*
X797610Y219644D01*
X798896Y220930D01*
X799592Y222611D01*
Y224429D01*
X798896Y226110D01*
X797610Y227396D01*
X797264Y227539D01*
X797517Y228809D01*
X821601D01*
X821727Y228751D01*
X821963Y228740D01*
X822134Y228718D01*
X822302Y228680D01*
X822471Y228626D01*
X822643Y228554D01*
X822818Y228463D01*
X822998Y228350D01*
X823184Y228214D01*
X823375Y228053D01*
X823599Y227837D01*
X823841Y227743D01*
X824320Y227264D01*
X826001Y226568D01*
X827819D01*
X829500Y227264D01*
X830786Y228550D01*
X831482Y230231D01*
Y232049D01*
X830786Y233730D01*
X829500Y235016D01*
X827819Y235712D01*
X826001D01*
X824320Y235016D01*
X823841Y234537D01*
X823599Y234443D01*
X823375Y234227D01*
X823184Y234066D01*
X822999Y233930D01*
X822818Y233817D01*
X822643Y233726D01*
X822471Y233654D01*
X822303Y233600D01*
X822134Y233562D01*
X821963Y233540D01*
X821727Y233529D01*
X821601Y233471D01*
X785716D01*
X785230Y234644D01*
X790318Y239732D01*
X790823Y240488D01*
X791001Y241380D01*
Y263865D01*
X792775Y265639D01*
X796061D01*
X796187Y265581D01*
X796423Y265570D01*
X796594Y265548D01*
X796762Y265510D01*
X796931Y265456D01*
X797103Y265384D01*
X797278Y265293D01*
X797458Y265180D01*
X797644Y265044D01*
X797835Y264883D01*
X798059Y264667D01*
X798301Y264573D01*
X798780Y264094D01*
X800461Y263398D01*
X802279D01*
X803960Y264094D01*
X805246Y265380D01*
X805942Y267061D01*
Y268879D01*
X805246Y270560D01*
X803960Y271846D01*
X802279Y272542D01*
D02*
G37*
G36*
X614834Y271272D02*
X613016D01*
X611335Y270576D01*
X610049Y269290D01*
X609353Y267609D01*
Y265791D01*
X610049Y264110D01*
X611335Y262824D01*
X613016Y262128D01*
X614834D01*
X616515Y262824D01*
X617801Y264110D01*
X618497Y265791D01*
Y267609D01*
X617801Y269290D01*
X616515Y270576D01*
X614834Y271272D01*
D02*
G37*
G36*
X728349Y270882D02*
X726531D01*
X724850Y270186D01*
X723564Y268900D01*
X722868Y267219D01*
Y265401D01*
X723564Y263720D01*
X724850Y262434D01*
X726531Y261738D01*
X728349D01*
X730030Y262434D01*
X731316Y263720D01*
X732012Y265401D01*
Y267219D01*
X731316Y268900D01*
X730030Y270186D01*
X728349Y270882D01*
D02*
G37*
G36*
X389469Y265890D02*
X387771D01*
X386201Y265240D01*
X385000Y264039D01*
X384350Y262469D01*
Y260771D01*
X385000Y259201D01*
X386201Y258000D01*
X387771Y257350D01*
X389469D01*
X391039Y258000D01*
X392240Y259201D01*
X392890Y260771D01*
Y262469D01*
X392240Y264039D01*
X391039Y265240D01*
X389469Y265890D01*
D02*
G37*
G36*
X237069D02*
X235371D01*
X233801Y265240D01*
X232600Y264039D01*
X231950Y262469D01*
Y260771D01*
X232600Y259201D01*
X233801Y258000D01*
X235371Y257350D01*
X237069D01*
X238639Y258000D01*
X239840Y259201D01*
X240490Y260771D01*
Y262469D01*
X239840Y264039D01*
X238639Y265240D01*
X237069Y265890D01*
D02*
G37*
G36*
X658769Y253412D02*
X656951D01*
X655270Y252716D01*
X653984Y251430D01*
X653288Y249749D01*
Y247931D01*
X653984Y246250D01*
X655270Y244964D01*
X656951Y244268D01*
X658769D01*
X660450Y244964D01*
X661736Y246250D01*
X662432Y247931D01*
Y249749D01*
X661736Y251430D01*
X660450Y252716D01*
X658769Y253412D01*
D02*
G37*
G36*
X822910Y260255D02*
X810310D01*
X809338Y259852D01*
X808935Y258880D01*
Y245110D01*
X809338Y244138D01*
X810310Y243735D01*
X822910D01*
X823882Y244138D01*
X824285Y245110D01*
Y258880D01*
X823882Y259852D01*
X822910Y260255D01*
D02*
G37*
G36*
X496570Y244980D02*
Y237490D01*
X504060D01*
X503491Y239613D01*
X502334Y241617D01*
X500697Y243254D01*
X498693Y244411D01*
X496570Y244980D01*
D02*
G37*
G36*
X494030D02*
X491907Y244411D01*
X489903Y243254D01*
X488266Y241617D01*
X487109Y239613D01*
X486540Y237490D01*
X494030D01*
Y244980D01*
D02*
G37*
G36*
X627175Y258465D02*
X605675D01*
X604703Y258062D01*
X604300Y257090D01*
Y235590D01*
X604703Y234618D01*
X605675Y234215D01*
X627175D01*
X628147Y234618D01*
X628550Y235590D01*
Y257090D01*
X628147Y258062D01*
X627175Y258465D01*
D02*
G37*
G36*
X57399Y227440D02*
X57150D01*
Y217170D01*
X67420D01*
Y217419D01*
X66634Y220354D01*
X65114Y222986D01*
X62966Y225134D01*
X60334Y226653D01*
X57399Y227440D01*
D02*
G37*
G36*
X54610D02*
X54361D01*
X51426Y226653D01*
X48794Y225134D01*
X46646Y222986D01*
X45127Y220354D01*
X44340Y217419D01*
Y217170D01*
X54610D01*
Y227440D01*
D02*
G37*
G36*
X67420Y214630D02*
X57150D01*
Y204360D01*
X57399D01*
X60334Y205147D01*
X62966Y206666D01*
X65114Y208814D01*
X66634Y211446D01*
X67420Y214381D01*
Y214630D01*
D02*
G37*
G36*
X54610D02*
X44340D01*
Y214381D01*
X45127Y211446D01*
X46646Y208814D01*
X48794Y206666D01*
X51426Y205147D01*
X54361Y204360D01*
X54610D01*
Y214630D01*
D02*
G37*
G36*
X646069Y200152D02*
X644251D01*
X642570Y199456D01*
X641284Y198170D01*
X640588Y196489D01*
Y194671D01*
X641284Y192990D01*
X642570Y191704D01*
X644251Y191008D01*
X646069D01*
X647750Y191704D01*
X649036Y192990D01*
X649732Y194671D01*
Y196489D01*
X649036Y198170D01*
X647750Y199456D01*
X646069Y200152D01*
D02*
G37*
G36*
X587649Y198392D02*
X585831D01*
X584150Y197696D01*
X582864Y196410D01*
X582168Y194729D01*
Y192911D01*
X582864Y191230D01*
X584150Y189944D01*
X585831Y189248D01*
X587649D01*
X589330Y189944D01*
X590616Y191230D01*
X591312Y192911D01*
Y194729D01*
X590616Y196410D01*
X589330Y197696D01*
X587649Y198392D01*
D02*
G37*
G36*
X458109Y195072D02*
X456291D01*
X454610Y194376D01*
X453324Y193090D01*
X452628Y191409D01*
Y189591D01*
X453324Y187910D01*
X454610Y186624D01*
X456291Y185928D01*
X458109D01*
X459790Y186624D01*
X461076Y187910D01*
X461772Y189591D01*
Y191409D01*
X461076Y193090D01*
X459790Y194376D01*
X458109Y195072D01*
D02*
G37*
G36*
X521609Y178562D02*
X519791D01*
X518110Y177866D01*
X516824Y176580D01*
X516128Y174899D01*
Y173081D01*
X516824Y171400D01*
X518110Y170114D01*
X519791Y169418D01*
X521609D01*
X523290Y170114D01*
X524576Y171400D01*
X525272Y173081D01*
Y174899D01*
X524576Y176580D01*
X523290Y177866D01*
X521609Y178562D01*
D02*
G37*
G36*
X603859Y177292D02*
X602041D01*
X600360Y176596D01*
X599074Y175310D01*
X598378Y173629D01*
Y171811D01*
X599074Y170130D01*
X600360Y168844D01*
X602041Y168148D01*
X603859D01*
X605540Y168844D01*
X606826Y170130D01*
X607522Y171811D01*
Y173629D01*
X606826Y175310D01*
X605540Y176596D01*
X603859Y177292D01*
D02*
G37*
G36*
X573679Y169292D02*
X571861D01*
X570180Y168596D01*
X568894Y167310D01*
X568198Y165629D01*
Y163811D01*
X568894Y162130D01*
X570180Y160844D01*
X571861Y160148D01*
X573679D01*
X575360Y160844D01*
X576646Y162130D01*
X577342Y163811D01*
Y165629D01*
X576646Y167310D01*
X575360Y168596D01*
X573679Y169292D01*
D02*
G37*
G36*
X57232Y175370D02*
X54528D01*
X51916Y174670D01*
X49574Y173318D01*
X47662Y171406D01*
X46310Y169064D01*
X45610Y166452D01*
Y163748D01*
X46310Y161136D01*
X47662Y158794D01*
X49574Y156882D01*
X51916Y155530D01*
X54528Y154830D01*
X57232D01*
X59844Y155530D01*
X62186Y156882D01*
X64098Y158794D01*
X65450Y161136D01*
X66150Y163748D01*
Y166452D01*
X65450Y169064D01*
X64098Y171406D01*
X62186Y173318D01*
X59844Y174670D01*
X57232Y175370D01*
D02*
G37*
G36*
X809330Y176870D02*
X785790D01*
Y153330D01*
X809330D01*
Y176870D01*
D02*
G37*
G36*
X719729Y160782D02*
X717911D01*
X716230Y160086D01*
X714944Y158800D01*
X714248Y157119D01*
Y155301D01*
X714944Y153620D01*
X716230Y152334D01*
X717911Y151638D01*
X719729D01*
X721410Y152334D01*
X722696Y153620D01*
X723392Y155301D01*
Y157119D01*
X722696Y158800D01*
X721410Y160086D01*
X719729Y160782D01*
D02*
G37*
G36*
X154229Y153852D02*
X152411D01*
X150730Y153156D01*
X149444Y151870D01*
X148748Y150189D01*
Y148371D01*
X149444Y146690D01*
X150730Y145404D01*
X152411Y144708D01*
X154229D01*
X155910Y145404D01*
X157196Y146690D01*
X157892Y148371D01*
Y150189D01*
X157196Y151870D01*
X155910Y153156D01*
X154229Y153852D01*
D02*
G37*
G36*
X577189Y123952D02*
X575371D01*
X573690Y123256D01*
X572404Y121970D01*
X571708Y120289D01*
Y118471D01*
X572404Y116790D01*
X573690Y115504D01*
X575371Y114808D01*
X577189D01*
X578870Y115504D01*
X580156Y116790D01*
X580852Y118471D01*
Y120289D01*
X580156Y121970D01*
X578870Y123256D01*
X577189Y123952D01*
D02*
G37*
G36*
X799110Y126070D02*
X796010D01*
X793017Y125268D01*
X790333Y123718D01*
X788142Y121527D01*
X786592Y118843D01*
X785790Y115850D01*
Y112750D01*
X786592Y109757D01*
X788142Y107073D01*
X790333Y104882D01*
X793017Y103332D01*
X796010Y102530D01*
X799110D01*
X802103Y103332D01*
X804787Y104882D01*
X806978Y107073D01*
X808528Y109757D01*
X809330Y112750D01*
Y115850D01*
X808528Y118843D01*
X806978Y121527D01*
X804787Y123718D01*
X802103Y125268D01*
X799110Y126070D01*
D02*
G37*
G36*
X170719Y108332D02*
X168901D01*
X167220Y107636D01*
X165934Y106350D01*
X165238Y104669D01*
Y102851D01*
X165934Y101170D01*
X167220Y99884D01*
X168901Y99188D01*
X170719D01*
X172400Y99884D01*
X173686Y101170D01*
X174382Y102851D01*
Y104669D01*
X173686Y106350D01*
X172400Y107636D01*
X170719Y108332D01*
D02*
G37*
G36*
X241179Y139352D02*
X239361D01*
X237680Y138656D01*
X236394Y137370D01*
X235698Y135689D01*
Y133871D01*
X236394Y132190D01*
X236868Y131717D01*
X236957Y131480D01*
X237116Y131312D01*
X237220Y131180D01*
X237311Y131043D01*
X237390Y130898D01*
X237458Y130744D01*
X237515Y130577D01*
X237561Y130396D01*
X237596Y130199D01*
X237617Y129984D01*
X237626Y129707D01*
X237680Y129587D01*
Y108301D01*
X217059Y87680D01*
X190613D01*
X190493Y87734D01*
X190216Y87743D01*
X190001Y87764D01*
X189804Y87799D01*
X189623Y87845D01*
X189457Y87902D01*
X189302Y87970D01*
X189157Y88049D01*
X189020Y88140D01*
X188888Y88244D01*
X188720Y88403D01*
X188483Y88492D01*
X188010Y88966D01*
X186329Y89662D01*
X184511D01*
X182830Y88966D01*
X181544Y87680D01*
X180848Y85999D01*
Y84181D01*
X181503Y82600D01*
X181055Y81330D01*
X169983D01*
X168063Y83249D01*
X168017Y83372D01*
X167827Y83574D01*
X167691Y83742D01*
X167575Y83906D01*
X167480Y84066D01*
X167403Y84224D01*
X167341Y84381D01*
X167295Y84540D01*
X167262Y84701D01*
X167243Y84868D01*
X167236Y85099D01*
X167132Y85330D01*
Y85999D01*
X166436Y87680D01*
X165150Y88966D01*
X163469Y89662D01*
X161651D01*
X159970Y88966D01*
X158684Y87680D01*
X157988Y85999D01*
Y84181D01*
X158684Y82500D01*
X159970Y81214D01*
X161651Y80518D01*
X162320D01*
X162551Y80414D01*
X162782Y80407D01*
X162949Y80388D01*
X163110Y80355D01*
X163269Y80309D01*
X163426Y80247D01*
X163584Y80170D01*
X163745Y80075D01*
X163909Y79959D01*
X164076Y79823D01*
X164278Y79633D01*
X164401Y79587D01*
X165294Y78693D01*
X164808Y77520D01*
X150933D01*
X145203Y83249D01*
X145157Y83372D01*
X144967Y83574D01*
X144831Y83742D01*
X144715Y83906D01*
X144620Y84066D01*
X144543Y84224D01*
X144481Y84381D01*
X144435Y84540D01*
X144402Y84701D01*
X144383Y84868D01*
X144376Y85099D01*
X144272Y85330D01*
Y85999D01*
X143576Y87680D01*
X142290Y88966D01*
X140609Y89662D01*
X138791D01*
X137110Y88966D01*
X135824Y87680D01*
X135128Y85999D01*
Y84181D01*
X135824Y82500D01*
X137110Y81214D01*
X138791Y80518D01*
X139460D01*
X139691Y80414D01*
X139922Y80407D01*
X140089Y80388D01*
X140250Y80355D01*
X140409Y80309D01*
X140566Y80247D01*
X140724Y80170D01*
X140885Y80075D01*
X141048Y79959D01*
X141216Y79823D01*
X141418Y79633D01*
X141541Y79587D01*
X148029Y73099D01*
X148869Y72537D01*
X149860Y72340D01*
X235310D01*
X235432Y72286D01*
X235713Y72278D01*
X235943Y72258D01*
X236160Y72226D01*
X236364Y72183D01*
X236558Y72127D01*
X236742Y72062D01*
X236918Y71984D01*
X237086Y71896D01*
X237249Y71795D01*
X237445Y71653D01*
X237557Y71627D01*
X237680Y71504D01*
X239361Y70808D01*
X241179D01*
X242860Y71504D01*
X244146Y72790D01*
X244842Y74471D01*
Y76289D01*
X244146Y77970D01*
X242860Y79256D01*
X241179Y79952D01*
X239361D01*
X237680Y79256D01*
X236746Y78322D01*
X236556Y78220D01*
X236420Y78054D01*
X236322Y77957D01*
X236221Y77874D01*
X236112Y77803D01*
X235990Y77740D01*
X235854Y77686D01*
X235698Y77641D01*
X235520Y77606D01*
X235317Y77583D01*
X235042Y77574D01*
X234967Y77540D01*
X234887Y77559D01*
X234821Y77520D01*
X221272D01*
X220786Y78693D01*
X249481Y107389D01*
X250043Y108229D01*
X250202Y109030D01*
X250294Y109239D01*
X250301Y109555D01*
X250320Y109808D01*
X250349Y110027D01*
X250386Y110212D01*
X250428Y110362D01*
X250472Y110477D01*
X250512Y110558D01*
X250546Y110611D01*
X250572Y110642D01*
X250658Y110722D01*
X250670Y110748D01*
X250696Y110759D01*
X250783Y110967D01*
X251526Y111710D01*
X252222Y113391D01*
Y115209D01*
X251526Y116890D01*
X250240Y118176D01*
X248559Y118872D01*
X246741D01*
X245060Y118176D01*
X244130Y117246D01*
X242860Y117748D01*
Y129587D01*
X242914Y129707D01*
X242923Y129984D01*
X242944Y130199D01*
X242979Y130396D01*
X243025Y130577D01*
X243082Y130744D01*
X243150Y130898D01*
X243229Y131043D01*
X243320Y131180D01*
X243424Y131312D01*
X243583Y131480D01*
X243672Y131717D01*
X244146Y132190D01*
X244842Y133871D01*
Y135689D01*
X244146Y137370D01*
X242860Y138656D01*
X241179Y139352D01*
D02*
G37*
G36*
X107589Y96012D02*
X105771D01*
X104090Y95316D01*
X102804Y94030D01*
X102108Y92349D01*
Y90531D01*
X102804Y88850D01*
X104090Y87564D01*
X105771Y86868D01*
X107589D01*
X109270Y87564D01*
X110556Y88850D01*
X111252Y90531D01*
Y92349D01*
X110556Y94030D01*
X109270Y95316D01*
X107589Y96012D01*
D02*
G37*
G36*
X799277Y76540D02*
X798830D01*
Y64770D01*
X810600D01*
Y65217D01*
X809711Y68533D01*
X807995Y71507D01*
X805567Y73935D01*
X802593Y75651D01*
X799277Y76540D01*
D02*
G37*
G36*
X796290D02*
X795843D01*
X792527Y75651D01*
X789553Y73935D01*
X787125Y71507D01*
X785409Y68533D01*
X784520Y65217D01*
Y64770D01*
X796290D01*
Y76540D01*
D02*
G37*
G36*
X810600Y62230D02*
X798830D01*
Y50460D01*
X799277D01*
X802593Y51349D01*
X805567Y53065D01*
X807995Y55493D01*
X809711Y58467D01*
X810600Y61783D01*
Y62230D01*
D02*
G37*
G36*
X796290D02*
X784520D01*
Y61783D01*
X785409Y58467D01*
X787125Y55493D01*
X789553Y53065D01*
X792527Y51349D01*
X795843Y50460D01*
X796290D01*
Y62230D01*
D02*
G37*
%LPD*%
G36*
X799012Y265659D02*
X798756Y265905D01*
X798495Y266125D01*
X798230Y266319D01*
X797960Y266488D01*
X797686Y266630D01*
X797407Y266747D01*
X797124Y266837D01*
X796836Y266902D01*
X796544Y266941D01*
X796247Y266954D01*
Y268986D01*
X796544Y268999D01*
X796836Y269038D01*
X797124Y269103D01*
X797407Y269193D01*
X797686Y269310D01*
X797960Y269452D01*
X798230Y269621D01*
X798495Y269815D01*
X798756Y270035D01*
X799012Y270281D01*
Y265659D01*
D02*
G37*
G36*
X570334Y246387D02*
X570265Y246262D01*
X570204Y246106D01*
X570151Y245919D01*
X570107Y245703D01*
X570070Y245455D01*
X570021Y244869D01*
X570005Y244162D01*
X566195D01*
X566191Y244531D01*
X566130Y245455D01*
X566093Y245703D01*
X566049Y245919D01*
X565996Y246106D01*
X565935Y246262D01*
X565866Y246387D01*
X565789Y246482D01*
X570411D01*
X570334Y246387D01*
D02*
G37*
G36*
X719907Y238028D02*
X719552Y238021D01*
X719212Y237992D01*
X718887Y237942D01*
X718577Y237871D01*
X718282Y237778D01*
X718003Y237663D01*
X717738Y237527D01*
X717489Y237369D01*
X717255Y237190D01*
X717036Y236989D01*
X715599Y238426D01*
X715800Y238645D01*
X715979Y238879D01*
X716137Y239128D01*
X716273Y239393D01*
X716387Y239672D01*
X716481Y239967D01*
X716552Y240277D01*
X716602Y240602D01*
X716631Y240942D01*
X716638Y241297D01*
X719907Y238028D01*
D02*
G37*
G36*
X738344Y237175D02*
X738605Y236955D01*
X738870Y236761D01*
X739140Y236592D01*
X739414Y236450D01*
X739693Y236333D01*
X739976Y236243D01*
X740264Y236178D01*
X740556Y236139D01*
X740853Y236126D01*
Y234094D01*
X740556Y234081D01*
X740264Y234042D01*
X739976Y233977D01*
X739693Y233887D01*
X739414Y233770D01*
X739140Y233628D01*
X738870Y233459D01*
X738605Y233265D01*
X738344Y233045D01*
X738088Y232799D01*
Y237421D01*
X738344Y237175D01*
D02*
G37*
G36*
X735697Y231808D02*
X735342Y231801D01*
X735002Y231772D01*
X734677Y231722D01*
X734367Y231651D01*
X734072Y231557D01*
X733793Y231443D01*
X733528Y231307D01*
X733279Y231149D01*
X733045Y230970D01*
X732826Y230769D01*
X731389Y232206D01*
X731590Y232425D01*
X731769Y232659D01*
X731927Y232908D01*
X732063Y233173D01*
X732178Y233452D01*
X732271Y233747D01*
X732342Y234057D01*
X732392Y234382D01*
X732421Y234722D01*
X732428Y235077D01*
X735697Y231808D01*
D02*
G37*
G36*
X824552Y228829D02*
X824296Y229075D01*
X824035Y229295D01*
X823770Y229489D01*
X823500Y229658D01*
X823226Y229800D01*
X822947Y229917D01*
X822664Y230007D01*
X822376Y230072D01*
X822084Y230111D01*
X821787Y230124D01*
Y232156D01*
X822084Y232169D01*
X822376Y232208D01*
X822664Y232273D01*
X822947Y232363D01*
X823226Y232480D01*
X823500Y232622D01*
X823770Y232791D01*
X824035Y232985D01*
X824296Y233205D01*
X824552Y233451D01*
Y228829D01*
D02*
G37*
G36*
X647092Y232850D02*
X647171Y232691D01*
X647303Y232488D01*
X647489Y232242D01*
X647619Y232089D01*
X648462Y232932D01*
X648469Y232577D01*
X648498Y232237D01*
X648548Y231912D01*
X648619Y231602D01*
X648712Y231307D01*
X648827Y231028D01*
X648963Y230763D01*
X649121Y230514D01*
X649300Y230280D01*
X649477Y230087D01*
X649712Y229850D01*
X648275Y228413D01*
X648038Y228648D01*
X647845Y228825D01*
X647611Y229004D01*
X647362Y229162D01*
X647097Y229298D01*
X646818Y229412D01*
X646523Y229506D01*
X646213Y229577D01*
X645888Y229627D01*
X645548Y229656D01*
X645193Y229663D01*
X645994Y230464D01*
X645434Y230954D01*
X645275Y231033D01*
X645159Y231060D01*
X647065Y232966D01*
X647092Y232850D01*
D02*
G37*
G36*
X645127Y229663D02*
X645005Y229651D01*
X644868Y229611D01*
X644715Y229544D01*
X644545Y229449D01*
X644361Y229328D01*
X644160Y229179D01*
X643711Y228799D01*
X643199Y228310D01*
X640505Y231004D01*
X640763Y231268D01*
X641374Y231965D01*
X641523Y232165D01*
X641644Y232350D01*
X641739Y232519D01*
X641806Y232673D01*
X641846Y232810D01*
X641858Y232932D01*
X645127Y229663D01*
D02*
G37*
G36*
X724626Y222569D02*
X724440Y222371D01*
X724261Y222155D01*
X724089Y221922D01*
X723924Y221671D01*
X723614Y221116D01*
X723469Y220812D01*
X723199Y220151D01*
X723075Y219794D01*
X721039Y223944D01*
X721343Y223852D01*
X721640Y223793D01*
X721928Y223768D01*
X722207Y223776D01*
X722479Y223818D01*
X722742Y223893D01*
X722997Y224002D01*
X723244Y224144D01*
X723482Y224320D01*
X723712Y224529D01*
X724626Y222569D01*
D02*
G37*
G36*
X717582Y218519D02*
X717487Y218596D01*
X717362Y218665D01*
X717206Y218726D01*
X717019Y218779D01*
X716803Y218823D01*
X716555Y218860D01*
X715969Y218909D01*
X715262Y218925D01*
Y222735D01*
X715631Y222739D01*
X716555Y222800D01*
X716803Y222837D01*
X717019Y222881D01*
X717206Y222934D01*
X717362Y222995D01*
X717487Y223064D01*
X717582Y223141D01*
Y218519D01*
D02*
G37*
G36*
X715230Y217551D02*
X715897Y217535D01*
X716398Y217494D01*
X716563Y217469D01*
X716693Y217442D01*
X716767Y217421D01*
X716777Y217418D01*
X716824Y217392D01*
X716850Y217389D01*
X716861Y217385D01*
X716884Y217385D01*
X716924Y217381D01*
X717350Y216954D01*
X719031Y216258D01*
X720849D01*
X721026Y216331D01*
X722138Y215417D01*
X722009Y214777D01*
X721626Y214680D01*
X642620D01*
X641629Y214483D01*
X640789Y213921D01*
X635197Y208330D01*
X633842D01*
X633457Y209600D01*
X633758Y209801D01*
X641550Y217593D01*
X693315D01*
Y217330D01*
X693718Y216358D01*
X694690Y215955D01*
X707390D01*
X708362Y216358D01*
X708765Y217330D01*
Y217593D01*
X715135D01*
X715230Y217551D01*
D02*
G37*
G36*
X726717Y212254D02*
X726575Y212271D01*
X726423Y212261D01*
X726259Y212223D01*
X726085Y212158D01*
X725901Y212065D01*
X725705Y211945D01*
X725500Y211798D01*
X725283Y211623D01*
X724818Y211192D01*
X723022Y212988D01*
X723263Y213237D01*
X723661Y213698D01*
X723818Y213911D01*
X723948Y214112D01*
X724050Y214301D01*
X724125Y214478D01*
X724171Y214644D01*
X724191Y214797D01*
X724182Y214939D01*
X726717Y212254D01*
D02*
G37*
G36*
X570553Y214324D02*
X570678Y214255D01*
X570834Y214194D01*
X571021Y214141D01*
X571237Y214097D01*
X571485Y214060D01*
X572071Y214011D01*
X572778Y213995D01*
Y210185D01*
X572409Y210181D01*
X571485Y210120D01*
X571237Y210083D01*
X571021Y210039D01*
X570834Y209986D01*
X570678Y209925D01*
X570553Y209856D01*
X570458Y209779D01*
Y214401D01*
X570553Y214324D01*
D02*
G37*
G36*
X390529Y169409D02*
X390590Y168485D01*
X390627Y168237D01*
X390671Y168020D01*
X390724Y167834D01*
X390785Y167678D01*
X390854Y167553D01*
X390931Y167458D01*
X386309D01*
X386386Y167553D01*
X386455Y167678D01*
X386516Y167834D01*
X386569Y168020D01*
X386613Y168237D01*
X386650Y168485D01*
X386699Y169070D01*
X386715Y169778D01*
X390525D01*
X390529Y169409D01*
D02*
G37*
G36*
X471180Y149485D02*
X471212Y149174D01*
X471264Y148876D01*
X471337Y148590D01*
X471430Y148316D01*
X471545Y148055D01*
X471680Y147807D01*
X471837Y147572D01*
X472014Y147348D01*
X472211Y147138D01*
X467589D01*
X467786Y147348D01*
X467963Y147572D01*
X468120Y147807D01*
X468255Y148055D01*
X468370Y148316D01*
X468463Y148590D01*
X468536Y148876D01*
X468588Y149174D01*
X468620Y149485D01*
X468630Y149809D01*
X471170D01*
X471180Y149485D01*
D02*
G37*
G36*
X393275Y141661D02*
X393017Y141397D01*
X392406Y140700D01*
X392257Y140499D01*
X392136Y140315D01*
X392041Y140146D01*
X391974Y139992D01*
X391934Y139855D01*
X391922Y139733D01*
X388653Y143002D01*
X388775Y143014D01*
X388912Y143054D01*
X389066Y143121D01*
X389235Y143216D01*
X389420Y143337D01*
X389620Y143486D01*
X390069Y143866D01*
X390581Y144355D01*
X393275Y141661D01*
D02*
G37*
G36*
X483629Y133096D02*
X483668Y132804D01*
X483733Y132516D01*
X483823Y132233D01*
X483940Y131954D01*
X484082Y131680D01*
X484251Y131410D01*
X484445Y131145D01*
X484665Y130884D01*
X484911Y130628D01*
X480289D01*
X480535Y130884D01*
X480755Y131145D01*
X480949Y131410D01*
X481118Y131680D01*
X481260Y131954D01*
X481377Y132233D01*
X481467Y132516D01*
X481532Y132804D01*
X481571Y133096D01*
X481584Y133393D01*
X483616D01*
X483629Y133096D01*
D02*
G37*
G36*
X372749Y130039D02*
X372810Y129115D01*
X372847Y128867D01*
X372891Y128651D01*
X372944Y128464D01*
X373005Y128308D01*
X373074Y128183D01*
X373151Y128088D01*
X368529D01*
X368606Y128183D01*
X368675Y128308D01*
X368736Y128464D01*
X368789Y128651D01*
X368833Y128867D01*
X368870Y129115D01*
X368919Y129700D01*
X368935Y130408D01*
X372745D01*
X372749Y130039D01*
D02*
G37*
G36*
X242383Y132212D02*
X242206Y131988D01*
X242050Y131753D01*
X241915Y131505D01*
X241800Y131244D01*
X241707Y130970D01*
X241634Y130684D01*
X241582Y130386D01*
X241550Y130075D01*
X241540Y129751D01*
X239000D01*
X238990Y130075D01*
X238958Y130386D01*
X238906Y130684D01*
X238833Y130970D01*
X238740Y131244D01*
X238625Y131505D01*
X238490Y131753D01*
X238333Y131988D01*
X238156Y132212D01*
X237959Y132422D01*
X242581D01*
X242383Y132212D01*
D02*
G37*
G36*
X249571Y111589D02*
X249435Y111425D01*
X249314Y111237D01*
X249210Y111026D01*
X249121Y110791D01*
X249049Y110534D01*
X248992Y110253D01*
X248952Y109949D01*
X248928Y109621D01*
X248920Y109271D01*
X246380D01*
X246372Y109621D01*
X246308Y110253D01*
X246251Y110534D01*
X246179Y110791D01*
X246090Y111026D01*
X245986Y111237D01*
X245865Y111425D01*
X245728Y111589D01*
X245576Y111731D01*
X249724D01*
X249571Y111589D01*
D02*
G37*
G36*
X187988Y87204D02*
X188212Y87027D01*
X188447Y86870D01*
X188696Y86735D01*
X188956Y86620D01*
X189230Y86527D01*
X189516Y86454D01*
X189814Y86402D01*
X190125Y86370D01*
X190449Y86360D01*
Y83820D01*
X190125Y83810D01*
X189814Y83778D01*
X189516Y83726D01*
X189230Y83653D01*
X188956Y83560D01*
X188696Y83445D01*
X188447Y83310D01*
X188212Y83153D01*
X187988Y82977D01*
X187778Y82779D01*
Y87401D01*
X187988Y87204D01*
D02*
G37*
G36*
X165871Y84768D02*
X165903Y84485D01*
X165959Y84208D01*
X166039Y83937D01*
X166143Y83672D01*
X166270Y83412D01*
X166420Y83158D01*
X166595Y82910D01*
X166793Y82668D01*
X167014Y82432D01*
X165218Y80636D01*
X164982Y80857D01*
X164740Y81055D01*
X164492Y81230D01*
X164238Y81380D01*
X163978Y81507D01*
X163713Y81611D01*
X163442Y81691D01*
X163165Y81747D01*
X162882Y81779D01*
X162593Y81788D01*
X165862Y85057D01*
X165871Y84768D01*
D02*
G37*
G36*
X143011D02*
X143043Y84485D01*
X143099Y84208D01*
X143179Y83937D01*
X143283Y83672D01*
X143410Y83412D01*
X143560Y83158D01*
X143735Y82910D01*
X143933Y82668D01*
X144154Y82432D01*
X142358Y80636D01*
X142122Y80857D01*
X141880Y81055D01*
X141632Y81230D01*
X141378Y81380D01*
X141118Y81507D01*
X140853Y81611D01*
X140582Y81691D01*
X140305Y81747D01*
X140022Y81779D01*
X139733Y81788D01*
X143002Y85057D01*
X143011Y84768D01*
D02*
G37*
G36*
X238249Y72769D02*
X238014Y72938D01*
X237769Y73090D01*
X237515Y73223D01*
X237252Y73339D01*
X236978Y73437D01*
X236696Y73517D01*
X236404Y73580D01*
X236102Y73624D01*
X235791Y73651D01*
X235470Y73660D01*
X235090Y76200D01*
X235417Y76212D01*
X235728Y76246D01*
X236022Y76303D01*
X236299Y76384D01*
X236560Y76487D01*
X236805Y76613D01*
X237033Y76763D01*
X237245Y76935D01*
X237440Y77130D01*
X237619Y77348D01*
X238249Y72769D01*
D02*
G37*
D59*
X742950Y231140D02*
X826910D01*
X737870Y226060D02*
X742950Y231140D01*
X737870Y209470D02*
Y226060D01*
X736680Y208280D02*
X737870Y209470D01*
X645160Y208280D02*
X736680D01*
X639064Y202184D02*
X645160Y208280D01*
X490474Y202184D02*
X639064D01*
X482600Y194310D02*
X490474Y202184D01*
X482600Y128270D02*
Y194310D01*
X735730Y235110D02*
X782400D01*
X788670Y241380D02*
Y264830D01*
X782400Y235110D02*
X788670Y241380D01*
Y264830D02*
X791810Y267970D01*
X801370D01*
X720815Y221705D02*
X722325D01*
X735730Y235110D01*
X719940Y220830D02*
X720815Y221705D01*
X705378Y226768D02*
X719940Y241330D01*
X651357Y226768D02*
X705378D01*
X645160Y232965D02*
X651357Y226768D01*
D60*
X482600Y205740D02*
X636270D01*
X642620Y212090D01*
X469900Y193040D02*
X482600Y205740D01*
X469900Y144780D02*
Y193040D01*
X723920Y212090D02*
X727306Y215476D01*
X727440D01*
X642620Y212090D02*
X723920D01*
X149860Y74930D02*
X239820D01*
X240270Y75380D01*
X139700Y85090D02*
X149860Y74930D01*
X168910Y78740D02*
X217170D01*
X162560Y85090D02*
X168910Y78740D01*
X217170D02*
X247650Y109220D01*
X185420Y85090D02*
X218132D01*
X240270Y107228D01*
X247650Y109220D02*
Y114300D01*
X240270Y107228D02*
Y134780D01*
D61*
X631469Y212090D02*
X640209Y220830D01*
X567344Y212090D02*
X631469D01*
X640209Y220830D02*
X719940D01*
X417830Y214630D02*
X564804D01*
X567344Y212090D01*
X408940Y219710D02*
X631905D01*
X645160Y232965D01*
X568100Y234120D02*
Y248840D01*
X560070Y226090D02*
X568100Y234120D01*
X406980Y226090D02*
X560070D01*
X370840Y189950D02*
X406980Y226090D01*
X370840Y125730D02*
Y189950D01*
X388620Y199390D02*
X408940Y219710D01*
X400050Y196850D02*
X417830Y214630D01*
X388620Y165100D02*
Y199390D01*
X400050Y151130D02*
Y196850D01*
X388620Y139700D02*
X400050Y151130D01*
D64*
X797560Y114300D02*
D03*
Y63500D02*
D03*
D65*
Y165100D02*
D03*
D66*
X55880D02*
D03*
Y215900D02*
D03*
D67*
X495300Y236220D02*
D03*
X520700D02*
D03*
X546100D02*
D03*
D68*
X825500Y205740D02*
D03*
X812800Y180340D02*
D03*
X825500Y154940D02*
D03*
X812800Y129540D02*
D03*
X825500Y104140D02*
D03*
X812800Y78740D02*
D03*
X825500Y53340D02*
D03*
X812800Y27940D02*
D03*
X800100Y256540D02*
D03*
Y205740D02*
D03*
X787400Y180340D02*
D03*
Y129540D02*
D03*
Y78740D02*
D03*
Y27940D02*
D03*
X774700Y205740D02*
D03*
X762000Y180340D02*
D03*
X774700Y154940D02*
D03*
X762000Y129540D02*
D03*
Y78740D02*
D03*
X774700Y53340D02*
D03*
X762000Y27940D02*
D03*
X749300Y205740D02*
D03*
X736600Y180340D02*
D03*
X749300Y154940D02*
D03*
X736600Y129540D02*
D03*
Y78740D02*
D03*
X749300Y53340D02*
D03*
X736600Y27940D02*
D03*
X711200Y180340D02*
D03*
Y78740D02*
D03*
Y27940D02*
D03*
X685800Y180340D02*
D03*
X698500Y154940D02*
D03*
X685800Y129540D02*
D03*
Y78740D02*
D03*
X698500Y53340D02*
D03*
X685800Y27940D02*
D03*
X673100Y256540D02*
D03*
X660400Y180340D02*
D03*
X673100Y154940D02*
D03*
X660400Y129540D02*
D03*
Y78740D02*
D03*
Y27940D02*
D03*
X647700Y154940D02*
D03*
X635000Y27940D02*
D03*
X622300Y104140D02*
D03*
X609600Y78740D02*
D03*
X622300Y53340D02*
D03*
X609600Y27940D02*
D03*
X596900Y256540D02*
D03*
X584200Y180340D02*
D03*
X596900Y154940D02*
D03*
X584200Y129540D02*
D03*
X596900Y104140D02*
D03*
X584200Y78740D02*
D03*
X596900Y53340D02*
D03*
X584200Y27940D02*
D03*
X571500Y256540D02*
D03*
X558800Y180340D02*
D03*
Y129540D02*
D03*
X571500Y104140D02*
D03*
X558800Y78740D02*
D03*
X571500Y53340D02*
D03*
X558800Y27940D02*
D03*
X546100Y256540D02*
D03*
X533400Y180340D02*
D03*
Y129540D02*
D03*
X546100Y104140D02*
D03*
X533400Y78740D02*
D03*
X546100Y53340D02*
D03*
X533400Y27940D02*
D03*
X520700Y256540D02*
D03*
X508000Y180340D02*
D03*
X520700Y154940D02*
D03*
X508000Y129540D02*
D03*
X520700Y104140D02*
D03*
X508000Y78740D02*
D03*
X520700Y53340D02*
D03*
X508000Y27940D02*
D03*
X495300Y256540D02*
D03*
Y104140D02*
D03*
X482600Y78740D02*
D03*
X495300Y53340D02*
D03*
X482600Y27940D02*
D03*
X469900Y256540D02*
D03*
Y205740D02*
D03*
X457200Y129540D02*
D03*
X469900Y104140D02*
D03*
Y53340D02*
D03*
X457200Y27940D02*
D03*
X444500Y256540D02*
D03*
X431800Y27940D02*
D03*
X419100Y256540D02*
D03*
X406400Y180340D02*
D03*
X419100Y154940D02*
D03*
Y104140D02*
D03*
X406400Y78740D02*
D03*
X419100Y53340D02*
D03*
X406400Y27940D02*
D03*
X381000Y180340D02*
D03*
X393700Y154940D02*
D03*
X381000Y129540D02*
D03*
X393700Y104140D02*
D03*
X381000Y78740D02*
D03*
X393700Y53340D02*
D03*
X381000Y27940D02*
D03*
X368300Y256540D02*
D03*
Y205740D02*
D03*
X355600Y180340D02*
D03*
Y129540D02*
D03*
X368300Y104140D02*
D03*
X355600Y78740D02*
D03*
X368300Y53340D02*
D03*
X355600Y27940D02*
D03*
X342900Y256540D02*
D03*
Y205740D02*
D03*
X330200Y180340D02*
D03*
X342900Y154940D02*
D03*
X330200Y129540D02*
D03*
X342900Y53340D02*
D03*
X330200Y27940D02*
D03*
X317500Y256540D02*
D03*
X304800Y231140D02*
D03*
X317500Y205740D02*
D03*
X304800Y180340D02*
D03*
X317500Y154940D02*
D03*
X304800Y129540D02*
D03*
X317500Y104140D02*
D03*
X304800Y78740D02*
D03*
X317500Y53340D02*
D03*
X304800Y27940D02*
D03*
X292100Y256540D02*
D03*
Y205740D02*
D03*
Y154940D02*
D03*
Y104140D02*
D03*
Y53340D02*
D03*
X279400Y27940D02*
D03*
X266700Y256540D02*
D03*
X254000Y27940D02*
D03*
X228600Y231140D02*
D03*
X241300Y53340D02*
D03*
X228600Y27940D02*
D03*
X215900Y256540D02*
D03*
Y205740D02*
D03*
Y104140D02*
D03*
X190500Y205740D02*
D03*
X165100D02*
D03*
X127000Y180340D02*
D03*
Y129540D02*
D03*
Y78740D02*
D03*
Y27940D02*
D03*
X114300Y256540D02*
D03*
X101600Y231140D02*
D03*
Y180340D02*
D03*
Y129540D02*
D03*
X114300Y104140D02*
D03*
X101600Y78740D02*
D03*
X114300Y53340D02*
D03*
X101600Y27940D02*
D03*
X88900Y256540D02*
D03*
X76200Y231140D02*
D03*
X88900Y205740D02*
D03*
X76200Y180340D02*
D03*
X88900Y154940D02*
D03*
X76200Y129540D02*
D03*
X88900Y53340D02*
D03*
X76200Y27940D02*
D03*
X63500Y256540D02*
D03*
X50800Y231140D02*
D03*
Y180340D02*
D03*
X63500Y104140D02*
D03*
X50800Y78740D02*
D03*
X63500Y53340D02*
D03*
X50800Y27940D02*
D03*
X38100Y256540D02*
D03*
X25400Y231140D02*
D03*
X38100Y205740D02*
D03*
X25400Y180340D02*
D03*
X38100Y154940D02*
D03*
X25400Y129540D02*
D03*
X38100Y104140D02*
D03*
Y53340D02*
D03*
X25400Y27940D02*
D03*
X236220Y261620D02*
D03*
X388620D02*
D03*
D69*
X836930Y267970D02*
D03*
X795020Y223520D02*
D03*
X826910Y231140D02*
D03*
X482600Y128270D02*
D03*
X801370Y267970D02*
D03*
X106680Y91440D02*
D03*
X169810Y103760D02*
D03*
X153320Y149280D02*
D03*
X718820Y156210D02*
D03*
X719940Y220830D02*
D03*
X568100Y212090D02*
D03*
X520700Y173990D02*
D03*
X613925Y226768D02*
D03*
X586740Y193820D02*
D03*
X572770Y164720D02*
D03*
X613925Y189230D02*
D03*
X602950Y172720D02*
D03*
X645160Y195580D02*
D03*
X647700Y172720D02*
D03*
X727440Y266310D02*
D03*
X657860Y248840D02*
D03*
X718820Y33020D02*
D03*
X670180Y40800D02*
D03*
X639320Y44769D02*
D03*
X640910Y248840D02*
D03*
Y259840D02*
D03*
X624050Y266700D02*
D03*
X669290Y266110D02*
D03*
X699770Y257610D02*
D03*
X779780Y267970D02*
D03*
X535940Y119380D02*
D03*
X576280D02*
D03*
X613925Y266700D02*
D03*
X628450Y128880D02*
D03*
X568100Y248840D02*
D03*
X370840Y125730D02*
D03*
X727440Y215476D02*
D03*
X469900Y144780D02*
D03*
X388620Y139700D02*
D03*
Y165100D02*
D03*
X645160Y232965D02*
D03*
X719940Y241330D02*
D03*
X735730Y235110D02*
D03*
X457200Y190500D02*
D03*
X240270Y75380D02*
D03*
X185420Y85090D02*
D03*
X247650Y114300D02*
D03*
X240270Y134780D02*
D03*
X139700Y85090D02*
D03*
X162560D02*
D03*
M02*
