G04*
G04 #@! TF.GenerationSoftware,Altium Limited,Altium Designer,26.3.0 (6)*
G04*
G04 Layer_Color=0*
%FSLAX44Y44*%
%MOMM*%
G71*
G04*
G04 #@! TF.SameCoordinates,6D605524-E43E-4BB1-BD99-AA3E501A16AE*
G04*
G04*
G04 #@! TF.FilePolarity,Positive*
G04*
G01*
G75*
%ADD10C,0.1000*%
D10*
X805260Y214630D02*
X815260D01*
X810260Y209630D02*
Y219630D01*
X611425Y246340D02*
X621425D01*
X616425Y241340D02*
Y251340D01*
X608925Y207320D02*
X618925D01*
X613925Y202320D02*
Y212320D01*
X203330Y143280D02*
X213330D01*
X208330Y138280D02*
Y148280D01*
X195080Y111760D02*
X205080D01*
X200080Y106760D02*
Y116760D01*
X174760Y149280D02*
X184760D01*
X179760Y144280D02*
Y154280D01*
X145305Y203280D02*
Y213280D01*
X140305Y208280D02*
X150305D01*
X146320Y98510D02*
Y108510D01*
X141320Y103510D02*
X151320D01*
X174760Y112260D02*
X184760D01*
X179760Y107260D02*
Y117260D01*
X145820Y177300D02*
Y187300D01*
X140820Y182300D02*
X150820D01*
X54310Y86440D02*
Y96440D01*
X49310Y91440D02*
X59310D01*
X555110Y114380D02*
Y124380D01*
X550110Y119380D02*
X560110D01*
X718940Y252810D02*
Y262810D01*
X713940Y257810D02*
X723940D01*
X515700Y200010D02*
X525700D01*
X520700Y195010D02*
Y205010D01*
X677540Y257610D02*
X687540D01*
X682540Y252610D02*
Y262610D01*
X581740Y210876D02*
X591740D01*
X586740Y205876D02*
Y215876D01*
X640160Y211036D02*
X650160D01*
X645160Y206036D02*
Y216036D01*
X713820Y77100D02*
X723820D01*
X718820Y72100D02*
Y82100D01*
X665180Y63830D02*
X675180D01*
X670180Y58830D02*
Y68830D01*
X203280Y63880D02*
X213280D01*
X208280Y58880D02*
Y68880D01*
X203280Y27940D02*
X213280D01*
X208280Y22940D02*
Y32940D01*
X180420Y63880D02*
X190420D01*
X185420Y58880D02*
Y68880D01*
X180420Y27940D02*
X190420D01*
X185420Y22940D02*
Y32940D01*
X157560Y63880D02*
X167560D01*
X162560Y58880D02*
Y68880D01*
X157560Y27940D02*
X167560D01*
X162560Y22940D02*
Y32940D01*
X134700Y63880D02*
X144700D01*
X139700Y58880D02*
Y68880D01*
X602950Y123880D02*
Y133880D01*
X597950Y128880D02*
X607950D01*
X134700Y27940D02*
X144700D01*
X139700Y22940D02*
Y32940D01*
M02*
