M48
;Layer_Color=9474304
;FILE_FORMAT=4:4
METRIC,LZ
;TYPE=PLATED
T01F00S00C0.3000
T02F00S00C0.8500
T03F00S00C1.2000
T04F00S00C1.4000
%
T01
X000254Y0002794
X000508
X000762
X001016
X00127
X001143Y0005334
X000889
X000635
X000381
X000508Y0007874
X000635Y0010414
X000381
X000254Y0012954
X000381Y0015494
X000508Y0018034
X000762
X001016
X00127
Y0012954
X001016
X000762
X000889Y0015494
Y0020574
X001016Y0023114
X000762
X000508
X000254
X000381Y0020574
X000254Y0018034
X001143Y0010414
X0010668Y0009144
X001016Y0007874
X00127
X001397Y0008509
X0016256
X0018542
X0016981Y0010376
X002159Y0010414
X0024765Y001143
X0024027Y0013478
Y0007538
X002413Y0005334
X00254Y0002794
X002794
X003048
X003302
X003556
X00381
X004064
X004318
X004572
X004826
X00508
X005334
X005207Y0005334
X004953
X004699
X004826Y0007874
X00508
X005334
X005207Y0010414
X004953
X004699
X004826Y0012827
X00508Y0012954
X005334
X0053594Y0011938
X005207Y0015494
Y0017399
X005334Y0018034
X00508
X004572Y001905
X004699Y0020574
Y0014478
X004572Y0012954
X004191Y0015494
X003937
X0038862Y001651
X00381Y0018034
X004064
X003556
X003302
X003048
X003175Y0020574
X003429
X003683
X003429Y0015494
X003175
X002921
X003048Y0012954
X003302
X003556
X0037084Y0012573
X00381Y0012954
X0038862Y001397
X003937Y0010414
X004191
X004064Y0007874
X00381
X003556
X003683Y0010414
Y0005334
X003937
X004191
X003429
X003175
X002921
X003048Y0007874
X003175Y0010414
X002921
Y0020574
X003048Y0023114
X002286
X002159Y0020574
X001905
X001651
X0015332Y0014928
X002286Y0002794
X005588
X005842
X006096
X00635
X0063932Y00044769
X006223Y0005334
X005969
X005715
X005461
X005588Y0007874
X005842
X006096
X006223Y0010414
X005969
X005715
X0057628Y0011938
X005842Y0012954
X005588
X005461Y0010414
X0057277Y0016472
X005842Y0018034
X0058674Y0019382
X00613925Y0018923
X0060295Y0017272
X005969Y0015494
X006477
Y0017272
X006604Y0018034
X006858
X007112
X007366
X00762
X007874
X008128
X008255Y0020574
X008001
X0079502Y0022352
X007747Y0020574
X007493
X0072744Y00215476
X0071994Y0022083
Y0024133
X0073573Y0023511
X0065786Y0024884
X0064091
X0064516Y00232965
Y0019558
X00613925Y00226768
X005681Y0021209
Y0024884
X005588Y0018034
X0062845Y0012888
X006604Y0012954
X006858
X006985Y0015494
X0071882Y0015621
X007493Y0015494
X007747
X007874Y0012954
X008128
X008255Y0015494
Y0010414
X008128Y0007874
X007874
X00762
X007366
X007112
X006858
X006604
X0067018Y000408
X006604Y0002794
X006858
X007112
X0071882Y0003302
X007366Y0002794
X00762
X007874
X008128
X008255Y0005334
X007747
X007493
X006985
X007366Y0012954
X00762
X006731Y0015494
X0082691Y0023114
X0083693Y0026797
X0080137
X008001Y0025654
X0077978Y0026797
X0072744Y0026631
X0069977Y0025761
X006731Y0025654
X0066929Y0026611
X0064091Y0025984
X0062405Y002667
X00613925
X005969Y0025654
X005715
X005461
X005207
X004953
X004699
X004445
X004191
X0038862Y0026162
X003683Y0025654
X003429
X003175
X002921
X002667
X0023622Y0026162
X002159Y0025654
X001143
X000889
X000635
X000381
T02
X004953Y0023622
X005207
X005461
T03
X0005588Y001651
Y002159
T04
X0079756Y000635
Y001143
Y001651
M30
